<?xml version="1.0" encoding="utf-8" standalone="no"?>
<!DOCTYPE svg PUBLIC "-//W3C//DTD SVG 1.1//EN"
  "http://www.w3.org/Graphics/SVG/1.1/DTD/svg11.dtd">
<!-- Created with matplotlib (https://matplotlib.org/) -->
<svg height="207.91875pt" version="1.1" viewBox="0 0 286.879375 207.91875" width="286.879375pt" xmlns="http://www.w3.org/2000/svg" xmlns:xlink="http://www.w3.org/1999/xlink">
 <defs>
  <style type="text/css">
*{stroke-linecap:butt;stroke-linejoin:round;}
  </style>
 </defs>
 <g id="figure_1">
  <g id="patch_1">
   <path d="M 0 207.91875 
L 286.879375 207.91875 
L 286.879375 -0 
L 0 -0 
z
" style="fill:#ffffff;"/>
  </g>
  <g id="axes_1">
   <g id="patch_2">
    <path d="M 60.179375 169.82 
L 283.379375 169.82 
L 283.379375 3.5 
L 60.179375 3.5 
z
" style="fill:#ffffff;"/>
   </g>
   <g id="patch_3">
    <path clip-path="url(#p9003aad13a)" d="M 70.32483 169.82 
L 74.83392 169.82 
L 74.83392 119.573191 
L 70.32483 119.573191 
z
" style="fill:#4575b4;"/>
   </g>
   <g id="patch_4">
    <path clip-path="url(#p9003aad13a)" d="M 74.83392 169.82 
L 79.343011 169.82 
L 79.343011 94.059845 
L 74.83392 94.059845 
z
" style="fill:#4575b4;"/>
   </g>
   <g id="patch_5">
    <path clip-path="url(#p9003aad13a)" d="M 79.343011 169.82 
L 83.852102 169.82 
L 83.852102 74.785571 
L 79.343011 74.785571 
z
" style="fill:#4575b4;"/>
   </g>
   <g id="patch_6">
    <path clip-path="url(#p9003aad13a)" d="M 83.852102 169.82 
L 88.361193 169.82 
L 88.361193 47.461779 
L 83.852102 47.461779 
z
" style="fill:#4575b4;"/>
   </g>
   <g id="patch_7">
    <path clip-path="url(#p9003aad13a)" d="M 88.361193 169.82 
L 92.870284 169.82 
L 92.870284 11.42 
L 88.361193 11.42 
z
" style="fill:#4575b4;"/>
   </g>
   <g id="patch_8">
    <path clip-path="url(#p9003aad13a)" d="M 92.870284 169.82 
L 97.379375 169.82 
L 97.379375 25.987118 
L 92.870284 25.987118 
z
" style="fill:#4575b4;"/>
   </g>
   <g id="patch_9">
    <path clip-path="url(#p9003aad13a)" d="M 97.379375 169.82 
L 101.888466 169.82 
L 101.888466 71.693888 
L 97.379375 71.693888 
z
" style="fill:#4575b4;"/>
   </g>
   <g id="patch_10">
    <path clip-path="url(#p9003aad13a)" d="M 101.888466 169.82 
L 106.397557 169.82 
L 106.397557 47.378221 
L 101.888466 47.378221 
z
" style="fill:#4575b4;"/>
   </g>
   <g id="patch_11">
    <path clip-path="url(#p9003aad13a)" d="M 106.397557 169.82 
L 110.906648 169.82 
L 110.906648 91.859458 
L 106.397557 91.859458 
z
" style="fill:#4575b4;"/>
   </g>
   <g id="patch_12">
    <path clip-path="url(#p9003aad13a)" d="M 110.906648 169.82 
L 115.415739 169.82 
L 115.415739 92.583636 
L 110.906648 92.583636 
z
" style="fill:#4575b4;"/>
   </g>
   <g id="patch_13">
    <path clip-path="url(#p9003aad13a)" d="M 115.415739 169.82 
L 119.92483 169.82 
L 119.92483 131.577834 
L 115.415739 131.577834 
z
" style="fill:#4575b4;"/>
   </g>
   <g id="patch_14">
    <path clip-path="url(#p9003aad13a)" d="M 119.92483 169.82 
L 124.43392 169.82 
L 124.43392 121.188665 
L 119.92483 121.188665 
z
" style="fill:#4575b4;"/>
   </g>
   <g id="patch_15">
    <path clip-path="url(#p9003aad13a)" d="M 124.43392 169.82 
L 128.943011 169.82 
L 128.943011 132.274159 
L 124.43392 132.274159 
z
" style="fill:#4575b4;"/>
   </g>
   <g id="patch_16">
    <path clip-path="url(#p9003aad13a)" d="M 128.943011 169.82 
L 133.452102 169.82 
L 133.452102 132.552689 
L 128.943011 132.552689 
z
" style="fill:#4575b4;"/>
   </g>
   <g id="patch_17">
    <path clip-path="url(#p9003aad13a)" d="M 133.452102 169.82 
L 137.961193 169.82 
L 137.961193 146.924836 
L 133.452102 146.924836 
z
" style="fill:#4575b4;"/>
   </g>
   <g id="patch_18">
    <path clip-path="url(#p9003aad13a)" d="M 137.961193 169.82 
L 142.470284 169.82 
L 142.470284 144.808008 
L 137.961193 144.808008 
z
" style="fill:#4575b4;"/>
   </g>
   <g id="patch_19">
    <path clip-path="url(#p9003aad13a)" d="M 142.470284 169.82 
L 146.979375 169.82 
L 146.979375 151.687698 
L 142.470284 151.687698 
z
" style="fill:#4575b4;"/>
   </g>
   <g id="patch_20">
    <path clip-path="url(#p9003aad13a)" d="M 146.979375 169.82 
L 151.488466 169.82 
L 151.488466 148.066809 
L 146.979375 148.066809 
z
" style="fill:#4575b4;"/>
   </g>
   <g id="patch_21">
    <path clip-path="url(#p9003aad13a)" d="M 151.488466 169.82 
L 155.997557 169.82 
L 155.997557 155.837795 
L 151.488466 155.837795 
z
" style="fill:#4575b4;"/>
   </g>
   <g id="patch_22">
    <path clip-path="url(#p9003aad13a)" d="M 155.997557 169.82 
L 160.506648 169.82 
L 160.506648 155.97706 
L 155.997557 155.97706 
z
" style="fill:#4575b4;"/>
   </g>
   <g id="patch_23">
    <path clip-path="url(#p9003aad13a)" d="M 160.506648 169.82 
L 165.015739 169.82 
L 165.015739 163.302398 
L 160.506648 163.302398 
z
" style="fill:#4575b4;"/>
   </g>
   <g id="patch_24">
    <path clip-path="url(#p9003aad13a)" d="M 165.015739 169.82 
L 169.52483 169.82 
L 169.52483 160.962747 
L 165.015739 160.962747 
z
" style="fill:#4575b4;"/>
   </g>
   <g id="patch_25">
    <path clip-path="url(#p9003aad13a)" d="M 169.52483 169.82 
L 174.03392 169.82 
L 174.03392 164.444371 
L 169.52483 164.444371 
z
" style="fill:#4575b4;"/>
   </g>
   <g id="patch_26">
    <path clip-path="url(#p9003aad13a)" d="M 174.03392 169.82 
L 178.543011 169.82 
L 178.543011 164.639342 
L 174.03392 164.639342 
z
" style="fill:#4575b4;"/>
   </g>
   <g id="patch_27">
    <path clip-path="url(#p9003aad13a)" d="M 178.543011 169.82 
L 183.052102 169.82 
L 183.052102 167.173965 
L 178.543011 167.173965 
z
" style="fill:#4575b4;"/>
   </g>
   <g id="patch_28">
    <path clip-path="url(#p9003aad13a)" d="M 183.052102 169.82 
L 187.561193 169.82 
L 187.561193 162.801044 
L 183.052102 162.801044 
z
" style="fill:#4575b4;"/>
   </g>
   <g id="patch_29">
    <path clip-path="url(#p9003aad13a)" d="M 187.561193 169.82 
L 192.070284 169.82 
L 192.070284 168.009555 
L 187.561193 168.009555 
z
" style="fill:#4575b4;"/>
   </g>
   <g id="patch_30">
    <path clip-path="url(#p9003aad13a)" d="M 192.070284 169.82 
L 196.579375 169.82 
L 196.579375 167.173965 
L 192.070284 167.173965 
z
" style="fill:#4575b4;"/>
   </g>
   <g id="patch_31">
    <path clip-path="url(#p9003aad13a)" d="M 196.579375 169.82 
L 201.088466 169.82 
L 201.088466 168.037408 
L 196.579375 168.037408 
z
" style="fill:#4575b4;"/>
   </g>
   <g id="patch_32">
    <path clip-path="url(#p9003aad13a)" d="M 201.088466 169.82 
L 205.597557 169.82 
L 205.597557 166.895435 
L 201.088466 166.895435 
z
" style="fill:#4575b4;"/>
   </g>
   <g id="patch_33">
    <path clip-path="url(#p9003aad13a)" d="M 205.597557 169.82 
L 210.106648 169.82 
L 210.106648 168.872998 
L 205.597557 168.872998 
z
" style="fill:#4575b4;"/>
   </g>
   <g id="patch_34">
    <path clip-path="url(#p9003aad13a)" d="M 210.106648 169.82 
L 214.615739 169.82 
L 214.615739 167.981702 
L 210.106648 167.981702 
z
" style="fill:#4575b4;"/>
   </g>
   <g id="patch_35">
    <path clip-path="url(#p9003aad13a)" d="M 214.615739 169.82 
L 219.12483 169.82 
L 219.12483 169.318646 
L 214.615739 169.318646 
z
" style="fill:#4575b4;"/>
   </g>
   <g id="patch_36">
    <path clip-path="url(#p9003aad13a)" d="M 219.12483 169.82 
L 223.63392 169.82 
L 223.63392 166.254816 
L 219.12483 166.254816 
z
" style="fill:#4575b4;"/>
   </g>
   <g id="patch_37">
    <path clip-path="url(#p9003aad13a)" d="M 223.63392 169.82 
L 228.143011 169.82 
L 228.143011 169.402205 
L 223.63392 169.402205 
z
" style="fill:#4575b4;"/>
   </g>
   <g id="patch_38">
    <path clip-path="url(#p9003aad13a)" d="M 228.143011 169.82 
L 232.652102 169.82 
L 232.652102 168.98441 
L 228.143011 168.98441 
z
" style="fill:#4575b4;"/>
   </g>
   <g id="patch_39">
    <path clip-path="url(#p9003aad13a)" d="M 232.652102 169.82 
L 237.161193 169.82 
L 237.161193 169.095822 
L 232.652102 169.095822 
z
" style="fill:#4575b4;"/>
   </g>
   <g id="patch_40">
    <path clip-path="url(#p9003aad13a)" d="M 237.161193 169.82 
L 241.670284 169.82 
L 241.670284 167.731025 
L 237.161193 167.731025 
z
" style="fill:#4575b4;"/>
   </g>
   <g id="patch_41">
    <path clip-path="url(#p9003aad13a)" d="M 241.670284 169.82 
L 246.179375 169.82 
L 246.179375 169.346499 
L 241.670284 169.346499 
z
" style="fill:#4575b4;"/>
   </g>
   <g id="patch_42">
    <path clip-path="url(#p9003aad13a)" d="M 246.179375 169.82 
L 250.688466 169.82 
L 250.688466 168.761586 
L 246.179375 168.761586 
z
" style="fill:#4575b4;"/>
   </g>
   <g id="patch_43">
    <path clip-path="url(#p9003aad13a)" d="M 250.688466 169.82 
L 255.197557 169.82 
L 255.197557 168.98441 
L 250.688466 168.98441 
z
" style="fill:#4575b4;"/>
   </g>
   <g id="patch_44">
    <path clip-path="url(#p9003aad13a)" d="M 255.197557 169.82 
L 259.706648 169.82 
L 259.706648 168.120967 
L 255.197557 168.120967 
z
" style="fill:#4575b4;"/>
   </g>
   <g id="patch_45">
    <path clip-path="url(#p9003aad13a)" d="M 259.706648 169.82 
L 264.215739 169.82 
L 264.215739 169.485764 
L 259.706648 169.485764 
z
" style="fill:#4575b4;"/>
   </g>
   <g id="patch_46">
    <path clip-path="url(#p9003aad13a)" d="M 264.215739 169.82 
L 268.72483 169.82 
L 268.72483 168.42735 
L 264.215739 168.42735 
z
" style="fill:#4575b4;"/>
   </g>
   <g id="patch_47">
    <path clip-path="url(#p9003aad13a)" d="M 268.72483 169.82 
L 273.23392 169.82 
L 273.23392 155.392147 
L 268.72483 155.392147 
z
" style="fill:#4575b4;"/>
   </g>
   <g id="matplotlib.axis_1">
    <g id="xtick_1">
     <g id="line2d_1">
      <defs>
       <path d="M 0 0 
L 0 3.5 
" id="m1ba47f29fd" style="stroke:#000000;stroke-width:0.8;"/>
      </defs>
      <g>
       <use style="stroke:#000000;stroke-width:0.8;" x="132.385961" xlink:href="#m1ba47f29fd" y="169.82"/>
      </g>
     </g>
     <g id="text_1">
      <!-- 5000 -->
      <defs>
       <path d="M 10.796875 72.90625 
L 49.515625 72.90625 
L 49.515625 64.59375 
L 19.828125 64.59375 
L 19.828125 46.734375 
Q 21.96875 47.46875 24.109375 47.828125 
Q 26.265625 48.1875 28.421875 48.1875 
Q 40.625 48.1875 47.75 41.5 
Q 54.890625 34.8125 54.890625 23.390625 
Q 54.890625 11.625 47.5625 5.09375 
Q 40.234375 -1.421875 26.90625 -1.421875 
Q 22.3125 -1.421875 17.546875 -0.640625 
Q 12.796875 0.140625 7.71875 1.703125 
L 7.71875 11.625 
Q 12.109375 9.234375 16.796875 8.0625 
Q 21.484375 6.890625 26.703125 6.890625 
Q 35.15625 6.890625 40.078125 11.328125 
Q 45.015625 15.765625 45.015625 23.390625 
Q 45.015625 31 40.078125 35.4375 
Q 35.15625 39.890625 26.703125 39.890625 
Q 22.75 39.890625 18.8125 39.015625 
Q 14.890625 38.140625 10.796875 36.28125 
z
" id="DejaVuSans-53"/>
       <path d="M 31.78125 66.40625 
Q 24.171875 66.40625 20.328125 58.90625 
Q 16.5 51.421875 16.5 36.375 
Q 16.5 21.390625 20.328125 13.890625 
Q 24.171875 6.390625 31.78125 6.390625 
Q 39.453125 6.390625 43.28125 13.890625 
Q 47.125 21.390625 47.125 36.375 
Q 47.125 51.421875 43.28125 58.90625 
Q 39.453125 66.40625 31.78125 66.40625 
z
M 31.78125 74.21875 
Q 44.046875 74.21875 50.515625 64.515625 
Q 56.984375 54.828125 56.984375 36.375 
Q 56.984375 17.96875 50.515625 8.265625 
Q 44.046875 -1.421875 31.78125 -1.421875 
Q 19.53125 -1.421875 13.0625 8.265625 
Q 6.59375 17.96875 6.59375 36.375 
Q 6.59375 54.828125 13.0625 64.515625 
Q 19.53125 74.21875 31.78125 74.21875 
z
" id="DejaVuSans-48"/>
      </defs>
      <g transform="translate(114.570961 187.457813)scale(0.14 -0.14)">
       <use xlink:href="#DejaVuSans-53"/>
       <use x="63.623047" xlink:href="#DejaVuSans-48"/>
       <use x="127.246094" xlink:href="#DejaVuSans-48"/>
       <use x="190.869141" xlink:href="#DejaVuSans-48"/>
      </g>
     </g>
    </g>
    <g id="xtick_2">
     <g id="line2d_2">
      <g>
       <use style="stroke:#000000;stroke-width:0.8;" x="220.415936" xlink:href="#m1ba47f29fd" y="169.82"/>
      </g>
     </g>
     <g id="text_2">
      <!-- 10000 -->
      <defs>
       <path d="M 12.40625 8.296875 
L 28.515625 8.296875 
L 28.515625 63.921875 
L 10.984375 60.40625 
L 10.984375 69.390625 
L 28.421875 72.90625 
L 38.28125 72.90625 
L 38.28125 8.296875 
L 54.390625 8.296875 
L 54.390625 0 
L 12.40625 0 
z
" id="DejaVuSans-49"/>
      </defs>
      <g transform="translate(198.147186 187.457813)scale(0.14 -0.14)">
       <use xlink:href="#DejaVuSans-49"/>
       <use x="63.623047" xlink:href="#DejaVuSans-48"/>
       <use x="127.246094" xlink:href="#DejaVuSans-48"/>
       <use x="190.869141" xlink:href="#DejaVuSans-48"/>
       <use x="254.492188" xlink:href="#DejaVuSans-48"/>
      </g>
     </g>
    </g>
    <g id="text_3">
     <!-- Prices in middle 98% range -->
     <defs>
      <path d="M 19.671875 64.796875 
L 19.671875 37.40625 
L 32.078125 37.40625 
Q 38.96875 37.40625 42.71875 40.96875 
Q 46.484375 44.53125 46.484375 51.125 
Q 46.484375 57.671875 42.71875 61.234375 
Q 38.96875 64.796875 32.078125 64.796875 
z
M 9.8125 72.90625 
L 32.078125 72.90625 
Q 44.34375 72.90625 50.609375 67.359375 
Q 56.890625 61.8125 56.890625 51.125 
Q 56.890625 40.328125 50.609375 34.8125 
Q 44.34375 29.296875 32.078125 29.296875 
L 19.671875 29.296875 
L 19.671875 0 
L 9.8125 0 
z
" id="DejaVuSans-80"/>
      <path d="M 41.109375 46.296875 
Q 39.59375 47.171875 37.8125 47.578125 
Q 36.03125 48 33.890625 48 
Q 26.265625 48 22.1875 43.046875 
Q 18.109375 38.09375 18.109375 28.8125 
L 18.109375 0 
L 9.078125 0 
L 9.078125 54.6875 
L 18.109375 54.6875 
L 18.109375 46.1875 
Q 20.953125 51.171875 25.484375 53.578125 
Q 30.03125 56 36.53125 56 
Q 37.453125 56 38.578125 55.875 
Q 39.703125 55.765625 41.0625 55.515625 
z
" id="DejaVuSans-114"/>
      <path d="M 9.421875 54.6875 
L 18.40625 54.6875 
L 18.40625 0 
L 9.421875 0 
z
M 9.421875 75.984375 
L 18.40625 75.984375 
L 18.40625 64.59375 
L 9.421875 64.59375 
z
" id="DejaVuSans-105"/>
      <path d="M 48.78125 52.59375 
L 48.78125 44.1875 
Q 44.96875 46.296875 41.140625 47.34375 
Q 37.3125 48.390625 33.40625 48.390625 
Q 24.65625 48.390625 19.8125 42.84375 
Q 14.984375 37.3125 14.984375 27.296875 
Q 14.984375 17.28125 19.8125 11.734375 
Q 24.65625 6.203125 33.40625 6.203125 
Q 37.3125 6.203125 41.140625 7.25 
Q 44.96875 8.296875 48.78125 10.40625 
L 48.78125 2.09375 
Q 45.015625 0.34375 40.984375 -0.53125 
Q 36.96875 -1.421875 32.421875 -1.421875 
Q 20.0625 -1.421875 12.78125 6.34375 
Q 5.515625 14.109375 5.515625 27.296875 
Q 5.515625 40.671875 12.859375 48.328125 
Q 20.21875 56 33.015625 56 
Q 37.15625 56 41.109375 55.140625 
Q 45.0625 54.296875 48.78125 52.59375 
z
" id="DejaVuSans-99"/>
      <path d="M 56.203125 29.59375 
L 56.203125 25.203125 
L 14.890625 25.203125 
Q 15.484375 15.921875 20.484375 11.0625 
Q 25.484375 6.203125 34.421875 6.203125 
Q 39.59375 6.203125 44.453125 7.46875 
Q 49.3125 8.734375 54.109375 11.28125 
L 54.109375 2.78125 
Q 49.265625 0.734375 44.1875 -0.34375 
Q 39.109375 -1.421875 33.890625 -1.421875 
Q 20.796875 -1.421875 13.15625 6.1875 
Q 5.515625 13.8125 5.515625 26.8125 
Q 5.515625 40.234375 12.765625 48.109375 
Q 20.015625 56 32.328125 56 
Q 43.359375 56 49.78125 48.890625 
Q 56.203125 41.796875 56.203125 29.59375 
z
M 47.21875 32.234375 
Q 47.125 39.59375 43.09375 43.984375 
Q 39.0625 48.390625 32.421875 48.390625 
Q 24.90625 48.390625 20.390625 44.140625 
Q 15.875 39.890625 15.1875 32.171875 
z
" id="DejaVuSans-101"/>
      <path d="M 44.28125 53.078125 
L 44.28125 44.578125 
Q 40.484375 46.53125 36.375 47.5 
Q 32.28125 48.484375 27.875 48.484375 
Q 21.1875 48.484375 17.84375 46.4375 
Q 14.5 44.390625 14.5 40.28125 
Q 14.5 37.15625 16.890625 35.375 
Q 19.28125 33.59375 26.515625 31.984375 
L 29.59375 31.296875 
Q 39.15625 29.25 43.1875 25.515625 
Q 47.21875 21.78125 47.21875 15.09375 
Q 47.21875 7.46875 41.1875 3.015625 
Q 35.15625 -1.421875 24.609375 -1.421875 
Q 20.21875 -1.421875 15.453125 -0.5625 
Q 10.6875 0.296875 5.421875 2 
L 5.421875 11.28125 
Q 10.40625 8.6875 15.234375 7.390625 
Q 20.0625 6.109375 24.8125 6.109375 
Q 31.15625 6.109375 34.5625 8.28125 
Q 37.984375 10.453125 37.984375 14.40625 
Q 37.984375 18.0625 35.515625 20.015625 
Q 33.0625 21.96875 24.703125 23.78125 
L 21.578125 24.515625 
Q 13.234375 26.265625 9.515625 29.90625 
Q 5.8125 33.546875 5.8125 39.890625 
Q 5.8125 47.609375 11.28125 51.796875 
Q 16.75 56 26.8125 56 
Q 31.78125 56 36.171875 55.265625 
Q 40.578125 54.546875 44.28125 53.078125 
z
" id="DejaVuSans-115"/>
      <path id="DejaVuSans-32"/>
      <path d="M 54.890625 33.015625 
L 54.890625 0 
L 45.90625 0 
L 45.90625 32.71875 
Q 45.90625 40.484375 42.875 44.328125 
Q 39.84375 48.1875 33.796875 48.1875 
Q 26.515625 48.1875 22.3125 43.546875 
Q 18.109375 38.921875 18.109375 30.90625 
L 18.109375 0 
L 9.078125 0 
L 9.078125 54.6875 
L 18.109375 54.6875 
L 18.109375 46.1875 
Q 21.34375 51.125 25.703125 53.5625 
Q 30.078125 56 35.796875 56 
Q 45.21875 56 50.046875 50.171875 
Q 54.890625 44.34375 54.890625 33.015625 
z
" id="DejaVuSans-110"/>
      <path d="M 52 44.1875 
Q 55.375 50.25 60.0625 53.125 
Q 64.75 56 71.09375 56 
Q 79.640625 56 84.28125 50.015625 
Q 88.921875 44.046875 88.921875 33.015625 
L 88.921875 0 
L 79.890625 0 
L 79.890625 32.71875 
Q 79.890625 40.578125 77.09375 44.375 
Q 74.3125 48.1875 68.609375 48.1875 
Q 61.625 48.1875 57.5625 43.546875 
Q 53.515625 38.921875 53.515625 30.90625 
L 53.515625 0 
L 44.484375 0 
L 44.484375 32.71875 
Q 44.484375 40.625 41.703125 44.40625 
Q 38.921875 48.1875 33.109375 48.1875 
Q 26.21875 48.1875 22.15625 43.53125 
Q 18.109375 38.875 18.109375 30.90625 
L 18.109375 0 
L 9.078125 0 
L 9.078125 54.6875 
L 18.109375 54.6875 
L 18.109375 46.1875 
Q 21.1875 51.21875 25.484375 53.609375 
Q 29.78125 56 35.6875 56 
Q 41.65625 56 45.828125 52.96875 
Q 50 49.953125 52 44.1875 
z
" id="DejaVuSans-109"/>
      <path d="M 45.40625 46.390625 
L 45.40625 75.984375 
L 54.390625 75.984375 
L 54.390625 0 
L 45.40625 0 
L 45.40625 8.203125 
Q 42.578125 3.328125 38.25 0.953125 
Q 33.9375 -1.421875 27.875 -1.421875 
Q 17.96875 -1.421875 11.734375 6.484375 
Q 5.515625 14.40625 5.515625 27.296875 
Q 5.515625 40.1875 11.734375 48.09375 
Q 17.96875 56 27.875 56 
Q 33.9375 56 38.25 53.625 
Q 42.578125 51.265625 45.40625 46.390625 
z
M 14.796875 27.296875 
Q 14.796875 17.390625 18.875 11.75 
Q 22.953125 6.109375 30.078125 6.109375 
Q 37.203125 6.109375 41.296875 11.75 
Q 45.40625 17.390625 45.40625 27.296875 
Q 45.40625 37.203125 41.296875 42.84375 
Q 37.203125 48.484375 30.078125 48.484375 
Q 22.953125 48.484375 18.875 42.84375 
Q 14.796875 37.203125 14.796875 27.296875 
z
" id="DejaVuSans-100"/>
      <path d="M 9.421875 75.984375 
L 18.40625 75.984375 
L 18.40625 0 
L 9.421875 0 
z
" id="DejaVuSans-108"/>
      <path d="M 10.984375 1.515625 
L 10.984375 10.5 
Q 14.703125 8.734375 18.5 7.8125 
Q 22.3125 6.890625 25.984375 6.890625 
Q 35.75 6.890625 40.890625 13.453125 
Q 46.046875 20.015625 46.78125 33.40625 
Q 43.953125 29.203125 39.59375 26.953125 
Q 35.25 24.703125 29.984375 24.703125 
Q 19.046875 24.703125 12.671875 31.3125 
Q 6.296875 37.9375 6.296875 49.421875 
Q 6.296875 60.640625 12.9375 67.421875 
Q 19.578125 74.21875 30.609375 74.21875 
Q 43.265625 74.21875 49.921875 64.515625 
Q 56.59375 54.828125 56.59375 36.375 
Q 56.59375 19.140625 48.40625 8.859375 
Q 40.234375 -1.421875 26.421875 -1.421875 
Q 22.703125 -1.421875 18.890625 -0.6875 
Q 15.09375 0.046875 10.984375 1.515625 
z
M 30.609375 32.421875 
Q 37.25 32.421875 41.125 36.953125 
Q 45.015625 41.5 45.015625 49.421875 
Q 45.015625 57.28125 41.125 61.84375 
Q 37.25 66.40625 30.609375 66.40625 
Q 23.96875 66.40625 20.09375 61.84375 
Q 16.21875 57.28125 16.21875 49.421875 
Q 16.21875 41.5 20.09375 36.953125 
Q 23.96875 32.421875 30.609375 32.421875 
z
" id="DejaVuSans-57"/>
      <path d="M 31.78125 34.625 
Q 24.75 34.625 20.71875 30.859375 
Q 16.703125 27.09375 16.703125 20.515625 
Q 16.703125 13.921875 20.71875 10.15625 
Q 24.75 6.390625 31.78125 6.390625 
Q 38.8125 6.390625 42.859375 10.171875 
Q 46.921875 13.96875 46.921875 20.515625 
Q 46.921875 27.09375 42.890625 30.859375 
Q 38.875 34.625 31.78125 34.625 
z
M 21.921875 38.8125 
Q 15.578125 40.375 12.03125 44.71875 
Q 8.5 49.078125 8.5 55.328125 
Q 8.5 64.0625 14.71875 69.140625 
Q 20.953125 74.21875 31.78125 74.21875 
Q 42.671875 74.21875 48.875 69.140625 
Q 55.078125 64.0625 55.078125 55.328125 
Q 55.078125 49.078125 51.53125 44.71875 
Q 48 40.375 41.703125 38.8125 
Q 48.828125 37.15625 52.796875 32.3125 
Q 56.78125 27.484375 56.78125 20.515625 
Q 56.78125 9.90625 50.3125 4.234375 
Q 43.84375 -1.421875 31.78125 -1.421875 
Q 19.734375 -1.421875 13.25 4.234375 
Q 6.78125 9.90625 6.78125 20.515625 
Q 6.78125 27.484375 10.78125 32.3125 
Q 14.796875 37.15625 21.921875 38.8125 
z
M 18.3125 54.390625 
Q 18.3125 48.734375 21.84375 45.5625 
Q 25.390625 42.390625 31.78125 42.390625 
Q 38.140625 42.390625 41.71875 45.5625 
Q 45.3125 48.734375 45.3125 54.390625 
Q 45.3125 60.0625 41.71875 63.234375 
Q 38.140625 66.40625 31.78125 66.40625 
Q 25.390625 66.40625 21.84375 63.234375 
Q 18.3125 60.0625 18.3125 54.390625 
z
" id="DejaVuSans-56"/>
      <path d="M 72.703125 32.078125 
Q 68.453125 32.078125 66.03125 28.46875 
Q 63.625 24.859375 63.625 18.40625 
Q 63.625 12.0625 66.03125 8.421875 
Q 68.453125 4.78125 72.703125 4.78125 
Q 76.859375 4.78125 79.265625 8.421875 
Q 81.6875 12.0625 81.6875 18.40625 
Q 81.6875 24.8125 79.265625 28.4375 
Q 76.859375 32.078125 72.703125 32.078125 
z
M 72.703125 38.28125 
Q 80.421875 38.28125 84.953125 32.90625 
Q 89.5 27.546875 89.5 18.40625 
Q 89.5 9.28125 84.9375 3.921875 
Q 80.375 -1.421875 72.703125 -1.421875 
Q 64.890625 -1.421875 60.34375 3.921875 
Q 55.8125 9.28125 55.8125 18.40625 
Q 55.8125 27.59375 60.375 32.9375 
Q 64.9375 38.28125 72.703125 38.28125 
z
M 22.3125 68.015625 
Q 18.109375 68.015625 15.6875 64.375 
Q 13.28125 60.75 13.28125 54.390625 
Q 13.28125 47.953125 15.671875 44.328125 
Q 18.0625 40.71875 22.3125 40.71875 
Q 26.5625 40.71875 28.96875 44.328125 
Q 31.390625 47.953125 31.390625 54.390625 
Q 31.390625 60.6875 28.953125 64.34375 
Q 26.515625 68.015625 22.3125 68.015625 
z
M 66.40625 74.21875 
L 74.21875 74.21875 
L 28.609375 -1.421875 
L 20.796875 -1.421875 
z
M 22.3125 74.21875 
Q 30.03125 74.21875 34.609375 68.875 
Q 39.203125 63.53125 39.203125 54.390625 
Q 39.203125 45.171875 34.640625 39.84375 
Q 30.078125 34.515625 22.3125 34.515625 
Q 14.546875 34.515625 10.03125 39.859375 
Q 5.515625 45.21875 5.515625 54.390625 
Q 5.515625 63.484375 10.046875 68.84375 
Q 14.59375 74.21875 22.3125 74.21875 
z
" id="DejaVuSans-37"/>
      <path d="M 34.28125 27.484375 
Q 23.390625 27.484375 19.1875 25 
Q 14.984375 22.515625 14.984375 16.5 
Q 14.984375 11.71875 18.140625 8.90625 
Q 21.296875 6.109375 26.703125 6.109375 
Q 34.1875 6.109375 38.703125 11.40625 
Q 43.21875 16.703125 43.21875 25.484375 
L 43.21875 27.484375 
z
M 52.203125 31.203125 
L 52.203125 0 
L 43.21875 0 
L 43.21875 8.296875 
Q 40.140625 3.328125 35.546875 0.953125 
Q 30.953125 -1.421875 24.3125 -1.421875 
Q 15.921875 -1.421875 10.953125 3.296875 
Q 6 8.015625 6 15.921875 
Q 6 25.140625 12.171875 29.828125 
Q 18.359375 34.515625 30.609375 34.515625 
L 43.21875 34.515625 
L 43.21875 35.40625 
Q 43.21875 41.609375 39.140625 45 
Q 35.0625 48.390625 27.6875 48.390625 
Q 23 48.390625 18.546875 47.265625 
Q 14.109375 46.140625 10.015625 43.890625 
L 10.015625 52.203125 
Q 14.9375 54.109375 19.578125 55.046875 
Q 24.21875 56 28.609375 56 
Q 40.484375 56 46.34375 49.84375 
Q 52.203125 43.703125 52.203125 31.203125 
z
" id="DejaVuSans-97"/>
      <path d="M 45.40625 27.984375 
Q 45.40625 37.75 41.375 43.109375 
Q 37.359375 48.484375 30.078125 48.484375 
Q 22.859375 48.484375 18.828125 43.109375 
Q 14.796875 37.75 14.796875 27.984375 
Q 14.796875 18.265625 18.828125 12.890625 
Q 22.859375 7.515625 30.078125 7.515625 
Q 37.359375 7.515625 41.375 12.890625 
Q 45.40625 18.265625 45.40625 27.984375 
z
M 54.390625 6.78125 
Q 54.390625 -7.171875 48.1875 -13.984375 
Q 42 -20.796875 29.203125 -20.796875 
Q 24.46875 -20.796875 20.265625 -20.09375 
Q 16.0625 -19.390625 12.109375 -17.921875 
L 12.109375 -9.1875 
Q 16.0625 -11.328125 19.921875 -12.34375 
Q 23.78125 -13.375 27.78125 -13.375 
Q 36.625 -13.375 41.015625 -8.765625 
Q 45.40625 -4.15625 45.40625 5.171875 
L 45.40625 9.625 
Q 42.625 4.78125 38.28125 2.390625 
Q 33.9375 0 27.875 0 
Q 17.828125 0 11.671875 7.65625 
Q 5.515625 15.328125 5.515625 27.984375 
Q 5.515625 40.671875 11.671875 48.328125 
Q 17.828125 56 27.875 56 
Q 33.9375 56 38.28125 53.609375 
Q 42.625 51.21875 45.40625 46.390625 
L 45.40625 54.6875 
L 54.390625 54.6875 
z
" id="DejaVuSans-103"/>
     </defs>
     <g transform="translate(75.838906 205.007188)scale(0.14 -0.14)">
      <use xlink:href="#DejaVuSans-80"/>
      <use x="60.287109" xlink:href="#DejaVuSans-114"/>
      <use x="101.400391" xlink:href="#DejaVuSans-105"/>
      <use x="129.183594" xlink:href="#DejaVuSans-99"/>
      <use x="184.164062" xlink:href="#DejaVuSans-101"/>
      <use x="245.6875" xlink:href="#DejaVuSans-115"/>
      <use x="297.787109" xlink:href="#DejaVuSans-32"/>
      <use x="329.574219" xlink:href="#DejaVuSans-105"/>
      <use x="357.357422" xlink:href="#DejaVuSans-110"/>
      <use x="420.736328" xlink:href="#DejaVuSans-32"/>
      <use x="452.523438" xlink:href="#DejaVuSans-109"/>
      <use x="549.935547" xlink:href="#DejaVuSans-105"/>
      <use x="577.71875" xlink:href="#DejaVuSans-100"/>
      <use x="641.195312" xlink:href="#DejaVuSans-100"/>
      <use x="704.671875" xlink:href="#DejaVuSans-108"/>
      <use x="732.455078" xlink:href="#DejaVuSans-101"/>
      <use x="793.978516" xlink:href="#DejaVuSans-32"/>
      <use x="825.765625" xlink:href="#DejaVuSans-57"/>
      <use x="889.388672" xlink:href="#DejaVuSans-56"/>
      <use x="953.011719" xlink:href="#DejaVuSans-37"/>
      <use x="1048.03125" xlink:href="#DejaVuSans-32"/>
      <use x="1079.818359" xlink:href="#DejaVuSans-114"/>
      <use x="1120.931641" xlink:href="#DejaVuSans-97"/>
      <use x="1182.210938" xlink:href="#DejaVuSans-110"/>
      <use x="1245.589844" xlink:href="#DejaVuSans-103"/>
      <use x="1309.066406" xlink:href="#DejaVuSans-101"/>
     </g>
    </g>
   </g>
   <g id="matplotlib.axis_2">
    <g id="ytick_1">
     <g id="line2d_3">
      <defs>
       <path d="M 0 0 
L -3.5 0 
" id="ma12ab921b3" style="stroke:#000000;stroke-width:0.8;"/>
      </defs>
      <g>
       <use style="stroke:#000000;stroke-width:0.8;" x="60.179375" xlink:href="#ma12ab921b3" y="169.82"/>
      </g>
     </g>
     <g id="text_4">
      <!-- 0 -->
      <g transform="translate(44.271875 175.138906)scale(0.14 -0.14)">
       <use xlink:href="#DejaVuSans-48"/>
      </g>
     </g>
    </g>
    <g id="ytick_2">
     <g id="line2d_4">
      <g>
       <use style="stroke:#000000;stroke-width:0.8;" x="60.179375" xlink:href="#ma12ab921b3" y="114.114004"/>
      </g>
     </g>
     <g id="text_5">
      <!-- 2000 -->
      <defs>
       <path d="M 19.1875 8.296875 
L 53.609375 8.296875 
L 53.609375 0 
L 7.328125 0 
L 7.328125 8.296875 
Q 12.9375 14.109375 22.625 23.890625 
Q 32.328125 33.6875 34.8125 36.53125 
Q 39.546875 41.84375 41.421875 45.53125 
Q 43.3125 49.21875 43.3125 52.78125 
Q 43.3125 58.59375 39.234375 62.25 
Q 35.15625 65.921875 28.609375 65.921875 
Q 23.96875 65.921875 18.8125 64.3125 
Q 13.671875 62.703125 7.8125 59.421875 
L 7.8125 69.390625 
Q 13.765625 71.78125 18.9375 73 
Q 24.125 74.21875 28.421875 74.21875 
Q 39.75 74.21875 46.484375 68.546875 
Q 53.21875 62.890625 53.21875 53.421875 
Q 53.21875 48.921875 51.53125 44.890625 
Q 49.859375 40.875 45.40625 35.40625 
Q 44.1875 33.984375 37.640625 27.21875 
Q 31.109375 20.453125 19.1875 8.296875 
z
" id="DejaVuSans-50"/>
      </defs>
      <g transform="translate(17.549375 119.43291)scale(0.14 -0.14)">
       <use xlink:href="#DejaVuSans-50"/>
       <use x="63.623047" xlink:href="#DejaVuSans-48"/>
       <use x="127.246094" xlink:href="#DejaVuSans-48"/>
       <use x="190.869141" xlink:href="#DejaVuSans-48"/>
      </g>
     </g>
    </g>
    <g id="ytick_3">
     <g id="line2d_5">
      <g>
       <use style="stroke:#000000;stroke-width:0.8;" x="60.179375" xlink:href="#ma12ab921b3" y="58.408008"/>
      </g>
     </g>
     <g id="text_6">
      <!-- 4000 -->
      <defs>
       <path d="M 37.796875 64.3125 
L 12.890625 25.390625 
L 37.796875 25.390625 
z
M 35.203125 72.90625 
L 47.609375 72.90625 
L 47.609375 25.390625 
L 58.015625 25.390625 
L 58.015625 17.1875 
L 47.609375 17.1875 
L 47.609375 0 
L 37.796875 0 
L 37.796875 17.1875 
L 4.890625 17.1875 
L 4.890625 26.703125 
z
" id="DejaVuSans-52"/>
      </defs>
      <g transform="translate(17.549375 63.726914)scale(0.14 -0.14)">
       <use xlink:href="#DejaVuSans-52"/>
       <use x="63.623047" xlink:href="#DejaVuSans-48"/>
       <use x="127.246094" xlink:href="#DejaVuSans-48"/>
       <use x="190.869141" xlink:href="#DejaVuSans-48"/>
      </g>
     </g>
    </g>
    <g id="text_7">
     <!-- Num Apts at that price -->
     <defs>
      <path d="M 9.8125 72.90625 
L 23.09375 72.90625 
L 55.421875 11.921875 
L 55.421875 72.90625 
L 64.984375 72.90625 
L 64.984375 0 
L 51.703125 0 
L 19.390625 60.984375 
L 19.390625 0 
L 9.8125 0 
z
" id="DejaVuSans-78"/>
      <path d="M 8.5 21.578125 
L 8.5 54.6875 
L 17.484375 54.6875 
L 17.484375 21.921875 
Q 17.484375 14.15625 20.5 10.265625 
Q 23.53125 6.390625 29.59375 6.390625 
Q 36.859375 6.390625 41.078125 11.03125 
Q 45.3125 15.671875 45.3125 23.6875 
L 45.3125 54.6875 
L 54.296875 54.6875 
L 54.296875 0 
L 45.3125 0 
L 45.3125 8.40625 
Q 42.046875 3.421875 37.71875 1 
Q 33.40625 -1.421875 27.6875 -1.421875 
Q 18.265625 -1.421875 13.375 4.4375 
Q 8.5 10.296875 8.5 21.578125 
z
M 31.109375 56 
z
" id="DejaVuSans-117"/>
      <path d="M 34.1875 63.1875 
L 20.796875 26.90625 
L 47.609375 26.90625 
z
M 28.609375 72.90625 
L 39.796875 72.90625 
L 67.578125 0 
L 57.328125 0 
L 50.6875 18.703125 
L 17.828125 18.703125 
L 11.1875 0 
L 0.78125 0 
z
" id="DejaVuSans-65"/>
      <path d="M 18.109375 8.203125 
L 18.109375 -20.796875 
L 9.078125 -20.796875 
L 9.078125 54.6875 
L 18.109375 54.6875 
L 18.109375 46.390625 
Q 20.953125 51.265625 25.265625 53.625 
Q 29.59375 56 35.59375 56 
Q 45.5625 56 51.78125 48.09375 
Q 58.015625 40.1875 58.015625 27.296875 
Q 58.015625 14.40625 51.78125 6.484375 
Q 45.5625 -1.421875 35.59375 -1.421875 
Q 29.59375 -1.421875 25.265625 0.953125 
Q 20.953125 3.328125 18.109375 8.203125 
z
M 48.6875 27.296875 
Q 48.6875 37.203125 44.609375 42.84375 
Q 40.53125 48.484375 33.40625 48.484375 
Q 26.265625 48.484375 22.1875 42.84375 
Q 18.109375 37.203125 18.109375 27.296875 
Q 18.109375 17.390625 22.1875 11.75 
Q 26.265625 6.109375 33.40625 6.109375 
Q 40.53125 6.109375 44.609375 11.75 
Q 48.6875 17.390625 48.6875 27.296875 
z
" id="DejaVuSans-112"/>
      <path d="M 18.3125 70.21875 
L 18.3125 54.6875 
L 36.8125 54.6875 
L 36.8125 47.703125 
L 18.3125 47.703125 
L 18.3125 18.015625 
Q 18.3125 11.328125 20.140625 9.421875 
Q 21.96875 7.515625 27.59375 7.515625 
L 36.8125 7.515625 
L 36.8125 0 
L 27.59375 0 
Q 17.1875 0 13.234375 3.875 
Q 9.28125 7.765625 9.28125 18.015625 
L 9.28125 47.703125 
L 2.6875 47.703125 
L 2.6875 54.6875 
L 9.28125 54.6875 
L 9.28125 70.21875 
z
" id="DejaVuSans-116"/>
      <path d="M 54.890625 33.015625 
L 54.890625 0 
L 45.90625 0 
L 45.90625 32.71875 
Q 45.90625 40.484375 42.875 44.328125 
Q 39.84375 48.1875 33.796875 48.1875 
Q 26.515625 48.1875 22.3125 43.546875 
Q 18.109375 38.921875 18.109375 30.90625 
L 18.109375 0 
L 9.078125 0 
L 9.078125 75.984375 
L 18.109375 75.984375 
L 18.109375 46.1875 
Q 21.34375 51.125 25.703125 53.5625 
Q 30.078125 56 35.796875 56 
Q 45.21875 56 50.046875 50.171875 
Q 54.890625 44.34375 54.890625 33.015625 
z
" id="DejaVuSans-104"/>
     </defs>
     <g transform="translate(10.637812 166.344063)rotate(-90)scale(0.14 -0.14)">
      <use xlink:href="#DejaVuSans-78"/>
      <use x="74.804688" xlink:href="#DejaVuSans-117"/>
      <use x="138.183594" xlink:href="#DejaVuSans-109"/>
      <use x="235.595703" xlink:href="#DejaVuSans-32"/>
      <use x="267.382812" xlink:href="#DejaVuSans-65"/>
      <use x="335.791016" xlink:href="#DejaVuSans-112"/>
      <use x="399.267578" xlink:href="#DejaVuSans-116"/>
      <use x="438.476562" xlink:href="#DejaVuSans-115"/>
      <use x="490.576172" xlink:href="#DejaVuSans-32"/>
      <use x="522.363281" xlink:href="#DejaVuSans-97"/>
      <use x="583.642578" xlink:href="#DejaVuSans-116"/>
      <use x="622.851562" xlink:href="#DejaVuSans-32"/>
      <use x="654.638672" xlink:href="#DejaVuSans-116"/>
      <use x="693.847656" xlink:href="#DejaVuSans-104"/>
      <use x="757.226562" xlink:href="#DejaVuSans-97"/>
      <use x="818.505859" xlink:href="#DejaVuSans-116"/>
      <use x="857.714844" xlink:href="#DejaVuSans-32"/>
      <use x="889.501953" xlink:href="#DejaVuSans-112"/>
      <use x="952.978516" xlink:href="#DejaVuSans-114"/>
      <use x="994.091797" xlink:href="#DejaVuSans-105"/>
      <use x="1021.875" xlink:href="#DejaVuSans-99"/>
      <use x="1076.855469" xlink:href="#DejaVuSans-101"/>
     </g>
    </g>
   </g>
   <g id="patch_48">
    <path d="M 60.179375 169.82 
L 60.179375 3.5 
" style="fill:none;stroke:#000000;stroke-linecap:square;stroke-linejoin:miter;stroke-width:0.8;"/>
   </g>
   <g id="patch_49">
    <path d="M 283.379375 169.82 
L 283.379375 3.5 
" style="fill:none;stroke:#000000;stroke-linecap:square;stroke-linejoin:miter;stroke-width:0.8;"/>
   </g>
   <g id="patch_50">
    <path d="M 60.179375 169.82 
L 283.379375 169.82 
" style="fill:none;stroke:#000000;stroke-linecap:square;stroke-linejoin:miter;stroke-width:0.8;"/>
   </g>
   <g id="patch_51">
    <path d="M 60.179375 3.5 
L 283.379375 3.5 
" style="fill:none;stroke:#000000;stroke-linecap:square;stroke-linejoin:miter;stroke-width:0.8;"/>
   </g>
  </g>
 </g>
 <defs>
  <clipPath id="p9003aad13a">
   <rect height="166.32" width="223.2" x="60.179375" y="3.5"/>
  </clipPath>
 </defs>
</svg>
