<?xml version="1.0" encoding="utf-8" standalone="no"?>
<!DOCTYPE svg PUBLIC "-//W3C//DTD SVG 1.1//EN"
  "http://www.w3.org/Graphics/SVG/1.1/DTD/svg11.dtd">
<!-- Created with matplotlib (https://matplotlib.org/) -->
<svg height="207.91875pt" version="1.1" viewBox="0 0 274.7375 207.91875" width="274.7375pt" xmlns="http://www.w3.org/2000/svg" xmlns:xlink="http://www.w3.org/1999/xlink">
 <defs>
  <style type="text/css">
*{stroke-linecap:butt;stroke-linejoin:round;}
  </style>
 </defs>
 <g id="figure_1">
  <g id="patch_1">
   <path d="M 0 207.91875 
L 274.7375 207.91875 
L 274.7375 -0 
L 0 -0 
z
" style="fill:#ffffff;"/>
  </g>
  <g id="axes_1">
   <g id="patch_2">
    <path d="M 42.63 169.82 
L 265.83 169.82 
L 265.83 3.5 
L 42.63 3.5 
z
" style="fill:#ffffff;"/>
   </g>
   <g id="patch_3">
    <path clip-path="url(#pf23584a74b)" d="M -169.326292 169.82 
L -165.29608 169.82 
L -165.29608 169.728519 
L -169.326292 169.728519 
z
" style="fill:#4575b4;"/>
   </g>
   <g id="patch_4">
    <path clip-path="url(#pf23584a74b)" d="M -165.29608 169.82 
L -161.265868 169.82 
L -161.265868 169.82 
L -165.29608 169.82 
z
" style="fill:#4575b4;"/>
   </g>
   <g id="patch_5">
    <path clip-path="url(#pf23584a74b)" d="M -161.265868 169.82 
L -157.235656 169.82 
L -157.235656 169.82 
L -161.265868 169.82 
z
" style="fill:#4575b4;"/>
   </g>
   <g id="patch_6">
    <path clip-path="url(#pf23584a74b)" d="M -157.235656 169.82 
L -153.205444 169.82 
L -153.205444 169.82 
L -157.235656 169.82 
z
" style="fill:#4575b4;"/>
   </g>
   <g id="patch_7">
    <path clip-path="url(#pf23584a74b)" d="M -153.205444 169.82 
L -149.175232 169.82 
L -149.175232 169.82 
L -153.205444 169.82 
z
" style="fill:#4575b4;"/>
   </g>
   <g id="patch_8">
    <path clip-path="url(#pf23584a74b)" d="M -149.175232 169.82 
L -145.145021 169.82 
L -145.145021 169.82 
L -149.175232 169.82 
z
" style="fill:#4575b4;"/>
   </g>
   <g id="patch_9">
    <path clip-path="url(#pf23584a74b)" d="M -145.145021 169.82 
L -141.114809 169.82 
L -141.114809 169.82 
L -145.145021 169.82 
z
" style="fill:#4575b4;"/>
   </g>
   <g id="patch_10">
    <path clip-path="url(#pf23584a74b)" d="M -141.114809 169.82 
L -137.084597 169.82 
L -137.084597 169.82 
L -141.114809 169.82 
z
" style="fill:#4575b4;"/>
   </g>
   <g id="patch_11">
    <path clip-path="url(#pf23584a74b)" d="M -137.084597 169.82 
L -133.054385 169.82 
L -133.054385 169.82 
L -137.084597 169.82 
z
" style="fill:#4575b4;"/>
   </g>
   <g id="patch_12">
    <path clip-path="url(#pf23584a74b)" d="M -133.054385 169.82 
L -129.024173 169.82 
L -129.024173 169.82 
L -133.054385 169.82 
z
" style="fill:#4575b4;"/>
   </g>
   <g id="patch_13">
    <path clip-path="url(#pf23584a74b)" d="M -129.024173 169.82 
L -124.993961 169.82 
L -124.993961 169.82 
L -129.024173 169.82 
z
" style="fill:#4575b4;"/>
   </g>
   <g id="patch_14">
    <path clip-path="url(#pf23584a74b)" d="M -124.993961 169.82 
L -120.963749 169.82 
L -120.963749 169.82 
L -124.993961 169.82 
z
" style="fill:#4575b4;"/>
   </g>
   <g id="patch_15">
    <path clip-path="url(#pf23584a74b)" d="M -120.963749 169.82 
L -116.933537 169.82 
L -116.933537 169.82 
L -120.963749 169.82 
z
" style="fill:#4575b4;"/>
   </g>
   <g id="patch_16">
    <path clip-path="url(#pf23584a74b)" d="M -116.933537 169.82 
L -112.903325 169.82 
L -112.903325 169.82 
L -116.933537 169.82 
z
" style="fill:#4575b4;"/>
   </g>
   <g id="patch_17">
    <path clip-path="url(#pf23584a74b)" d="M -112.903325 169.82 
L -108.873113 169.82 
L -108.873113 169.82 
L -112.903325 169.82 
z
" style="fill:#4575b4;"/>
   </g>
   <g id="patch_18">
    <path clip-path="url(#pf23584a74b)" d="M -108.873113 169.82 
L -104.842902 169.82 
L -104.842902 169.82 
L -108.873113 169.82 
z
" style="fill:#4575b4;"/>
   </g>
   <g id="patch_19">
    <path clip-path="url(#pf23584a74b)" d="M -104.842902 169.82 
L -100.81269 169.82 
L -100.81269 169.82 
L -104.842902 169.82 
z
" style="fill:#4575b4;"/>
   </g>
   <g id="patch_20">
    <path clip-path="url(#pf23584a74b)" d="M -100.81269 169.82 
L -96.782478 169.82 
L -96.782478 169.82 
L -100.81269 169.82 
z
" style="fill:#4575b4;"/>
   </g>
   <g id="patch_21">
    <path clip-path="url(#pf23584a74b)" d="M -96.782478 169.82 
L -92.752266 169.82 
L -92.752266 169.82 
L -96.782478 169.82 
z
" style="fill:#4575b4;"/>
   </g>
   <g id="patch_22">
    <path clip-path="url(#pf23584a74b)" d="M -92.752266 169.82 
L -88.722054 169.82 
L -88.722054 169.82 
L -92.752266 169.82 
z
" style="fill:#4575b4;"/>
   </g>
   <g id="patch_23">
    <path clip-path="url(#pf23584a74b)" d="M -88.722054 169.82 
L -84.691842 169.82 
L -84.691842 169.82 
L -88.722054 169.82 
z
" style="fill:#4575b4;"/>
   </g>
   <g id="patch_24">
    <path clip-path="url(#pf23584a74b)" d="M -84.691842 169.82 
L -80.66163 169.82 
L -80.66163 169.82 
L -84.691842 169.82 
z
" style="fill:#4575b4;"/>
   </g>
   <g id="patch_25">
    <path clip-path="url(#pf23584a74b)" d="M -80.66163 169.82 
L -76.631418 169.82 
L -76.631418 169.82 
L -80.66163 169.82 
z
" style="fill:#4575b4;"/>
   </g>
   <g id="patch_26">
    <path clip-path="url(#pf23584a74b)" d="M -76.631418 169.82 
L -72.601206 169.82 
L -72.601206 169.82 
L -76.631418 169.82 
z
" style="fill:#4575b4;"/>
   </g>
   <g id="patch_27">
    <path clip-path="url(#pf23584a74b)" d="M -72.601206 169.82 
L -68.570995 169.82 
L -68.570995 169.82 
L -72.601206 169.82 
z
" style="fill:#4575b4;"/>
   </g>
   <g id="patch_28">
    <path clip-path="url(#pf23584a74b)" d="M -68.570995 169.82 
L -64.540783 169.82 
L -64.540783 169.82 
L -68.570995 169.82 
z
" style="fill:#4575b4;"/>
   </g>
   <g id="patch_29">
    <path clip-path="url(#pf23584a74b)" d="M -64.540783 169.82 
L -60.510571 169.82 
L -60.510571 169.82 
L -64.540783 169.82 
z
" style="fill:#4575b4;"/>
   </g>
   <g id="patch_30">
    <path clip-path="url(#pf23584a74b)" d="M -60.510571 169.82 
L -56.480359 169.82 
L -56.480359 169.82 
L -60.510571 169.82 
z
" style="fill:#4575b4;"/>
   </g>
   <g id="patch_31">
    <path clip-path="url(#pf23584a74b)" d="M -56.480359 169.82 
L -52.450147 169.82 
L -52.450147 169.82 
L -56.480359 169.82 
z
" style="fill:#4575b4;"/>
   </g>
   <g id="patch_32">
    <path clip-path="url(#pf23584a74b)" d="M -52.450147 169.82 
L -48.419935 169.82 
L -48.419935 169.82 
L -52.450147 169.82 
z
" style="fill:#4575b4;"/>
   </g>
   <g id="patch_33">
    <path clip-path="url(#pf23584a74b)" d="M -48.419935 169.82 
L -44.389723 169.82 
L -44.389723 169.82 
L -48.419935 169.82 
z
" style="fill:#4575b4;"/>
   </g>
   <g id="patch_34">
    <path clip-path="url(#pf23584a74b)" d="M -44.389723 169.82 
L -40.359511 169.82 
L -40.359511 169.82 
L -44.389723 169.82 
z
" style="fill:#4575b4;"/>
   </g>
   <g id="patch_35">
    <path clip-path="url(#pf23584a74b)" d="M -40.359511 169.82 
L -36.329299 169.82 
L -36.329299 169.82 
L -40.359511 169.82 
z
" style="fill:#4575b4;"/>
   </g>
   <g id="patch_36">
    <path clip-path="url(#pf23584a74b)" d="M -36.329299 169.82 
L -32.299087 169.82 
L -32.299087 169.82 
L -36.329299 169.82 
z
" style="fill:#4575b4;"/>
   </g>
   <g id="patch_37">
    <path clip-path="url(#pf23584a74b)" d="M -32.299087 169.82 
L -28.268876 169.82 
L -28.268876 169.82 
L -32.299087 169.82 
z
" style="fill:#4575b4;"/>
   </g>
   <g id="patch_38">
    <path clip-path="url(#pf23584a74b)" d="M -28.268876 169.82 
L -24.238664 169.82 
L -24.238664 169.82 
L -28.268876 169.82 
z
" style="fill:#4575b4;"/>
   </g>
   <g id="patch_39">
    <path clip-path="url(#pf23584a74b)" d="M -24.238664 169.82 
L -20.208452 169.82 
L -20.208452 169.82 
L -24.238664 169.82 
z
" style="fill:#4575b4;"/>
   </g>
   <g id="patch_40">
    <path clip-path="url(#pf23584a74b)" d="M -20.208452 169.82 
L -16.17824 169.82 
L -16.17824 169.82 
L -20.208452 169.82 
z
" style="fill:#4575b4;"/>
   </g>
   <g id="patch_41">
    <path clip-path="url(#pf23584a74b)" d="M -16.17824 169.82 
L -12.148028 169.82 
L -12.148028 169.774259 
L -16.17824 169.774259 
z
" style="fill:#4575b4;"/>
   </g>
   <g id="patch_42">
    <path clip-path="url(#pf23584a74b)" d="M -12.148028 169.82 
L -8.117816 169.82 
L -8.117816 169.82 
L -12.148028 169.82 
z
" style="fill:#4575b4;"/>
   </g>
   <g id="patch_43">
    <path clip-path="url(#pf23584a74b)" d="M -8.117816 169.82 
L -4.087604 169.82 
L -4.087604 169.82 
L -8.117816 169.82 
z
" style="fill:#4575b4;"/>
   </g>
   <g id="patch_44">
    <path clip-path="url(#pf23584a74b)" d="M -4.087604 169.82 
L -0.057392 169.82 
L -0.057392 169.82 
L -4.087604 169.82 
z
" style="fill:#4575b4;"/>
   </g>
   <g id="patch_45">
    <path clip-path="url(#pf23584a74b)" d="M -0.057392 169.82 
L 3.97282 169.82 
L 3.97282 169.82 
L -0.057392 169.82 
z
" style="fill:#4575b4;"/>
   </g>
   <g id="patch_46">
    <path clip-path="url(#pf23584a74b)" d="M 3.97282 169.82 
L 8.003032 169.82 
L 8.003032 169.82 
L 3.97282 169.82 
z
" style="fill:#4575b4;"/>
   </g>
   <g id="patch_47">
    <path clip-path="url(#pf23584a74b)" d="M 8.003032 169.82 
L 12.033243 169.82 
L 12.033243 169.82 
L 8.003032 169.82 
z
" style="fill:#4575b4;"/>
   </g>
   <g id="patch_48">
    <path clip-path="url(#pf23584a74b)" d="M 12.033243 169.82 
L 16.063455 169.82 
L 16.063455 169.82 
L 12.033243 169.82 
z
" style="fill:#4575b4;"/>
   </g>
   <g id="patch_49">
    <path clip-path="url(#pf23584a74b)" d="M 16.063455 169.82 
L 20.093667 169.82 
L 20.093667 169.82 
L 16.063455 169.82 
z
" style="fill:#4575b4;"/>
   </g>
   <g id="patch_50">
    <path clip-path="url(#pf23584a74b)" d="M 20.093667 169.82 
L 24.123879 169.82 
L 24.123879 169.82 
L 20.093667 169.82 
z
" style="fill:#4575b4;"/>
   </g>
   <g id="patch_51">
    <path clip-path="url(#pf23584a74b)" d="M 24.123879 169.82 
L 28.154091 169.82 
L 28.154091 169.591297 
L 24.123879 169.591297 
z
" style="fill:#4575b4;"/>
   </g>
   <g id="patch_52">
    <path clip-path="url(#pf23584a74b)" d="M 28.154091 169.82 
L 32.184303 169.82 
L 32.184303 169.82 
L 28.154091 169.82 
z
" style="fill:#4575b4;"/>
   </g>
   <g id="patch_53">
    <path clip-path="url(#pf23584a74b)" d="M 32.184303 169.82 
L 36.214515 169.82 
L 36.214515 169.774259 
L 32.184303 169.774259 
z
" style="fill:#4575b4;"/>
   </g>
   <g id="patch_54">
    <path clip-path="url(#pf23584a74b)" d="M 36.214515 169.82 
L 40.244727 169.82 
L 40.244727 169.82 
L 36.214515 169.82 
z
" style="fill:#4575b4;"/>
   </g>
   <g id="patch_55">
    <path clip-path="url(#pf23584a74b)" d="M 40.244727 169.82 
L 44.274939 169.82 
L 44.274939 169.774259 
L 40.244727 169.774259 
z
" style="fill:#4575b4;"/>
   </g>
   <g id="patch_56">
    <path clip-path="url(#pf23584a74b)" d="M 44.274939 169.82 
L 48.30515 169.82 
L 48.30515 169.682778 
L 44.274939 169.682778 
z
" style="fill:#4575b4;"/>
   </g>
   <g id="patch_57">
    <path clip-path="url(#pf23584a74b)" d="M 48.30515 169.82 
L 52.335362 169.82 
L 52.335362 169.408334 
L 48.30515 169.408334 
z
" style="fill:#4575b4;"/>
   </g>
   <g id="patch_58">
    <path clip-path="url(#pf23584a74b)" d="M 52.335362 169.82 
L 56.365574 169.82 
L 56.365574 169.454075 
L 52.335362 169.454075 
z
" style="fill:#4575b4;"/>
   </g>
   <g id="patch_59">
    <path clip-path="url(#pf23584a74b)" d="M 56.365574 169.82 
L 60.395786 169.82 
L 60.395786 169.408334 
L 56.365574 169.408334 
z
" style="fill:#4575b4;"/>
   </g>
   <g id="patch_60">
    <path clip-path="url(#pf23584a74b)" d="M 60.395786 169.82 
L 64.425998 169.82 
L 64.425998 168.264817 
L 60.395786 168.264817 
z
" style="fill:#4575b4;"/>
   </g>
   <g id="patch_61">
    <path clip-path="url(#pf23584a74b)" d="M 64.425998 169.82 
L 68.45621 169.82 
L 68.45621 165.108709 
L 64.425998 165.108709 
z
" style="fill:#4575b4;"/>
   </g>
   <g id="patch_62">
    <path clip-path="url(#pf23584a74b)" d="M 68.45621 169.82 
L 72.486422 169.82 
L 72.486422 166.069264 
L 68.45621 166.069264 
z
" style="fill:#4575b4;"/>
   </g>
   <g id="patch_63">
    <path clip-path="url(#pf23584a74b)" d="M 72.486422 169.82 
L 76.516634 169.82 
L 76.516634 159.253901 
L 72.486422 159.253901 
z
" style="fill:#4575b4;"/>
   </g>
   <g id="patch_64">
    <path clip-path="url(#pf23584a74b)" d="M 76.516634 169.82 
L 80.546846 169.82 
L 80.546846 158.567791 
L 76.516634 158.567791 
z
" style="fill:#4575b4;"/>
   </g>
   <g id="patch_65">
    <path clip-path="url(#pf23584a74b)" d="M 80.546846 169.82 
L 84.577058 169.82 
L 84.577058 150.334467 
L 80.546846 150.334467 
z
" style="fill:#4575b4;"/>
   </g>
   <g id="patch_66">
    <path clip-path="url(#pf23584a74b)" d="M 84.577058 169.82 
L 88.607269 169.82 
L 88.607269 140.134294 
L 84.577058 140.134294 
z
" style="fill:#4575b4;"/>
   </g>
   <g id="patch_67">
    <path clip-path="url(#pf23584a74b)" d="M 88.607269 169.82 
L 92.637481 169.82 
L 92.637481 127.098198 
L 88.607269 127.098198 
z
" style="fill:#4575b4;"/>
   </g>
   <g id="patch_68">
    <path clip-path="url(#pf23584a74b)" d="M 92.637481 169.82 
L 96.667693 169.82 
L 96.667693 109.670996 
L 92.637481 109.670996 
z
" style="fill:#4575b4;"/>
   </g>
   <g id="patch_69">
    <path clip-path="url(#pf23584a74b)" d="M 96.667693 169.82 
L 100.697905 169.82 
L 100.697905 98.144343 
L 96.667693 98.144343 
z
" style="fill:#4575b4;"/>
   </g>
   <g id="patch_70">
    <path clip-path="url(#pf23584a74b)" d="M 100.697905 169.82 
L 104.728117 169.82 
L 104.728117 108.344516 
L 100.697905 108.344516 
z
" style="fill:#4575b4;"/>
   </g>
   <g id="patch_71">
    <path clip-path="url(#pf23584a74b)" d="M 104.728117 169.82 
L 108.758329 169.82 
L 108.758329 59.447722 
L 104.728117 59.447722 
z
" style="fill:#4575b4;"/>
   </g>
   <g id="patch_72">
    <path clip-path="url(#pf23584a74b)" d="M 108.758329 169.82 
L 112.788541 169.82 
L 112.788541 60.316795 
L 108.758329 60.316795 
z
" style="fill:#4575b4;"/>
   </g>
   <g id="patch_73">
    <path clip-path="url(#pf23584a74b)" d="M 112.788541 169.82 
L 116.818753 169.82 
L 116.818753 11.42 
L 112.788541 11.42 
z
" style="fill:#4575b4;"/>
   </g>
   <g id="patch_74">
    <path clip-path="url(#pf23584a74b)" d="M 116.818753 169.82 
L 120.848965 169.82 
L 120.848965 42.843852 
L 116.818753 42.843852 
z
" style="fill:#4575b4;"/>
   </g>
   <g id="patch_75">
    <path clip-path="url(#pf23584a74b)" d="M 120.848965 169.82 
L 124.879177 169.82 
L 124.879177 34.153122 
L 120.848965 34.153122 
z
" style="fill:#4575b4;"/>
   </g>
   <g id="patch_76">
    <path clip-path="url(#pf23584a74b)" d="M 124.879177 169.82 
L 128.909388 169.82 
L 128.909388 50.71125 
L 124.879177 50.71125 
z
" style="fill:#4575b4;"/>
   </g>
   <g id="patch_77">
    <path clip-path="url(#pf23584a74b)" d="M 128.909388 169.82 
L 132.9396 169.82 
L 132.9396 23.907208 
L 128.909388 23.907208 
z
" style="fill:#4575b4;"/>
   </g>
   <g id="patch_78">
    <path clip-path="url(#pf23584a74b)" d="M 132.9396 169.82 
L 136.969812 169.82 
L 136.969812 28.892943 
L 132.9396 28.892943 
z
" style="fill:#4575b4;"/>
   </g>
   <g id="patch_79">
    <path clip-path="url(#pf23584a74b)" d="M 136.969812 169.82 
L 141.000024 169.82 
L 141.000024 36.668859 
L 136.969812 36.668859 
z
" style="fill:#4575b4;"/>
   </g>
   <g id="patch_80">
    <path clip-path="url(#pf23584a74b)" d="M 141.000024 169.82 
L 145.030236 169.82 
L 145.030236 63.610124 
L 141.000024 63.610124 
z
" style="fill:#4575b4;"/>
   </g>
   <g id="patch_81">
    <path clip-path="url(#pf23584a74b)" d="M 145.030236 169.82 
L 149.060448 169.82 
L 149.060448 75.685666 
L 145.030236 75.685666 
z
" style="fill:#4575b4;"/>
   </g>
   <g id="patch_82">
    <path clip-path="url(#pf23584a74b)" d="M 149.060448 169.82 
L 153.09066 169.82 
L 153.09066 104.959705 
L 149.060448 104.959705 
z
" style="fill:#4575b4;"/>
   </g>
   <g id="patch_83">
    <path clip-path="url(#pf23584a74b)" d="M 153.09066 169.82 
L 157.120872 169.82 
L 157.120872 92.015091 
L 153.09066 92.015091 
z
" style="fill:#4575b4;"/>
   </g>
   <g id="patch_84">
    <path clip-path="url(#pf23584a74b)" d="M 157.120872 169.82 
L 161.151084 169.82 
L 161.151084 111.043217 
L 157.120872 111.043217 
z
" style="fill:#4575b4;"/>
   </g>
   <g id="patch_85">
    <path clip-path="url(#pf23584a74b)" d="M 161.151084 169.82 
L 165.181295 169.82 
L 165.181295 103.2673 
L 161.151084 103.2673 
z
" style="fill:#4575b4;"/>
   </g>
   <g id="patch_86">
    <path clip-path="url(#pf23584a74b)" d="M 165.181295 169.82 
L 169.211507 169.82 
L 169.211507 119.139319 
L 165.181295 119.139319 
z
" style="fill:#4575b4;"/>
   </g>
   <g id="patch_87">
    <path clip-path="url(#pf23584a74b)" d="M 169.211507 169.82 
L 173.241719 169.82 
L 173.241719 136.063373 
L 169.211507 136.063373 
z
" style="fill:#4575b4;"/>
   </g>
   <g id="patch_88">
    <path clip-path="url(#pf23584a74b)" d="M 173.241719 169.82 
L 177.271931 169.82 
L 177.271931 128.836344 
L 173.241719 128.836344 
z
" style="fill:#4575b4;"/>
   </g>
   <g id="patch_89">
    <path clip-path="url(#pf23584a74b)" d="M 177.271931 169.82 
L 181.302143 169.82 
L 181.302143 131.260601 
L 177.271931 131.260601 
z
" style="fill:#4575b4;"/>
   </g>
   <g id="patch_90">
    <path clip-path="url(#pf23584a74b)" d="M 181.302143 169.82 
L 185.332355 169.82 
L 185.332355 154.359648 
L 181.302143 154.359648 
z
" style="fill:#4575b4;"/>
   </g>
   <g id="patch_91">
    <path clip-path="url(#pf23584a74b)" d="M 185.332355 169.82 
L 189.362567 169.82 
L 189.362567 149.648357 
L 185.332355 149.648357 
z
" style="fill:#4575b4;"/>
   </g>
   <g id="patch_92">
    <path clip-path="url(#pf23584a74b)" d="M 189.362567 169.82 
L 193.392779 169.82 
L 193.392779 159.070938 
L 189.362567 159.070938 
z
" style="fill:#4575b4;"/>
   </g>
   <g id="patch_93">
    <path clip-path="url(#pf23584a74b)" d="M 193.392779 169.82 
L 197.422991 169.82 
L 197.422991 154.405388 
L 193.392779 154.405388 
z
" style="fill:#4575b4;"/>
   </g>
   <g id="patch_94">
    <path clip-path="url(#pf23584a74b)" d="M 197.422991 169.82 
L 201.453203 169.82 
L 201.453203 163.416304 
L 197.422991 163.416304 
z
" style="fill:#4575b4;"/>
   </g>
   <g id="patch_95">
    <path clip-path="url(#pf23584a74b)" d="M 201.453203 169.82 
L 205.483414 169.82 
L 205.483414 161.952602 
L 201.453203 161.952602 
z
" style="fill:#4575b4;"/>
   </g>
   <g id="patch_96">
    <path clip-path="url(#pf23584a74b)" d="M 205.483414 169.82 
L 209.513626 169.82 
L 209.513626 165.566116 
L 205.483414 165.566116 
z
" style="fill:#4575b4;"/>
   </g>
   <g id="patch_97">
    <path clip-path="url(#pf23584a74b)" d="M 209.513626 169.82 
L 213.543838 169.82 
L 213.543838 163.096119 
L 209.513626 163.096119 
z
" style="fill:#4575b4;"/>
   </g>
   <g id="patch_98">
    <path clip-path="url(#pf23584a74b)" d="M 213.543838 169.82 
L 217.57405 169.82 
L 217.57405 164.46834 
L 213.543838 164.46834 
z
" style="fill:#4575b4;"/>
   </g>
   <g id="patch_99">
    <path clip-path="url(#pf23584a74b)" d="M 217.57405 169.82 
L 221.604262 169.82 
L 221.604262 166.663893 
L 217.57405 166.663893 
z
" style="fill:#4575b4;"/>
   </g>
   <g id="patch_100">
    <path clip-path="url(#pf23584a74b)" d="M 221.604262 169.82 
L 225.634474 169.82 
L 225.634474 165.383153 
L 221.604262 165.383153 
z
" style="fill:#4575b4;"/>
   </g>
   <g id="patch_101">
    <path clip-path="url(#pf23584a74b)" d="M 225.634474 169.82 
L 229.664686 169.82 
L 229.664686 165.474635 
L 225.634474 165.474635 
z
" style="fill:#4575b4;"/>
   </g>
   <g id="patch_102">
    <path clip-path="url(#pf23584a74b)" d="M 229.664686 169.82 
L 233.694898 169.82 
L 233.694898 166.755374 
L 229.664686 166.755374 
z
" style="fill:#4575b4;"/>
   </g>
   <g id="patch_103">
    <path clip-path="url(#pf23584a74b)" d="M 233.694898 169.82 
L 237.72511 169.82 
L 237.72511 166.389448 
L 233.694898 166.389448 
z
" style="fill:#4575b4;"/>
   </g>
   <g id="patch_104">
    <path clip-path="url(#pf23584a74b)" d="M 237.72511 169.82 
L 241.755322 169.82 
L 241.755322 165.657597 
L 237.72511 165.657597 
z
" style="fill:#4575b4;"/>
   </g>
   <g id="patch_105">
    <path clip-path="url(#pf23584a74b)" d="M 241.755322 169.82 
L 245.785533 169.82 
L 245.785533 168.081854 
L 241.755322 168.081854 
z
" style="fill:#4575b4;"/>
   </g>
   <g id="patch_106">
    <path clip-path="url(#pf23584a74b)" d="M 245.785533 169.82 
L 249.815745 169.82 
L 249.815745 168.49352 
L 245.785533 168.49352 
z
" style="fill:#4575b4;"/>
   </g>
   <g id="patch_107">
    <path clip-path="url(#pf23584a74b)" d="M 249.815745 169.82 
L 253.845957 169.82 
L 253.845957 168.539261 
L 249.815745 168.539261 
z
" style="fill:#4575b4;"/>
   </g>
   <g id="patch_108">
    <path clip-path="url(#pf23584a74b)" d="M 253.845957 169.82 
L 257.876169 169.82 
L 257.876169 169.362593 
L 253.845957 169.362593 
z
" style="fill:#4575b4;"/>
   </g>
   <g id="patch_109">
    <path clip-path="url(#pf23584a74b)" d="M 257.876169 169.82 
L 261.906381 169.82 
L 261.906381 168.310557 
L 257.876169 168.310557 
z
" style="fill:#4575b4;"/>
   </g>
   <g id="patch_110">
    <path clip-path="url(#pf23584a74b)" d="M 261.906381 169.82 
L 265.936593 169.82 
L 265.936593 169.271112 
L 261.906381 169.271112 
z
" style="fill:#4575b4;"/>
   </g>
   <g id="patch_111">
    <path clip-path="url(#pf23584a74b)" d="M 265.936593 169.82 
L 269.966805 169.82 
L 269.966805 169.637037 
L 265.936593 169.637037 
z
" style="fill:#4575b4;"/>
   </g>
   <g id="patch_112">
    <path clip-path="url(#pf23584a74b)" d="M 269.966805 169.82 
L 273.997017 169.82 
L 273.997017 169.362593 
L 269.966805 169.362593 
z
" style="fill:#4575b4;"/>
   </g>
   <g id="patch_113">
    <path clip-path="url(#pf23584a74b)" d="M 273.997017 169.82 
L 278.027229 169.82 
L 278.027229 169.17963 
L 273.997017 169.17963 
z
" style="fill:#4575b4;"/>
   </g>
   <g id="patch_114">
    <path clip-path="url(#pf23584a74b)" d="M 278.027229 169.82 
L 282.05744 169.82 
L 282.05744 169.408334 
L 278.027229 169.408334 
z
" style="fill:#4575b4;"/>
   </g>
   <g id="patch_115">
    <path clip-path="url(#pf23584a74b)" d="M 282.05744 169.82 
L 286.087652 169.82 
L 286.087652 169.545556 
L 282.05744 169.545556 
z
" style="fill:#4575b4;"/>
   </g>
   <g id="patch_116">
    <path clip-path="url(#pf23584a74b)" d="M 286.087652 169.82 
L 290.117864 169.82 
L 290.117864 168.996668 
L 286.087652 168.996668 
z
" style="fill:#4575b4;"/>
   </g>
   <g id="patch_117">
    <path clip-path="url(#pf23584a74b)" d="M 290.117864 169.82 
L 294.148076 169.82 
L 294.148076 169.637037 
L 290.117864 169.637037 
z
" style="fill:#4575b4;"/>
   </g>
   <g id="patch_118">
    <path clip-path="url(#pf23584a74b)" d="M 294.148076 169.82 
L 298.178288 169.82 
L 298.178288 169.637037 
L 294.148076 169.637037 
z
" style="fill:#4575b4;"/>
   </g>
   <g id="patch_119">
    <path clip-path="url(#pf23584a74b)" d="M 298.178288 169.82 
L 302.2085 169.82 
L 302.2085 169.728519 
L 298.178288 169.728519 
z
" style="fill:#4575b4;"/>
   </g>
   <g id="patch_120">
    <path clip-path="url(#pf23584a74b)" d="M 302.2085 169.82 
L 306.238712 169.82 
L 306.238712 169.774259 
L 302.2085 169.774259 
z
" style="fill:#4575b4;"/>
   </g>
   <g id="patch_121">
    <path clip-path="url(#pf23584a74b)" d="M 306.238712 169.82 
L 310.268924 169.82 
L 310.268924 169.728519 
L 306.238712 169.728519 
z
" style="fill:#4575b4;"/>
   </g>
   <g id="patch_122">
    <path clip-path="url(#pf23584a74b)" d="M 310.268924 169.82 
L 314.299136 169.82 
L 314.299136 169.82 
L 310.268924 169.82 
z
" style="fill:#4575b4;"/>
   </g>
   <g id="patch_123">
    <path clip-path="url(#pf23584a74b)" d="M 314.299136 169.82 
L 318.329348 169.82 
L 318.329348 169.728519 
L 314.299136 169.728519 
z
" style="fill:#4575b4;"/>
   </g>
   <g id="patch_124">
    <path clip-path="url(#pf23584a74b)" d="M 318.329348 169.82 
L 322.359559 169.82 
L 322.359559 169.774259 
L 318.329348 169.774259 
z
" style="fill:#4575b4;"/>
   </g>
   <g id="patch_125">
    <path clip-path="url(#pf23584a74b)" d="M 322.359559 169.82 
L 326.389771 169.82 
L 326.389771 169.591297 
L 322.359559 169.591297 
z
" style="fill:#4575b4;"/>
   </g>
   <g id="patch_126">
    <path clip-path="url(#pf23584a74b)" d="M 326.389771 169.82 
L 330.419983 169.82 
L 330.419983 169.728519 
L 326.389771 169.728519 
z
" style="fill:#4575b4;"/>
   </g>
   <g id="patch_127">
    <path clip-path="url(#pf23584a74b)" d="M 330.419983 169.82 
L 334.450195 169.82 
L 334.450195 169.774259 
L 330.419983 169.774259 
z
" style="fill:#4575b4;"/>
   </g>
   <g id="patch_128">
    <path clip-path="url(#pf23584a74b)" d="M 334.450195 169.82 
L 338.480407 169.82 
L 338.480407 169.774259 
L 334.450195 169.774259 
z
" style="fill:#4575b4;"/>
   </g>
   <g id="patch_129">
    <path clip-path="url(#pf23584a74b)" d="M 338.480407 169.82 
L 342.510619 169.82 
L 342.510619 169.82 
L 338.480407 169.82 
z
" style="fill:#4575b4;"/>
   </g>
   <g id="patch_130">
    <path clip-path="url(#pf23584a74b)" d="M 342.510619 169.82 
L 346.540831 169.82 
L 346.540831 169.82 
L 342.510619 169.82 
z
" style="fill:#4575b4;"/>
   </g>
   <g id="patch_131">
    <path clip-path="url(#pf23584a74b)" d="M 346.540831 169.82 
L 350.571043 169.82 
L 350.571043 169.82 
L 346.540831 169.82 
z
" style="fill:#4575b4;"/>
   </g>
   <g id="patch_132">
    <path clip-path="url(#pf23584a74b)" d="M 350.571043 169.82 
L 354.601255 169.82 
L 354.601255 169.82 
L 350.571043 169.82 
z
" style="fill:#4575b4;"/>
   </g>
   <g id="patch_133">
    <path clip-path="url(#pf23584a74b)" d="M 354.601255 169.82 
L 358.631467 169.82 
L 358.631467 169.774259 
L 354.601255 169.774259 
z
" style="fill:#4575b4;"/>
   </g>
   <g id="patch_134">
    <path clip-path="url(#pf23584a74b)" d="M 358.631467 169.82 
L 362.661678 169.82 
L 362.661678 169.774259 
L 358.631467 169.774259 
z
" style="fill:#4575b4;"/>
   </g>
   <g id="patch_135">
    <path clip-path="url(#pf23584a74b)" d="M 362.661678 169.82 
L 366.69189 169.82 
L 366.69189 169.774259 
L 362.661678 169.774259 
z
" style="fill:#4575b4;"/>
   </g>
   <g id="patch_136">
    <path clip-path="url(#pf23584a74b)" d="M 366.69189 169.82 
L 370.722102 169.82 
L 370.722102 169.82 
L 366.69189 169.82 
z
" style="fill:#4575b4;"/>
   </g>
   <g id="patch_137">
    <path clip-path="url(#pf23584a74b)" d="M 370.722102 169.82 
L 374.752314 169.82 
L 374.752314 169.774259 
L 370.722102 169.774259 
z
" style="fill:#4575b4;"/>
   </g>
   <g id="patch_138">
    <path clip-path="url(#pf23584a74b)" d="M 374.752314 169.82 
L 378.782526 169.82 
L 378.782526 169.774259 
L 374.752314 169.774259 
z
" style="fill:#4575b4;"/>
   </g>
   <g id="patch_139">
    <path clip-path="url(#pf23584a74b)" d="M 378.782526 169.82 
L 382.812738 169.82 
L 382.812738 169.82 
L 378.782526 169.82 
z
" style="fill:#4575b4;"/>
   </g>
   <g id="patch_140">
    <path clip-path="url(#pf23584a74b)" d="M 382.812738 169.82 
L 386.84295 169.82 
L 386.84295 169.82 
L 382.812738 169.82 
z
" style="fill:#4575b4;"/>
   </g>
   <g id="patch_141">
    <path clip-path="url(#pf23584a74b)" d="M 386.84295 169.82 
L 390.873162 169.82 
L 390.873162 169.82 
L 386.84295 169.82 
z
" style="fill:#4575b4;"/>
   </g>
   <g id="patch_142">
    <path clip-path="url(#pf23584a74b)" d="M 390.873162 169.82 
L 394.903374 169.82 
L 394.903374 169.774259 
L 390.873162 169.774259 
z
" style="fill:#4575b4;"/>
   </g>
   <g id="patch_143">
    <path clip-path="url(#pf23584a74b)" d="M 394.903374 169.82 
L 398.933585 169.82 
L 398.933585 169.82 
L 394.903374 169.82 
z
" style="fill:#4575b4;"/>
   </g>
   <g id="patch_144">
    <path clip-path="url(#pf23584a74b)" d="M 398.933585 169.82 
L 402.963797 169.82 
L 402.963797 169.82 
L 398.933585 169.82 
z
" style="fill:#4575b4;"/>
   </g>
   <g id="patch_145">
    <path clip-path="url(#pf23584a74b)" d="M 402.963797 169.82 
L 406.994009 169.82 
L 406.994009 169.82 
L 402.963797 169.82 
z
" style="fill:#4575b4;"/>
   </g>
   <g id="patch_146">
    <path clip-path="url(#pf23584a74b)" d="M 406.994009 169.82 
L 411.024221 169.82 
L 411.024221 169.82 
L 406.994009 169.82 
z
" style="fill:#4575b4;"/>
   </g>
   <g id="patch_147">
    <path clip-path="url(#pf23584a74b)" d="M 411.024221 169.82 
L 415.054433 169.82 
L 415.054433 169.82 
L 411.024221 169.82 
z
" style="fill:#4575b4;"/>
   </g>
   <g id="patch_148">
    <path clip-path="url(#pf23584a74b)" d="M 415.054433 169.82 
L 419.084645 169.82 
L 419.084645 169.82 
L 415.054433 169.82 
z
" style="fill:#4575b4;"/>
   </g>
   <g id="patch_149">
    <path clip-path="url(#pf23584a74b)" d="M 419.084645 169.82 
L 423.114857 169.82 
L 423.114857 169.82 
L 419.084645 169.82 
z
" style="fill:#4575b4;"/>
   </g>
   <g id="patch_150">
    <path clip-path="url(#pf23584a74b)" d="M 423.114857 169.82 
L 427.145069 169.82 
L 427.145069 169.82 
L 423.114857 169.82 
z
" style="fill:#4575b4;"/>
   </g>
   <g id="patch_151">
    <path clip-path="url(#pf23584a74b)" d="M 427.145069 169.82 
L 431.175281 169.82 
L 431.175281 169.82 
L 427.145069 169.82 
z
" style="fill:#4575b4;"/>
   </g>
   <g id="patch_152">
    <path clip-path="url(#pf23584a74b)" d="M 431.175281 169.82 
L 435.205493 169.82 
L 435.205493 169.82 
L 431.175281 169.82 
z
" style="fill:#4575b4;"/>
   </g>
   <g id="patch_153">
    <path clip-path="url(#pf23584a74b)" d="M 435.205493 169.82 
L 439.235704 169.82 
L 439.235704 169.82 
L 435.205493 169.82 
z
" style="fill:#4575b4;"/>
   </g>
   <g id="patch_154">
    <path clip-path="url(#pf23584a74b)" d="M 439.235704 169.82 
L 443.265916 169.82 
L 443.265916 169.82 
L 439.235704 169.82 
z
" style="fill:#4575b4;"/>
   </g>
   <g id="patch_155">
    <path clip-path="url(#pf23584a74b)" d="M 443.265916 169.82 
L 447.296128 169.82 
L 447.296128 169.82 
L 443.265916 169.82 
z
" style="fill:#4575b4;"/>
   </g>
   <g id="patch_156">
    <path clip-path="url(#pf23584a74b)" d="M 447.296128 169.82 
L 451.32634 169.82 
L 451.32634 169.82 
L 447.296128 169.82 
z
" style="fill:#4575b4;"/>
   </g>
   <g id="patch_157">
    <path clip-path="url(#pf23584a74b)" d="M 451.32634 169.82 
L 455.356552 169.82 
L 455.356552 169.82 
L 451.32634 169.82 
z
" style="fill:#4575b4;"/>
   </g>
   <g id="patch_158">
    <path clip-path="url(#pf23584a74b)" d="M 455.356552 169.82 
L 459.386764 169.82 
L 459.386764 169.82 
L 455.356552 169.82 
z
" style="fill:#4575b4;"/>
   </g>
   <g id="patch_159">
    <path clip-path="url(#pf23584a74b)" d="M 459.386764 169.82 
L 463.416976 169.82 
L 463.416976 169.82 
L 459.386764 169.82 
z
" style="fill:#4575b4;"/>
   </g>
   <g id="patch_160">
    <path clip-path="url(#pf23584a74b)" d="M 463.416976 169.82 
L 467.447188 169.82 
L 467.447188 169.82 
L 463.416976 169.82 
z
" style="fill:#4575b4;"/>
   </g>
   <g id="patch_161">
    <path clip-path="url(#pf23584a74b)" d="M 467.447188 169.82 
L 471.4774 169.82 
L 471.4774 169.82 
L 467.447188 169.82 
z
" style="fill:#4575b4;"/>
   </g>
   <g id="patch_162">
    <path clip-path="url(#pf23584a74b)" d="M 471.4774 169.82 
L 475.507612 169.82 
L 475.507612 169.82 
L 471.4774 169.82 
z
" style="fill:#4575b4;"/>
   </g>
   <g id="patch_163">
    <path clip-path="url(#pf23584a74b)" d="M 475.507612 169.82 
L 479.537823 169.82 
L 479.537823 169.82 
L 475.507612 169.82 
z
" style="fill:#4575b4;"/>
   </g>
   <g id="patch_164">
    <path clip-path="url(#pf23584a74b)" d="M 479.537823 169.82 
L 483.568035 169.82 
L 483.568035 169.82 
L 479.537823 169.82 
z
" style="fill:#4575b4;"/>
   </g>
   <g id="patch_165">
    <path clip-path="url(#pf23584a74b)" d="M 483.568035 169.82 
L 487.598247 169.82 
L 487.598247 169.82 
L 483.568035 169.82 
z
" style="fill:#4575b4;"/>
   </g>
   <g id="patch_166">
    <path clip-path="url(#pf23584a74b)" d="M 487.598247 169.82 
L 491.628459 169.82 
L 491.628459 169.82 
L 487.598247 169.82 
z
" style="fill:#4575b4;"/>
   </g>
   <g id="patch_167">
    <path clip-path="url(#pf23584a74b)" d="M 491.628459 169.82 
L 495.658671 169.82 
L 495.658671 169.82 
L 491.628459 169.82 
z
" style="fill:#4575b4;"/>
   </g>
   <g id="patch_168">
    <path clip-path="url(#pf23584a74b)" d="M 495.658671 169.82 
L 499.688883 169.82 
L 499.688883 169.82 
L 495.658671 169.82 
z
" style="fill:#4575b4;"/>
   </g>
   <g id="patch_169">
    <path clip-path="url(#pf23584a74b)" d="M 499.688883 169.82 
L 503.719095 169.82 
L 503.719095 169.82 
L 499.688883 169.82 
z
" style="fill:#4575b4;"/>
   </g>
   <g id="patch_170">
    <path clip-path="url(#pf23584a74b)" d="M 503.719095 169.82 
L 507.749307 169.82 
L 507.749307 169.82 
L 503.719095 169.82 
z
" style="fill:#4575b4;"/>
   </g>
   <g id="patch_171">
    <path clip-path="url(#pf23584a74b)" d="M 507.749307 169.82 
L 511.779519 169.82 
L 511.779519 169.82 
L 507.749307 169.82 
z
" style="fill:#4575b4;"/>
   </g>
   <g id="patch_172">
    <path clip-path="url(#pf23584a74b)" d="M 511.779519 169.82 
L 515.80973 169.82 
L 515.80973 169.82 
L 511.779519 169.82 
z
" style="fill:#4575b4;"/>
   </g>
   <g id="patch_173">
    <path clip-path="url(#pf23584a74b)" d="M 515.80973 169.82 
L 519.839942 169.82 
L 519.839942 169.82 
L 515.80973 169.82 
z
" style="fill:#4575b4;"/>
   </g>
   <g id="patch_174">
    <path clip-path="url(#pf23584a74b)" d="M 519.839942 169.82 
L 523.870154 169.82 
L 523.870154 169.82 
L 519.839942 169.82 
z
" style="fill:#4575b4;"/>
   </g>
   <g id="patch_175">
    <path clip-path="url(#pf23584a74b)" d="M 523.870154 169.82 
L 527.900366 169.82 
L 527.900366 169.82 
L 523.870154 169.82 
z
" style="fill:#4575b4;"/>
   </g>
   <g id="patch_176">
    <path clip-path="url(#pf23584a74b)" d="M 527.900366 169.82 
L 531.930578 169.82 
L 531.930578 169.82 
L 527.900366 169.82 
z
" style="fill:#4575b4;"/>
   </g>
   <g id="patch_177">
    <path clip-path="url(#pf23584a74b)" d="M 531.930578 169.82 
L 535.96079 169.82 
L 535.96079 169.82 
L 531.930578 169.82 
z
" style="fill:#4575b4;"/>
   </g>
   <g id="patch_178">
    <path clip-path="url(#pf23584a74b)" d="M 535.96079 169.82 
L 539.991002 169.82 
L 539.991002 169.728519 
L 535.96079 169.728519 
z
" style="fill:#4575b4;"/>
   </g>
   <g id="patch_179">
    <path clip-path="url(#pf23584a74b)" d="M 539.991002 169.82 
L 544.021214 169.82 
L 544.021214 169.774259 
L 539.991002 169.774259 
z
" style="fill:#4575b4;"/>
   </g>
   <g id="patch_180">
    <path clip-path="url(#pf23584a74b)" d="M 544.021214 169.82 
L 548.051426 169.82 
L 548.051426 169.82 
L 544.021214 169.82 
z
" style="fill:#4575b4;"/>
   </g>
   <g id="patch_181">
    <path clip-path="url(#pf23584a74b)" d="M 548.051426 169.82 
L 552.081638 169.82 
L 552.081638 169.82 
L 548.051426 169.82 
z
" style="fill:#4575b4;"/>
   </g>
   <g id="patch_182">
    <path clip-path="url(#pf23584a74b)" d="M 552.081638 169.82 
L 556.111849 169.82 
L 556.111849 169.82 
L 552.081638 169.82 
z
" style="fill:#4575b4;"/>
   </g>
   <g id="patch_183">
    <path clip-path="url(#pf23584a74b)" d="M 556.111849 169.82 
L 560.142061 169.82 
L 560.142061 169.82 
L 556.111849 169.82 
z
" style="fill:#4575b4;"/>
   </g>
   <g id="patch_184">
    <path clip-path="url(#pf23584a74b)" d="M 560.142061 169.82 
L 564.172273 169.82 
L 564.172273 169.82 
L 560.142061 169.82 
z
" style="fill:#4575b4;"/>
   </g>
   <g id="patch_185">
    <path clip-path="url(#pf23584a74b)" d="M 564.172273 169.82 
L 568.202485 169.82 
L 568.202485 169.82 
L 564.172273 169.82 
z
" style="fill:#4575b4;"/>
   </g>
   <g id="patch_186">
    <path clip-path="url(#pf23584a74b)" d="M 568.202485 169.82 
L 572.232697 169.82 
L 572.232697 169.82 
L 568.202485 169.82 
z
" style="fill:#4575b4;"/>
   </g>
   <g id="patch_187">
    <path clip-path="url(#pf23584a74b)" d="M 572.232697 169.82 
L 576.262909 169.82 
L 576.262909 169.82 
L 572.232697 169.82 
z
" style="fill:#4575b4;"/>
   </g>
   <g id="patch_188">
    <path clip-path="url(#pf23584a74b)" d="M 576.262909 169.82 
L 580.293121 169.82 
L 580.293121 169.82 
L 576.262909 169.82 
z
" style="fill:#4575b4;"/>
   </g>
   <g id="patch_189">
    <path clip-path="url(#pf23584a74b)" d="M 580.293121 169.82 
L 584.323333 169.82 
L 584.323333 169.82 
L 580.293121 169.82 
z
" style="fill:#4575b4;"/>
   </g>
   <g id="patch_190">
    <path clip-path="url(#pf23584a74b)" d="M 584.323333 169.82 
L 588.353545 169.82 
L 588.353545 169.82 
L 584.323333 169.82 
z
" style="fill:#4575b4;"/>
   </g>
   <g id="patch_191">
    <path clip-path="url(#pf23584a74b)" d="M 588.353545 169.82 
L 592.383757 169.82 
L 592.383757 169.82 
L 588.353545 169.82 
z
" style="fill:#4575b4;"/>
   </g>
   <g id="patch_192">
    <path clip-path="url(#pf23584a74b)" d="M 592.383757 169.82 
L 596.413968 169.82 
L 596.413968 169.82 
L 592.383757 169.82 
z
" style="fill:#4575b4;"/>
   </g>
   <g id="patch_193">
    <path clip-path="url(#pf23584a74b)" d="M 596.413968 169.82 
L 600.44418 169.82 
L 600.44418 169.82 
L 596.413968 169.82 
z
" style="fill:#4575b4;"/>
   </g>
   <g id="patch_194">
    <path clip-path="url(#pf23584a74b)" d="M 600.44418 169.82 
L 604.474392 169.82 
L 604.474392 169.82 
L 600.44418 169.82 
z
" style="fill:#4575b4;"/>
   </g>
   <g id="patch_195">
    <path clip-path="url(#pf23584a74b)" d="M 604.474392 169.82 
L 608.504604 169.82 
L 608.504604 169.82 
L 604.474392 169.82 
z
" style="fill:#4575b4;"/>
   </g>
   <g id="patch_196">
    <path clip-path="url(#pf23584a74b)" d="M 608.504604 169.82 
L 612.534816 169.82 
L 612.534816 169.82 
L 608.504604 169.82 
z
" style="fill:#4575b4;"/>
   </g>
   <g id="patch_197">
    <path clip-path="url(#pf23584a74b)" d="M 612.534816 169.82 
L 616.565028 169.82 
L 616.565028 169.82 
L 612.534816 169.82 
z
" style="fill:#4575b4;"/>
   </g>
   <g id="patch_198">
    <path clip-path="url(#pf23584a74b)" d="M 616.565028 169.82 
L 620.59524 169.82 
L 620.59524 169.82 
L 616.565028 169.82 
z
" style="fill:#4575b4;"/>
   </g>
   <g id="patch_199">
    <path clip-path="url(#pf23584a74b)" d="M 620.59524 169.82 
L 624.625452 169.82 
L 624.625452 169.82 
L 620.59524 169.82 
z
" style="fill:#4575b4;"/>
   </g>
   <g id="patch_200">
    <path clip-path="url(#pf23584a74b)" d="M 624.625452 169.82 
L 628.655664 169.82 
L 628.655664 169.82 
L 624.625452 169.82 
z
" style="fill:#4575b4;"/>
   </g>
   <g id="patch_201">
    <path clip-path="url(#pf23584a74b)" d="M 628.655664 169.82 
L 632.685875 169.82 
L 632.685875 169.82 
L 628.655664 169.82 
z
" style="fill:#4575b4;"/>
   </g>
   <g id="patch_202">
    <path clip-path="url(#pf23584a74b)" d="M 632.685875 169.82 
L 636.716087 169.82 
L 636.716087 169.774259 
L 632.685875 169.774259 
z
" style="fill:#4575b4;"/>
   </g>
   <g id="matplotlib.axis_1">
    <g id="xtick_1">
     <g id="line2d_1">
      <defs>
       <path d="M 0 0 
L 0 3.5 
" id="m73a55b9a17" style="stroke:#000000;stroke-width:0.8;"/>
      </defs>
      <g>
       <use style="stroke:#000000;stroke-width:0.8;" x="56.58" xlink:href="#m73a55b9a17" y="169.82"/>
      </g>
     </g>
     <g id="text_1">
      <!-- 7 -->
      <defs>
       <path d="M 8.203125 72.90625 
L 55.078125 72.90625 
L 55.078125 68.703125 
L 28.609375 0 
L 18.3125 0 
L 43.21875 64.59375 
L 8.203125 64.59375 
z
" id="DejaVuSans-55"/>
      </defs>
      <g transform="translate(52.12625 187.457813)scale(0.14 -0.14)">
       <use xlink:href="#DejaVuSans-55"/>
      </g>
     </g>
    </g>
    <g id="xtick_2">
     <g id="line2d_2">
      <g>
       <use style="stroke:#000000;stroke-width:0.8;" x="126.33" xlink:href="#m73a55b9a17" y="169.82"/>
      </g>
     </g>
     <g id="text_2">
      <!-- 8 -->
      <defs>
       <path d="M 31.78125 34.625 
Q 24.75 34.625 20.71875 30.859375 
Q 16.703125 27.09375 16.703125 20.515625 
Q 16.703125 13.921875 20.71875 10.15625 
Q 24.75 6.390625 31.78125 6.390625 
Q 38.8125 6.390625 42.859375 10.171875 
Q 46.921875 13.96875 46.921875 20.515625 
Q 46.921875 27.09375 42.890625 30.859375 
Q 38.875 34.625 31.78125 34.625 
z
M 21.921875 38.8125 
Q 15.578125 40.375 12.03125 44.71875 
Q 8.5 49.078125 8.5 55.328125 
Q 8.5 64.0625 14.71875 69.140625 
Q 20.953125 74.21875 31.78125 74.21875 
Q 42.671875 74.21875 48.875 69.140625 
Q 55.078125 64.0625 55.078125 55.328125 
Q 55.078125 49.078125 51.53125 44.71875 
Q 48 40.375 41.703125 38.8125 
Q 48.828125 37.15625 52.796875 32.3125 
Q 56.78125 27.484375 56.78125 20.515625 
Q 56.78125 9.90625 50.3125 4.234375 
Q 43.84375 -1.421875 31.78125 -1.421875 
Q 19.734375 -1.421875 13.25 4.234375 
Q 6.78125 9.90625 6.78125 20.515625 
Q 6.78125 27.484375 10.78125 32.3125 
Q 14.796875 37.15625 21.921875 38.8125 
z
M 18.3125 54.390625 
Q 18.3125 48.734375 21.84375 45.5625 
Q 25.390625 42.390625 31.78125 42.390625 
Q 38.140625 42.390625 41.71875 45.5625 
Q 45.3125 48.734375 45.3125 54.390625 
Q 45.3125 60.0625 41.71875 63.234375 
Q 38.140625 66.40625 31.78125 66.40625 
Q 25.390625 66.40625 21.84375 63.234375 
Q 18.3125 60.0625 18.3125 54.390625 
z
" id="DejaVuSans-56"/>
      </defs>
      <g transform="translate(121.87625 187.457813)scale(0.14 -0.14)">
       <use xlink:href="#DejaVuSans-56"/>
      </g>
     </g>
    </g>
    <g id="xtick_3">
     <g id="line2d_3">
      <g>
       <use style="stroke:#000000;stroke-width:0.8;" x="196.08" xlink:href="#m73a55b9a17" y="169.82"/>
      </g>
     </g>
     <g id="text_3">
      <!-- 9 -->
      <defs>
       <path d="M 10.984375 1.515625 
L 10.984375 10.5 
Q 14.703125 8.734375 18.5 7.8125 
Q 22.3125 6.890625 25.984375 6.890625 
Q 35.75 6.890625 40.890625 13.453125 
Q 46.046875 20.015625 46.78125 33.40625 
Q 43.953125 29.203125 39.59375 26.953125 
Q 35.25 24.703125 29.984375 24.703125 
Q 19.046875 24.703125 12.671875 31.3125 
Q 6.296875 37.9375 6.296875 49.421875 
Q 6.296875 60.640625 12.9375 67.421875 
Q 19.578125 74.21875 30.609375 74.21875 
Q 43.265625 74.21875 49.921875 64.515625 
Q 56.59375 54.828125 56.59375 36.375 
Q 56.59375 19.140625 48.40625 8.859375 
Q 40.234375 -1.421875 26.421875 -1.421875 
Q 22.703125 -1.421875 18.890625 -0.6875 
Q 15.09375 0.046875 10.984375 1.515625 
z
M 30.609375 32.421875 
Q 37.25 32.421875 41.125 36.953125 
Q 45.015625 41.5 45.015625 49.421875 
Q 45.015625 57.28125 41.125 61.84375 
Q 37.25 66.40625 30.609375 66.40625 
Q 23.96875 66.40625 20.09375 61.84375 
Q 16.21875 57.28125 16.21875 49.421875 
Q 16.21875 41.5 20.09375 36.953125 
Q 23.96875 32.421875 30.609375 32.421875 
z
" id="DejaVuSans-57"/>
      </defs>
      <g transform="translate(191.62625 187.457813)scale(0.14 -0.14)">
       <use xlink:href="#DejaVuSans-57"/>
      </g>
     </g>
    </g>
    <g id="xtick_4">
     <g id="line2d_4">
      <g>
       <use style="stroke:#000000;stroke-width:0.8;" x="265.83" xlink:href="#m73a55b9a17" y="169.82"/>
      </g>
     </g>
     <g id="text_4">
      <!-- 10 -->
      <defs>
       <path d="M 12.40625 8.296875 
L 28.515625 8.296875 
L 28.515625 63.921875 
L 10.984375 60.40625 
L 10.984375 69.390625 
L 28.421875 72.90625 
L 38.28125 72.90625 
L 38.28125 8.296875 
L 54.390625 8.296875 
L 54.390625 0 
L 12.40625 0 
z
" id="DejaVuSans-49"/>
       <path d="M 31.78125 66.40625 
Q 24.171875 66.40625 20.328125 58.90625 
Q 16.5 51.421875 16.5 36.375 
Q 16.5 21.390625 20.328125 13.890625 
Q 24.171875 6.390625 31.78125 6.390625 
Q 39.453125 6.390625 43.28125 13.890625 
Q 47.125 21.390625 47.125 36.375 
Q 47.125 51.421875 43.28125 58.90625 
Q 39.453125 66.40625 31.78125 66.40625 
z
M 31.78125 74.21875 
Q 44.046875 74.21875 50.515625 64.515625 
Q 56.984375 54.828125 56.984375 36.375 
Q 56.984375 17.96875 50.515625 8.265625 
Q 44.046875 -1.421875 31.78125 -1.421875 
Q 19.53125 -1.421875 13.0625 8.265625 
Q 6.59375 17.96875 6.59375 36.375 
Q 6.59375 54.828125 13.0625 64.515625 
Q 19.53125 74.21875 31.78125 74.21875 
z
" id="DejaVuSans-48"/>
      </defs>
      <g transform="translate(256.9225 187.457813)scale(0.14 -0.14)">
       <use xlink:href="#DejaVuSans-49"/>
       <use x="63.623047" xlink:href="#DejaVuSans-48"/>
      </g>
     </g>
    </g>
    <g id="text_5">
     <!-- log(price) -->
     <defs>
      <path d="M 9.421875 75.984375 
L 18.40625 75.984375 
L 18.40625 0 
L 9.421875 0 
z
" id="DejaVuSans-108"/>
      <path d="M 30.609375 48.390625 
Q 23.390625 48.390625 19.1875 42.75 
Q 14.984375 37.109375 14.984375 27.296875 
Q 14.984375 17.484375 19.15625 11.84375 
Q 23.34375 6.203125 30.609375 6.203125 
Q 37.796875 6.203125 41.984375 11.859375 
Q 46.1875 17.53125 46.1875 27.296875 
Q 46.1875 37.015625 41.984375 42.703125 
Q 37.796875 48.390625 30.609375 48.390625 
z
M 30.609375 56 
Q 42.328125 56 49.015625 48.375 
Q 55.71875 40.765625 55.71875 27.296875 
Q 55.71875 13.875 49.015625 6.21875 
Q 42.328125 -1.421875 30.609375 -1.421875 
Q 18.84375 -1.421875 12.171875 6.21875 
Q 5.515625 13.875 5.515625 27.296875 
Q 5.515625 40.765625 12.171875 48.375 
Q 18.84375 56 30.609375 56 
z
" id="DejaVuSans-111"/>
      <path d="M 45.40625 27.984375 
Q 45.40625 37.75 41.375 43.109375 
Q 37.359375 48.484375 30.078125 48.484375 
Q 22.859375 48.484375 18.828125 43.109375 
Q 14.796875 37.75 14.796875 27.984375 
Q 14.796875 18.265625 18.828125 12.890625 
Q 22.859375 7.515625 30.078125 7.515625 
Q 37.359375 7.515625 41.375 12.890625 
Q 45.40625 18.265625 45.40625 27.984375 
z
M 54.390625 6.78125 
Q 54.390625 -7.171875 48.1875 -13.984375 
Q 42 -20.796875 29.203125 -20.796875 
Q 24.46875 -20.796875 20.265625 -20.09375 
Q 16.0625 -19.390625 12.109375 -17.921875 
L 12.109375 -9.1875 
Q 16.0625 -11.328125 19.921875 -12.34375 
Q 23.78125 -13.375 27.78125 -13.375 
Q 36.625 -13.375 41.015625 -8.765625 
Q 45.40625 -4.15625 45.40625 5.171875 
L 45.40625 9.625 
Q 42.625 4.78125 38.28125 2.390625 
Q 33.9375 0 27.875 0 
Q 17.828125 0 11.671875 7.65625 
Q 5.515625 15.328125 5.515625 27.984375 
Q 5.515625 40.671875 11.671875 48.328125 
Q 17.828125 56 27.875 56 
Q 33.9375 56 38.28125 53.609375 
Q 42.625 51.21875 45.40625 46.390625 
L 45.40625 54.6875 
L 54.390625 54.6875 
z
" id="DejaVuSans-103"/>
      <path d="M 31 75.875 
Q 24.46875 64.65625 21.28125 53.65625 
Q 18.109375 42.671875 18.109375 31.390625 
Q 18.109375 20.125 21.3125 9.0625 
Q 24.515625 -2 31 -13.1875 
L 23.1875 -13.1875 
Q 15.875 -1.703125 12.234375 9.375 
Q 8.59375 20.453125 8.59375 31.390625 
Q 8.59375 42.28125 12.203125 53.3125 
Q 15.828125 64.359375 23.1875 75.875 
z
" id="DejaVuSans-40"/>
      <path d="M 18.109375 8.203125 
L 18.109375 -20.796875 
L 9.078125 -20.796875 
L 9.078125 54.6875 
L 18.109375 54.6875 
L 18.109375 46.390625 
Q 20.953125 51.265625 25.265625 53.625 
Q 29.59375 56 35.59375 56 
Q 45.5625 56 51.78125 48.09375 
Q 58.015625 40.1875 58.015625 27.296875 
Q 58.015625 14.40625 51.78125 6.484375 
Q 45.5625 -1.421875 35.59375 -1.421875 
Q 29.59375 -1.421875 25.265625 0.953125 
Q 20.953125 3.328125 18.109375 8.203125 
z
M 48.6875 27.296875 
Q 48.6875 37.203125 44.609375 42.84375 
Q 40.53125 48.484375 33.40625 48.484375 
Q 26.265625 48.484375 22.1875 42.84375 
Q 18.109375 37.203125 18.109375 27.296875 
Q 18.109375 17.390625 22.1875 11.75 
Q 26.265625 6.109375 33.40625 6.109375 
Q 40.53125 6.109375 44.609375 11.75 
Q 48.6875 17.390625 48.6875 27.296875 
z
" id="DejaVuSans-112"/>
      <path d="M 41.109375 46.296875 
Q 39.59375 47.171875 37.8125 47.578125 
Q 36.03125 48 33.890625 48 
Q 26.265625 48 22.1875 43.046875 
Q 18.109375 38.09375 18.109375 28.8125 
L 18.109375 0 
L 9.078125 0 
L 9.078125 54.6875 
L 18.109375 54.6875 
L 18.109375 46.1875 
Q 20.953125 51.171875 25.484375 53.578125 
Q 30.03125 56 36.53125 56 
Q 37.453125 56 38.578125 55.875 
Q 39.703125 55.765625 41.0625 55.515625 
z
" id="DejaVuSans-114"/>
      <path d="M 9.421875 54.6875 
L 18.40625 54.6875 
L 18.40625 0 
L 9.421875 0 
z
M 9.421875 75.984375 
L 18.40625 75.984375 
L 18.40625 64.59375 
L 9.421875 64.59375 
z
" id="DejaVuSans-105"/>
      <path d="M 48.78125 52.59375 
L 48.78125 44.1875 
Q 44.96875 46.296875 41.140625 47.34375 
Q 37.3125 48.390625 33.40625 48.390625 
Q 24.65625 48.390625 19.8125 42.84375 
Q 14.984375 37.3125 14.984375 27.296875 
Q 14.984375 17.28125 19.8125 11.734375 
Q 24.65625 6.203125 33.40625 6.203125 
Q 37.3125 6.203125 41.140625 7.25 
Q 44.96875 8.296875 48.78125 10.40625 
L 48.78125 2.09375 
Q 45.015625 0.34375 40.984375 -0.53125 
Q 36.96875 -1.421875 32.421875 -1.421875 
Q 20.0625 -1.421875 12.78125 6.34375 
Q 5.515625 14.109375 5.515625 27.296875 
Q 5.515625 40.671875 12.859375 48.328125 
Q 20.21875 56 33.015625 56 
Q 37.15625 56 41.109375 55.140625 
Q 45.0625 54.296875 48.78125 52.59375 
z
" id="DejaVuSans-99"/>
      <path d="M 56.203125 29.59375 
L 56.203125 25.203125 
L 14.890625 25.203125 
Q 15.484375 15.921875 20.484375 11.0625 
Q 25.484375 6.203125 34.421875 6.203125 
Q 39.59375 6.203125 44.453125 7.46875 
Q 49.3125 8.734375 54.109375 11.28125 
L 54.109375 2.78125 
Q 49.265625 0.734375 44.1875 -0.34375 
Q 39.109375 -1.421875 33.890625 -1.421875 
Q 20.796875 -1.421875 13.15625 6.1875 
Q 5.515625 13.8125 5.515625 26.8125 
Q 5.515625 40.234375 12.765625 48.109375 
Q 20.015625 56 32.328125 56 
Q 43.359375 56 49.78125 48.890625 
Q 56.203125 41.796875 56.203125 29.59375 
z
M 47.21875 32.234375 
Q 47.125 39.59375 43.09375 43.984375 
Q 39.0625 48.390625 32.421875 48.390625 
Q 24.90625 48.390625 20.390625 44.140625 
Q 15.875 39.890625 15.1875 32.171875 
z
" id="DejaVuSans-101"/>
      <path d="M 8.015625 75.875 
L 15.828125 75.875 
Q 23.140625 64.359375 26.78125 53.3125 
Q 30.421875 42.28125 30.421875 31.390625 
Q 30.421875 20.453125 26.78125 9.375 
Q 23.140625 -1.703125 15.828125 -13.1875 
L 8.015625 -13.1875 
Q 14.5 -2 17.703125 9.0625 
Q 20.90625 20.125 20.90625 31.390625 
Q 20.90625 42.671875 17.703125 53.65625 
Q 14.5 64.65625 8.015625 75.875 
z
" id="DejaVuSans-41"/>
     </defs>
     <g transform="translate(120.67375 205.007188)scale(0.14 -0.14)">
      <use xlink:href="#DejaVuSans-108"/>
      <use x="27.783203" xlink:href="#DejaVuSans-111"/>
      <use x="88.964844" xlink:href="#DejaVuSans-103"/>
      <use x="152.441406" xlink:href="#DejaVuSans-40"/>
      <use x="191.455078" xlink:href="#DejaVuSans-112"/>
      <use x="254.931641" xlink:href="#DejaVuSans-114"/>
      <use x="296.044922" xlink:href="#DejaVuSans-105"/>
      <use x="323.828125" xlink:href="#DejaVuSans-99"/>
      <use x="378.808594" xlink:href="#DejaVuSans-101"/>
      <use x="440.332031" xlink:href="#DejaVuSans-41"/>
     </g>
    </g>
   </g>
   <g id="matplotlib.axis_2">
    <g id="ytick_1">
     <g id="line2d_5">
      <defs>
       <path d="M 0 0 
L -3.5 0 
" id="m3a9d4ed8c6" style="stroke:#000000;stroke-width:0.8;"/>
      </defs>
      <g>
       <use style="stroke:#000000;stroke-width:0.8;" x="42.63" xlink:href="#m3a9d4ed8c6" y="169.82"/>
      </g>
     </g>
     <g id="text_6">
      <!-- 0 -->
      <g transform="translate(26.7225 175.138906)scale(0.14 -0.14)">
       <use xlink:href="#DejaVuSans-48"/>
      </g>
     </g>
    </g>
    <g id="ytick_2">
     <g id="line2d_6">
      <g>
       <use style="stroke:#000000;stroke-width:0.8;" x="42.63" xlink:href="#m3a9d4ed8c6" y="124.079313"/>
      </g>
     </g>
     <g id="text_7">
      <!-- 1000 -->
      <g transform="translate(0 129.398219)scale(0.14 -0.14)">
       <use xlink:href="#DejaVuSans-49"/>
       <use x="63.623047" xlink:href="#DejaVuSans-48"/>
       <use x="127.246094" xlink:href="#DejaVuSans-48"/>
       <use x="190.869141" xlink:href="#DejaVuSans-48"/>
      </g>
     </g>
    </g>
    <g id="ytick_3">
     <g id="line2d_7">
      <g>
       <use style="stroke:#000000;stroke-width:0.8;" x="42.63" xlink:href="#m3a9d4ed8c6" y="78.338625"/>
      </g>
     </g>
     <g id="text_8">
      <!-- 2000 -->
      <defs>
       <path d="M 19.1875 8.296875 
L 53.609375 8.296875 
L 53.609375 0 
L 7.328125 0 
L 7.328125 8.296875 
Q 12.9375 14.109375 22.625 23.890625 
Q 32.328125 33.6875 34.8125 36.53125 
Q 39.546875 41.84375 41.421875 45.53125 
Q 43.3125 49.21875 43.3125 52.78125 
Q 43.3125 58.59375 39.234375 62.25 
Q 35.15625 65.921875 28.609375 65.921875 
Q 23.96875 65.921875 18.8125 64.3125 
Q 13.671875 62.703125 7.8125 59.421875 
L 7.8125 69.390625 
Q 13.765625 71.78125 18.9375 73 
Q 24.125 74.21875 28.421875 74.21875 
Q 39.75 74.21875 46.484375 68.546875 
Q 53.21875 62.890625 53.21875 53.421875 
Q 53.21875 48.921875 51.53125 44.890625 
Q 49.859375 40.875 45.40625 35.40625 
Q 44.1875 33.984375 37.640625 27.21875 
Q 31.109375 20.453125 19.1875 8.296875 
z
" id="DejaVuSans-50"/>
      </defs>
      <g transform="translate(0 83.657532)scale(0.14 -0.14)">
       <use xlink:href="#DejaVuSans-50"/>
       <use x="63.623047" xlink:href="#DejaVuSans-48"/>
       <use x="127.246094" xlink:href="#DejaVuSans-48"/>
       <use x="190.869141" xlink:href="#DejaVuSans-48"/>
      </g>
     </g>
    </g>
    <g id="ytick_4">
     <g id="line2d_8">
      <g>
       <use style="stroke:#000000;stroke-width:0.8;" x="42.63" xlink:href="#m3a9d4ed8c6" y="32.597938"/>
      </g>
     </g>
     <g id="text_9">
      <!-- 3000 -->
      <defs>
       <path d="M 40.578125 39.3125 
Q 47.65625 37.796875 51.625 33 
Q 55.609375 28.21875 55.609375 21.1875 
Q 55.609375 10.40625 48.1875 4.484375 
Q 40.765625 -1.421875 27.09375 -1.421875 
Q 22.515625 -1.421875 17.65625 -0.515625 
Q 12.796875 0.390625 7.625 2.203125 
L 7.625 11.71875 
Q 11.71875 9.328125 16.59375 8.109375 
Q 21.484375 6.890625 26.8125 6.890625 
Q 36.078125 6.890625 40.9375 10.546875 
Q 45.796875 14.203125 45.796875 21.1875 
Q 45.796875 27.640625 41.28125 31.265625 
Q 36.765625 34.90625 28.71875 34.90625 
L 20.21875 34.90625 
L 20.21875 43.015625 
L 29.109375 43.015625 
Q 36.375 43.015625 40.234375 45.921875 
Q 44.09375 48.828125 44.09375 54.296875 
Q 44.09375 59.90625 40.109375 62.90625 
Q 36.140625 65.921875 28.71875 65.921875 
Q 24.65625 65.921875 20.015625 65.03125 
Q 15.375 64.15625 9.8125 62.3125 
L 9.8125 71.09375 
Q 15.4375 72.65625 20.34375 73.4375 
Q 25.25 74.21875 29.59375 74.21875 
Q 40.828125 74.21875 47.359375 69.109375 
Q 53.90625 64.015625 53.90625 55.328125 
Q 53.90625 49.265625 50.4375 45.09375 
Q 46.96875 40.921875 40.578125 39.3125 
z
" id="DejaVuSans-51"/>
      </defs>
      <g transform="translate(0 37.916844)scale(0.14 -0.14)">
       <use xlink:href="#DejaVuSans-51"/>
       <use x="63.623047" xlink:href="#DejaVuSans-48"/>
       <use x="127.246094" xlink:href="#DejaVuSans-48"/>
       <use x="190.869141" xlink:href="#DejaVuSans-48"/>
      </g>
     </g>
    </g>
   </g>
   <g id="patch_203">
    <path d="M 42.63 169.82 
L 42.63 3.5 
" style="fill:none;stroke:#000000;stroke-linecap:square;stroke-linejoin:miter;stroke-width:0.8;"/>
   </g>
   <g id="patch_204">
    <path d="M 265.83 169.82 
L 265.83 3.5 
" style="fill:none;stroke:#000000;stroke-linecap:square;stroke-linejoin:miter;stroke-width:0.8;"/>
   </g>
   <g id="patch_205">
    <path d="M 42.63 169.82 
L 265.83 169.82 
" style="fill:none;stroke:#000000;stroke-linecap:square;stroke-linejoin:miter;stroke-width:0.8;"/>
   </g>
   <g id="patch_206">
    <path d="M 42.63 3.5 
L 265.83 3.5 
" style="fill:none;stroke:#000000;stroke-linecap:square;stroke-linejoin:miter;stroke-width:0.8;"/>
   </g>
  </g>
 </g>
 <defs>
  <clipPath id="pf23584a74b">
   <rect height="166.32" width="223.2" x="42.63" y="3.5"/>
  </clipPath>
 </defs>
</svg>
