<?xml version="1.0" encoding="utf-8" standalone="no"?>
<!DOCTYPE svg PUBLIC "-//W3C//DTD SVG 1.1//EN"
  "http://www.w3.org/Graphics/SVG/1.1/DTD/svg11.dtd">
<!-- Created with matplotlib (https://matplotlib.org/) -->
<svg height="309.529656pt" version="1.1" viewBox="0 0 405.786023 309.529656" width="405.786023pt" xmlns="http://www.w3.org/2000/svg" xmlns:xlink="http://www.w3.org/1999/xlink">
 <defs>
  <style type="text/css">
*{stroke-linecap:butt;stroke-linejoin:round;}
  </style>
 </defs>
 <g id="figure_1">
  <g id="patch_1">
   <path d="M 0 309.529656 
L 405.786023 309.529656 
L 405.786023 0 
L 0 0 
z
" style="fill:#ffffff;"/>
  </g>
  <g id="axes_1">
   <g id="patch_2">
    <path d="M 42.63 271.430906 
L 399.75 271.430906 
L 399.75 5.318906 
L 42.63 5.318906 
z
" style="fill:#ffffff;"/>
   </g>
   <g id="patch_3">
    <path clip-path="url(#pc738666d40)" d="M 58.862727 271.430906 
L 63.500649 271.430906 
L 63.500649 271.164794 
L 58.862727 271.164794 
z
" style="fill:#4575b4;"/>
   </g>
   <g id="patch_4">
    <path clip-path="url(#pc738666d40)" d="M 63.500649 271.430906 
L 68.138571 271.430906 
L 68.138571 271.29785 
L 63.500649 271.29785 
z
" style="fill:#4575b4;"/>
   </g>
   <g id="patch_5">
    <path clip-path="url(#pc738666d40)" d="M 68.138571 271.430906 
L 72.776494 271.430906 
L 72.776494 270.499514 
L 68.138571 270.499514 
z
" style="fill:#4575b4;"/>
   </g>
   <g id="patch_6">
    <path clip-path="url(#pc738666d40)" d="M 72.776494 271.430906 
L 77.414416 271.430906 
L 77.414416 267.173114 
L 72.776494 267.173114 
z
" style="fill:#4575b4;"/>
   </g>
   <g id="patch_7">
    <path clip-path="url(#pc738666d40)" d="M 77.414416 271.430906 
L 82.052338 271.430906 
L 82.052338 211.688762 
L 77.414416 211.688762 
z
" style="fill:#4575b4;"/>
   </g>
   <g id="patch_8">
    <path clip-path="url(#pc738666d40)" d="M 82.052338 271.430906 
L 86.69026 271.430906 
L 86.69026 64.39577 
L 82.052338 64.39577 
z
" style="fill:#4575b4;"/>
   </g>
   <g id="patch_9">
    <path clip-path="url(#pc738666d40)" d="M 86.69026 271.430906 
L 91.328182 271.430906 
L 91.328182 -170.980294 
L 86.69026 -170.980294 
z
" style="fill:#4575b4;"/>
   </g>
   <g id="patch_10">
    <path clip-path="url(#pc738666d40)" d="M 91.328182 271.430906 
L 95.966104 271.430906 
L 95.966104 -263.188102 
L 91.328182 -263.188102 
z
" style="fill:#4575b4;"/>
   </g>
   <g id="patch_11">
    <path clip-path="url(#pc738666d40)" d="M 95.966104 271.430906 
L 100.604026 271.430906 
L 100.604026 -507.74503 
L 95.966104 -507.74503 
z
" style="fill:#4575b4;"/>
   </g>
   <g id="patch_12">
    <path clip-path="url(#pc738666d40)" d="M 100.604026 271.430906 
L 105.241948 271.430906 
L 105.241948 -366.572614 
L 100.604026 -366.572614 
z
" style="fill:#4575b4;"/>
   </g>
   <g id="patch_13">
    <path clip-path="url(#pc738666d40)" d="M 105.241948 271.430906 
L 109.87987 271.430906 
L 109.87987 -384.801286 
L 105.241948 -384.801286 
z
" style="fill:#4575b4;"/>
   </g>
   <g id="patch_14">
    <path clip-path="url(#pc738666d40)" d="M 109.87987 271.430906 
L 114.517792 271.430906 
L 114.517792 -375.088198 
L 109.87987 -375.088198 
z
" style="fill:#4575b4;"/>
   </g>
   <g id="patch_15">
    <path clip-path="url(#pc738666d40)" d="M 114.517792 271.430906 
L 119.155714 271.430906 
L 119.155714 -229.258822 
L 114.517792 -229.258822 
z
" style="fill:#4575b4;"/>
   </g>
   <g id="patch_16">
    <path clip-path="url(#pc738666d40)" d="M 119.155714 271.430906 
L 123.793636 271.430906 
L 123.793636 -137.716294 
L 119.155714 -137.716294 
z
" style="fill:#4575b4;"/>
   </g>
   <g id="patch_17">
    <path clip-path="url(#pc738666d40)" d="M 123.793636 271.430906 
L 128.431558 271.430906 
L 128.431558 42.175418 
L 123.793636 42.175418 
z
" style="fill:#4575b4;"/>
   </g>
   <g id="patch_18">
    <path clip-path="url(#pc738666d40)" d="M 128.431558 271.430906 
L 133.069481 271.430906 
L 133.069481 25.011194 
L 128.431558 25.011194 
z
" style="fill:#4575b4;"/>
   </g>
   <g id="patch_19">
    <path clip-path="url(#pc738666d40)" d="M 133.069481 271.430906 
L 137.707403 271.430906 
L 137.707403 131.855162 
L 133.069481 131.855162 
z
" style="fill:#4575b4;"/>
   </g>
   <g id="patch_20">
    <path clip-path="url(#pc738666d40)" d="M 137.707403 271.430906 
L 142.345325 271.430906 
L 142.345325 77.568314 
L 137.707403 77.568314 
z
" style="fill:#4575b4;"/>
   </g>
   <g id="patch_21">
    <path clip-path="url(#pc738666d40)" d="M 142.345325 271.430906 
L 146.983247 271.430906 
L 146.983247 147.55577 
L 142.345325 147.55577 
z
" style="fill:#4575b4;"/>
   </g>
   <g id="patch_22">
    <path clip-path="url(#pc738666d40)" d="M 146.983247 271.430906 
L 151.621169 271.430906 
L 151.621169 148.753274 
L 146.983247 148.753274 
z
" style="fill:#4575b4;"/>
   </g>
   <g id="patch_23">
    <path clip-path="url(#pc738666d40)" d="M 151.621169 271.430906 
L 156.259091 271.430906 
L 156.259091 138.774074 
L 151.621169 138.774074 
z
" style="fill:#4575b4;"/>
   </g>
   <g id="patch_24">
    <path clip-path="url(#pc738666d40)" d="M 156.259091 271.430906 
L 160.897013 271.430906 
L 160.897013 202.507898 
L 156.259091 202.507898 
z
" style="fill:#4575b4;"/>
   </g>
   <g id="patch_25">
    <path clip-path="url(#pc738666d40)" d="M 160.897013 271.430906 
L 165.534935 271.430906 
L 165.534935 199.580666 
L 160.897013 199.580666 
z
" style="fill:#4575b4;"/>
   </g>
   <g id="patch_26">
    <path clip-path="url(#pc738666d40)" d="M 165.534935 271.430906 
L 170.172857 271.430906 
L 170.172857 242.291642 
L 165.534935 242.291642 
z
" style="fill:#4575b4;"/>
   </g>
   <g id="patch_27">
    <path clip-path="url(#pc738666d40)" d="M 170.172857 271.430906 
L 174.810779 271.430906 
L 174.810779 227.522426 
L 170.172857 227.522426 
z
" style="fill:#4575b4;"/>
   </g>
   <g id="patch_28">
    <path clip-path="url(#pc738666d40)" d="M 174.810779 271.430906 
L 179.448701 271.430906 
L 179.448701 244.02137 
L 174.810779 244.02137 
z
" style="fill:#4575b4;"/>
   </g>
   <g id="patch_29">
    <path clip-path="url(#pc738666d40)" d="M 179.448701 271.430906 
L 184.086623 271.430906 
L 184.086623 247.746938 
L 179.448701 247.746938 
z
" style="fill:#4575b4;"/>
   </g>
   <g id="patch_30">
    <path clip-path="url(#pc738666d40)" d="M 184.086623 271.430906 
L 188.724545 271.430906 
L 188.724545 232.445498 
L 184.086623 232.445498 
z
" style="fill:#4575b4;"/>
   </g>
   <g id="patch_31">
    <path clip-path="url(#pc738666d40)" d="M 188.724545 271.430906 
L 193.362468 271.430906 
L 193.362468 261.185594 
L 188.724545 261.185594 
z
" style="fill:#4575b4;"/>
   </g>
   <g id="patch_32">
    <path clip-path="url(#pc738666d40)" d="M 193.362468 271.430906 
L 198.00039 271.430906 
L 198.00039 257.99225 
L 193.362468 257.99225 
z
" style="fill:#4575b4;"/>
   </g>
   <g id="patch_33">
    <path clip-path="url(#pc738666d40)" d="M 198.00039 271.430906 
L 202.638312 271.430906 
L 202.638312 264.778106 
L 198.00039 264.778106 
z
" style="fill:#4575b4;"/>
   </g>
   <g id="patch_34">
    <path clip-path="url(#pc738666d40)" d="M 202.638312 271.430906 
L 207.276234 271.430906 
L 207.276234 254.798906 
L 202.638312 254.798906 
z
" style="fill:#4575b4;"/>
   </g>
   <g id="patch_35">
    <path clip-path="url(#pc738666d40)" d="M 207.276234 271.430906 
L 211.914156 271.430906 
L 211.914156 266.907002 
L 207.276234 266.907002 
z
" style="fill:#4575b4;"/>
   </g>
   <g id="patch_36">
    <path clip-path="url(#pc738666d40)" d="M 211.914156 271.430906 
L 216.552078 271.430906 
L 216.552078 262.782266 
L 211.914156 262.782266 
z
" style="fill:#4575b4;"/>
   </g>
   <g id="patch_37">
    <path clip-path="url(#pc738666d40)" d="M 216.552078 271.430906 
L 221.19 271.430906 
L 221.19 253.202234 
L 216.552078 253.202234 
z
" style="fill:#4575b4;"/>
   </g>
   <g id="patch_38">
    <path clip-path="url(#pc738666d40)" d="M 221.19 271.430906 
L 225.827922 271.430906 
L 225.827922 269.168954 
L 221.19 269.168954 
z
" style="fill:#4575b4;"/>
   </g>
   <g id="patch_39">
    <path clip-path="url(#pc738666d40)" d="M 225.827922 271.430906 
L 230.465844 271.430906 
L 230.465844 267.439226 
L 225.827922 267.439226 
z
" style="fill:#4575b4;"/>
   </g>
   <g id="patch_40">
    <path clip-path="url(#pc738666d40)" d="M 230.465844 271.430906 
L 235.103766 271.430906 
L 235.103766 267.705338 
L 230.465844 267.705338 
z
" style="fill:#4575b4;"/>
   </g>
   <g id="patch_41">
    <path clip-path="url(#pc738666d40)" d="M 235.103766 271.430906 
L 239.741688 271.430906 
L 239.741688 261.717818 
L 235.103766 261.717818 
z
" style="fill:#4575b4;"/>
   </g>
   <g id="patch_42">
    <path clip-path="url(#pc738666d40)" d="M 239.741688 271.430906 
L 244.37961 271.430906 
L 244.37961 268.63673 
L 239.741688 268.63673 
z
" style="fill:#4575b4;"/>
   </g>
   <g id="patch_43">
    <path clip-path="url(#pc738666d40)" d="M 244.37961 271.430906 
L 249.017532 271.430906 
L 249.017532 266.374778 
L 244.37961 266.374778 
z
" style="fill:#4575b4;"/>
   </g>
   <g id="patch_44">
    <path clip-path="url(#pc738666d40)" d="M 249.017532 271.430906 
L 253.655455 271.430906 
L 253.655455 259.721978 
L 249.017532 259.721978 
z
" style="fill:#4575b4;"/>
   </g>
   <g id="patch_45">
    <path clip-path="url(#pc738666d40)" d="M 253.655455 271.430906 
L 258.293377 271.430906 
L 258.293377 270.499514 
L 253.655455 270.499514 
z
" style="fill:#4575b4;"/>
   </g>
   <g id="patch_46">
    <path clip-path="url(#pc738666d40)" d="M 258.293377 271.430906 
L 262.931299 271.430906 
L 262.931299 265.044218 
L 258.293377 265.044218 
z
" style="fill:#4575b4;"/>
   </g>
   <g id="patch_47">
    <path clip-path="url(#pc738666d40)" d="M 262.931299 271.430906 
L 267.569221 271.430906 
L 267.569221 269.435066 
L 262.931299 269.435066 
z
" style="fill:#4575b4;"/>
   </g>
   <g id="patch_48">
    <path clip-path="url(#pc738666d40)" d="M 267.569221 271.430906 
L 272.207143 271.430906 
L 272.207143 266.907002 
L 267.569221 266.907002 
z
" style="fill:#4575b4;"/>
   </g>
   <g id="patch_49">
    <path clip-path="url(#pc738666d40)" d="M 272.207143 271.430906 
L 276.845065 271.430906 
L 276.845065 270.499514 
L 272.207143 270.499514 
z
" style="fill:#4575b4;"/>
   </g>
   <g id="patch_50">
    <path clip-path="url(#pc738666d40)" d="M 276.845065 271.430906 
L 281.482987 271.430906 
L 281.482987 265.709498 
L 276.845065 265.709498 
z
" style="fill:#4575b4;"/>
   </g>
   <g id="patch_51">
    <path clip-path="url(#pc738666d40)" d="M 281.482987 271.430906 
L 286.120909 271.430906 
L 286.120909 262.915322 
L 281.482987 262.915322 
z
" style="fill:#4575b4;"/>
   </g>
   <g id="patch_52">
    <path clip-path="url(#pc738666d40)" d="M 286.120909 271.430906 
L 290.758831 271.430906 
L 290.758831 270.63257 
L 286.120909 270.63257 
z
" style="fill:#4575b4;"/>
   </g>
   <g id="patch_53">
    <path clip-path="url(#pc738666d40)" d="M 290.758831 271.430906 
L 295.396753 271.430906 
L 295.396753 269.035898 
L 290.758831 269.035898 
z
" style="fill:#4575b4;"/>
   </g>
   <g id="patch_54">
    <path clip-path="url(#pc738666d40)" d="M 295.396753 271.430906 
L 300.034675 271.430906 
L 300.034675 270.366458 
L 295.396753 270.366458 
z
" style="fill:#4575b4;"/>
   </g>
   <g id="patch_55">
    <path clip-path="url(#pc738666d40)" d="M 300.034675 271.430906 
L 304.672597 271.430906 
L 304.672597 261.052538 
L 300.034675 261.052538 
z
" style="fill:#4575b4;"/>
   </g>
   <g id="patch_56">
    <path clip-path="url(#pc738666d40)" d="M 304.672597 271.430906 
L 309.310519 271.430906 
L 309.310519 271.430906 
L 304.672597 271.430906 
z
" style="fill:#4575b4;"/>
   </g>
   <g id="patch_57">
    <path clip-path="url(#pc738666d40)" d="M 309.310519 271.430906 
L 313.948442 271.430906 
L 313.948442 269.96729 
L 309.310519 269.96729 
z
" style="fill:#4575b4;"/>
   </g>
   <g id="patch_58">
    <path clip-path="url(#pc738666d40)" d="M 313.948442 271.430906 
L 318.586364 271.430906 
L 318.586364 267.97145 
L 313.948442 267.97145 
z
" style="fill:#4575b4;"/>
   </g>
   <g id="patch_59">
    <path clip-path="url(#pc738666d40)" d="M 318.586364 271.430906 
L 323.224286 271.430906 
L 323.224286 271.29785 
L 318.586364 271.29785 
z
" style="fill:#4575b4;"/>
   </g>
   <g id="patch_60">
    <path clip-path="url(#pc738666d40)" d="M 323.224286 271.430906 
L 327.862208 271.430906 
L 327.862208 270.233402 
L 323.224286 270.233402 
z
" style="fill:#4575b4;"/>
   </g>
   <g id="patch_61">
    <path clip-path="url(#pc738666d40)" d="M 327.862208 271.430906 
L 332.50013 271.430906 
L 332.50013 270.499514 
L 327.862208 270.499514 
z
" style="fill:#4575b4;"/>
   </g>
   <g id="patch_62">
    <path clip-path="url(#pc738666d40)" d="M 332.50013 271.430906 
L 337.138052 271.430906 
L 337.138052 269.834234 
L 332.50013 269.834234 
z
" style="fill:#4575b4;"/>
   </g>
   <g id="patch_63">
    <path clip-path="url(#pc738666d40)" d="M 337.138052 271.430906 
L 341.775974 271.430906 
L 341.775974 271.29785 
L 337.138052 271.29785 
z
" style="fill:#4575b4;"/>
   </g>
   <g id="patch_64">
    <path clip-path="url(#pc738666d40)" d="M 341.775974 271.430906 
L 346.413896 271.430906 
L 346.413896 270.233402 
L 341.775974 270.233402 
z
" style="fill:#4575b4;"/>
   </g>
   <g id="patch_65">
    <path clip-path="url(#pc738666d40)" d="M 346.413896 271.430906 
L 351.051818 271.430906 
L 351.051818 269.168954 
L 346.413896 269.168954 
z
" style="fill:#4575b4;"/>
   </g>
   <g id="patch_66">
    <path clip-path="url(#pc738666d40)" d="M 351.051818 271.430906 
L 355.68974 271.430906 
L 355.68974 271.430906 
L 351.051818 271.430906 
z
" style="fill:#4575b4;"/>
   </g>
   <g id="patch_67">
    <path clip-path="url(#pc738666d40)" d="M 355.68974 271.430906 
L 360.327662 271.430906 
L 360.327662 269.96729 
L 355.68974 269.96729 
z
" style="fill:#4575b4;"/>
   </g>
   <g id="patch_68">
    <path clip-path="url(#pc738666d40)" d="M 360.327662 271.430906 
L 364.965584 271.430906 
L 364.965584 271.29785 
L 360.327662 271.29785 
z
" style="fill:#4575b4;"/>
   </g>
   <g id="patch_69">
    <path clip-path="url(#pc738666d40)" d="M 364.965584 271.430906 
L 369.603506 271.430906 
L 369.603506 270.233402 
L 364.965584 270.233402 
z
" style="fill:#4575b4;"/>
   </g>
   <g id="patch_70">
    <path clip-path="url(#pc738666d40)" d="M 369.603506 271.430906 
L 374.241429 271.430906 
L 374.241429 271.430906 
L 369.603506 271.430906 
z
" style="fill:#4575b4;"/>
   </g>
   <g id="patch_71">
    <path clip-path="url(#pc738666d40)" d="M 374.241429 271.430906 
L 378.879351 271.430906 
L 378.879351 271.430906 
L 374.241429 271.430906 
z
" style="fill:#4575b4;"/>
   </g>
   <g id="patch_72">
    <path clip-path="url(#pc738666d40)" d="M 378.879351 271.430906 
L 383.517273 271.430906 
L 383.517273 252.67001 
L 378.879351 252.67001 
z
" style="fill:#4575b4;"/>
   </g>
   <g id="matplotlib.axis_1">
    <g id="xtick_1">
     <g id="line2d_1">
      <defs>
       <path d="M 0 0 
L 0 3.5 
" id="m7096dec353" style="stroke:#000000;stroke-width:0.8;"/>
      </defs>
      <g>
       <use style="stroke:#000000;stroke-width:0.8;" x="58.163216" xlink:href="#m7096dec353" y="271.430906"/>
      </g>
     </g>
     <g id="text_1">
      <!-- 0 -->
      <defs>
       <path d="M 31.78125 66.40625 
Q 24.171875 66.40625 20.328125 58.90625 
Q 16.5 51.421875 16.5 36.375 
Q 16.5 21.390625 20.328125 13.890625 
Q 24.171875 6.390625 31.78125 6.390625 
Q 39.453125 6.390625 43.28125 13.890625 
Q 47.125 21.390625 47.125 36.375 
Q 47.125 51.421875 43.28125 58.90625 
Q 39.453125 66.40625 31.78125 66.40625 
z
M 31.78125 74.21875 
Q 44.046875 74.21875 50.515625 64.515625 
Q 56.984375 54.828125 56.984375 36.375 
Q 56.984375 17.96875 50.515625 8.265625 
Q 44.046875 -1.421875 31.78125 -1.421875 
Q 19.53125 -1.421875 13.0625 8.265625 
Q 6.59375 17.96875 6.59375 36.375 
Q 6.59375 54.828125 13.0625 64.515625 
Q 19.53125 74.21875 31.78125 74.21875 
z
" id="DejaVuSans-48"/>
      </defs>
      <g transform="translate(53.709466 289.068719)scale(0.14 -0.14)">
       <use xlink:href="#DejaVuSans-48"/>
      </g>
     </g>
    </g>
    <g id="xtick_2">
     <g id="line2d_2">
      <g>
       <use style="stroke:#000000;stroke-width:0.8;" x="139.50173" xlink:href="#m7096dec353" y="271.430906"/>
      </g>
     </g>
     <g id="text_2">
      <!-- 5000 -->
      <defs>
       <path d="M 10.796875 72.90625 
L 49.515625 72.90625 
L 49.515625 64.59375 
L 19.828125 64.59375 
L 19.828125 46.734375 
Q 21.96875 47.46875 24.109375 47.828125 
Q 26.265625 48.1875 28.421875 48.1875 
Q 40.625 48.1875 47.75 41.5 
Q 54.890625 34.8125 54.890625 23.390625 
Q 54.890625 11.625 47.5625 5.09375 
Q 40.234375 -1.421875 26.90625 -1.421875 
Q 22.3125 -1.421875 17.546875 -0.640625 
Q 12.796875 0.140625 7.71875 1.703125 
L 7.71875 11.625 
Q 12.109375 9.234375 16.796875 8.0625 
Q 21.484375 6.890625 26.703125 6.890625 
Q 35.15625 6.890625 40.078125 11.328125 
Q 45.015625 15.765625 45.015625 23.390625 
Q 45.015625 31 40.078125 35.4375 
Q 35.15625 39.890625 26.703125 39.890625 
Q 22.75 39.890625 18.8125 39.015625 
Q 14.890625 38.140625 10.796875 36.28125 
z
" id="DejaVuSans-53"/>
      </defs>
      <g transform="translate(121.68673 289.068719)scale(0.14 -0.14)">
       <use xlink:href="#DejaVuSans-53"/>
       <use x="63.623047" xlink:href="#DejaVuSans-48"/>
       <use x="127.246094" xlink:href="#DejaVuSans-48"/>
       <use x="190.869141" xlink:href="#DejaVuSans-48"/>
      </g>
     </g>
    </g>
    <g id="xtick_3">
     <g id="line2d_3">
      <g>
       <use style="stroke:#000000;stroke-width:0.8;" x="220.840244" xlink:href="#m7096dec353" y="271.430906"/>
      </g>
     </g>
     <g id="text_3">
      <!-- 10000 -->
      <defs>
       <path d="M 12.40625 8.296875 
L 28.515625 8.296875 
L 28.515625 63.921875 
L 10.984375 60.40625 
L 10.984375 69.390625 
L 28.421875 72.90625 
L 38.28125 72.90625 
L 38.28125 8.296875 
L 54.390625 8.296875 
L 54.390625 0 
L 12.40625 0 
z
" id="DejaVuSans-49"/>
      </defs>
      <g transform="translate(198.571494 289.068719)scale(0.14 -0.14)">
       <use xlink:href="#DejaVuSans-49"/>
       <use x="63.623047" xlink:href="#DejaVuSans-48"/>
       <use x="127.246094" xlink:href="#DejaVuSans-48"/>
       <use x="190.869141" xlink:href="#DejaVuSans-48"/>
       <use x="254.492188" xlink:href="#DejaVuSans-48"/>
      </g>
     </g>
    </g>
    <g id="xtick_4">
     <g id="line2d_4">
      <g>
       <use style="stroke:#000000;stroke-width:0.8;" x="302.178759" xlink:href="#m7096dec353" y="271.430906"/>
      </g>
     </g>
     <g id="text_4">
      <!-- 15000 -->
      <g transform="translate(279.910009 289.068719)scale(0.14 -0.14)">
       <use xlink:href="#DejaVuSans-49"/>
       <use x="63.623047" xlink:href="#DejaVuSans-53"/>
       <use x="127.246094" xlink:href="#DejaVuSans-48"/>
       <use x="190.869141" xlink:href="#DejaVuSans-48"/>
       <use x="254.492188" xlink:href="#DejaVuSans-48"/>
      </g>
     </g>
    </g>
    <g id="xtick_5">
     <g id="line2d_5">
      <g>
       <use style="stroke:#000000;stroke-width:0.8;" x="383.517273" xlink:href="#m7096dec353" y="271.430906"/>
      </g>
     </g>
     <g id="text_5">
      <!-- 20000 -->
      <defs>
       <path d="M 19.1875 8.296875 
L 53.609375 8.296875 
L 53.609375 0 
L 7.328125 0 
L 7.328125 8.296875 
Q 12.9375 14.109375 22.625 23.890625 
Q 32.328125 33.6875 34.8125 36.53125 
Q 39.546875 41.84375 41.421875 45.53125 
Q 43.3125 49.21875 43.3125 52.78125 
Q 43.3125 58.59375 39.234375 62.25 
Q 35.15625 65.921875 28.609375 65.921875 
Q 23.96875 65.921875 18.8125 64.3125 
Q 13.671875 62.703125 7.8125 59.421875 
L 7.8125 69.390625 
Q 13.765625 71.78125 18.9375 73 
Q 24.125 74.21875 28.421875 74.21875 
Q 39.75 74.21875 46.484375 68.546875 
Q 53.21875 62.890625 53.21875 53.421875 
Q 53.21875 48.921875 51.53125 44.890625 
Q 49.859375 40.875 45.40625 35.40625 
Q 44.1875 33.984375 37.640625 27.21875 
Q 31.109375 20.453125 19.1875 8.296875 
z
" id="DejaVuSans-50"/>
      </defs>
      <g transform="translate(361.248523 289.068719)scale(0.14 -0.14)">
       <use xlink:href="#DejaVuSans-50"/>
       <use x="63.623047" xlink:href="#DejaVuSans-48"/>
       <use x="127.246094" xlink:href="#DejaVuSans-48"/>
       <use x="190.869141" xlink:href="#DejaVuSans-48"/>
       <use x="254.492188" xlink:href="#DejaVuSans-48"/>
      </g>
     </g>
    </g>
    <g id="text_6">
     <!-- price -->
     <defs>
      <path d="M 18.109375 8.203125 
L 18.109375 -20.796875 
L 9.078125 -20.796875 
L 9.078125 54.6875 
L 18.109375 54.6875 
L 18.109375 46.390625 
Q 20.953125 51.265625 25.265625 53.625 
Q 29.59375 56 35.59375 56 
Q 45.5625 56 51.78125 48.09375 
Q 58.015625 40.1875 58.015625 27.296875 
Q 58.015625 14.40625 51.78125 6.484375 
Q 45.5625 -1.421875 35.59375 -1.421875 
Q 29.59375 -1.421875 25.265625 0.953125 
Q 20.953125 3.328125 18.109375 8.203125 
z
M 48.6875 27.296875 
Q 48.6875 37.203125 44.609375 42.84375 
Q 40.53125 48.484375 33.40625 48.484375 
Q 26.265625 48.484375 22.1875 42.84375 
Q 18.109375 37.203125 18.109375 27.296875 
Q 18.109375 17.390625 22.1875 11.75 
Q 26.265625 6.109375 33.40625 6.109375 
Q 40.53125 6.109375 44.609375 11.75 
Q 48.6875 17.390625 48.6875 27.296875 
z
" id="DejaVuSans-112"/>
      <path d="M 41.109375 46.296875 
Q 39.59375 47.171875 37.8125 47.578125 
Q 36.03125 48 33.890625 48 
Q 26.265625 48 22.1875 43.046875 
Q 18.109375 38.09375 18.109375 28.8125 
L 18.109375 0 
L 9.078125 0 
L 9.078125 54.6875 
L 18.109375 54.6875 
L 18.109375 46.1875 
Q 20.953125 51.171875 25.484375 53.578125 
Q 30.03125 56 36.53125 56 
Q 37.453125 56 38.578125 55.875 
Q 39.703125 55.765625 41.0625 55.515625 
z
" id="DejaVuSans-114"/>
      <path d="M 9.421875 54.6875 
L 18.40625 54.6875 
L 18.40625 0 
L 9.421875 0 
z
M 9.421875 75.984375 
L 18.40625 75.984375 
L 18.40625 64.59375 
L 9.421875 64.59375 
z
" id="DejaVuSans-105"/>
      <path d="M 48.78125 52.59375 
L 48.78125 44.1875 
Q 44.96875 46.296875 41.140625 47.34375 
Q 37.3125 48.390625 33.40625 48.390625 
Q 24.65625 48.390625 19.8125 42.84375 
Q 14.984375 37.3125 14.984375 27.296875 
Q 14.984375 17.28125 19.8125 11.734375 
Q 24.65625 6.203125 33.40625 6.203125 
Q 37.3125 6.203125 41.140625 7.25 
Q 44.96875 8.296875 48.78125 10.40625 
L 48.78125 2.09375 
Q 45.015625 0.34375 40.984375 -0.53125 
Q 36.96875 -1.421875 32.421875 -1.421875 
Q 20.0625 -1.421875 12.78125 6.34375 
Q 5.515625 14.109375 5.515625 27.296875 
Q 5.515625 40.671875 12.859375 48.328125 
Q 20.21875 56 33.015625 56 
Q 37.15625 56 41.109375 55.140625 
Q 45.0625 54.296875 48.78125 52.59375 
z
" id="DejaVuSans-99"/>
      <path d="M 56.203125 29.59375 
L 56.203125 25.203125 
L 14.890625 25.203125 
Q 15.484375 15.921875 20.484375 11.0625 
Q 25.484375 6.203125 34.421875 6.203125 
Q 39.59375 6.203125 44.453125 7.46875 
Q 49.3125 8.734375 54.109375 11.28125 
L 54.109375 2.78125 
Q 49.265625 0.734375 44.1875 -0.34375 
Q 39.109375 -1.421875 33.890625 -1.421875 
Q 20.796875 -1.421875 13.15625 6.1875 
Q 5.515625 13.8125 5.515625 26.8125 
Q 5.515625 40.234375 12.765625 48.109375 
Q 20.015625 56 32.328125 56 
Q 43.359375 56 49.78125 48.890625 
Q 56.203125 41.796875 56.203125 29.59375 
z
M 47.21875 32.234375 
Q 47.125 39.59375 43.09375 43.984375 
Q 39.0625 48.390625 32.421875 48.390625 
Q 24.90625 48.390625 20.390625 44.140625 
Q 15.875 39.890625 15.1875 32.171875 
z
" id="DejaVuSans-101"/>
     </defs>
     <g transform="translate(203.767656 306.618094)scale(0.14 -0.14)">
      <use xlink:href="#DejaVuSans-112"/>
      <use x="63.476562" xlink:href="#DejaVuSans-114"/>
      <use x="104.589844" xlink:href="#DejaVuSans-105"/>
      <use x="132.373047" xlink:href="#DejaVuSans-99"/>
      <use x="187.353516" xlink:href="#DejaVuSans-101"/>
     </g>
    </g>
   </g>
   <g id="matplotlib.axis_2">
    <g id="ytick_1">
     <g id="line2d_6">
      <defs>
       <path d="M 0 0 
L -3.5 0 
" id="m14fbe62f53" style="stroke:#000000;stroke-width:0.8;"/>
      </defs>
      <g>
       <use style="stroke:#000000;stroke-width:0.8;" x="42.63" xlink:href="#m14fbe62f53" y="271.430906"/>
      </g>
     </g>
     <g id="text_7">
      <!-- 0 -->
      <g transform="translate(26.7225 276.749812)scale(0.14 -0.14)">
       <use xlink:href="#DejaVuSans-48"/>
      </g>
     </g>
    </g>
    <g id="ytick_2">
     <g id="line2d_7">
      <g>
       <use style="stroke:#000000;stroke-width:0.8;" x="42.63" xlink:href="#m14fbe62f53" y="238.166906"/>
      </g>
     </g>
     <g id="text_8">
      <!-- 250 -->
      <g transform="translate(8.9075 243.485812)scale(0.14 -0.14)">
       <use xlink:href="#DejaVuSans-50"/>
       <use x="63.623047" xlink:href="#DejaVuSans-53"/>
       <use x="127.246094" xlink:href="#DejaVuSans-48"/>
      </g>
     </g>
    </g>
    <g id="ytick_3">
     <g id="line2d_8">
      <g>
       <use style="stroke:#000000;stroke-width:0.8;" x="42.63" xlink:href="#m14fbe62f53" y="204.902906"/>
      </g>
     </g>
     <g id="text_9">
      <!-- 500 -->
      <g transform="translate(8.9075 210.221812)scale(0.14 -0.14)">
       <use xlink:href="#DejaVuSans-53"/>
       <use x="63.623047" xlink:href="#DejaVuSans-48"/>
       <use x="127.246094" xlink:href="#DejaVuSans-48"/>
      </g>
     </g>
    </g>
    <g id="ytick_4">
     <g id="line2d_9">
      <g>
       <use style="stroke:#000000;stroke-width:0.8;" x="42.63" xlink:href="#m14fbe62f53" y="171.638906"/>
      </g>
     </g>
     <g id="text_10">
      <!-- 750 -->
      <defs>
       <path d="M 8.203125 72.90625 
L 55.078125 72.90625 
L 55.078125 68.703125 
L 28.609375 0 
L 18.3125 0 
L 43.21875 64.59375 
L 8.203125 64.59375 
z
" id="DejaVuSans-55"/>
      </defs>
      <g transform="translate(8.9075 176.957812)scale(0.14 -0.14)">
       <use xlink:href="#DejaVuSans-55"/>
       <use x="63.623047" xlink:href="#DejaVuSans-53"/>
       <use x="127.246094" xlink:href="#DejaVuSans-48"/>
      </g>
     </g>
    </g>
    <g id="ytick_5">
     <g id="line2d_10">
      <g>
       <use style="stroke:#000000;stroke-width:0.8;" x="42.63" xlink:href="#m14fbe62f53" y="138.374906"/>
      </g>
     </g>
     <g id="text_11">
      <!-- 1000 -->
      <g transform="translate(0 143.693812)scale(0.14 -0.14)">
       <use xlink:href="#DejaVuSans-49"/>
       <use x="63.623047" xlink:href="#DejaVuSans-48"/>
       <use x="127.246094" xlink:href="#DejaVuSans-48"/>
       <use x="190.869141" xlink:href="#DejaVuSans-48"/>
      </g>
     </g>
    </g>
    <g id="ytick_6">
     <g id="line2d_11">
      <g>
       <use style="stroke:#000000;stroke-width:0.8;" x="42.63" xlink:href="#m14fbe62f53" y="105.110906"/>
      </g>
     </g>
     <g id="text_12">
      <!-- 1250 -->
      <g transform="translate(0 110.429812)scale(0.14 -0.14)">
       <use xlink:href="#DejaVuSans-49"/>
       <use x="63.623047" xlink:href="#DejaVuSans-50"/>
       <use x="127.246094" xlink:href="#DejaVuSans-53"/>
       <use x="190.869141" xlink:href="#DejaVuSans-48"/>
      </g>
     </g>
    </g>
    <g id="ytick_7">
     <g id="line2d_12">
      <g>
       <use style="stroke:#000000;stroke-width:0.8;" x="42.63" xlink:href="#m14fbe62f53" y="71.846906"/>
      </g>
     </g>
     <g id="text_13">
      <!-- 1500 -->
      <g transform="translate(0 77.165812)scale(0.14 -0.14)">
       <use xlink:href="#DejaVuSans-49"/>
       <use x="63.623047" xlink:href="#DejaVuSans-53"/>
       <use x="127.246094" xlink:href="#DejaVuSans-48"/>
       <use x="190.869141" xlink:href="#DejaVuSans-48"/>
      </g>
     </g>
    </g>
    <g id="ytick_8">
     <g id="line2d_13">
      <g>
       <use style="stroke:#000000;stroke-width:0.8;" x="42.63" xlink:href="#m14fbe62f53" y="38.582906"/>
      </g>
     </g>
     <g id="text_14">
      <!-- 1750 -->
      <g transform="translate(0 43.901812)scale(0.14 -0.14)">
       <use xlink:href="#DejaVuSans-49"/>
       <use x="63.623047" xlink:href="#DejaVuSans-55"/>
       <use x="127.246094" xlink:href="#DejaVuSans-53"/>
       <use x="190.869141" xlink:href="#DejaVuSans-48"/>
      </g>
     </g>
    </g>
    <g id="ytick_9">
     <g id="line2d_14">
      <g>
       <use style="stroke:#000000;stroke-width:0.8;" x="42.63" xlink:href="#m14fbe62f53" y="5.318906"/>
      </g>
     </g>
     <g id="text_15">
      <!-- 2000 -->
      <g transform="translate(0 10.637812)scale(0.14 -0.14)">
       <use xlink:href="#DejaVuSans-50"/>
       <use x="63.623047" xlink:href="#DejaVuSans-48"/>
       <use x="127.246094" xlink:href="#DejaVuSans-48"/>
       <use x="190.869141" xlink:href="#DejaVuSans-48"/>
      </g>
     </g>
    </g>
   </g>
   <g id="patch_73">
    <path d="M 42.63 271.430906 
L 42.63 5.318906 
" style="fill:none;stroke:#000000;stroke-linecap:square;stroke-linejoin:miter;stroke-width:0.8;"/>
   </g>
   <g id="patch_74">
    <path d="M 399.75 271.430906 
L 399.75 5.318906 
" style="fill:none;stroke:#000000;stroke-linecap:square;stroke-linejoin:miter;stroke-width:0.8;"/>
   </g>
   <g id="patch_75">
    <path d="M 42.63 271.430906 
L 399.75 271.430906 
" style="fill:none;stroke:#000000;stroke-linecap:square;stroke-linejoin:miter;stroke-width:0.8;"/>
   </g>
   <g id="patch_76">
    <path d="M 42.63 5.318906 
L 399.75 5.318906 
" style="fill:none;stroke:#000000;stroke-linecap:square;stroke-linejoin:miter;stroke-width:0.8;"/>
   </g>
  </g>
 </g>
 <defs>
  <clipPath id="pc738666d40">
   <rect height="266.112" width="357.12" x="42.63" y="5.318906"/>
  </clipPath>
 </defs>
</svg>
