<?xml version="1.0" standalone="yes"?>
<svg version="1.1" xmlns="http://www.w3.org/2000/svg" xmlns:xlink="http://www.w3.org/1999/xlink" width="200px" height="254px" viewBox="0 0 875 1110">
<defs>
<path id="c" d="M 26 -248L-26 -248C-42 -223 -43 -197 -44 -174L-94 -154C-109 -175 -125 -184 -160 -197L-197 -160C-184 -125 -175 -109 -154 -94L-174 -44C-197 -43 -223 -42 -248 -26L-248 26C-223 42 -197 43 -174 44L-154 94C-175 109 -184 125 -197 160L-160 197C-125 184 -109 175 -94 154L-44 174C-43 197 -42 223 -26 248L26 248C42 223 43 197 44 174L94 154C109 175 125 184 160 197L197 160C184 125 175 109 154 94L174 44C197 43 223 42 248 26L248 -26C223 -42 197 -43 174 -44L154 -94C175 -109 184 -125 197 -160L160 -197C125 -184 109 -175 94 -154L44 -174C43 -197 42 -223 26 -248 zM0 -80C44 -80 80 -44 80 0C80 44 44 80 0 80C-44 80 -80 44 -80 0C-80 -44 -44 -80 0 -80z"/>
</defs>
<use xlink:href="#c" fill="#555" transform="translate(250 250)"/>
<use xlink:href="#c" fill="#777" transform="translate(555 555)rotate(22.5)"/>
<use xlink:href="#c" fill="#999" transform="translate(250 860)"/>
</svg>
