<?xml version="1.0" encoding="utf-8" standalone="no"?>
<!DOCTYPE svg PUBLIC "-//W3C//DTD SVG 1.1//EN"
  "http://www.w3.org/Graphics/SVG/1.1/DTD/svg11.dtd">
<!-- Created with matplotlib (http://matplotlib.org/) -->
<svg height="318pt" version="1.1" viewBox="0 0 430 318" width="430pt" xmlns="http://www.w3.org/2000/svg" xmlns:xlink="http://www.w3.org/1999/xlink">
 <defs>
  <style type="text/css">
*{stroke-linecap:butt;stroke-linejoin:round;}
  </style>
 </defs>
 <g id="figure_1">
  <g id="patch_1">
   <path d="M 0 318.519656 
L 430.943281 318.519656 
L 430.943281 0 
L 0 0 
z
" style="fill:#ffffff;"/>
  </g>
  <g id="axes_1">
   <g id="patch_2">
    <path d="M 57.086563 277.111219 
L 414.206563 277.111219 
L 414.206563 10.999219 
L 57.086563 10.999219 
z
" style="fill:#ffffff;"/>
   </g>
   <g id="PathCollection_1">
    <defs>
     <path d="M 0 3 
C 0.795609 3 1.55874 2.683901 2.12132 2.12132 
C 2.683901 1.55874 3 0.795609 3 0 
C 3 -0.795609 2.683901 -1.55874 2.12132 -2.12132 
C 1.55874 -2.683901 0.795609 -3 0 -3 
C -0.795609 -3 -1.55874 -2.683901 -2.12132 -2.12132 
C -2.683901 -1.55874 -3 -0.795609 -3 0 
C -3 0.795609 -2.683901 1.55874 -2.12132 2.12132 
C -1.55874 2.683901 -0.795609 3 0 3 
z
" id="m0c71fe29c3" style="stroke:#1f77b4;stroke-opacity:0.8;"/>
    </defs>
    <g clip-path="url(#pbcffd4a025)">
     <use style="fill:#1f77b4;fill-opacity:0.8;stroke:#1f77b4;stroke-opacity:0.8;" x="250.414958" xlink:href="#m0c71fe29c3" y="105.447937"/>
     <use style="fill:#1f77b4;fill-opacity:0.8;stroke:#1f77b4;stroke-opacity:0.8;" x="238.569581" xlink:href="#m0c71fe29c3" y="144.852996"/>
     <use style="fill:#1f77b4;fill-opacity:0.8;stroke:#1f77b4;stroke-opacity:0.8;" x="231.898454" xlink:href="#m0c71fe29c3" y="113.134563"/>
     <use style="fill:#1f77b4;fill-opacity:0.8;stroke:#1f77b4;stroke-opacity:0.8;" x="237.150625" xlink:href="#m0c71fe29c3" y="141.054846"/>
     <use style="fill:#1f77b4;fill-opacity:0.8;stroke:#1f77b4;stroke-opacity:0.8;" x="256.505752" xlink:href="#m0c71fe29c3" y="117.61036"/>
     <use style="fill:#1f77b4;fill-opacity:0.8;stroke:#1f77b4;stroke-opacity:0.8;" x="85.604378" xlink:href="#m0c71fe29c3" y="245.578439"/>
     <use style="fill:#1f77b4;fill-opacity:0.8;stroke:#1f77b4;stroke-opacity:0.8;" x="58.391012" xlink:href="#m0c71fe29c3" y="214.095344"/>
     <use style="fill:#1f77b4;fill-opacity:0.8;stroke:#1f77b4;stroke-opacity:0.8;" x="206.34108" xlink:href="#m0c71fe29c3" y="130.939928"/>
     <use style="fill:#1f77b4;fill-opacity:0.8;stroke:#1f77b4;stroke-opacity:0.8;" x="289.925279" xlink:href="#m0c71fe29c3" y="97.562395"/>
     <use style="fill:#1f77b4;fill-opacity:0.8;stroke:#1f77b4;stroke-opacity:0.8;" x="115.694183" xlink:href="#m0c71fe29c3" y="204.220079"/>
     <use style="fill:#1f77b4;fill-opacity:0.8;stroke:#1f77b4;stroke-opacity:0.8;" x="191.416999" xlink:href="#m0c71fe29c3" y="166.752737"/>
     <use style="fill:#1f77b4;fill-opacity:0.8;stroke:#1f77b4;stroke-opacity:0.8;" x="151.371608" xlink:href="#m0c71fe29c3" y="168.940708"/>
     <use style="fill:#1f77b4;fill-opacity:0.8;stroke:#1f77b4;stroke-opacity:0.8;" x="141.609991" xlink:href="#m0c71fe29c3" y="217.91604"/>
     <use style="fill:#1f77b4;fill-opacity:0.8;stroke:#1f77b4;stroke-opacity:0.8;" x="333.626426" xlink:href="#m0c71fe29c3" y="83.976869"/>
     <use style="fill:#1f77b4;fill-opacity:0.8;stroke:#1f77b4;stroke-opacity:0.8;" x="139.761903" xlink:href="#m0c71fe29c3" y="188.229725"/>
     <use style="fill:#1f77b4;fill-opacity:0.8;stroke:#1f77b4;stroke-opacity:0.8;" x="233.532892" xlink:href="#m0c71fe29c3" y="123.962053"/>
     <use style="fill:#1f77b4;fill-opacity:0.8;stroke:#1f77b4;stroke-opacity:0.8;" x="90.617051" xlink:href="#m0c71fe29c3" y="259.609551"/>
     <use style="fill:#1f77b4;fill-opacity:0.8;stroke:#1f77b4;stroke-opacity:0.8;" x="217.565413" xlink:href="#m0c71fe29c3" y="124.560381"/>
     <use style="fill:#1f77b4;fill-opacity:0.8;stroke:#1f77b4;stroke-opacity:0.8;" x="85.495954" xlink:href="#m0c71fe29c3" y="221.563586"/>
     <use style="fill:#1f77b4;fill-opacity:0.8;stroke:#1f77b4;stroke-opacity:0.8;" x="316.611871" xlink:href="#m0c71fe29c3" y="102.571032"/>
     <use style="fill:#1f77b4;fill-opacity:0.8;stroke:#1f77b4;stroke-opacity:0.8;" x="297.092346" xlink:href="#m0c71fe29c3" y="115.005271"/>
     <use style="fill:#1f77b4;fill-opacity:0.8;stroke:#1f77b4;stroke-opacity:0.8;" x="355.675695" xlink:href="#m0c71fe29c3" y="90.711812"/>
     <use style="fill:#1f77b4;fill-opacity:0.8;stroke:#1f77b4;stroke-opacity:0.8;" x="323.888852" xlink:href="#m0c71fe29c3" y="63.713923"/>
     <use style="fill:#1f77b4;fill-opacity:0.8;stroke:#1f77b4;stroke-opacity:0.8;" x="135.308026" xlink:href="#m0c71fe29c3" y="186.513271"/>
     <use style="fill:#1f77b4;fill-opacity:0.8;stroke:#1f77b4;stroke-opacity:0.8;" x="379.741578" xlink:href="#m0c71fe29c3" y="16.618884"/>
     <use style="fill:#1f77b4;fill-opacity:0.8;stroke:#1f77b4;stroke-opacity:0.8;" x="102.115493" xlink:href="#m0c71fe29c3" y="230.637642"/>
     <use style="fill:#1f77b4;fill-opacity:0.8;stroke:#1f77b4;stroke-opacity:0.8;" x="356.657013" xlink:href="#m0c71fe29c3" y="64.902422"/>
     <use style="fill:#1f77b4;fill-opacity:0.8;stroke:#1f77b4;stroke-opacity:0.8;" x="208.628039" xlink:href="#m0c71fe29c3" y="169.523149"/>
     <use style="fill:#1f77b4;fill-opacity:0.8;stroke:#1f77b4;stroke-opacity:0.8;" x="137.328159" xlink:href="#m0c71fe29c3" y="172.930034"/>
     <use style="fill:#1f77b4;fill-opacity:0.8;stroke:#1f77b4;stroke-opacity:0.8;" x="333.087885" xlink:href="#m0c71fe29c3" y="60.553959"/>
     <use style="fill:#1f77b4;fill-opacity:0.8;stroke:#1f77b4;stroke-opacity:0.8;" x="362.626339" xlink:href="#m0c71fe29c3" y="46.251004"/>
     <use style="fill:#1f77b4;fill-opacity:0.8;stroke:#1f77b4;stroke-opacity:0.8;" x="112.565966" xlink:href="#m0c71fe29c3" y="191.212521"/>
     <use style="fill:#1f77b4;fill-opacity:0.8;stroke:#1f77b4;stroke-opacity:0.8;" x="397.434503" xlink:href="#m0c71fe29c3" y="23.778294"/>
     <use style="fill:#1f77b4;fill-opacity:0.8;stroke:#1f77b4;stroke-opacity:0.8;" x="102.761663" xlink:href="#m0c71fe29c3" y="228.067051"/>
     <use style="fill:#1f77b4;fill-opacity:0.8;stroke:#1f77b4;stroke-opacity:0.8;" x="209.04709" xlink:href="#m0c71fe29c3" y="145.575028"/>
     <use style="fill:#1f77b4;fill-opacity:0.8;stroke:#1f77b4;stroke-opacity:0.8;" x="326.079731" xlink:href="#m0c71fe29c3" y="103.363315"/>
     <use style="fill:#1f77b4;fill-opacity:0.8;stroke:#1f77b4;stroke-opacity:0.8;" x="230.151871" xlink:href="#m0c71fe29c3" y="120.329064"/>
     <use style="fill:#1f77b4;fill-opacity:0.8;stroke:#1f77b4;stroke-opacity:0.8;" x="291.141756" xlink:href="#m0c71fe29c3" y="107.974444"/>
     <use style="fill:#1f77b4;fill-opacity:0.8;stroke:#1f77b4;stroke-opacity:0.8;" x="124.236697" xlink:href="#m0c71fe29c3" y="199.721528"/>
     <use style="fill:#1f77b4;fill-opacity:0.8;stroke:#1f77b4;stroke-opacity:0.8;" x="185.638865" xlink:href="#m0c71fe29c3" y="152.591799"/>
     <use style="fill:#1f77b4;fill-opacity:0.8;stroke:#1f77b4;stroke-opacity:0.8;" x="125.037963" xlink:href="#m0c71fe29c3" y="174.56827"/>
     <use style="fill:#1f77b4;fill-opacity:0.8;stroke:#1f77b4;stroke-opacity:0.8;" x="406.70625" xlink:href="#m0c71fe29c3" y="34.281128"/>
     <use style="fill:#1f77b4;fill-opacity:0.8;stroke:#1f77b4;stroke-opacity:0.8;" x="354.864655" xlink:href="#m0c71fe29c3" y="72.771002"/>
     <use style="fill:#1f77b4;fill-opacity:0.8;stroke:#1f77b4;stroke-opacity:0.8;" x="154.886489" xlink:href="#m0c71fe29c3" y="172.873281"/>
     <use style="fill:#1f77b4;fill-opacity:0.8;stroke:#1f77b4;stroke-opacity:0.8;" x="88.476671" xlink:href="#m0c71fe29c3" y="224.392238"/>
     <use style="fill:#1f77b4;fill-opacity:0.8;stroke:#1f77b4;stroke-opacity:0.8;" x="292.700084" xlink:href="#m0c71fe29c3" y="87.600684"/>
     <use style="fill:#1f77b4;fill-opacity:0.8;stroke:#1f77b4;stroke-opacity:0.8;" x="271.70695" xlink:href="#m0c71fe29c3" y="101.262976"/>
     <use style="fill:#1f77b4;fill-opacity:0.8;stroke:#1f77b4;stroke-opacity:0.8;" x="302.951778" xlink:href="#m0c71fe29c3" y="103.200206"/>
     <use style="fill:#1f77b4;fill-opacity:0.8;stroke:#1f77b4;stroke-opacity:0.8;" x="392.485115" xlink:href="#m0c71fe29c3" y="30.252621"/>
     <use style="fill:#1f77b4;fill-opacity:0.8;stroke:#1f77b4;stroke-opacity:0.8;" x="222.739251" xlink:href="#m0c71fe29c3" y="118.079699"/>
     <use style="fill:#1f77b4;fill-opacity:0.8;stroke:#1f77b4;stroke-opacity:0.8;" x="225.237559" xlink:href="#m0c71fe29c3" y="132.390867"/>
     <use style="fill:#1f77b4;fill-opacity:0.8;stroke:#1f77b4;stroke-opacity:0.8;" x="278.151234" xlink:href="#m0c71fe29c3" y="134.016956"/>
     <use style="fill:#1f77b4;fill-opacity:0.8;stroke:#1f77b4;stroke-opacity:0.8;" x="66.192396" xlink:href="#m0c71fe29c3" y="247.339993"/>
     <use style="fill:#1f77b4;fill-opacity:0.8;stroke:#1f77b4;stroke-opacity:0.8;" x="211.128954" xlink:href="#m0c71fe29c3" y="147.553465"/>
     <use style="fill:#1f77b4;fill-opacity:0.8;stroke:#1f77b4;stroke-opacity:0.8;" x="361.088215" xlink:href="#m0c71fe29c3" y="50.268397"/>
     <use style="fill:#1f77b4;fill-opacity:0.8;stroke:#1f77b4;stroke-opacity:0.8;" x="74.16851" xlink:href="#m0c71fe29c3" y="243.047214"/>
     <use style="fill:#1f77b4;fill-opacity:0.8;stroke:#1f77b4;stroke-opacity:0.8;" x="272.5389" xlink:href="#m0c71fe29c3" y="95.017276"/>
     <use style="fill:#1f77b4;fill-opacity:0.8;stroke:#1f77b4;stroke-opacity:0.8;" x="210.118451" xlink:href="#m0c71fe29c3" y="160.820555"/>
     <use style="fill:#1f77b4;fill-opacity:0.8;stroke:#1f77b4;stroke-opacity:0.8;" x="220.889542" xlink:href="#m0c71fe29c3" y="117.572133"/>
     <use style="fill:#1f77b4;fill-opacity:0.8;stroke:#1f77b4;stroke-opacity:0.8;" x="206.345308" xlink:href="#m0c71fe29c3" y="145.319723"/>
     <use style="fill:#1f77b4;fill-opacity:0.8;stroke:#1f77b4;stroke-opacity:0.8;" x="305.125199" xlink:href="#m0c71fe29c3" y="71.619443"/>
     <use style="fill:#1f77b4;fill-opacity:0.8;stroke:#1f77b4;stroke-opacity:0.8;" x="346.506671" xlink:href="#m0c71fe29c3" y="68.263205"/>
     <use style="fill:#1f77b4;fill-opacity:0.8;stroke:#1f77b4;stroke-opacity:0.8;" x="168.426724" xlink:href="#m0c71fe29c3" y="176.466219"/>
     <use style="fill:#1f77b4;fill-opacity:0.8;stroke:#1f77b4;stroke-opacity:0.8;" x="70.79113" xlink:href="#m0c71fe29c3" y="271.26919"/>
     <use style="fill:#1f77b4;fill-opacity:0.8;stroke:#1f77b4;stroke-opacity:0.8;" x="257.305883" xlink:href="#m0c71fe29c3" y="131.4827"/>
     <use style="fill:#1f77b4;fill-opacity:0.8;stroke:#1f77b4;stroke-opacity:0.8;" x="136.921901" xlink:href="#m0c71fe29c3" y="182.701157"/>
     <use style="fill:#1f77b4;fill-opacity:0.8;stroke:#1f77b4;stroke-opacity:0.8;" x="274.969001" xlink:href="#m0c71fe29c3" y="84.884751"/>
     <use style="fill:#1f77b4;fill-opacity:0.8;stroke:#1f77b4;stroke-opacity:0.8;" x="189.970962" xlink:href="#m0c71fe29c3" y="133.598896"/>
     <use style="fill:#1f77b4;fill-opacity:0.8;stroke:#1f77b4;stroke-opacity:0.8;" x="353.143741" xlink:href="#m0c71fe29c3" y="38.151304"/>
     <use style="fill:#1f77b4;fill-opacity:0.8;stroke:#1f77b4;stroke-opacity:0.8;" x="345.677254" xlink:href="#m0c71fe29c3" y="62.152531"/>
     <use style="fill:#1f77b4;fill-opacity:0.8;stroke:#1f77b4;stroke-opacity:0.8;" x="371.002799" xlink:href="#m0c71fe29c3" y="40.351072"/>
     <use style="fill:#1f77b4;fill-opacity:0.8;stroke:#1f77b4;stroke-opacity:0.8;" x="158.631322" xlink:href="#m0c71fe29c3" y="163.670788"/>
     <use style="fill:#1f77b4;fill-opacity:0.8;stroke:#1f77b4;stroke-opacity:0.8;" x="358.630194" xlink:href="#m0c71fe29c3" y="35.263995"/>
     <use style="fill:#1f77b4;fill-opacity:0.8;stroke:#1f77b4;stroke-opacity:0.8;" x="156.320948" xlink:href="#m0c71fe29c3" y="212.60247"/>
     <use style="fill:#1f77b4;fill-opacity:0.8;stroke:#1f77b4;stroke-opacity:0.8;" x="156.119395" xlink:href="#m0c71fe29c3" y="168.799451"/>
     <use style="fill:#1f77b4;fill-opacity:0.8;stroke:#1f77b4;stroke-opacity:0.8;" x="166.566459" xlink:href="#m0c71fe29c3" y="149.045767"/>
     <use style="fill:#1f77b4;fill-opacity:0.8;stroke:#1f77b4;stroke-opacity:0.8;" x="100.706763" xlink:href="#m0c71fe29c3" y="250.685906"/>
     <use style="fill:#1f77b4;fill-opacity:0.8;stroke:#1f77b4;stroke-opacity:0.8;" x="99.23157" xlink:href="#m0c71fe29c3" y="230.261369"/>
     <use style="fill:#1f77b4;fill-opacity:0.8;stroke:#1f77b4;stroke-opacity:0.8;" x="327.945973" xlink:href="#m0c71fe29c3" y="72.164316"/>
     <use style="fill:#1f77b4;fill-opacity:0.8;stroke:#1f77b4;stroke-opacity:0.8;" x="408.366628" xlink:href="#m0c71fe29c3" y="0.228637"/>
     <use style="fill:#1f77b4;fill-opacity:0.8;stroke:#1f77b4;stroke-opacity:0.8;" x="291.449082" xlink:href="#m0c71fe29c3" y="105.177288"/>
     <use style="fill:#1f77b4;fill-opacity:0.8;stroke:#1f77b4;stroke-opacity:0.8;" x="212.929085" xlink:href="#m0c71fe29c3" y="140.849036"/>
     <use style="fill:#1f77b4;fill-opacity:0.8;stroke:#1f77b4;stroke-opacity:0.8;" x="264.772269" xlink:href="#m0c71fe29c3" y="88.2222"/>
     <use style="fill:#1f77b4;fill-opacity:0.8;stroke:#1f77b4;stroke-opacity:0.8;" x="292.945791" xlink:href="#m0c71fe29c3" y="66.989756"/>
     <use style="fill:#1f77b4;fill-opacity:0.8;stroke:#1f77b4;stroke-opacity:0.8;" x="63.345811" xlink:href="#m0c71fe29c3" y="228.893213"/>
     <use style="fill:#1f77b4;fill-opacity:0.8;stroke:#1f77b4;stroke-opacity:0.8;" x="157.360454" xlink:href="#m0c71fe29c3" y="182.264935"/>
     <use style="fill:#1f77b4;fill-opacity:0.8;stroke:#1f77b4;stroke-opacity:0.8;" x="394.39266" xlink:href="#m0c71fe29c3" y="46.556838"/>
     <use style="fill:#1f77b4;fill-opacity:0.8;stroke:#1f77b4;stroke-opacity:0.8;" x="244.527392" xlink:href="#m0c71fe29c3" y="138.623263"/>
     <use style="fill:#1f77b4;fill-opacity:0.8;stroke:#1f77b4;stroke-opacity:0.8;" x="398.058011" xlink:href="#m0c71fe29c3" y="6.00684"/>
     <use style="fill:#1f77b4;fill-opacity:0.8;stroke:#1f77b4;stroke-opacity:0.8;" x="370.606292" xlink:href="#m0c71fe29c3" y="51.373523"/>
     <use style="fill:#1f77b4;fill-opacity:0.8;stroke:#1f77b4;stroke-opacity:0.8;" x="71.165675" xlink:href="#m0c71fe29c3" y="224.284333"/>
     <use style="fill:#1f77b4;fill-opacity:0.8;stroke:#1f77b4;stroke-opacity:0.8;" x="61.282051" xlink:href="#m0c71fe29c3" y="269.098809"/>
     <use style="fill:#1f77b4;fill-opacity:0.8;stroke:#1f77b4;stroke-opacity:0.8;" x="198.663972" xlink:href="#m0c71fe29c3" y="163.195516"/>
     <use style="fill:#1f77b4;fill-opacity:0.8;stroke:#1f77b4;stroke-opacity:0.8;" x="351.050426" xlink:href="#m0c71fe29c3" y="64.05055"/>
     <use style="fill:#1f77b4;fill-opacity:0.8;stroke:#1f77b4;stroke-opacity:0.8;" x="74.541709" xlink:href="#m0c71fe29c3" y="216.766459"/>
     <use style="fill:#1f77b4;fill-opacity:0.8;stroke:#1f77b4;stroke-opacity:0.8;" x="413.305952" xlink:href="#m0c71fe29c3" y="-0.104575"/>
     <use style="fill:#1f77b4;fill-opacity:0.8;stroke:#1f77b4;stroke-opacity:0.8;" x="58.575088" xlink:href="#m0c71fe29c3" y="248.824787"/>
     <use style="fill:#1f77b4;fill-opacity:0.8;stroke:#1f77b4;stroke-opacity:0.8;" x="326.985628" xlink:href="#m0c71fe29c3" y="75.348144"/>
     <use style="fill:#1f77b4;fill-opacity:0.8;stroke:#1f77b4;stroke-opacity:0.8;" x="279.288039" xlink:href="#m0c71fe29c3" y="116.712972"/>
     <use style="fill:#1f77b4;fill-opacity:0.8;stroke:#1f77b4;stroke-opacity:0.8;" x="137.796597" xlink:href="#m0c71fe29c3" y="217.10141"/>
    </g>
   </g>
   <g id="matplotlib.axis_1">
    <g id="xtick_1">
     <g id="line2d_1">
      <defs>
       <path d="M 0 0 
L 0 3.5 
" id="m27748781be" style="stroke:#000000;stroke-width:0.8;"/>
      </defs>
      <g>
       <use style="stroke:#000000;stroke-width:0.8;" x="57.086562" xlink:href="#m27748781be" y="277.111219"/>
      </g>
     </g>
     <g id="text_1">
      <!-- 400 -->
      <defs>
       <path d="M 58.734375 20.453125 
L 47.953125 20.453125 
L 47.953125 0 
L 38.578125 0 
L 38.578125 20.453125 
L 3.765625 20.453125 
L 3.765625 31.6875 
L 38.96875 72.703125 
L 47.953125 72.703125 
L 47.953125 28.265625 
L 58.734375 28.265625 
z
M 38.578125 28.265625 
L 38.578125 61.078125 
L 10.40625 28.265625 
z
" id="Verdana-34"/>
       <path d="M 56.984375 36.375 
Q 56.984375 16.796875 50.859375 7.640625 
Q 44.734375 -1.515625 31.84375 -1.515625 
Q 18.75 -1.515625 12.71875 7.765625 
Q 6.6875 17.046875 6.6875 36.28125 
Q 6.6875 55.671875 12.78125 64.921875 
Q 18.890625 74.171875 31.84375 74.171875 
Q 44.921875 74.171875 50.953125 64.765625 
Q 56.984375 55.375 56.984375 36.375 
z
M 44.140625 14.203125 
Q 45.84375 18.171875 46.453125 23.515625 
Q 47.078125 28.859375 47.078125 36.375 
Q 47.078125 43.796875 46.453125 49.265625 
Q 45.84375 54.734375 44.09375 58.546875 
Q 42.390625 62.3125 39.421875 64.203125 
Q 36.46875 66.109375 31.84375 66.109375 
Q 27.25 66.109375 24.234375 64.203125 
Q 21.234375 62.3125 19.484375 58.453125 
Q 17.828125 54.828125 17.21875 49.015625 
Q 16.609375 43.21875 16.609375 36.28125 
Q 16.609375 28.65625 17.140625 23.53125 
Q 17.671875 18.40625 19.4375 14.359375 
Q 21.046875 10.546875 24 8.546875 
Q 26.953125 6.546875 31.84375 6.546875 
Q 36.421875 6.546875 39.453125 8.453125 
Q 42.484375 10.359375 44.140625 14.203125 
z
" id="Verdana-30"/>
      </defs>
      <g transform="translate(47.549844 291.709656)scale(0.1 -0.1)">
       <use xlink:href="#Verdana-34"/>
       <use x="63.574219" xlink:href="#Verdana-30"/>
       <use x="127.148438" xlink:href="#Verdana-30"/>
      </g>
     </g>
    </g>
    <g id="xtick_2">
     <g id="line2d_2">
      <g>
       <use style="stroke:#000000;stroke-width:0.8;" x="128.510562" xlink:href="#m27748781be" y="277.111219"/>
      </g>
     </g>
     <g id="text_2">
      <!-- 500 -->
      <defs>
       <path d="M 56.5 23.09375 
Q 56.5 18.015625 54.640625 13.375 
Q 52.78125 8.734375 49.5625 5.5625 
Q 46.046875 2.15625 41.1875 0.3125 
Q 36.328125 -1.515625 29.9375 -1.515625 
Q 23.96875 -1.515625 18.453125 -0.265625 
Q 12.9375 0.984375 9.125 2.734375 
L 9.125 13.03125 
L 9.8125 13.03125 
Q 13.8125 10.5 19.1875 8.71875 
Q 24.5625 6.9375 29.734375 6.9375 
Q 33.203125 6.9375 36.453125 7.90625 
Q 39.703125 8.890625 42.234375 11.328125 
Q 44.390625 13.421875 45.484375 16.34375 
Q 46.578125 19.28125 46.578125 23.140625 
Q 46.578125 26.90625 45.28125 29.484375 
Q 44 32.078125 41.703125 33.640625 
Q 39.15625 35.5 35.515625 36.25 
Q 31.890625 37.015625 27.390625 37.015625 
Q 23.09375 37.015625 19.109375 36.421875 
Q 15.140625 35.84375 12.25 35.25 
L 12.25 72.703125 
L 56 72.703125 
L 56 64.15625 
L 21.6875 64.15625 
L 21.6875 44.828125 
Q 23.78125 45.015625 25.96875 45.109375 
Q 28.171875 45.21875 29.78125 45.21875 
Q 35.6875 45.21875 40.125 44.21875 
Q 44.578125 43.21875 48.296875 40.671875 
Q 52.203125 37.984375 54.34375 33.734375 
Q 56.5 29.5 56.5 23.09375 
z
" id="Verdana-35"/>
      </defs>
      <g transform="translate(118.973844 291.709656)scale(0.1 -0.1)">
       <use xlink:href="#Verdana-35"/>
       <use x="63.574219" xlink:href="#Verdana-30"/>
       <use x="127.148438" xlink:href="#Verdana-30"/>
      </g>
     </g>
    </g>
    <g id="xtick_3">
     <g id="line2d_3">
      <g>
       <use style="stroke:#000000;stroke-width:0.8;" x="199.934562" xlink:href="#m27748781be" y="277.111219"/>
      </g>
     </g>
     <g id="text_3">
      <!-- 600 -->
      <defs>
       <path d="M 58.15625 23.578125 
Q 58.15625 12.5 50.859375 5.484375 
Q 43.5625 -1.515625 32.953125 -1.515625 
Q 27.59375 -1.515625 23.1875 0.140625 
Q 18.796875 1.8125 15.4375 5.078125 
Q 11.234375 9.125 8.953125 15.8125 
Q 6.6875 22.515625 6.6875 31.9375 
Q 6.6875 41.609375 8.765625 49.078125 
Q 10.84375 56.546875 15.375 62.359375 
Q 19.671875 67.875 26.453125 70.96875 
Q 33.25 74.078125 42.28125 74.078125 
Q 45.171875 74.078125 47.125 73.828125 
Q 49.078125 73.578125 51.078125 72.953125 
L 51.078125 63.625 
L 50.59375 63.625 
Q 49.21875 64.359375 46.453125 65.015625 
Q 43.703125 65.671875 40.828125 65.671875 
Q 30.328125 65.671875 24.078125 59.109375 
Q 17.828125 52.546875 16.796875 41.359375 
Q 20.90625 43.84375 24.875 45.140625 
Q 28.859375 46.4375 34.078125 46.4375 
Q 38.71875 46.4375 42.25 45.578125 
Q 45.796875 44.734375 49.515625 42.140625 
Q 53.8125 39.15625 55.984375 34.609375 
Q 58.15625 30.078125 58.15625 23.578125 
z
M 48.25 23.1875 
Q 48.25 27.734375 46.90625 30.703125 
Q 45.5625 33.6875 42.484375 35.890625 
Q 40.234375 37.453125 37.5 37.9375 
Q 34.765625 38.421875 31.78125 38.421875 
Q 27.640625 38.421875 24.078125 37.4375 
Q 20.515625 36.46875 16.75 34.421875 
Q 16.65625 33.34375 16.59375 32.34375 
Q 16.546875 31.34375 16.546875 29.828125 
Q 16.546875 22.125 18.140625 17.65625 
Q 19.734375 13.1875 22.515625 10.59375 
Q 24.75 8.453125 27.359375 7.453125 
Q 29.984375 6.453125 33.0625 6.453125 
Q 40.140625 6.453125 44.1875 10.765625 
Q 48.25 15.09375 48.25 23.1875 
z
" id="Verdana-36"/>
      </defs>
      <g transform="translate(190.397844 291.709656)scale(0.1 -0.1)">
       <use xlink:href="#Verdana-36"/>
       <use x="63.574219" xlink:href="#Verdana-30"/>
       <use x="127.148438" xlink:href="#Verdana-30"/>
      </g>
     </g>
    </g>
    <g id="xtick_4">
     <g id="line2d_4">
      <g>
       <use style="stroke:#000000;stroke-width:0.8;" x="271.358563" xlink:href="#m27748781be" y="277.111219"/>
      </g>
     </g>
     <g id="text_4">
      <!-- 700 -->
      <defs>
       <path d="M 57.28125 61.8125 
L 24.359375 0 
L 13.921875 0 
L 48.921875 64.15625 
L 7.515625 64.15625 
L 7.515625 72.703125 
L 57.28125 72.703125 
z
" id="Verdana-37"/>
      </defs>
      <g transform="translate(261.821844 291.709656)scale(0.1 -0.1)">
       <use xlink:href="#Verdana-37"/>
       <use x="63.574219" xlink:href="#Verdana-30"/>
       <use x="127.148438" xlink:href="#Verdana-30"/>
      </g>
     </g>
    </g>
    <g id="xtick_5">
     <g id="line2d_5">
      <g>
       <use style="stroke:#000000;stroke-width:0.8;" x="342.782562" xlink:href="#m27748781be" y="277.111219"/>
      </g>
     </g>
     <g id="text_5">
      <!-- 800 -->
      <defs>
       <path d="M 57.625 20.265625 
Q 57.625 10.84375 50.265625 4.59375 
Q 42.921875 -1.65625 31.78125 -1.65625 
Q 19.96875 -1.65625 12.953125 4.4375 
Q 5.953125 10.546875 5.953125 20.0625 
Q 5.953125 26.125 9.46875 31.03125 
Q 12.984375 35.9375 19.390625 38.8125 
L 19.390625 39.109375 
Q 13.53125 42.234375 10.71875 45.9375 
Q 7.90625 49.65625 7.90625 55.21875 
Q 7.90625 63.421875 14.640625 68.890625 
Q 21.390625 74.359375 31.78125 74.359375 
Q 42.671875 74.359375 49.171875 69.140625 
Q 55.671875 63.921875 55.671875 55.859375 
Q 55.671875 50.921875 52.59375 46.15625 
Q 49.515625 41.40625 43.5625 38.71875 
L 43.5625 38.421875 
Q 50.390625 35.5 54 31.203125 
Q 57.625 26.90625 57.625 20.265625 
z
M 46.046875 55.765625 
Q 46.046875 60.984375 42.015625 64.078125 
Q 37.984375 67.1875 31.734375 67.1875 
Q 25.59375 67.1875 21.65625 64.25 
Q 17.71875 61.328125 17.71875 56.34375 
Q 17.71875 52.828125 19.703125 50.265625 
Q 21.6875 47.703125 25.6875 45.703125 
Q 27.484375 44.828125 30.875 43.40625 
Q 34.28125 42 37.5 41.0625 
Q 42.328125 44.28125 44.1875 47.75 
Q 46.046875 51.21875 46.046875 55.765625 
z
M 47.5625 19.34375 
Q 47.5625 23.828125 45.578125 26.53125 
Q 43.609375 29.25 37.84375 31.984375 
Q 35.546875 33.0625 32.8125 33.984375 
Q 30.078125 34.90625 25.53125 36.578125 
Q 21.140625 34.1875 18.484375 30.078125 
Q 15.828125 25.984375 15.828125 20.796875 
Q 15.828125 14.203125 20.359375 9.90625 
Q 24.90625 5.609375 31.890625 5.609375 
Q 39.015625 5.609375 43.28125 9.265625 
Q 47.5625 12.9375 47.5625 19.34375 
z
" id="Verdana-38"/>
      </defs>
      <g transform="translate(333.245844 291.709656)scale(0.1 -0.1)">
       <use xlink:href="#Verdana-38"/>
       <use x="63.574219" xlink:href="#Verdana-30"/>
       <use x="127.148438" xlink:href="#Verdana-30"/>
      </g>
     </g>
    </g>
    <g id="xtick_6">
     <g id="line2d_6">
      <g>
       <use style="stroke:#000000;stroke-width:0.8;" x="414.206563" xlink:href="#m27748781be" y="277.111219"/>
      </g>
     </g>
     <g id="text_6">
      <!-- 900 -->
      <defs>
       <path d="M 56.984375 40.71875 
Q 56.984375 31.203125 54.8125 23.4375 
Q 52.640625 15.671875 48.25 10.203125 
Q 43.796875 4.640625 37.109375 1.609375 
Q 30.421875 -1.421875 21.390625 -1.421875 
Q 18.84375 -1.421875 16.59375 -1.140625 
Q 14.359375 -0.875 12.59375 -0.296875 
L 12.59375 9.03125 
L 13.09375 9.03125 
Q 14.5 8.296875 17.078125 7.640625 
Q 19.671875 6.984375 22.859375 6.984375 
Q 33.640625 6.984375 39.765625 13.453125 
Q 45.90625 19.921875 46.875 31.296875 
Q 42.328125 28.5625 38.328125 27.390625 
Q 34.328125 26.21875 29.59375 26.21875 
Q 25.09375 26.21875 21.453125 27.09375 
Q 17.828125 27.984375 14.15625 30.515625 
Q 9.859375 33.5 7.6875 38.078125 
Q 5.515625 42.671875 5.515625 49.078125 
Q 5.515625 60.203125 12.84375 67.1875 
Q 20.171875 74.171875 30.71875 74.171875 
Q 35.984375 74.171875 40.46875 72.53125 
Q 44.96875 70.90625 48.34375 67.625 
Q 52.484375 63.578125 54.734375 57.203125 
Q 56.984375 50.828125 56.984375 40.71875 
z
M 47.125 42.828125 
Q 47.125 50.390625 45.5625 54.984375 
Q 44 59.578125 41.265625 62.109375 
Q 38.96875 64.3125 36.328125 65.265625 
Q 33.6875 66.21875 30.609375 66.21875 
Q 23.578125 66.21875 19.5 61.8125 
Q 15.4375 57.421875 15.4375 49.46875 
Q 15.4375 44.828125 16.75 41.890625 
Q 18.0625 38.96875 21.1875 36.765625 
Q 23.390625 35.25 26.015625 34.734375 
Q 28.65625 34.234375 31.890625 34.234375 
Q 35.6875 34.234375 39.59375 35.25 
Q 43.5 36.28125 46.921875 38.234375 
Q 46.96875 39.265625 47.046875 40.265625 
Q 47.125 41.265625 47.125 42.828125 
z
" id="Verdana-39"/>
      </defs>
      <g transform="translate(404.669844 291.709656)scale(0.1 -0.1)">
       <use xlink:href="#Verdana-39"/>
       <use x="63.574219" xlink:href="#Verdana-30"/>
       <use x="127.148438" xlink:href="#Verdana-30"/>
      </g>
     </g>
    </g>
    <g id="text_7">
     <!-- One Bedroom Square footage -->
     <defs>
      <path d="M 63.96875 64.359375 
Q 68.40625 59.46875 70.765625 52.390625 
Q 73.140625 45.3125 73.140625 36.328125 
Q 73.140625 27.34375 70.71875 20.234375 
Q 68.3125 13.140625 63.96875 8.40625 
Q 59.46875 3.46875 53.34375 0.96875 
Q 47.21875 -1.515625 39.359375 -1.515625 
Q 31.6875 -1.515625 25.40625 1.015625 
Q 19.140625 3.5625 14.75 8.40625 
Q 10.359375 13.234375 7.984375 20.265625 
Q 5.609375 27.296875 5.609375 36.328125 
Q 5.609375 45.21875 7.953125 52.265625 
Q 10.296875 59.328125 14.796875 64.359375 
Q 19.09375 69.140625 25.46875 71.671875 
Q 31.84375 74.21875 39.359375 74.21875 
Q 47.171875 74.21875 53.390625 71.65625 
Q 59.625 69.09375 63.96875 64.359375 
z
M 63.09375 36.328125 
Q 63.09375 50.484375 56.734375 58.171875 
Q 50.390625 65.875 39.40625 65.875 
Q 28.328125 65.875 22 58.171875 
Q 15.671875 50.484375 15.671875 36.328125 
Q 15.671875 22.015625 22.109375 14.421875 
Q 28.5625 6.84375 39.40625 6.84375 
Q 50.25 6.84375 56.671875 14.421875 
Q 63.09375 22.015625 63.09375 36.328125 
z
" id="Verdana-4f"/>
      <path d="M 54.640625 0 
L 45.453125 0 
L 45.453125 31.0625 
Q 45.453125 34.8125 45.015625 38.109375 
Q 44.578125 41.40625 43.40625 43.265625 
Q 42.1875 45.3125 39.890625 46.3125 
Q 37.59375 47.3125 33.9375 47.3125 
Q 30.171875 47.3125 26.0625 45.453125 
Q 21.96875 43.609375 18.21875 40.71875 
L 18.21875 0 
L 9.03125 0 
L 9.03125 54.546875 
L 18.21875 54.546875 
L 18.21875 48.484375 
Q 22.515625 52.046875 27.09375 54.046875 
Q 31.6875 56.0625 36.53125 56.0625 
Q 45.359375 56.0625 50 50.734375 
Q 54.640625 45.40625 54.640625 35.40625 
z
" id="Verdana-6e"/>
      <path d="M 54.6875 26.3125 
L 14.5 26.3125 
Q 14.5 21.296875 16.015625 17.546875 
Q 17.53125 13.8125 20.171875 11.421875 
Q 22.703125 9.078125 26.1875 7.90625 
Q 29.6875 6.734375 33.890625 6.734375 
Q 39.453125 6.734375 45.09375 8.953125 
Q 50.734375 11.1875 53.125 13.328125 
L 53.609375 13.328125 
L 53.609375 3.328125 
Q 48.96875 1.375 44.140625 0.046875 
Q 39.3125 -1.265625 33.984375 -1.265625 
Q 20.40625 -1.265625 12.78125 6.078125 
Q 5.171875 13.421875 5.171875 26.953125 
Q 5.171875 40.328125 12.46875 48.1875 
Q 19.78125 56.0625 31.6875 56.0625 
Q 42.71875 56.0625 48.703125 49.609375 
Q 54.6875 43.171875 54.6875 31.296875 
z
M 45.75 33.34375 
Q 45.703125 40.578125 42.109375 44.53125 
Q 38.53125 48.484375 31.203125 48.484375 
Q 23.828125 48.484375 19.453125 44.140625 
Q 15.09375 39.796875 14.5 33.34375 
z
" id="Verdana-65"/>
      <path id="Verdana-20"/>
      <path d="M 64.59375 22.359375 
Q 64.59375 16.9375 62.546875 12.78125 
Q 60.5 8.640625 57.03125 5.953125 
Q 52.9375 2.734375 48.015625 1.359375 
Q 43.109375 0 35.546875 0 
L 9.765625 0 
L 9.765625 72.703125 
L 31.296875 72.703125 
Q 39.265625 72.703125 43.21875 72.109375 
Q 47.171875 71.53125 50.78125 69.671875 
Q 54.78125 67.578125 56.59375 64.28125 
Q 58.40625 60.984375 58.40625 56.390625 
Q 58.40625 51.21875 55.765625 47.578125 
Q 53.125 43.953125 48.734375 41.75 
L 48.734375 41.359375 
Q 56.109375 39.84375 60.34375 34.890625 
Q 64.59375 29.9375 64.59375 22.359375 
z
M 48.34375 55.125 
Q 48.34375 57.765625 47.453125 59.5625 
Q 46.578125 61.375 44.625 62.5 
Q 42.328125 63.8125 39.0625 64.125 
Q 35.796875 64.453125 30.953125 64.453125 
L 19.4375 64.453125 
L 19.4375 43.453125 
L 31.9375 43.453125 
Q 36.46875 43.453125 39.15625 43.921875 
Q 41.84375 44.390625 44.140625 45.84375 
Q 46.4375 47.3125 47.390625 49.625 
Q 48.34375 51.953125 48.34375 55.125 
z
M 54.546875 21.96875 
Q 54.546875 26.375 53.21875 28.953125 
Q 51.90625 31.546875 48.4375 33.34375 
Q 46.09375 34.578125 42.75 34.9375 
Q 39.40625 35.296875 34.625 35.296875 
L 19.4375 35.296875 
L 19.4375 8.25 
L 32.234375 8.25 
Q 38.578125 8.25 42.625 8.90625 
Q 46.6875 9.578125 49.265625 11.328125 
Q 52 13.234375 53.265625 15.671875 
Q 54.546875 18.109375 54.546875 21.96875 
z
" id="Verdana-42"/>
      <path d="M 53.265625 0 
L 44.09375 0 
L 44.09375 5.71875 
Q 40.140625 2.296875 35.84375 0.390625 
Q 31.546875 -1.515625 26.515625 -1.515625 
Q 16.75 -1.515625 11.015625 6 
Q 5.28125 13.53125 5.28125 26.859375 
Q 5.28125 33.796875 7.25 39.203125 
Q 9.234375 44.625 12.59375 48.4375 
Q 15.921875 52.15625 20.328125 54.109375 
Q 24.75 56.0625 29.5 56.0625 
Q 33.796875 56.0625 37.109375 55.15625 
Q 40.4375 54.25 44.09375 52.34375 
L 44.09375 75.984375 
L 53.265625 75.984375 
z
M 44.09375 13.421875 
L 44.09375 44.734375 
Q 40.375 46.390625 37.4375 47.015625 
Q 34.515625 47.65625 31.0625 47.65625 
Q 23.34375 47.65625 19.046875 42.28125 
Q 14.75 36.921875 14.75 27.046875 
Q 14.75 17.328125 18.0625 12.28125 
Q 21.390625 7.234375 28.71875 7.234375 
Q 32.625 7.234375 36.625 8.953125 
Q 40.625 10.6875 44.09375 13.421875 
z
" id="Verdana-64"/>
      <path d="M 43.0625 44.53125 
L 42.578125 44.53125 
Q 40.53125 45.015625 38.59375 45.234375 
Q 36.671875 45.453125 34.03125 45.453125 
Q 29.78125 45.453125 25.828125 43.578125 
Q 21.875 41.703125 18.21875 38.71875 
L 18.21875 0 
L 9.03125 0 
L 9.03125 54.546875 
L 18.21875 54.546875 
L 18.21875 46.484375 
Q 23.6875 50.875 27.859375 52.703125 
Q 32.03125 54.546875 36.375 54.546875 
Q 38.765625 54.546875 39.84375 54.421875 
Q 40.921875 54.296875 43.0625 53.953125 
z
" id="Verdana-72"/>
      <path d="M 55.515625 27.25 
Q 55.515625 13.921875 48.671875 6.203125 
Q 41.84375 -1.515625 30.375 -1.515625 
Q 18.796875 -1.515625 11.984375 6.203125 
Q 5.171875 13.921875 5.171875 27.25 
Q 5.171875 40.578125 11.984375 48.3125 
Q 18.796875 56.0625 30.375 56.0625 
Q 41.84375 56.0625 48.671875 48.3125 
Q 55.515625 40.578125 55.515625 27.25 
z
M 46.046875 27.25 
Q 46.046875 37.84375 41.890625 42.984375 
Q 37.75 48.140625 30.375 48.140625 
Q 22.90625 48.140625 18.78125 42.984375 
Q 14.65625 37.84375 14.65625 27.25 
Q 14.65625 17 18.796875 11.6875 
Q 22.953125 6.390625 30.375 6.390625 
Q 37.703125 6.390625 41.875 11.640625 
Q 46.046875 16.890625 46.046875 27.25 
z
" id="Verdana-6f"/>
      <path d="M 88.625 0 
L 79.4375 0 
L 79.4375 31.0625 
Q 79.4375 34.578125 79.125 37.84375 
Q 78.8125 41.109375 77.78125 43.0625 
Q 76.65625 45.171875 74.5625 46.234375 
Q 72.46875 47.3125 68.5 47.3125 
Q 64.65625 47.3125 60.796875 45.375 
Q 56.9375 43.453125 53.078125 40.484375 
Q 53.21875 39.359375 53.3125 37.859375 
Q 53.421875 36.375 53.421875 34.90625 
L 53.421875 0 
L 44.234375 0 
L 44.234375 31.0625 
Q 44.234375 34.671875 43.921875 37.90625 
Q 43.609375 41.15625 42.578125 43.109375 
Q 41.453125 45.21875 39.34375 46.265625 
Q 37.25 47.3125 33.296875 47.3125 
Q 29.546875 47.3125 25.75 45.453125 
Q 21.96875 43.609375 18.21875 40.71875 
L 18.21875 0 
L 9.03125 0 
L 9.03125 54.546875 
L 18.21875 54.546875 
L 18.21875 48.484375 
Q 22.515625 52.046875 26.78125 54.046875 
Q 31.0625 56.0625 35.890625 56.0625 
Q 41.453125 56.0625 45.328125 53.71875 
Q 49.21875 51.375 51.125 47.21875 
Q 56.6875 51.90625 61.28125 53.984375 
Q 65.875 56.0625 71.09375 56.0625 
Q 80.078125 56.0625 84.34375 50.609375 
Q 88.625 45.171875 88.625 35.40625 
z
" id="Verdana-6d"/>
      <path d="M 62.59375 20.75 
Q 62.59375 16.5 60.609375 12.34375 
Q 58.640625 8.203125 55.078125 5.328125 
Q 51.171875 2.203125 45.96875 0.4375 
Q 40.765625 -1.3125 33.453125 -1.3125 
Q 25.59375 -1.3125 19.3125 0.140625 
Q 13.03125 1.609375 6.546875 4.5 
L 6.546875 16.609375 
L 7.234375 16.609375 
Q 12.75 12.015625 19.96875 9.515625 
Q 27.203125 7.03125 33.546875 7.03125 
Q 42.53125 7.03125 47.53125 10.390625 
Q 52.546875 13.765625 52.546875 19.390625 
Q 52.546875 24.21875 50.171875 26.515625 
Q 47.796875 28.8125 42.96875 30.078125 
Q 39.3125 31.0625 35.03125 31.6875 
Q 30.765625 32.328125 25.984375 33.296875 
Q 16.3125 35.359375 11.640625 40.3125 
Q 6.984375 45.265625 6.984375 53.21875 
Q 6.984375 62.359375 14.6875 68.1875 
Q 22.40625 74.03125 34.28125 74.03125 
Q 41.9375 74.03125 48.328125 72.5625 
Q 54.734375 71.09375 59.671875 68.953125 
L 59.671875 57.515625 
L 58.984375 57.515625 
Q 54.828125 61.03125 48.0625 63.34375 
Q 41.3125 65.671875 34.234375 65.671875 
Q 26.46875 65.671875 21.75 62.453125 
Q 17.046875 59.234375 17.046875 54.15625 
Q 17.046875 49.609375 19.390625 47.015625 
Q 21.734375 44.4375 27.640625 43.0625 
Q 30.765625 42.390625 36.515625 41.40625 
Q 42.28125 40.4375 46.296875 39.40625 
Q 54.390625 37.25 58.484375 32.90625 
Q 62.59375 28.5625 62.59375 20.75 
z
" id="Verdana-53"/>
      <path d="M 53.265625 -20.125 
L 44.09375 -20.125 
L 44.09375 6.15625 
Q 39.84375 2.484375 35.640625 0.703125 
Q 31.453125 -1.078125 26.5625 -1.078125 
Q 16.84375 -1.078125 11.0625 6.421875 
Q 5.28125 13.921875 5.28125 27.09375 
Q 5.28125 34.125 7.296875 39.515625 
Q 9.328125 44.921875 12.640625 48.578125 
Q 15.875 52.15625 20.21875 54.109375 
Q 24.5625 56.0625 29.390625 56.0625 
Q 33.796875 56.0625 37.1875 55.078125 
Q 40.578125 54.109375 44.09375 52.203125 
L 44.671875 54.546875 
L 53.265625 54.546875 
z
M 44.09375 13.875 
L 44.09375 44.734375 
Q 40.28125 46.4375 37.34375 47.109375 
Q 34.421875 47.796875 31 47.796875 
Q 23.046875 47.796875 18.890625 42.40625 
Q 14.75 37.015625 14.75 27.546875 
Q 14.75 17.96875 18.09375 12.8125 
Q 21.4375 7.671875 28.609375 7.671875 
Q 32.625 7.671875 36.625 9.40625 
Q 40.625 11.140625 44.09375 13.875 
z
" id="Verdana-71"/>
      <path d="M 54.25 0 
L 45.0625 0 
L 45.0625 6.0625 
Q 40.4375 2.390625 36.1875 0.4375 
Q 31.9375 -1.515625 26.8125 -1.515625 
Q 18.21875 -1.515625 13.421875 3.734375 
Q 8.640625 8.984375 8.640625 19.140625 
L 8.640625 54.546875 
L 17.828125 54.546875 
L 17.828125 23.484375 
Q 17.828125 19.34375 18.21875 16.375 
Q 18.609375 13.421875 19.875 11.328125 
Q 21.1875 9.1875 23.28125 8.203125 
Q 25.390625 7.234375 29.390625 7.234375 
Q 32.953125 7.234375 37.171875 9.078125 
Q 41.40625 10.9375 45.0625 13.8125 
L 45.0625 54.546875 
L 54.25 54.546875 
z
" id="Verdana-75"/>
      <path d="M 51.421875 0 
L 42.28125 0 
L 42.28125 5.8125 
Q 41.0625 4.984375 38.984375 3.484375 
Q 36.921875 2 34.96875 1.125 
Q 32.671875 0 29.6875 -0.75 
Q 26.703125 -1.515625 22.703125 -1.515625 
Q 15.328125 -1.515625 10.203125 3.359375 
Q 5.078125 8.25 5.078125 15.828125 
Q 5.078125 22.015625 7.734375 25.84375 
Q 10.40625 29.6875 15.328125 31.890625 
Q 20.3125 34.078125 27.296875 34.859375 
Q 34.28125 35.640625 42.28125 36.03125 
L 42.28125 37.453125 
Q 42.28125 40.578125 41.1875 42.625 
Q 40.09375 44.671875 38.03125 45.84375 
Q 36.078125 46.96875 33.34375 47.359375 
Q 30.609375 47.75 27.640625 47.75 
Q 24.03125 47.75 19.578125 46.796875 
Q 15.140625 45.84375 10.40625 44.046875 
L 9.90625 44.046875 
L 9.90625 53.375 
Q 12.59375 54.109375 17.671875 54.984375 
Q 22.75 55.859375 27.6875 55.859375 
Q 33.453125 55.859375 37.71875 54.90625 
Q 42 53.953125 45.125 51.65625 
Q 48.1875 49.421875 49.796875 45.84375 
Q 51.421875 42.28125 51.421875 37.015625 
z
M 42.28125 13.421875 
L 42.28125 28.609375 
Q 38.09375 28.375 32.390625 27.875 
Q 26.703125 27.390625 23.390625 26.46875 
Q 19.4375 25.34375 16.984375 22.96875 
Q 14.546875 20.609375 14.546875 16.453125 
Q 14.546875 11.765625 17.375 9.390625 
Q 20.21875 7.03125 26.03125 7.03125 
Q 30.859375 7.03125 34.859375 8.90625 
Q 38.875 10.796875 42.28125 13.421875 
z
" id="Verdana-61"/>
      <path d="M 38.375 67.09375 
L 37.890625 67.09375 
Q 36.375 67.53125 33.9375 67.984375 
Q 31.5 68.453125 29.640625 68.453125 
Q 23.734375 68.453125 21.0625 65.84375 
Q 18.40625 63.234375 18.40625 56.390625 
L 18.40625 54.546875 
L 34.96875 54.546875 
L 34.96875 46.828125 
L 18.703125 46.828125 
L 18.703125 0 
L 9.515625 0 
L 9.515625 46.828125 
L 3.328125 46.828125 
L 3.328125 54.546875 
L 9.515625 54.546875 
L 9.515625 56.34375 
Q 9.515625 66.0625 14.34375 71.265625 
Q 19.1875 76.46875 28.328125 76.46875 
Q 31.390625 76.46875 33.859375 76.171875 
Q 36.328125 75.875 38.375 75.484375 
z
" id="Verdana-66"/>
      <path d="M 37.359375 0.484375 
Q 34.765625 -0.203125 31.703125 -0.640625 
Q 28.65625 -1.078125 26.265625 -1.078125 
Q 17.921875 -1.078125 13.578125 3.40625 
Q 9.234375 7.90625 9.234375 17.828125 
L 9.234375 46.828125 
L 3.03125 46.828125 
L 3.03125 54.546875 
L 9.234375 54.546875 
L 9.234375 70.21875 
L 18.40625 70.21875 
L 18.40625 54.546875 
L 37.359375 54.546875 
L 37.359375 46.828125 
L 18.40625 46.828125 
L 18.40625 21.96875 
Q 18.40625 17.671875 18.59375 15.25 
Q 18.796875 12.84375 19.96875 10.75 
Q 21.046875 8.796875 22.921875 7.890625 
Q 24.8125 6.984375 28.65625 6.984375 
Q 30.90625 6.984375 33.34375 7.640625 
Q 35.796875 8.296875 36.859375 8.734375 
L 37.359375 8.734375 
z
" id="Verdana-74"/>
      <path d="M 53.265625 6.203125 
Q 53.265625 -7.671875 46.96875 -14.15625 
Q 40.671875 -20.65625 27.59375 -20.65625 
Q 23.25 -20.65625 19.109375 -20.046875 
Q 14.984375 -19.4375 10.984375 -18.3125 
L 10.984375 -8.9375 
L 11.46875 -8.9375 
Q 13.71875 -9.8125 18.59375 -11.109375 
Q 23.484375 -12.40625 28.375 -12.40625 
Q 33.0625 -12.40625 36.125 -11.28125 
Q 39.203125 -10.15625 40.921875 -8.15625 
Q 42.625 -6.25 43.359375 -3.5625 
Q 44.09375 -0.875 44.09375 2.4375 
L 44.09375 7.421875 
Q 39.9375 4.109375 36.15625 2.46875 
Q 32.375 0.828125 26.515625 0.828125 
Q 16.75 0.828125 11.015625 7.875 
Q 5.28125 14.9375 5.28125 27.78125 
Q 5.28125 34.8125 7.25 39.90625 
Q 9.234375 45.015625 12.640625 48.734375 
Q 15.828125 52.203125 20.359375 54.125 
Q 24.90625 56.0625 29.390625 56.0625 
Q 34.125 56.0625 37.328125 55.109375 
Q 40.53125 54.15625 44.09375 52.203125 
L 44.671875 54.546875 
L 53.265625 54.546875 
z
M 44.09375 14.984375 
L 44.09375 44.734375 
Q 40.4375 46.390625 37.28125 47.09375 
Q 34.125 47.796875 31 47.796875 
Q 23.4375 47.796875 19.09375 42.71875 
Q 14.75 37.640625 14.75 27.984375 
Q 14.75 18.796875 17.96875 14.0625 
Q 21.1875 9.328125 28.65625 9.328125 
Q 32.671875 9.328125 36.6875 10.859375 
Q 40.71875 12.40625 44.09375 14.984375 
z
" id="Verdana-67"/>
     </defs>
     <g transform="translate(131.13875 308.427781)scale(0.14 -0.14)">
      <use xlink:href="#Verdana-4f"/>
      <use x="78.710938" xlink:href="#Verdana-6e"/>
      <use x="141.992188" xlink:href="#Verdana-65"/>
      <use x="201.5625" xlink:href="#Verdana-20"/>
      <use x="236.71875" xlink:href="#Verdana-42"/>
      <use x="305.273438" xlink:href="#Verdana-65"/>
      <use x="364.84375" xlink:href="#Verdana-64"/>
      <use x="427.148438" xlink:href="#Verdana-72"/>
      <use x="469.824219" xlink:href="#Verdana-6f"/>
      <use x="530.517578" xlink:href="#Verdana-6f"/>
      <use x="591.210938" xlink:href="#Verdana-6d"/>
      <use x="688.476562" xlink:href="#Verdana-20"/>
      <use x="723.632812" xlink:href="#Verdana-53"/>
      <use x="791.992188" xlink:href="#Verdana-71"/>
      <use x="854.296875" xlink:href="#Verdana-75"/>
      <use x="917.578125" xlink:href="#Verdana-61"/>
      <use x="977.636719" xlink:href="#Verdana-72"/>
      <use x="1020.3125" xlink:href="#Verdana-65"/>
      <use x="1079.882812" xlink:href="#Verdana-20"/>
      <use x="1115.039062" xlink:href="#Verdana-66"/>
      <use x="1150.195312" xlink:href="#Verdana-6f"/>
      <use x="1210.888672" xlink:href="#Verdana-6f"/>
      <use x="1271.582031" xlink:href="#Verdana-74"/>
      <use x="1310.986328" xlink:href="#Verdana-61"/>
      <use x="1371.044922" xlink:href="#Verdana-67"/>
      <use x="1433.349609" xlink:href="#Verdana-65"/>
     </g>
    </g>
   </g>
   <g id="matplotlib.axis_2">
    <g id="ytick_1">
     <g id="line2d_7">
      <defs>
       <path d="M 0 0 
L -3.5 0 
" id="md36cf417d4" style="stroke:#000000;stroke-width:0.8;"/>
      </defs>
      <g>
       <use style="stroke:#000000;stroke-width:0.8;" x="57.086563" xlink:href="#md36cf417d4" y="277.111219"/>
      </g>
     </g>
     <g id="text_8">
      <!-- 400 -->
      <g transform="translate(31.013125 280.910437)scale(0.1 -0.1)">
       <use xlink:href="#Verdana-34"/>
       <use x="63.574219" xlink:href="#Verdana-30"/>
       <use x="127.148438" xlink:href="#Verdana-30"/>
      </g>
     </g>
    </g>
    <g id="ytick_2">
     <g id="line2d_8">
      <g>
       <use style="stroke:#000000;stroke-width:0.8;" x="57.086563" xlink:href="#md36cf417d4" y="239.095219"/>
      </g>
     </g>
     <g id="text_9">
      <!-- 500 -->
      <g transform="translate(31.013125 242.894437)scale(0.1 -0.1)">
       <use xlink:href="#Verdana-35"/>
       <use x="63.574219" xlink:href="#Verdana-30"/>
       <use x="127.148438" xlink:href="#Verdana-30"/>
      </g>
     </g>
    </g>
    <g id="ytick_3">
     <g id="line2d_9">
      <g>
       <use style="stroke:#000000;stroke-width:0.8;" x="57.086563" xlink:href="#md36cf417d4" y="201.079219"/>
      </g>
     </g>
     <g id="text_10">
      <!-- 600 -->
      <g transform="translate(31.013125 204.878437)scale(0.1 -0.1)">
       <use xlink:href="#Verdana-36"/>
       <use x="63.574219" xlink:href="#Verdana-30"/>
       <use x="127.148438" xlink:href="#Verdana-30"/>
      </g>
     </g>
    </g>
    <g id="ytick_4">
     <g id="line2d_10">
      <g>
       <use style="stroke:#000000;stroke-width:0.8;" x="57.086563" xlink:href="#md36cf417d4" y="163.063219"/>
      </g>
     </g>
     <g id="text_11">
      <!-- 700 -->
      <g transform="translate(31.013125 166.862437)scale(0.1 -0.1)">
       <use xlink:href="#Verdana-37"/>
       <use x="63.574219" xlink:href="#Verdana-30"/>
       <use x="127.148438" xlink:href="#Verdana-30"/>
      </g>
     </g>
    </g>
    <g id="ytick_5">
     <g id="line2d_11">
      <g>
       <use style="stroke:#000000;stroke-width:0.8;" x="57.086563" xlink:href="#md36cf417d4" y="125.047219"/>
      </g>
     </g>
     <g id="text_12">
      <!-- 800 -->
      <g transform="translate(31.013125 128.846437)scale(0.1 -0.1)">
       <use xlink:href="#Verdana-38"/>
       <use x="63.574219" xlink:href="#Verdana-30"/>
       <use x="127.148438" xlink:href="#Verdana-30"/>
      </g>
     </g>
    </g>
    <g id="ytick_6">
     <g id="line2d_12">
      <g>
       <use style="stroke:#000000;stroke-width:0.8;" x="57.086563" xlink:href="#md36cf417d4" y="87.031219"/>
      </g>
     </g>
     <g id="text_13">
      <!-- 900 -->
      <g transform="translate(31.013125 90.830437)scale(0.1 -0.1)">
       <use xlink:href="#Verdana-39"/>
       <use x="63.574219" xlink:href="#Verdana-30"/>
       <use x="127.148438" xlink:href="#Verdana-30"/>
      </g>
     </g>
    </g>
    <g id="ytick_7">
     <g id="line2d_13">
      <g>
       <use style="stroke:#000000;stroke-width:0.8;" x="57.086563" xlink:href="#md36cf417d4" y="49.015219"/>
      </g>
     </g>
     <g id="text_14">
      <!-- 1000 -->
      <defs>
       <path d="M 52.9375 0 
L 13.578125 0 
L 13.578125 7.421875 
L 28.71875 7.421875 
L 28.71875 56.15625 
L 13.578125 56.15625 
L 13.578125 62.796875 
Q 16.65625 62.796875 20.171875 63.296875 
Q 23.6875 63.8125 25.484375 64.796875 
Q 27.734375 66.015625 29.03125 67.890625 
Q 30.328125 69.78125 30.515625 72.953125 
L 38.09375 72.953125 
L 38.09375 7.421875 
L 52.9375 7.421875 
z
" id="Verdana-31"/>
      </defs>
      <g transform="translate(24.655313 52.814437)scale(0.1 -0.1)">
       <use xlink:href="#Verdana-31"/>
       <use x="63.574219" xlink:href="#Verdana-30"/>
       <use x="127.148438" xlink:href="#Verdana-30"/>
       <use x="190.722656" xlink:href="#Verdana-30"/>
      </g>
     </g>
    </g>
    <g id="ytick_8">
     <g id="line2d_14">
      <g>
       <use style="stroke:#000000;stroke-width:0.8;" x="57.086563" xlink:href="#md36cf417d4" y="10.999219"/>
      </g>
     </g>
     <g id="text_15">
      <!-- 1100 -->
      <g transform="translate(24.655313 14.798437)scale(0.1 -0.1)">
       <use xlink:href="#Verdana-31"/>
       <use x="63.574219" xlink:href="#Verdana-31"/>
       <use x="127.148438" xlink:href="#Verdana-30"/>
       <use x="190.722656" xlink:href="#Verdana-30"/>
      </g>
     </g>
    </g>
    <g id="text_16">
     <!-- Rent price -->
     <defs>
      <path d="M 69.921875 0 
L 57.375 0 
L 33.0625 28.90625 
L 19.4375 28.90625 
L 19.4375 0 
L 9.765625 0 
L 9.765625 72.703125 
L 30.125 72.703125 
Q 36.71875 72.703125 41.109375 71.84375 
Q 45.515625 71 49.03125 68.796875 
Q 52.984375 66.3125 55.203125 62.515625 
Q 57.421875 58.734375 57.421875 52.9375 
Q 57.421875 45.0625 53.46875 39.765625 
Q 49.515625 34.46875 42.578125 31.78125 
z
M 47.3125 52.25 
Q 47.3125 55.375 46.21875 57.78125 
Q 45.125 60.203125 42.578125 61.859375 
Q 40.484375 63.28125 37.59375 63.84375 
Q 34.71875 64.40625 30.8125 64.40625 
L 19.4375 64.40625 
L 19.4375 36.96875 
L 29.203125 36.96875 
Q 33.796875 36.96875 37.203125 37.765625 
Q 40.625 38.578125 43.015625 40.765625 
Q 45.21875 42.828125 46.265625 45.484375 
Q 47.3125 48.140625 47.3125 52.25 
z
" id="Verdana-52"/>
      <path d="M 57.03125 27.9375 
Q 57.03125 21.296875 55.125 15.796875 
Q 53.21875 10.296875 49.75 6.5 
Q 46.53125 2.875 42.15625 0.890625 
Q 37.796875 -1.078125 32.90625 -1.078125 
Q 28.65625 -1.078125 25.21875 -0.140625 
Q 21.78125 0.78125 18.21875 2.734375 
L 18.21875 -20.125 
L 9.03125 -20.125 
L 9.03125 54.546875 
L 18.21875 54.546875 
L 18.21875 48.828125 
Q 21.875 51.90625 26.4375 53.984375 
Q 31 56.0625 36.1875 56.0625 
Q 46.046875 56.0625 51.53125 48.609375 
Q 57.03125 41.15625 57.03125 27.9375 
z
M 47.5625 27.6875 
Q 47.5625 37.546875 44.1875 42.421875 
Q 40.828125 47.3125 33.84375 47.3125 
Q 29.890625 47.3125 25.875 45.59375 
Q 21.875 43.890625 18.21875 41.109375 
L 18.21875 10.203125 
Q 22.125 8.453125 24.921875 7.8125 
Q 27.734375 7.171875 31.296875 7.171875 
Q 38.96875 7.171875 43.265625 12.34375 
Q 47.5625 17.53125 47.5625 27.6875 
z
" id="Verdana-70"/>
      <path d="M 18.890625 63.671875 
L 8.546875 63.671875 
L 8.546875 73.1875 
L 18.890625 73.1875 
z
M 18.3125 0 
L 9.125 0 
L 9.125 54.546875 
L 18.3125 54.546875 
z
" id="Verdana-69"/>
      <path d="M 49.359375 3.421875 
Q 44.78125 1.21875 40.65625 0 
Q 36.53125 -1.21875 31.890625 -1.21875 
Q 25.984375 -1.21875 21.046875 0.515625 
Q 16.109375 2.25 12.59375 5.765625 
Q 9.03125 9.28125 7.078125 14.640625 
Q 5.125 20.015625 5.125 27.203125 
Q 5.125 40.578125 12.46875 48.1875 
Q 19.828125 55.8125 31.890625 55.8125 
Q 36.578125 55.8125 41.09375 54.484375 
Q 45.609375 53.171875 49.359375 51.265625 
L 49.359375 41.0625 
L 48.875 41.0625 
Q 44.671875 44.34375 40.203125 46.09375 
Q 35.75 47.859375 31.5 47.859375 
Q 23.6875 47.859375 19.171875 42.609375 
Q 14.65625 37.359375 14.65625 27.203125 
Q 14.65625 17.328125 19.0625 12.03125 
Q 23.484375 6.734375 31.5 6.734375 
Q 34.28125 6.734375 37.15625 7.46875 
Q 40.046875 8.203125 42.328125 9.375 
Q 44.34375 10.40625 46.09375 11.546875 
Q 47.859375 12.703125 48.875 13.53125 
L 49.359375 13.53125 
z
" id="Verdana-63"/>
     </defs>
     <g transform="translate(17.837813 179.826312)rotate(-90)scale(0.14 -0.14)">
      <use xlink:href="#Verdana-52"/>
      <use x="69.5" xlink:href="#Verdana-65"/>
      <use x="129.070312" xlink:href="#Verdana-6e"/>
      <use x="192.351562" xlink:href="#Verdana-74"/>
      <use x="231.755859" xlink:href="#Verdana-20"/>
      <use x="266.912109" xlink:href="#Verdana-70"/>
      <use x="329.216797" xlink:href="#Verdana-72"/>
      <use x="371.892578" xlink:href="#Verdana-69"/>
      <use x="399.333984" xlink:href="#Verdana-63"/>
      <use x="451.433594" xlink:href="#Verdana-65"/>
     </g>
    </g>
   </g>
   <g id="line2d_15">
    <path clip-path="url(#pbcffd4a025)" d="M 324.176683 75.345054 
L 203.675159 152.310544 
L 272.685973 108.232669 
L 177.902845 168.77157 
L 330.115518 71.551862 
L 398.112994 28.121216 
L 134.055006 196.777609 
L 270.836483 109.413956 
L 254.334364 119.954019 
L 338.154429 66.417332 
L 390.936227 32.705088 
L 177.123613 169.269273 
L 326.553719 73.826818 
L 220.640068 141.474892 
L 91.344924 224.056952 
L 169.132836 174.373059 
L 210.937854 147.67179 
L 224.278647 139.150896 
L 154.204003 183.90825 
L 359.423912 52.832308 
L 369.136408 46.628842 
L 262.115875 114.983892 
L 392.824549 31.498998 
L 140.582962 192.60814 
L 104.676246 215.542107 
L 358.932632 53.146093 
L 409.179906 21.052673 
L 319.906781 78.072282 
L 185.508296 163.913895 
L 130.315985 199.165758 
L 141.696185 191.897114 
L 244.576419 126.186513 
L 402.882348 25.074984 
L 118.787432 206.529156 
L 408.140381 21.716627 
L 367.962093 47.378889 
L 137.268943 194.724837 
L 180.924758 166.841445 
L 298.694931 91.620496 
L 395.754934 29.627332 
L 398.858373 27.645136 
L 189.474389 161.380713 
L 357.949218 53.774209 
L 90.344489 224.695939 
L 346.095599 61.34523 
L 165.226916 176.867808 
L 287.813408 98.57063 
L 267.303314 111.670625 
L 201.107601 153.950468 
L 178.673657 168.279245 
L 95.785128 221.220951 
L 302.482045 89.201629 
L 125.433275 202.284392 
L 411.799741 19.379359 
L 73.371902 235.536495 
L 171.699446 172.733741 
L 242.463606 127.535987 
L 207.479249 149.880834 
L 300.076066 90.738351 
L 292.692177 95.454513 
L 69.909118 237.748208 
L 174.794099 170.757156 
L 322.232506 76.586819 
L 342.563337 63.60132 
L 105.997674 214.698098 
L 214.084183 145.662199 
L 342.479305 63.654993 
L 219.243653 142.366796 
L 129.213456 199.869954 
L 189.286572 161.500673 
L 406.603637 22.698161 
L 114.668491 209.159964 
L 164.451374 177.363154 
L 393.029613 31.368022 
L 211.253458 147.470211 
L 167.633741 175.330546 
L 100.248792 218.369965 
L 270.422321 109.678485 
L 239.098766 129.685143 
L 142.269142 191.531161 
L 99.447472 218.881776 
L 289.888279 97.245389 
L 172.027221 172.524388 
L 117.267411 207.500009 
L 359.334246 52.889578 
L 62.75757 242.315971 
L 210.877433 147.710381 
L 357.049196 54.349062 
L 259.298771 116.783204 
L 280.99084 102.92827 
L 296.688225 92.902198 
L 355.530947 55.318782 
L 99.689612 218.727119 
L 113.962809 209.61069 
L 153.453695 184.387478 
L 364.296466 49.72016 
L 199.107731 155.227804 
L 254.016629 120.156959 
L 111.361174 211.272379 
L 209.780457 148.411031 
" style="fill:none;opacity:0.8;stroke:#ff0000;stroke-linecap:square;stroke-width:1.5;"/>
   </g>
   <g id="patch_3">
    <path d="M 57.086563 277.111219 
L 57.086563 10.999219 
" style="fill:none;stroke:#000000;stroke-linecap:square;stroke-linejoin:miter;stroke-width:0.8;"/>
   </g>
   <g id="patch_4">
    <path d="M 414.206563 277.111219 
L 414.206563 10.999219 
" style="fill:none;stroke:#000000;stroke-linecap:square;stroke-linejoin:miter;stroke-width:0.8;"/>
   </g>
   <g id="patch_5">
    <path d="M 57.086562 277.111219 
L 414.206563 277.111219 
" style="fill:none;stroke:#000000;stroke-linecap:square;stroke-linejoin:miter;stroke-width:0.8;"/>
   </g>
   <g id="patch_6">
    <path d="M 57.086562 10.999219 
L 414.206563 10.999219 
" style="fill:none;stroke:#000000;stroke-linecap:square;stroke-linejoin:miter;stroke-width:0.8;"/>
   </g>
  </g>
 </g>
 <defs>
  <clipPath id="pbcffd4a025">
   <rect height="266.112" width="357.12" x="57.086563" y="10.999219"/>
  </clipPath>
 </defs>
</svg>
