<?xml version="1.0" encoding="utf-8" standalone="no"?>
<!DOCTYPE svg PUBLIC "-//W3C//DTD SVG 1.1//EN"
  "http://www.w3.org/Graphics/SVG/1.1/DTD/svg11.dtd">
<!-- Created with matplotlib (https://matplotlib.org/) -->
<svg height="367.778125pt" version="1.1" viewBox="0 0 257.924688 367.778125" width="257.924688pt" xmlns="http://www.w3.org/2000/svg" xmlns:xlink="http://www.w3.org/1999/xlink">
 <defs>
  <style type="text/css">
*{stroke-linecap:butt;stroke-linejoin:round;}
  </style>
 </defs>
 <g id="figure_1">
  <g id="patch_1">
   <path d="M 0 367.778125 
L 257.924687 367.778125 
L 257.924687 0 
L 0 0 
z
" style="fill:#ffffff;"/>
  </g>
  <g id="axes_1">
   <g id="patch_2">
    <path d="M 145.071875 351.1 
L 246.791875 351.1 
L 246.791875 3.5 
L 145.071875 3.5 
z
" style="fill:#ffffff;"/>
   </g>
   <g id="patch_3">
    <path clip-path="url(#p0694474e63)" d="M 145.464074 4.75942 
L 246.399676 4.75942 
L 246.399676 17.353623 
L 145.464074 17.353623 
z
" style="fill:#d9e6f5;stroke:#444443;stroke-linejoin:miter;stroke-width:0.5;"/>
   </g>
   <g id="patch_4">
    <path clip-path="url(#p0694474e63)" d="M 145.464074 18.613043 
L 238.651032 18.613043 
L 238.651032 31.207246 
L 145.464074 31.207246 
z
" style="fill:#d9e6f5;stroke:#444443;stroke-linejoin:miter;stroke-width:0.5;"/>
   </g>
   <g id="patch_5">
    <path clip-path="url(#p0694474e63)" d="M 145.464074 32.466667 
L 223.665925 32.466667 
L 223.665925 45.06087 
L 145.464074 45.06087 
z
" style="fill:#d9e6f5;stroke:#444443;stroke-linejoin:miter;stroke-width:0.5;"/>
   </g>
   <g id="patch_6">
    <path clip-path="url(#p0694474e63)" d="M 145.464074 46.32029 
L 177.058942 46.32029 
L 177.058942 58.914493 
L 145.464074 58.914493 
z
" style="fill:#d9e6f5;stroke:#444443;stroke-linejoin:miter;stroke-width:0.5;"/>
   </g>
   <g id="patch_7">
    <path clip-path="url(#p0694474e63)" d="M 145.464074 60.173913 
L 174.080496 60.173913 
L 174.080496 72.768116 
L 145.464074 72.768116 
z
" style="fill:#d9e6f5;stroke:#444443;stroke-linejoin:miter;stroke-width:0.5;"/>
   </g>
   <g id="patch_8">
    <path clip-path="url(#p0694474e63)" d="M 145.464074 74.027536 
L 165.627826 74.027536 
L 165.627826 86.621739 
L 145.464074 86.621739 
z
" style="fill:#d9e6f5;stroke:#444443;stroke-linejoin:miter;stroke-width:0.5;"/>
   </g>
   <g id="patch_9">
    <path clip-path="url(#p0694474e63)" d="M 145.464074 87.881159 
L 165.117627 87.881159 
L 165.117627 100.475362 
L 145.464074 100.475362 
z
" style="fill:#d9e6f5;stroke:#444443;stroke-linejoin:miter;stroke-width:0.5;"/>
   </g>
   <g id="patch_10">
    <path clip-path="url(#p0694474e63)" d="M 145.464074 101.734783 
L 155.941817 101.734783 
L 155.941817 114.328986 
L 145.464074 114.328986 
z
" style="fill:#d9e6f5;stroke:#444443;stroke-linejoin:miter;stroke-width:0.5;"/>
   </g>
   <g id="patch_11">
    <path clip-path="url(#p0694474e63)" d="M 145.464074 115.588406 
L 153.642959 115.588406 
L 153.642959 128.182609 
L 145.464074 128.182609 
z
" style="fill:#d9e6f5;stroke:#444443;stroke-linejoin:miter;stroke-width:0.5;"/>
   </g>
   <g id="patch_12">
    <path clip-path="url(#p0694474e63)" d="M 145.464074 129.442029 
L 153.247786 129.442029 
L 153.247786 142.036232 
L 145.464074 142.036232 
z
" style="fill:#d9e6f5;stroke:#444443;stroke-linejoin:miter;stroke-width:0.5;"/>
   </g>
   <g id="patch_13">
    <path clip-path="url(#p0694474e63)" d="M 145.464074 143.295652 
L 152.239321 143.295652 
L 152.239321 155.889855 
L 145.464074 155.889855 
z
" style="fill:#d9e6f5;stroke:#444443;stroke-linejoin:miter;stroke-width:0.5;"/>
   </g>
   <g id="patch_14">
    <path clip-path="url(#p0694474e63)" d="M 145.464074 157.149275 
L 151.087719 157.149275 
L 151.087719 169.743478 
L 145.464074 169.743478 
z
" style="fill:#d9e6f5;stroke:#444443;stroke-linejoin:miter;stroke-width:0.5;"/>
   </g>
   <g id="patch_15">
    <path clip-path="url(#p0694474e63)" d="M 145.464074 171.002899 
L 151.067051 171.002899 
L 151.067051 183.597101 
L 145.464074 183.597101 
z
" style="fill:#d9e6f5;stroke:#444443;stroke-linejoin:miter;stroke-width:0.5;"/>
   </g>
   <g id="patch_16">
    <path clip-path="url(#p0694474e63)" d="M 145.464074 184.856522 
L 150.181437 184.856522 
L 150.181437 197.450725 
L 145.464074 197.450725 
z
" style="fill:#d9e6f5;stroke:#444443;stroke-linejoin:miter;stroke-width:0.5;"/>
   </g>
   <g id="patch_17">
    <path clip-path="url(#p0694474e63)" d="M 145.464074 198.710145 
L 149.83691 198.710145 
L 149.83691 211.304348 
L 145.464074 211.304348 
z
" style="fill:#d9e6f5;stroke:#444443;stroke-linejoin:miter;stroke-width:0.5;"/>
   </g>
   <g id="patch_18">
    <path clip-path="url(#p0694474e63)" d="M 145.464074 212.563768 
L 149.636814 212.563768 
L 149.636814 225.157971 
L 145.464074 225.157971 
z
" style="fill:#d9e6f5;stroke:#444443;stroke-linejoin:miter;stroke-width:0.5;"/>
   </g>
   <g id="patch_19">
    <path clip-path="url(#p0694474e63)" d="M 145.464074 226.417391 
L 148.732488 226.417391 
L 148.732488 239.011594 
L 145.464074 239.011594 
z
" style="fill:#d9e6f5;stroke:#444443;stroke-linejoin:miter;stroke-width:0.5;"/>
   </g>
   <g id="patch_20">
    <path clip-path="url(#p0694474e63)" d="M 145.464074 240.271014 
L 148.666856 240.271014 
L 148.666856 252.865217 
L 145.464074 252.865217 
z
" style="fill:#d9e6f5;stroke:#444443;stroke-linejoin:miter;stroke-width:0.5;"/>
   </g>
   <g id="patch_21">
    <path clip-path="url(#p0694474e63)" d="M 145.464074 254.124638 
L 147.894085 254.124638 
L 147.894085 266.718841 
L 145.464074 266.718841 
z
" style="fill:#d9e6f5;stroke:#444443;stroke-linejoin:miter;stroke-width:0.5;"/>
   </g>
   <g id="patch_22">
    <path clip-path="url(#p0694474e63)" d="M 145.464074 267.978261 
L 147.747975 267.978261 
L 147.747975 280.572464 
L 145.464074 280.572464 
z
" style="fill:#d9e6f5;stroke:#444443;stroke-linejoin:miter;stroke-width:0.5;"/>
   </g>
   <g id="patch_23">
    <path clip-path="url(#p0694474e63)" d="M 145.464074 281.831884 
L 147.304992 281.831884 
L 147.304992 294.426087 
L 145.464074 294.426087 
z
" style="fill:#d9e6f5;stroke:#444443;stroke-linejoin:miter;stroke-width:0.5;"/>
   </g>
   <g id="patch_24">
    <path clip-path="url(#p0694474e63)" d="M 145.464074 295.685507 
L 146.666085 295.685507 
L 146.666085 308.27971 
L 145.464074 308.27971 
z
" style="fill:#d9e6f5;stroke:#444443;stroke-linejoin:miter;stroke-width:0.5;"/>
   </g>
   <g id="patch_25">
    <path clip-path="url(#p0694474e63)" d="M 145.464074 309.53913 
L 146.64181 309.53913 
L 146.64181 322.133333 
L 145.464074 322.133333 
z
" style="fill:#d9e6f5;stroke:#444443;stroke-linejoin:miter;stroke-width:0.5;"/>
   </g>
   <g id="patch_26">
    <path clip-path="url(#p0694474e63)" d="M 145.464074 323.392754 
L 146.611081 323.392754 
L 146.611081 335.986957 
L 145.464074 335.986957 
z
" style="fill:#d9e6f5;stroke:#444443;stroke-linejoin:miter;stroke-width:0.5;"/>
   </g>
   <g id="patch_27">
    <path clip-path="url(#p0694474e63)" d="M 145.464074 337.246377 
L 146.418361 337.246377 
L 146.418361 349.84058 
L 145.464074 349.84058 
z
" style="fill:#d9e6f5;stroke:#444443;stroke-linejoin:miter;stroke-width:0.5;"/>
   </g>
   <g id="matplotlib.axis_1">
    <g id="xtick_1">
     <g id="line2d_1">
      <defs>
       <path d="M 0 0 
L 0 3.5 
" id="m565779b4d4" style="stroke:#000000;stroke-width:0.8;"/>
      </defs>
      <g>
       <use style="stroke:#000000;stroke-width:0.8;" x="145.464074" xlink:href="#m565779b4d4" y="351.1"/>
      </g>
     </g>
     <g id="text_1">
      <!-- 0.00 -->
      <defs>
       <path d="M 31.78125 66.40625 
Q 24.171875 66.40625 20.328125 58.90625 
Q 16.5 51.421875 16.5 36.375 
Q 16.5 21.390625 20.328125 13.890625 
Q 24.171875 6.390625 31.78125 6.390625 
Q 39.453125 6.390625 43.28125 13.890625 
Q 47.125 21.390625 47.125 36.375 
Q 47.125 51.421875 43.28125 58.90625 
Q 39.453125 66.40625 31.78125 66.40625 
z
M 31.78125 74.21875 
Q 44.046875 74.21875 50.515625 64.515625 
Q 56.984375 54.828125 56.984375 36.375 
Q 56.984375 17.96875 50.515625 8.265625 
Q 44.046875 -1.421875 31.78125 -1.421875 
Q 19.53125 -1.421875 13.0625 8.265625 
Q 6.59375 17.96875 6.59375 36.375 
Q 6.59375 54.828125 13.0625 64.515625 
Q 19.53125 74.21875 31.78125 74.21875 
z
" id="DejaVuSans-48"/>
       <path d="M 10.6875 12.40625 
L 21 12.40625 
L 21 0 
L 10.6875 0 
z
" id="DejaVuSans-46"/>
      </defs>
      <g style="fill:#444443;" transform="translate(134.331262 365.698437)scale(0.1 -0.1)">
       <use xlink:href="#DejaVuSans-48"/>
       <use x="63.623047" xlink:href="#DejaVuSans-46"/>
       <use x="95.410156" xlink:href="#DejaVuSans-48"/>
       <use x="159.033203" xlink:href="#DejaVuSans-48"/>
      </g>
     </g>
    </g>
    <g id="xtick_2">
     <g id="line2d_2">
      <g>
       <use style="stroke:#000000;stroke-width:0.8;" x="246.791875" xlink:href="#m565779b4d4" y="351.1"/>
      </g>
     </g>
     <g id="text_2">
      <!-- 0.52 -->
      <defs>
       <path d="M 10.796875 72.90625 
L 49.515625 72.90625 
L 49.515625 64.59375 
L 19.828125 64.59375 
L 19.828125 46.734375 
Q 21.96875 47.46875 24.109375 47.828125 
Q 26.265625 48.1875 28.421875 48.1875 
Q 40.625 48.1875 47.75 41.5 
Q 54.890625 34.8125 54.890625 23.390625 
Q 54.890625 11.625 47.5625 5.09375 
Q 40.234375 -1.421875 26.90625 -1.421875 
Q 22.3125 -1.421875 17.546875 -0.640625 
Q 12.796875 0.140625 7.71875 1.703125 
L 7.71875 11.625 
Q 12.109375 9.234375 16.796875 8.0625 
Q 21.484375 6.890625 26.703125 6.890625 
Q 35.15625 6.890625 40.078125 11.328125 
Q 45.015625 15.765625 45.015625 23.390625 
Q 45.015625 31 40.078125 35.4375 
Q 35.15625 39.890625 26.703125 39.890625 
Q 22.75 39.890625 18.8125 39.015625 
Q 14.890625 38.140625 10.796875 36.28125 
z
" id="DejaVuSans-53"/>
       <path d="M 19.1875 8.296875 
L 53.609375 8.296875 
L 53.609375 0 
L 7.328125 0 
L 7.328125 8.296875 
Q 12.9375 14.109375 22.625 23.890625 
Q 32.328125 33.6875 34.8125 36.53125 
Q 39.546875 41.84375 41.421875 45.53125 
Q 43.3125 49.21875 43.3125 52.78125 
Q 43.3125 58.59375 39.234375 62.25 
Q 35.15625 65.921875 28.609375 65.921875 
Q 23.96875 65.921875 18.8125 64.3125 
Q 13.671875 62.703125 7.8125 59.421875 
L 7.8125 69.390625 
Q 13.765625 71.78125 18.9375 73 
Q 24.125 74.21875 28.421875 74.21875 
Q 39.75 74.21875 46.484375 68.546875 
Q 53.21875 62.890625 53.21875 53.421875 
Q 53.21875 48.921875 51.53125 44.890625 
Q 49.859375 40.875 45.40625 35.40625 
Q 44.1875 33.984375 37.640625 27.21875 
Q 31.109375 20.453125 19.1875 8.296875 
z
" id="DejaVuSans-50"/>
      </defs>
      <g style="fill:#444443;" transform="translate(235.659063 365.698437)scale(0.1 -0.1)">
       <use xlink:href="#DejaVuSans-48"/>
       <use x="63.623047" xlink:href="#DejaVuSans-46"/>
       <use x="95.410156" xlink:href="#DejaVuSans-53"/>
       <use x="159.033203" xlink:href="#DejaVuSans-50"/>
      </g>
     </g>
    </g>
   </g>
   <g id="matplotlib.axis_2">
    <g id="ytick_1">
     <g id="line2d_3">
      <defs>
       <path d="M 0 0 
L -3.5 0 
" id="m772b8c2cc7" style="stroke:#000000;stroke-width:0.8;"/>
      </defs>
      <g>
       <use style="stroke:#000000;stroke-width:0.8;" x="145.071875" xlink:href="#m772b8c2cc7" y="11.056522"/>
      </g>
     </g>
     <g id="text_3">
      <!-- YearMade -->
      <defs>
       <path d="M -0.203125 72.90625 
L 10.40625 72.90625 
L 30.609375 42.921875 
L 50.6875 72.90625 
L 61.28125 72.90625 
L 35.5 34.71875 
L 35.5 0 
L 25.59375 0 
L 25.59375 34.71875 
z
" id="DejaVuSans-89"/>
       <path d="M 56.203125 29.59375 
L 56.203125 25.203125 
L 14.890625 25.203125 
Q 15.484375 15.921875 20.484375 11.0625 
Q 25.484375 6.203125 34.421875 6.203125 
Q 39.59375 6.203125 44.453125 7.46875 
Q 49.3125 8.734375 54.109375 11.28125 
L 54.109375 2.78125 
Q 49.265625 0.734375 44.1875 -0.34375 
Q 39.109375 -1.421875 33.890625 -1.421875 
Q 20.796875 -1.421875 13.15625 6.1875 
Q 5.515625 13.8125 5.515625 26.8125 
Q 5.515625 40.234375 12.765625 48.109375 
Q 20.015625 56 32.328125 56 
Q 43.359375 56 49.78125 48.890625 
Q 56.203125 41.796875 56.203125 29.59375 
z
M 47.21875 32.234375 
Q 47.125 39.59375 43.09375 43.984375 
Q 39.0625 48.390625 32.421875 48.390625 
Q 24.90625 48.390625 20.390625 44.140625 
Q 15.875 39.890625 15.1875 32.171875 
z
" id="DejaVuSans-101"/>
       <path d="M 34.28125 27.484375 
Q 23.390625 27.484375 19.1875 25 
Q 14.984375 22.515625 14.984375 16.5 
Q 14.984375 11.71875 18.140625 8.90625 
Q 21.296875 6.109375 26.703125 6.109375 
Q 34.1875 6.109375 38.703125 11.40625 
Q 43.21875 16.703125 43.21875 25.484375 
L 43.21875 27.484375 
z
M 52.203125 31.203125 
L 52.203125 0 
L 43.21875 0 
L 43.21875 8.296875 
Q 40.140625 3.328125 35.546875 0.953125 
Q 30.953125 -1.421875 24.3125 -1.421875 
Q 15.921875 -1.421875 10.953125 3.296875 
Q 6 8.015625 6 15.921875 
Q 6 25.140625 12.171875 29.828125 
Q 18.359375 34.515625 30.609375 34.515625 
L 43.21875 34.515625 
L 43.21875 35.40625 
Q 43.21875 41.609375 39.140625 45 
Q 35.0625 48.390625 27.6875 48.390625 
Q 23 48.390625 18.546875 47.265625 
Q 14.109375 46.140625 10.015625 43.890625 
L 10.015625 52.203125 
Q 14.9375 54.109375 19.578125 55.046875 
Q 24.21875 56 28.609375 56 
Q 40.484375 56 46.34375 49.84375 
Q 52.203125 43.703125 52.203125 31.203125 
z
" id="DejaVuSans-97"/>
       <path d="M 41.109375 46.296875 
Q 39.59375 47.171875 37.8125 47.578125 
Q 36.03125 48 33.890625 48 
Q 26.265625 48 22.1875 43.046875 
Q 18.109375 38.09375 18.109375 28.8125 
L 18.109375 0 
L 9.078125 0 
L 9.078125 54.6875 
L 18.109375 54.6875 
L 18.109375 46.1875 
Q 20.953125 51.171875 25.484375 53.578125 
Q 30.03125 56 36.53125 56 
Q 37.453125 56 38.578125 55.875 
Q 39.703125 55.765625 41.0625 55.515625 
z
" id="DejaVuSans-114"/>
       <path d="M 9.8125 72.90625 
L 24.515625 72.90625 
L 43.109375 23.296875 
L 61.8125 72.90625 
L 76.515625 72.90625 
L 76.515625 0 
L 66.890625 0 
L 66.890625 64.015625 
L 48.09375 14.015625 
L 38.1875 14.015625 
L 19.390625 64.015625 
L 19.390625 0 
L 9.8125 0 
z
" id="DejaVuSans-77"/>
       <path d="M 45.40625 46.390625 
L 45.40625 75.984375 
L 54.390625 75.984375 
L 54.390625 0 
L 45.40625 0 
L 45.40625 8.203125 
Q 42.578125 3.328125 38.25 0.953125 
Q 33.9375 -1.421875 27.875 -1.421875 
Q 17.96875 -1.421875 11.734375 6.484375 
Q 5.515625 14.40625 5.515625 27.296875 
Q 5.515625 40.1875 11.734375 48.09375 
Q 17.96875 56 27.875 56 
Q 33.9375 56 38.25 53.625 
Q 42.578125 51.265625 45.40625 46.390625 
z
M 14.796875 27.296875 
Q 14.796875 17.390625 18.875 11.75 
Q 22.953125 6.109375 30.078125 6.109375 
Q 37.203125 6.109375 41.296875 11.75 
Q 45.40625 17.390625 45.40625 27.296875 
Q 45.40625 37.203125 41.296875 42.84375 
Q 37.203125 48.484375 30.078125 48.484375 
Q 22.953125 48.484375 18.875 42.84375 
Q 14.796875 37.203125 14.796875 27.296875 
z
" id="DejaVuSans-100"/>
      </defs>
      <g style="fill:#444443;" transform="translate(88.334375 14.85574)scale(0.1 -0.1)">
       <use xlink:href="#DejaVuSans-89"/>
       <use x="60.880859" xlink:href="#DejaVuSans-101"/>
       <use x="122.404297" xlink:href="#DejaVuSans-97"/>
       <use x="183.683594" xlink:href="#DejaVuSans-114"/>
       <use x="224.796875" xlink:href="#DejaVuSans-77"/>
       <use x="311.076172" xlink:href="#DejaVuSans-97"/>
       <use x="372.355469" xlink:href="#DejaVuSans-100"/>
       <use x="435.832031" xlink:href="#DejaVuSans-101"/>
      </g>
     </g>
    </g>
    <g id="ytick_2">
     <g id="line2d_4">
      <g>
       <use style="stroke:#000000;stroke-width:0.8;" x="145.071875" xlink:href="#m772b8c2cc7" y="24.910145"/>
      </g>
     </g>
     <g id="text_4">
      <!-- ProductSize -->
      <defs>
       <path d="M 19.671875 64.796875 
L 19.671875 37.40625 
L 32.078125 37.40625 
Q 38.96875 37.40625 42.71875 40.96875 
Q 46.484375 44.53125 46.484375 51.125 
Q 46.484375 57.671875 42.71875 61.234375 
Q 38.96875 64.796875 32.078125 64.796875 
z
M 9.8125 72.90625 
L 32.078125 72.90625 
Q 44.34375 72.90625 50.609375 67.359375 
Q 56.890625 61.8125 56.890625 51.125 
Q 56.890625 40.328125 50.609375 34.8125 
Q 44.34375 29.296875 32.078125 29.296875 
L 19.671875 29.296875 
L 19.671875 0 
L 9.8125 0 
z
" id="DejaVuSans-80"/>
       <path d="M 30.609375 48.390625 
Q 23.390625 48.390625 19.1875 42.75 
Q 14.984375 37.109375 14.984375 27.296875 
Q 14.984375 17.484375 19.15625 11.84375 
Q 23.34375 6.203125 30.609375 6.203125 
Q 37.796875 6.203125 41.984375 11.859375 
Q 46.1875 17.53125 46.1875 27.296875 
Q 46.1875 37.015625 41.984375 42.703125 
Q 37.796875 48.390625 30.609375 48.390625 
z
M 30.609375 56 
Q 42.328125 56 49.015625 48.375 
Q 55.71875 40.765625 55.71875 27.296875 
Q 55.71875 13.875 49.015625 6.21875 
Q 42.328125 -1.421875 30.609375 -1.421875 
Q 18.84375 -1.421875 12.171875 6.21875 
Q 5.515625 13.875 5.515625 27.296875 
Q 5.515625 40.765625 12.171875 48.375 
Q 18.84375 56 30.609375 56 
z
" id="DejaVuSans-111"/>
       <path d="M 8.5 21.578125 
L 8.5 54.6875 
L 17.484375 54.6875 
L 17.484375 21.921875 
Q 17.484375 14.15625 20.5 10.265625 
Q 23.53125 6.390625 29.59375 6.390625 
Q 36.859375 6.390625 41.078125 11.03125 
Q 45.3125 15.671875 45.3125 23.6875 
L 45.3125 54.6875 
L 54.296875 54.6875 
L 54.296875 0 
L 45.3125 0 
L 45.3125 8.40625 
Q 42.046875 3.421875 37.71875 1 
Q 33.40625 -1.421875 27.6875 -1.421875 
Q 18.265625 -1.421875 13.375 4.4375 
Q 8.5 10.296875 8.5 21.578125 
z
M 31.109375 56 
z
" id="DejaVuSans-117"/>
       <path d="M 48.78125 52.59375 
L 48.78125 44.1875 
Q 44.96875 46.296875 41.140625 47.34375 
Q 37.3125 48.390625 33.40625 48.390625 
Q 24.65625 48.390625 19.8125 42.84375 
Q 14.984375 37.3125 14.984375 27.296875 
Q 14.984375 17.28125 19.8125 11.734375 
Q 24.65625 6.203125 33.40625 6.203125 
Q 37.3125 6.203125 41.140625 7.25 
Q 44.96875 8.296875 48.78125 10.40625 
L 48.78125 2.09375 
Q 45.015625 0.34375 40.984375 -0.53125 
Q 36.96875 -1.421875 32.421875 -1.421875 
Q 20.0625 -1.421875 12.78125 6.34375 
Q 5.515625 14.109375 5.515625 27.296875 
Q 5.515625 40.671875 12.859375 48.328125 
Q 20.21875 56 33.015625 56 
Q 37.15625 56 41.109375 55.140625 
Q 45.0625 54.296875 48.78125 52.59375 
z
" id="DejaVuSans-99"/>
       <path d="M 18.3125 70.21875 
L 18.3125 54.6875 
L 36.8125 54.6875 
L 36.8125 47.703125 
L 18.3125 47.703125 
L 18.3125 18.015625 
Q 18.3125 11.328125 20.140625 9.421875 
Q 21.96875 7.515625 27.59375 7.515625 
L 36.8125 7.515625 
L 36.8125 0 
L 27.59375 0 
Q 17.1875 0 13.234375 3.875 
Q 9.28125 7.765625 9.28125 18.015625 
L 9.28125 47.703125 
L 2.6875 47.703125 
L 2.6875 54.6875 
L 9.28125 54.6875 
L 9.28125 70.21875 
z
" id="DejaVuSans-116"/>
       <path d="M 53.515625 70.515625 
L 53.515625 60.890625 
Q 47.90625 63.578125 42.921875 64.890625 
Q 37.9375 66.21875 33.296875 66.21875 
Q 25.25 66.21875 20.875 63.09375 
Q 16.5 59.96875 16.5 54.203125 
Q 16.5 49.359375 19.40625 46.890625 
Q 22.3125 44.4375 30.421875 42.921875 
L 36.375 41.703125 
Q 47.40625 39.59375 52.65625 34.296875 
Q 57.90625 29 57.90625 20.125 
Q 57.90625 9.515625 50.796875 4.046875 
Q 43.703125 -1.421875 29.984375 -1.421875 
Q 24.8125 -1.421875 18.96875 -0.25 
Q 13.140625 0.921875 6.890625 3.21875 
L 6.890625 13.375 
Q 12.890625 10.015625 18.65625 8.296875 
Q 24.421875 6.59375 29.984375 6.59375 
Q 38.421875 6.59375 43.015625 9.90625 
Q 47.609375 13.234375 47.609375 19.390625 
Q 47.609375 24.75 44.3125 27.78125 
Q 41.015625 30.8125 33.5 32.328125 
L 27.484375 33.5 
Q 16.453125 35.6875 11.515625 40.375 
Q 6.59375 45.0625 6.59375 53.421875 
Q 6.59375 63.09375 13.40625 68.65625 
Q 20.21875 74.21875 32.171875 74.21875 
Q 37.3125 74.21875 42.625 73.28125 
Q 47.953125 72.359375 53.515625 70.515625 
z
" id="DejaVuSans-83"/>
       <path d="M 9.421875 54.6875 
L 18.40625 54.6875 
L 18.40625 0 
L 9.421875 0 
z
M 9.421875 75.984375 
L 18.40625 75.984375 
L 18.40625 64.59375 
L 9.421875 64.59375 
z
" id="DejaVuSans-105"/>
       <path d="M 5.515625 54.6875 
L 48.1875 54.6875 
L 48.1875 46.484375 
L 14.40625 7.171875 
L 48.1875 7.171875 
L 48.1875 0 
L 4.296875 0 
L 4.296875 8.203125 
L 38.09375 47.515625 
L 5.515625 47.515625 
z
" id="DejaVuSans-122"/>
      </defs>
      <g style="fill:#444443;" transform="translate(79.184375 28.709364)scale(0.1 -0.1)">
       <use xlink:href="#DejaVuSans-80"/>
       <use x="60.287109" xlink:href="#DejaVuSans-114"/>
       <use x="101.369141" xlink:href="#DejaVuSans-111"/>
       <use x="162.550781" xlink:href="#DejaVuSans-100"/>
       <use x="226.027344" xlink:href="#DejaVuSans-117"/>
       <use x="289.40625" xlink:href="#DejaVuSans-99"/>
       <use x="344.386719" xlink:href="#DejaVuSans-116"/>
       <use x="383.595703" xlink:href="#DejaVuSans-83"/>
       <use x="447.072266" xlink:href="#DejaVuSans-105"/>
       <use x="474.855469" xlink:href="#DejaVuSans-122"/>
       <use x="527.345703" xlink:href="#DejaVuSans-101"/>
      </g>
     </g>
    </g>
    <g id="ytick_3">
     <g id="line2d_5">
      <g>
       <use style="stroke:#000000;stroke-width:0.8;" x="145.071875" xlink:href="#m772b8c2cc7" y="38.763768"/>
      </g>
     </g>
     <g id="text_5">
      <!-- fiProductClassSpec_lower -->
      <defs>
       <path d="M 37.109375 75.984375 
L 37.109375 68.5 
L 28.515625 68.5 
Q 23.6875 68.5 21.796875 66.546875 
Q 19.921875 64.59375 19.921875 59.515625 
L 19.921875 54.6875 
L 34.71875 54.6875 
L 34.71875 47.703125 
L 19.921875 47.703125 
L 19.921875 0 
L 10.890625 0 
L 10.890625 47.703125 
L 2.296875 47.703125 
L 2.296875 54.6875 
L 10.890625 54.6875 
L 10.890625 58.5 
Q 10.890625 67.625 15.140625 71.796875 
Q 19.390625 75.984375 28.609375 75.984375 
z
" id="DejaVuSans-102"/>
       <path d="M 64.40625 67.28125 
L 64.40625 56.890625 
Q 59.421875 61.53125 53.78125 63.8125 
Q 48.140625 66.109375 41.796875 66.109375 
Q 29.296875 66.109375 22.65625 58.46875 
Q 16.015625 50.828125 16.015625 36.375 
Q 16.015625 21.96875 22.65625 14.328125 
Q 29.296875 6.6875 41.796875 6.6875 
Q 48.140625 6.6875 53.78125 8.984375 
Q 59.421875 11.28125 64.40625 15.921875 
L 64.40625 5.609375 
Q 59.234375 2.09375 53.4375 0.328125 
Q 47.65625 -1.421875 41.21875 -1.421875 
Q 24.65625 -1.421875 15.125 8.703125 
Q 5.609375 18.84375 5.609375 36.375 
Q 5.609375 53.953125 15.125 64.078125 
Q 24.65625 74.21875 41.21875 74.21875 
Q 47.75 74.21875 53.53125 72.484375 
Q 59.328125 70.75 64.40625 67.28125 
z
" id="DejaVuSans-67"/>
       <path d="M 9.421875 75.984375 
L 18.40625 75.984375 
L 18.40625 0 
L 9.421875 0 
z
" id="DejaVuSans-108"/>
       <path d="M 44.28125 53.078125 
L 44.28125 44.578125 
Q 40.484375 46.53125 36.375 47.5 
Q 32.28125 48.484375 27.875 48.484375 
Q 21.1875 48.484375 17.84375 46.4375 
Q 14.5 44.390625 14.5 40.28125 
Q 14.5 37.15625 16.890625 35.375 
Q 19.28125 33.59375 26.515625 31.984375 
L 29.59375 31.296875 
Q 39.15625 29.25 43.1875 25.515625 
Q 47.21875 21.78125 47.21875 15.09375 
Q 47.21875 7.46875 41.1875 3.015625 
Q 35.15625 -1.421875 24.609375 -1.421875 
Q 20.21875 -1.421875 15.453125 -0.5625 
Q 10.6875 0.296875 5.421875 2 
L 5.421875 11.28125 
Q 10.40625 8.6875 15.234375 7.390625 
Q 20.0625 6.109375 24.8125 6.109375 
Q 31.15625 6.109375 34.5625 8.28125 
Q 37.984375 10.453125 37.984375 14.40625 
Q 37.984375 18.0625 35.515625 20.015625 
Q 33.0625 21.96875 24.703125 23.78125 
L 21.578125 24.515625 
Q 13.234375 26.265625 9.515625 29.90625 
Q 5.8125 33.546875 5.8125 39.890625 
Q 5.8125 47.609375 11.28125 51.796875 
Q 16.75 56 26.8125 56 
Q 31.78125 56 36.171875 55.265625 
Q 40.578125 54.546875 44.28125 53.078125 
z
" id="DejaVuSans-115"/>
       <path d="M 18.109375 8.203125 
L 18.109375 -20.796875 
L 9.078125 -20.796875 
L 9.078125 54.6875 
L 18.109375 54.6875 
L 18.109375 46.390625 
Q 20.953125 51.265625 25.265625 53.625 
Q 29.59375 56 35.59375 56 
Q 45.5625 56 51.78125 48.09375 
Q 58.015625 40.1875 58.015625 27.296875 
Q 58.015625 14.40625 51.78125 6.484375 
Q 45.5625 -1.421875 35.59375 -1.421875 
Q 29.59375 -1.421875 25.265625 0.953125 
Q 20.953125 3.328125 18.109375 8.203125 
z
M 48.6875 27.296875 
Q 48.6875 37.203125 44.609375 42.84375 
Q 40.53125 48.484375 33.40625 48.484375 
Q 26.265625 48.484375 22.1875 42.84375 
Q 18.109375 37.203125 18.109375 27.296875 
Q 18.109375 17.390625 22.1875 11.75 
Q 26.265625 6.109375 33.40625 6.109375 
Q 40.53125 6.109375 44.609375 11.75 
Q 48.6875 17.390625 48.6875 27.296875 
z
" id="DejaVuSans-112"/>
       <path d="M 50.984375 -16.609375 
L 50.984375 -23.578125 
L -0.984375 -23.578125 
L -0.984375 -16.609375 
z
" id="DejaVuSans-95"/>
       <path d="M 4.203125 54.6875 
L 13.1875 54.6875 
L 24.421875 12.015625 
L 35.59375 54.6875 
L 46.1875 54.6875 
L 57.421875 12.015625 
L 68.609375 54.6875 
L 77.59375 54.6875 
L 63.28125 0 
L 52.6875 0 
L 40.921875 44.828125 
L 29.109375 0 
L 18.5 0 
z
" id="DejaVuSans-119"/>
      </defs>
      <g style="fill:#444443;" transform="translate(10.41875 42.562987)scale(0.1 -0.1)">
       <use xlink:href="#DejaVuSans-102"/>
       <use x="35.205078" xlink:href="#DejaVuSans-105"/>
       <use x="62.988281" xlink:href="#DejaVuSans-80"/>
       <use x="123.275391" xlink:href="#DejaVuSans-114"/>
       <use x="164.357422" xlink:href="#DejaVuSans-111"/>
       <use x="225.539062" xlink:href="#DejaVuSans-100"/>
       <use x="289.015625" xlink:href="#DejaVuSans-117"/>
       <use x="352.394531" xlink:href="#DejaVuSans-99"/>
       <use x="407.375" xlink:href="#DejaVuSans-116"/>
       <use x="446.583984" xlink:href="#DejaVuSans-67"/>
       <use x="516.408203" xlink:href="#DejaVuSans-108"/>
       <use x="544.191406" xlink:href="#DejaVuSans-97"/>
       <use x="605.470703" xlink:href="#DejaVuSans-115"/>
       <use x="657.570312" xlink:href="#DejaVuSans-115"/>
       <use x="709.669922" xlink:href="#DejaVuSans-83"/>
       <use x="773.146484" xlink:href="#DejaVuSans-112"/>
       <use x="836.623047" xlink:href="#DejaVuSans-101"/>
       <use x="898.146484" xlink:href="#DejaVuSans-99"/>
       <use x="953.126953" xlink:href="#DejaVuSans-95"/>
       <use x="1003.126953" xlink:href="#DejaVuSans-108"/>
       <use x="1030.910156" xlink:href="#DejaVuSans-111"/>
       <use x="1092.091797" xlink:href="#DejaVuSans-119"/>
       <use x="1173.878906" xlink:href="#DejaVuSans-101"/>
       <use x="1235.402344" xlink:href="#DejaVuSans-114"/>
      </g>
     </g>
    </g>
    <g id="ytick_4">
     <g id="line2d_6">
      <g>
       <use style="stroke:#000000;stroke-width:0.8;" x="145.071875" xlink:href="#m772b8c2cc7" y="52.617391"/>
      </g>
     </g>
     <g id="text_6">
      <!-- fiSecondaryDesc -->
      <defs>
       <path d="M 54.890625 33.015625 
L 54.890625 0 
L 45.90625 0 
L 45.90625 32.71875 
Q 45.90625 40.484375 42.875 44.328125 
Q 39.84375 48.1875 33.796875 48.1875 
Q 26.515625 48.1875 22.3125 43.546875 
Q 18.109375 38.921875 18.109375 30.90625 
L 18.109375 0 
L 9.078125 0 
L 9.078125 54.6875 
L 18.109375 54.6875 
L 18.109375 46.1875 
Q 21.34375 51.125 25.703125 53.5625 
Q 30.078125 56 35.796875 56 
Q 45.21875 56 50.046875 50.171875 
Q 54.890625 44.34375 54.890625 33.015625 
z
" id="DejaVuSans-110"/>
       <path d="M 32.171875 -5.078125 
Q 28.375 -14.84375 24.75 -17.8125 
Q 21.140625 -20.796875 15.09375 -20.796875 
L 7.90625 -20.796875 
L 7.90625 -13.28125 
L 13.1875 -13.28125 
Q 16.890625 -13.28125 18.9375 -11.515625 
Q 21 -9.765625 23.484375 -3.21875 
L 25.09375 0.875 
L 2.984375 54.6875 
L 12.5 54.6875 
L 29.59375 11.921875 
L 46.6875 54.6875 
L 56.203125 54.6875 
z
" id="DejaVuSans-121"/>
       <path d="M 19.671875 64.796875 
L 19.671875 8.109375 
L 31.59375 8.109375 
Q 46.6875 8.109375 53.6875 14.9375 
Q 60.6875 21.78125 60.6875 36.53125 
Q 60.6875 51.171875 53.6875 57.984375 
Q 46.6875 64.796875 31.59375 64.796875 
z
M 9.8125 72.90625 
L 30.078125 72.90625 
Q 51.265625 72.90625 61.171875 64.09375 
Q 71.09375 55.28125 71.09375 36.53125 
Q 71.09375 17.671875 61.125 8.828125 
Q 51.171875 0 30.078125 0 
L 9.8125 0 
z
" id="DejaVuSans-68"/>
      </defs>
      <g style="fill:#444443;" transform="translate(54.25 56.41661)scale(0.1 -0.1)">
       <use xlink:href="#DejaVuSans-102"/>
       <use x="35.205078" xlink:href="#DejaVuSans-105"/>
       <use x="62.988281" xlink:href="#DejaVuSans-83"/>
       <use x="126.464844" xlink:href="#DejaVuSans-101"/>
       <use x="187.988281" xlink:href="#DejaVuSans-99"/>
       <use x="242.96875" xlink:href="#DejaVuSans-111"/>
       <use x="304.150391" xlink:href="#DejaVuSans-110"/>
       <use x="367.529297" xlink:href="#DejaVuSans-100"/>
       <use x="431.005859" xlink:href="#DejaVuSans-97"/>
       <use x="492.285156" xlink:href="#DejaVuSans-114"/>
       <use x="533.398438" xlink:href="#DejaVuSans-121"/>
       <use x="592.578125" xlink:href="#DejaVuSans-68"/>
       <use x="669.580078" xlink:href="#DejaVuSans-101"/>
       <use x="731.103516" xlink:href="#DejaVuSans-115"/>
       <use x="783.203125" xlink:href="#DejaVuSans-99"/>
      </g>
     </g>
    </g>
    <g id="ytick_5">
     <g id="line2d_7">
      <g>
       <use style="stroke:#000000;stroke-width:0.8;" x="145.071875" xlink:href="#m772b8c2cc7" y="66.471014"/>
      </g>
     </g>
     <g id="text_7">
      <!-- Hydraulics_Flow__nan -->
      <defs>
       <path d="M 9.8125 72.90625 
L 19.671875 72.90625 
L 19.671875 43.015625 
L 55.515625 43.015625 
L 55.515625 72.90625 
L 65.375 72.90625 
L 65.375 0 
L 55.515625 0 
L 55.515625 34.71875 
L 19.671875 34.71875 
L 19.671875 0 
L 9.8125 0 
z
" id="DejaVuSans-72"/>
       <path d="M 9.8125 72.90625 
L 51.703125 72.90625 
L 51.703125 64.59375 
L 19.671875 64.59375 
L 19.671875 43.109375 
L 48.578125 43.109375 
L 48.578125 34.8125 
L 19.671875 34.8125 
L 19.671875 0 
L 9.8125 0 
z
" id="DejaVuSans-70"/>
      </defs>
      <g style="fill:#444443;" transform="translate(28.814063 70.270233)scale(0.1 -0.1)">
       <use xlink:href="#DejaVuSans-72"/>
       <use x="75.195312" xlink:href="#DejaVuSans-121"/>
       <use x="134.375" xlink:href="#DejaVuSans-100"/>
       <use x="197.851562" xlink:href="#DejaVuSans-114"/>
       <use x="238.964844" xlink:href="#DejaVuSans-97"/>
       <use x="300.244141" xlink:href="#DejaVuSans-117"/>
       <use x="363.623047" xlink:href="#DejaVuSans-108"/>
       <use x="391.40625" xlink:href="#DejaVuSans-105"/>
       <use x="419.189453" xlink:href="#DejaVuSans-99"/>
       <use x="474.169922" xlink:href="#DejaVuSans-115"/>
       <use x="526.269531" xlink:href="#DejaVuSans-95"/>
       <use x="576.269531" xlink:href="#DejaVuSans-70"/>
       <use x="633.789062" xlink:href="#DejaVuSans-108"/>
       <use x="661.572266" xlink:href="#DejaVuSans-111"/>
       <use x="722.753906" xlink:href="#DejaVuSans-119"/>
       <use x="804.541016" xlink:href="#DejaVuSans-95"/>
       <use x="854.541016" xlink:href="#DejaVuSans-95"/>
       <use x="904.541016" xlink:href="#DejaVuSans-110"/>
       <use x="967.919922" xlink:href="#DejaVuSans-97"/>
       <use x="1029.199219" xlink:href="#DejaVuSans-110"/>
      </g>
     </g>
    </g>
    <g id="ytick_6">
     <g id="line2d_8">
      <g>
       <use style="stroke:#000000;stroke-width:0.8;" x="145.071875" xlink:href="#m772b8c2cc7" y="80.324638"/>
      </g>
     </g>
     <g id="text_8">
      <!-- fiModelDesc -->
      <g style="fill:#444443;" transform="translate(77.185937 84.123856)scale(0.1 -0.1)">
       <use xlink:href="#DejaVuSans-102"/>
       <use x="35.205078" xlink:href="#DejaVuSans-105"/>
       <use x="62.988281" xlink:href="#DejaVuSans-77"/>
       <use x="149.267578" xlink:href="#DejaVuSans-111"/>
       <use x="210.449219" xlink:href="#DejaVuSans-100"/>
       <use x="273.925781" xlink:href="#DejaVuSans-101"/>
       <use x="335.449219" xlink:href="#DejaVuSans-108"/>
       <use x="363.232422" xlink:href="#DejaVuSans-68"/>
       <use x="440.234375" xlink:href="#DejaVuSans-101"/>
       <use x="501.757812" xlink:href="#DejaVuSans-115"/>
       <use x="553.857422" xlink:href="#DejaVuSans-99"/>
      </g>
     </g>
    </g>
    <g id="ytick_7">
     <g id="line2d_9">
      <g>
       <use style="stroke:#000000;stroke-width:0.8;" x="145.071875" xlink:href="#m772b8c2cc7" y="94.178261"/>
      </g>
     </g>
     <g id="text_9">
      <!-- Enclosure__EROPS AC -->
      <defs>
       <path d="M 9.8125 72.90625 
L 55.90625 72.90625 
L 55.90625 64.59375 
L 19.671875 64.59375 
L 19.671875 43.015625 
L 54.390625 43.015625 
L 54.390625 34.71875 
L 19.671875 34.71875 
L 19.671875 8.296875 
L 56.78125 8.296875 
L 56.78125 0 
L 9.8125 0 
z
" id="DejaVuSans-69"/>
       <path d="M 44.390625 34.1875 
Q 47.5625 33.109375 50.5625 29.59375 
Q 53.5625 26.078125 56.59375 19.921875 
L 66.609375 0 
L 56 0 
L 46.6875 18.703125 
Q 43.0625 26.03125 39.671875 28.421875 
Q 36.28125 30.8125 30.421875 30.8125 
L 19.671875 30.8125 
L 19.671875 0 
L 9.8125 0 
L 9.8125 72.90625 
L 32.078125 72.90625 
Q 44.578125 72.90625 50.734375 67.671875 
Q 56.890625 62.453125 56.890625 51.90625 
Q 56.890625 45.015625 53.6875 40.46875 
Q 50.484375 35.9375 44.390625 34.1875 
z
M 19.671875 64.796875 
L 19.671875 38.921875 
L 32.078125 38.921875 
Q 39.203125 38.921875 42.84375 42.21875 
Q 46.484375 45.515625 46.484375 51.90625 
Q 46.484375 58.296875 42.84375 61.546875 
Q 39.203125 64.796875 32.078125 64.796875 
z
" id="DejaVuSans-82"/>
       <path d="M 39.40625 66.21875 
Q 28.65625 66.21875 22.328125 58.203125 
Q 16.015625 50.203125 16.015625 36.375 
Q 16.015625 22.609375 22.328125 14.59375 
Q 28.65625 6.59375 39.40625 6.59375 
Q 50.140625 6.59375 56.421875 14.59375 
Q 62.703125 22.609375 62.703125 36.375 
Q 62.703125 50.203125 56.421875 58.203125 
Q 50.140625 66.21875 39.40625 66.21875 
z
M 39.40625 74.21875 
Q 54.734375 74.21875 63.90625 63.9375 
Q 73.09375 53.65625 73.09375 36.375 
Q 73.09375 19.140625 63.90625 8.859375 
Q 54.734375 -1.421875 39.40625 -1.421875 
Q 24.03125 -1.421875 14.8125 8.828125 
Q 5.609375 19.09375 5.609375 36.375 
Q 5.609375 53.65625 14.8125 63.9375 
Q 24.03125 74.21875 39.40625 74.21875 
z
" id="DejaVuSans-79"/>
       <path id="DejaVuSans-32"/>
       <path d="M 34.1875 63.1875 
L 20.796875 26.90625 
L 47.609375 26.90625 
z
M 28.609375 72.90625 
L 39.796875 72.90625 
L 67.578125 0 
L 57.328125 0 
L 50.6875 18.703125 
L 17.828125 18.703125 
L 11.1875 0 
L 0.78125 0 
z
" id="DejaVuSans-65"/>
      </defs>
      <g style="fill:#444443;" transform="translate(28.695312 97.97748)scale(0.1 -0.1)">
       <use xlink:href="#DejaVuSans-69"/>
       <use x="63.183594" xlink:href="#DejaVuSans-110"/>
       <use x="126.5625" xlink:href="#DejaVuSans-99"/>
       <use x="181.542969" xlink:href="#DejaVuSans-108"/>
       <use x="209.326172" xlink:href="#DejaVuSans-111"/>
       <use x="270.507812" xlink:href="#DejaVuSans-115"/>
       <use x="322.607422" xlink:href="#DejaVuSans-117"/>
       <use x="385.986328" xlink:href="#DejaVuSans-114"/>
       <use x="427.068359" xlink:href="#DejaVuSans-101"/>
       <use x="488.591797" xlink:href="#DejaVuSans-95"/>
       <use x="538.591797" xlink:href="#DejaVuSans-95"/>
       <use x="588.591797" xlink:href="#DejaVuSans-69"/>
       <use x="651.775391" xlink:href="#DejaVuSans-82"/>
       <use x="721.257812" xlink:href="#DejaVuSans-79"/>
       <use x="799.96875" xlink:href="#DejaVuSans-80"/>
       <use x="860.271484" xlink:href="#DejaVuSans-83"/>
       <use x="923.748047" xlink:href="#DejaVuSans-32"/>
       <use x="955.535156" xlink:href="#DejaVuSans-65"/>
       <use x="1023.927734" xlink:href="#DejaVuSans-67"/>
      </g>
     </g>
    </g>
    <g id="ytick_8">
     <g id="line2d_10">
      <g>
       <use style="stroke:#000000;stroke-width:0.8;" x="145.071875" xlink:href="#m772b8c2cc7" y="108.031884"/>
      </g>
     </g>
     <g id="text_10">
      <!-- ModelID -->
      <defs>
       <path d="M 9.8125 72.90625 
L 19.671875 72.90625 
L 19.671875 0 
L 9.8125 0 
z
" id="DejaVuSans-73"/>
      </defs>
      <g style="fill:#444443;" transform="translate(97.395313 111.831103)scale(0.1 -0.1)">
       <use xlink:href="#DejaVuSans-77"/>
       <use x="86.279297" xlink:href="#DejaVuSans-111"/>
       <use x="147.460938" xlink:href="#DejaVuSans-100"/>
       <use x="210.9375" xlink:href="#DejaVuSans-101"/>
       <use x="272.460938" xlink:href="#DejaVuSans-108"/>
       <use x="300.244141" xlink:href="#DejaVuSans-73"/>
       <use x="329.736328" xlink:href="#DejaVuSans-68"/>
      </g>
     </g>
    </g>
    <g id="ytick_9">
     <g id="line2d_11">
      <g>
       <use style="stroke:#000000;stroke-width:0.8;" x="145.071875" xlink:href="#m772b8c2cc7" y="121.885507"/>
      </g>
     </g>
     <g id="text_11">
      <!-- Engine_Horsepower -->
      <defs>
       <path d="M 45.40625 27.984375 
Q 45.40625 37.75 41.375 43.109375 
Q 37.359375 48.484375 30.078125 48.484375 
Q 22.859375 48.484375 18.828125 43.109375 
Q 14.796875 37.75 14.796875 27.984375 
Q 14.796875 18.265625 18.828125 12.890625 
Q 22.859375 7.515625 30.078125 7.515625 
Q 37.359375 7.515625 41.375 12.890625 
Q 45.40625 18.265625 45.40625 27.984375 
z
M 54.390625 6.78125 
Q 54.390625 -7.171875 48.1875 -13.984375 
Q 42 -20.796875 29.203125 -20.796875 
Q 24.46875 -20.796875 20.265625 -20.09375 
Q 16.0625 -19.390625 12.109375 -17.921875 
L 12.109375 -9.1875 
Q 16.0625 -11.328125 19.921875 -12.34375 
Q 23.78125 -13.375 27.78125 -13.375 
Q 36.625 -13.375 41.015625 -8.765625 
Q 45.40625 -4.15625 45.40625 5.171875 
L 45.40625 9.625 
Q 42.625 4.78125 38.28125 2.390625 
Q 33.9375 0 27.875 0 
Q 17.828125 0 11.671875 7.65625 
Q 5.515625 15.328125 5.515625 27.984375 
Q 5.515625 40.671875 11.671875 48.328125 
Q 17.828125 56 27.875 56 
Q 33.9375 56 38.28125 53.609375 
Q 42.625 51.21875 45.40625 46.390625 
L 45.40625 54.6875 
L 54.390625 54.6875 
z
" id="DejaVuSans-103"/>
      </defs>
      <g style="fill:#444443;" transform="translate(38.776562 125.684726)scale(0.1 -0.1)">
       <use xlink:href="#DejaVuSans-69"/>
       <use x="63.183594" xlink:href="#DejaVuSans-110"/>
       <use x="126.5625" xlink:href="#DejaVuSans-103"/>
       <use x="190.039062" xlink:href="#DejaVuSans-105"/>
       <use x="217.822266" xlink:href="#DejaVuSans-110"/>
       <use x="281.201172" xlink:href="#DejaVuSans-101"/>
       <use x="342.724609" xlink:href="#DejaVuSans-95"/>
       <use x="392.724609" xlink:href="#DejaVuSans-72"/>
       <use x="467.919922" xlink:href="#DejaVuSans-111"/>
       <use x="529.101562" xlink:href="#DejaVuSans-114"/>
       <use x="570.214844" xlink:href="#DejaVuSans-115"/>
       <use x="622.314453" xlink:href="#DejaVuSans-101"/>
       <use x="683.837891" xlink:href="#DejaVuSans-112"/>
       <use x="747.314453" xlink:href="#DejaVuSans-111"/>
       <use x="808.496094" xlink:href="#DejaVuSans-119"/>
       <use x="890.283203" xlink:href="#DejaVuSans-101"/>
       <use x="951.806641" xlink:href="#DejaVuSans-114"/>
      </g>
     </g>
    </g>
    <g id="ytick_10">
     <g id="line2d_12">
      <g>
       <use style="stroke:#000000;stroke-width:0.8;" x="145.071875" xlink:href="#m772b8c2cc7" y="135.73913"/>
      </g>
     </g>
     <g id="text_12">
      <!-- fiProductClassSpec_upper -->
      <g style="fill:#444443;" transform="translate(8.459375 139.538349)scale(0.1 -0.1)">
       <use xlink:href="#DejaVuSans-102"/>
       <use x="35.205078" xlink:href="#DejaVuSans-105"/>
       <use x="62.988281" xlink:href="#DejaVuSans-80"/>
       <use x="123.275391" xlink:href="#DejaVuSans-114"/>
       <use x="164.357422" xlink:href="#DejaVuSans-111"/>
       <use x="225.539062" xlink:href="#DejaVuSans-100"/>
       <use x="289.015625" xlink:href="#DejaVuSans-117"/>
       <use x="352.394531" xlink:href="#DejaVuSans-99"/>
       <use x="407.375" xlink:href="#DejaVuSans-116"/>
       <use x="446.583984" xlink:href="#DejaVuSans-67"/>
       <use x="516.408203" xlink:href="#DejaVuSans-108"/>
       <use x="544.191406" xlink:href="#DejaVuSans-97"/>
       <use x="605.470703" xlink:href="#DejaVuSans-115"/>
       <use x="657.570312" xlink:href="#DejaVuSans-115"/>
       <use x="709.669922" xlink:href="#DejaVuSans-83"/>
       <use x="773.146484" xlink:href="#DejaVuSans-112"/>
       <use x="836.623047" xlink:href="#DejaVuSans-101"/>
       <use x="898.146484" xlink:href="#DejaVuSans-99"/>
       <use x="953.126953" xlink:href="#DejaVuSans-95"/>
       <use x="1003.126953" xlink:href="#DejaVuSans-117"/>
       <use x="1066.505859" xlink:href="#DejaVuSans-112"/>
       <use x="1129.982422" xlink:href="#DejaVuSans-112"/>
       <use x="1193.458984" xlink:href="#DejaVuSans-101"/>
       <use x="1254.982422" xlink:href="#DejaVuSans-114"/>
      </g>
     </g>
    </g>
    <g id="ytick_11">
     <g id="line2d_13">
      <g>
       <use style="stroke:#000000;stroke-width:0.8;" x="145.071875" xlink:href="#m772b8c2cc7" y="149.592754"/>
      </g>
     </g>
     <g id="text_13">
      <!-- saledate -->
      <g style="fill:#444443;" transform="translate(95.253125 153.391972)scale(0.1 -0.1)">
       <use xlink:href="#DejaVuSans-115"/>
       <use x="52.099609" xlink:href="#DejaVuSans-97"/>
       <use x="113.378906" xlink:href="#DejaVuSans-108"/>
       <use x="141.162109" xlink:href="#DejaVuSans-101"/>
       <use x="202.685547" xlink:href="#DejaVuSans-100"/>
       <use x="266.162109" xlink:href="#DejaVuSans-97"/>
       <use x="327.441406" xlink:href="#DejaVuSans-116"/>
       <use x="366.650391" xlink:href="#DejaVuSans-101"/>
      </g>
     </g>
    </g>
    <g id="ytick_12">
     <g id="line2d_14">
      <g>
       <use style="stroke:#000000;stroke-width:0.8;" x="145.071875" xlink:href="#m772b8c2cc7" y="163.446377"/>
      </g>
     </g>
     <g id="text_14">
      <!-- fiBaseModel -->
      <defs>
       <path d="M 19.671875 34.8125 
L 19.671875 8.109375 
L 35.5 8.109375 
Q 43.453125 8.109375 47.28125 11.40625 
Q 51.125 14.703125 51.125 21.484375 
Q 51.125 28.328125 47.28125 31.5625 
Q 43.453125 34.8125 35.5 34.8125 
z
M 19.671875 64.796875 
L 19.671875 42.828125 
L 34.28125 42.828125 
Q 41.5 42.828125 45.03125 45.53125 
Q 48.578125 48.25 48.578125 53.8125 
Q 48.578125 59.328125 45.03125 62.0625 
Q 41.5 64.796875 34.28125 64.796875 
z
M 9.8125 72.90625 
L 35.015625 72.90625 
Q 46.296875 72.90625 52.390625 68.21875 
Q 58.5 63.53125 58.5 54.890625 
Q 58.5 48.1875 55.375 44.234375 
Q 52.25 40.28125 46.1875 39.3125 
Q 53.46875 37.75 57.5 32.78125 
Q 61.53125 27.828125 61.53125 20.40625 
Q 61.53125 10.640625 54.890625 5.3125 
Q 48.25 0 35.984375 0 
L 9.8125 0 
z
" id="DejaVuSans-66"/>
      </defs>
      <g style="fill:#444443;" transform="translate(77.395313 167.245596)scale(0.1 -0.1)">
       <use xlink:href="#DejaVuSans-102"/>
       <use x="35.205078" xlink:href="#DejaVuSans-105"/>
       <use x="62.988281" xlink:href="#DejaVuSans-66"/>
       <use x="131.591797" xlink:href="#DejaVuSans-97"/>
       <use x="192.871094" xlink:href="#DejaVuSans-115"/>
       <use x="244.970703" xlink:href="#DejaVuSans-101"/>
       <use x="306.494141" xlink:href="#DejaVuSans-77"/>
       <use x="392.773438" xlink:href="#DejaVuSans-111"/>
       <use x="453.955078" xlink:href="#DejaVuSans-100"/>
       <use x="517.431641" xlink:href="#DejaVuSans-101"/>
       <use x="578.955078" xlink:href="#DejaVuSans-108"/>
      </g>
     </g>
    </g>
    <g id="ytick_13">
     <g id="line2d_15">
      <g>
       <use style="stroke:#000000;stroke-width:0.8;" x="145.071875" xlink:href="#m772b8c2cc7" y="177.3"/>
      </g>
     </g>
     <g id="text_15">
      <!-- fiModelSeries -->
      <g style="fill:#444443;" transform="translate(70.99375 181.099219)scale(0.1 -0.1)">
       <use xlink:href="#DejaVuSans-102"/>
       <use x="35.205078" xlink:href="#DejaVuSans-105"/>
       <use x="62.988281" xlink:href="#DejaVuSans-77"/>
       <use x="149.267578" xlink:href="#DejaVuSans-111"/>
       <use x="210.449219" xlink:href="#DejaVuSans-100"/>
       <use x="273.925781" xlink:href="#DejaVuSans-101"/>
       <use x="335.449219" xlink:href="#DejaVuSans-108"/>
       <use x="363.232422" xlink:href="#DejaVuSans-83"/>
       <use x="426.708984" xlink:href="#DejaVuSans-101"/>
       <use x="488.232422" xlink:href="#DejaVuSans-114"/>
       <use x="529.345703" xlink:href="#DejaVuSans-105"/>
       <use x="557.128906" xlink:href="#DejaVuSans-101"/>
       <use x="618.652344" xlink:href="#DejaVuSans-115"/>
      </g>
     </g>
    </g>
    <g id="ytick_14">
     <g id="line2d_16">
      <g>
       <use style="stroke:#000000;stroke-width:0.8;" x="145.071875" xlink:href="#m772b8c2cc7" y="191.153623"/>
      </g>
     </g>
     <g id="text_16">
      <!-- YearMade_na -->
      <g style="fill:#444443;" transform="translate(70.86875 194.952842)scale(0.1 -0.1)">
       <use xlink:href="#DejaVuSans-89"/>
       <use x="60.880859" xlink:href="#DejaVuSans-101"/>
       <use x="122.404297" xlink:href="#DejaVuSans-97"/>
       <use x="183.683594" xlink:href="#DejaVuSans-114"/>
       <use x="224.796875" xlink:href="#DejaVuSans-77"/>
       <use x="311.076172" xlink:href="#DejaVuSans-97"/>
       <use x="372.355469" xlink:href="#DejaVuSans-100"/>
       <use x="435.832031" xlink:href="#DejaVuSans-101"/>
       <use x="497.355469" xlink:href="#DejaVuSans-95"/>
       <use x="547.355469" xlink:href="#DejaVuSans-110"/>
       <use x="610.734375" xlink:href="#DejaVuSans-97"/>
      </g>
     </g>
    </g>
    <g id="ytick_15">
     <g id="line2d_17">
      <g>
       <use style="stroke:#000000;stroke-width:0.8;" x="145.071875" xlink:href="#m772b8c2cc7" y="205.007246"/>
      </g>
     </g>
     <g id="text_17">
      <!-- Hydraulics -->
      <g style="fill:#444443;" transform="translate(85.44375 208.806465)scale(0.1 -0.1)">
       <use xlink:href="#DejaVuSans-72"/>
       <use x="75.195312" xlink:href="#DejaVuSans-121"/>
       <use x="134.375" xlink:href="#DejaVuSans-100"/>
       <use x="197.851562" xlink:href="#DejaVuSans-114"/>
       <use x="238.964844" xlink:href="#DejaVuSans-97"/>
       <use x="300.244141" xlink:href="#DejaVuSans-117"/>
       <use x="363.623047" xlink:href="#DejaVuSans-108"/>
       <use x="391.40625" xlink:href="#DejaVuSans-105"/>
       <use x="419.189453" xlink:href="#DejaVuSans-99"/>
       <use x="474.169922" xlink:href="#DejaVuSans-115"/>
      </g>
     </g>
    </g>
    <g id="ytick_16">
     <g id="line2d_18">
      <g>
       <use style="stroke:#000000;stroke-width:0.8;" x="145.071875" xlink:href="#m772b8c2cc7" y="218.86087"/>
      </g>
     </g>
     <g id="text_18">
      <!-- saledayofyear -->
      <g style="fill:#444443;" transform="translate(67.459375 222.660088)scale(0.1 -0.1)">
       <use xlink:href="#DejaVuSans-115"/>
       <use x="52.099609" xlink:href="#DejaVuSans-97"/>
       <use x="113.378906" xlink:href="#DejaVuSans-108"/>
       <use x="141.162109" xlink:href="#DejaVuSans-101"/>
       <use x="202.685547" xlink:href="#DejaVuSans-100"/>
       <use x="266.162109" xlink:href="#DejaVuSans-97"/>
       <use x="327.441406" xlink:href="#DejaVuSans-121"/>
       <use x="386.621094" xlink:href="#DejaVuSans-111"/>
       <use x="447.802734" xlink:href="#DejaVuSans-102"/>
       <use x="482.992188" xlink:href="#DejaVuSans-121"/>
       <use x="542.171875" xlink:href="#DejaVuSans-101"/>
       <use x="603.695312" xlink:href="#DejaVuSans-97"/>
       <use x="664.974609" xlink:href="#DejaVuSans-114"/>
      </g>
     </g>
    </g>
    <g id="ytick_17">
     <g id="line2d_19">
      <g>
       <use style="stroke:#000000;stroke-width:0.8;" x="145.071875" xlink:href="#m772b8c2cc7" y="232.714493"/>
      </g>
     </g>
     <g id="text_19">
      <!-- Transmission -->
      <defs>
       <path d="M -0.296875 72.90625 
L 61.375 72.90625 
L 61.375 64.59375 
L 35.5 64.59375 
L 35.5 0 
L 25.59375 0 
L 25.59375 64.59375 
L -0.296875 64.59375 
z
" id="DejaVuSans-84"/>
       <path d="M 52 44.1875 
Q 55.375 50.25 60.0625 53.125 
Q 64.75 56 71.09375 56 
Q 79.640625 56 84.28125 50.015625 
Q 88.921875 44.046875 88.921875 33.015625 
L 88.921875 0 
L 79.890625 0 
L 79.890625 32.71875 
Q 79.890625 40.578125 77.09375 44.375 
Q 74.3125 48.1875 68.609375 48.1875 
Q 61.625 48.1875 57.5625 43.546875 
Q 53.515625 38.921875 53.515625 30.90625 
L 53.515625 0 
L 44.484375 0 
L 44.484375 32.71875 
Q 44.484375 40.625 41.703125 44.40625 
Q 38.921875 48.1875 33.109375 48.1875 
Q 26.21875 48.1875 22.15625 43.53125 
Q 18.109375 38.875 18.109375 30.90625 
L 18.109375 0 
L 9.078125 0 
L 9.078125 54.6875 
L 18.109375 54.6875 
L 18.109375 46.1875 
Q 21.1875 51.21875 25.484375 53.609375 
Q 29.78125 56 35.6875 56 
Q 41.65625 56 45.828125 52.96875 
Q 50 49.953125 52 44.1875 
z
" id="DejaVuSans-109"/>
      </defs>
      <g style="fill:#444443;" transform="translate(72.028125 236.513712)scale(0.1 -0.1)">
       <use xlink:href="#DejaVuSans-84"/>
       <use x="60.865234" xlink:href="#DejaVuSans-114"/>
       <use x="101.978516" xlink:href="#DejaVuSans-97"/>
       <use x="163.257812" xlink:href="#DejaVuSans-110"/>
       <use x="226.636719" xlink:href="#DejaVuSans-115"/>
       <use x="278.736328" xlink:href="#DejaVuSans-109"/>
       <use x="376.148438" xlink:href="#DejaVuSans-105"/>
       <use x="403.931641" xlink:href="#DejaVuSans-115"/>
       <use x="456.03125" xlink:href="#DejaVuSans-115"/>
       <use x="508.130859" xlink:href="#DejaVuSans-105"/>
       <use x="535.914062" xlink:href="#DejaVuSans-111"/>
       <use x="597.095703" xlink:href="#DejaVuSans-110"/>
      </g>
     </g>
    </g>
    <g id="ytick_18">
     <g id="line2d_20">
      <g>
       <use style="stroke:#000000;stroke-width:0.8;" x="145.071875" xlink:href="#m772b8c2cc7" y="246.568116"/>
      </g>
     </g>
     <g id="text_20">
      <!-- MachineHoursCurrentMeter -->
      <defs>
       <path d="M 54.890625 33.015625 
L 54.890625 0 
L 45.90625 0 
L 45.90625 32.71875 
Q 45.90625 40.484375 42.875 44.328125 
Q 39.84375 48.1875 33.796875 48.1875 
Q 26.515625 48.1875 22.3125 43.546875 
Q 18.109375 38.921875 18.109375 30.90625 
L 18.109375 0 
L 9.078125 0 
L 9.078125 75.984375 
L 18.109375 75.984375 
L 18.109375 46.1875 
Q 21.34375 51.125 25.703125 53.5625 
Q 30.078125 56 35.796875 56 
Q 45.21875 56 50.046875 50.171875 
Q 54.890625 44.34375 54.890625 33.015625 
z
" id="DejaVuSans-104"/>
      </defs>
      <g style="fill:#444443;" transform="translate(0 250.367335)scale(0.1 -0.1)">
       <use xlink:href="#DejaVuSans-77"/>
       <use x="86.279297" xlink:href="#DejaVuSans-97"/>
       <use x="147.558594" xlink:href="#DejaVuSans-99"/>
       <use x="202.539062" xlink:href="#DejaVuSans-104"/>
       <use x="265.917969" xlink:href="#DejaVuSans-105"/>
       <use x="293.701172" xlink:href="#DejaVuSans-110"/>
       <use x="357.080078" xlink:href="#DejaVuSans-101"/>
       <use x="418.603516" xlink:href="#DejaVuSans-72"/>
       <use x="493.798828" xlink:href="#DejaVuSans-111"/>
       <use x="554.980469" xlink:href="#DejaVuSans-117"/>
       <use x="618.359375" xlink:href="#DejaVuSans-114"/>
       <use x="659.472656" xlink:href="#DejaVuSans-115"/>
       <use x="711.572266" xlink:href="#DejaVuSans-67"/>
       <use x="781.396484" xlink:href="#DejaVuSans-117"/>
       <use x="844.775391" xlink:href="#DejaVuSans-114"/>
       <use x="885.873047" xlink:href="#DejaVuSans-114"/>
       <use x="926.955078" xlink:href="#DejaVuSans-101"/>
       <use x="988.478516" xlink:href="#DejaVuSans-110"/>
       <use x="1051.857422" xlink:href="#DejaVuSans-116"/>
       <use x="1091.066406" xlink:href="#DejaVuSans-77"/>
       <use x="1177.345703" xlink:href="#DejaVuSans-101"/>
       <use x="1238.869141" xlink:href="#DejaVuSans-116"/>
       <use x="1278.078125" xlink:href="#DejaVuSans-101"/>
       <use x="1339.601562" xlink:href="#DejaVuSans-114"/>
      </g>
     </g>
    </g>
    <g id="ytick_19">
     <g id="line2d_21">
      <g>
       <use style="stroke:#000000;stroke-width:0.8;" x="145.071875" xlink:href="#m772b8c2cc7" y="260.421739"/>
      </g>
     </g>
     <g id="text_21">
      <!-- fiModelDescriptor -->
      <g style="fill:#444443;" transform="translate(49.798438 264.220958)scale(0.1 -0.1)">
       <use xlink:href="#DejaVuSans-102"/>
       <use x="35.205078" xlink:href="#DejaVuSans-105"/>
       <use x="62.988281" xlink:href="#DejaVuSans-77"/>
       <use x="149.267578" xlink:href="#DejaVuSans-111"/>
       <use x="210.449219" xlink:href="#DejaVuSans-100"/>
       <use x="273.925781" xlink:href="#DejaVuSans-101"/>
       <use x="335.449219" xlink:href="#DejaVuSans-108"/>
       <use x="363.232422" xlink:href="#DejaVuSans-68"/>
       <use x="440.234375" xlink:href="#DejaVuSans-101"/>
       <use x="501.757812" xlink:href="#DejaVuSans-115"/>
       <use x="553.857422" xlink:href="#DejaVuSans-99"/>
       <use x="608.837891" xlink:href="#DejaVuSans-114"/>
       <use x="649.951172" xlink:href="#DejaVuSans-105"/>
       <use x="677.734375" xlink:href="#DejaVuSans-112"/>
       <use x="741.210938" xlink:href="#DejaVuSans-116"/>
       <use x="780.419922" xlink:href="#DejaVuSans-111"/>
       <use x="841.601562" xlink:href="#DejaVuSans-114"/>
      </g>
     </g>
    </g>
    <g id="ytick_20">
     <g id="line2d_22">
      <g>
       <use style="stroke:#000000;stroke-width:0.8;" x="145.071875" xlink:href="#m772b8c2cc7" y="274.275362"/>
      </g>
     </g>
     <g id="text_22">
      <!-- state -->
      <g style="fill:#444443;" transform="translate(112.740625 278.074581)scale(0.1 -0.1)">
       <use xlink:href="#DejaVuSans-115"/>
       <use x="52.099609" xlink:href="#DejaVuSans-116"/>
       <use x="91.308594" xlink:href="#DejaVuSans-97"/>
       <use x="152.587891" xlink:href="#DejaVuSans-116"/>
       <use x="191.796875" xlink:href="#DejaVuSans-101"/>
      </g>
     </g>
    </g>
    <g id="ytick_21">
     <g id="line2d_23">
      <g>
       <use style="stroke:#000000;stroke-width:0.8;" x="145.071875" xlink:href="#m772b8c2cc7" y="288.128986"/>
      </g>
     </g>
     <g id="text_23">
      <!-- saleday -->
      <g style="fill:#444443;" transform="translate(99.407813 291.928204)scale(0.1 -0.1)">
       <use xlink:href="#DejaVuSans-115"/>
       <use x="52.099609" xlink:href="#DejaVuSans-97"/>
       <use x="113.378906" xlink:href="#DejaVuSans-108"/>
       <use x="141.162109" xlink:href="#DejaVuSans-101"/>
       <use x="202.685547" xlink:href="#DejaVuSans-100"/>
       <use x="266.162109" xlink:href="#DejaVuSans-97"/>
       <use x="327.441406" xlink:href="#DejaVuSans-121"/>
      </g>
     </g>
    </g>
    <g id="ytick_22">
     <g id="line2d_24">
      <g>
       <use style="stroke:#000000;stroke-width:0.8;" x="145.071875" xlink:href="#m772b8c2cc7" y="301.982609"/>
      </g>
     </g>
     <g id="text_24">
      <!-- age -->
      <g style="fill:#444443;" transform="translate(119.442188 305.781827)scale(0.1 -0.1)">
       <use xlink:href="#DejaVuSans-97"/>
       <use x="61.279297" xlink:href="#DejaVuSans-103"/>
       <use x="124.755859" xlink:href="#DejaVuSans-101"/>
      </g>
     </g>
    </g>
    <g id="ytick_23">
     <g id="line2d_25">
      <g>
       <use style="stroke:#000000;stroke-width:0.8;" x="145.071875" xlink:href="#m772b8c2cc7" y="315.836232"/>
      </g>
     </g>
     <g id="text_25">
      <!-- Ripper -->
      <g style="fill:#444443;" transform="translate(105.384375 319.635451)scale(0.1 -0.1)">
       <use xlink:href="#DejaVuSans-82"/>
       <use x="69.482422" xlink:href="#DejaVuSans-105"/>
       <use x="97.265625" xlink:href="#DejaVuSans-112"/>
       <use x="160.742188" xlink:href="#DejaVuSans-112"/>
       <use x="224.21875" xlink:href="#DejaVuSans-101"/>
       <use x="285.742188" xlink:href="#DejaVuSans-114"/>
      </g>
     </g>
    </g>
    <g id="ytick_24">
     <g id="line2d_26">
      <g>
       <use style="stroke:#000000;stroke-width:0.8;" x="145.071875" xlink:href="#m772b8c2cc7" y="329.689855"/>
      </g>
     </g>
     <g id="text_26">
      <!-- auctioneerID -->
      <g style="fill:#444443;" transform="translate(73.885937 333.489074)scale(0.1 -0.1)">
       <use xlink:href="#DejaVuSans-97"/>
       <use x="61.279297" xlink:href="#DejaVuSans-117"/>
       <use x="124.658203" xlink:href="#DejaVuSans-99"/>
       <use x="179.638672" xlink:href="#DejaVuSans-116"/>
       <use x="218.847656" xlink:href="#DejaVuSans-105"/>
       <use x="246.630859" xlink:href="#DejaVuSans-111"/>
       <use x="307.8125" xlink:href="#DejaVuSans-110"/>
       <use x="371.191406" xlink:href="#DejaVuSans-101"/>
       <use x="432.714844" xlink:href="#DejaVuSans-101"/>
       <use x="494.238281" xlink:href="#DejaVuSans-114"/>
       <use x="535.351562" xlink:href="#DejaVuSans-73"/>
       <use x="564.84375" xlink:href="#DejaVuSans-68"/>
      </g>
     </g>
    </g>
    <g id="ytick_25">
     <g id="line2d_27">
      <g>
       <use style="stroke:#000000;stroke-width:0.8;" x="145.071875" xlink:href="#m772b8c2cc7" y="343.543478"/>
      </g>
     </g>
     <g id="text_27">
      <!-- Blade_Type -->
      <g style="fill:#444443;" transform="translate(80.298438 347.342697)scale(0.1 -0.1)">
       <use xlink:href="#DejaVuSans-66"/>
       <use x="68.603516" xlink:href="#DejaVuSans-108"/>
       <use x="96.386719" xlink:href="#DejaVuSans-97"/>
       <use x="157.666016" xlink:href="#DejaVuSans-100"/>
       <use x="221.142578" xlink:href="#DejaVuSans-101"/>
       <use x="282.666016" xlink:href="#DejaVuSans-95"/>
       <use x="332.666016" xlink:href="#DejaVuSans-84"/>
       <use x="393.515625" xlink:href="#DejaVuSans-121"/>
       <use x="452.695312" xlink:href="#DejaVuSans-112"/>
       <use x="516.171875" xlink:href="#DejaVuSans-101"/>
      </g>
     </g>
    </g>
   </g>
   <g id="patch_28">
    <path d="M 145.071875 351.1 
L 145.071875 3.5 
" style="fill:none;stroke:#000000;stroke-linecap:square;stroke-linejoin:miter;stroke-width:0.3;"/>
   </g>
   <g id="patch_29">
    <path d="M 246.791875 351.1 
L 246.791875 3.5 
" style="fill:none;stroke:#000000;stroke-linecap:square;stroke-linejoin:miter;stroke-width:0.3;"/>
   </g>
   <g id="patch_30">
    <path d="M 145.071875 351.1 
L 246.791875 351.1 
" style="fill:none;stroke:#000000;stroke-linecap:square;stroke-linejoin:miter;stroke-width:0.3;"/>
   </g>
   <g id="patch_31">
    <path d="M 145.071875 3.5 
L 246.791875 3.5 
" style="fill:none;stroke:#000000;stroke-linecap:square;stroke-linejoin:miter;stroke-width:0.3;"/>
   </g>
  </g>
 </g>
 <defs>
  <clipPath id="p0694474e63">
   <rect height="347.6" width="101.72" x="145.071875" y="3.5"/>
  </clipPath>
 </defs>
</svg>
