<?xml version="1.0" encoding="utf-8" standalone="no"?>
<!DOCTYPE svg PUBLIC "-//W3C//DTD SVG 1.1//EN"
  "http://www.w3.org/Graphics/SVG/1.1/DTD/svg11.dtd">
<!-- Created with matplotlib (https://matplotlib.org/) -->
<svg height="288.578125pt" version="1.1" viewBox="0 0 257.924688 288.578125" width="257.924688pt" xmlns="http://www.w3.org/2000/svg" xmlns:xlink="http://www.w3.org/1999/xlink">
 <defs>
  <style type="text/css">
*{stroke-linecap:butt;stroke-linejoin:round;}
  </style>
 </defs>
 <g id="figure_1">
  <g id="patch_1">
   <path d="M 0 288.578125 
L 257.924687 288.578125 
L 257.924687 0 
L 0 0 
z
" style="fill:#ffffff;"/>
  </g>
  <g id="axes_1">
   <g id="patch_2">
    <path d="M 145.071875 271.9 
L 246.791875 271.9 
L 246.791875 3.5 
L 145.071875 3.5 
z
" style="fill:#ffffff;"/>
   </g>
   <g id="patch_3">
    <path clip-path="url(#pc2cfa2e297)" d="M 145.409436 4.71448 
L 246.454314 4.71448 
L 246.454314 16.859276 
L 145.409436 16.859276 
z
" style="fill:#d9e6f5;stroke:#444443;stroke-linejoin:miter;stroke-width:0.5;"/>
   </g>
   <g id="patch_4">
    <path clip-path="url(#pc2cfa2e297)" d="M 145.409436 18.073756 
L 230.136651 18.073756 
L 230.136651 30.218552 
L 145.409436 30.218552 
z
" style="fill:#d9e6f5;stroke:#444443;stroke-linejoin:miter;stroke-width:0.5;"/>
   </g>
   <g id="patch_5">
    <path clip-path="url(#pc2cfa2e297)" d="M 145.409436 31.433032 
L 172.985907 31.433032 
L 172.985907 43.577828 
L 145.409436 43.577828 
z
" style="fill:#d9e6f5;stroke:#444443;stroke-linejoin:miter;stroke-width:0.5;"/>
   </g>
   <g id="patch_6">
    <path clip-path="url(#pc2cfa2e297)" d="M 145.409436 44.792308 
L 166.823723 44.792308 
L 166.823723 56.937104 
L 145.409436 56.937104 
z
" style="fill:#d9e6f5;stroke:#444443;stroke-linejoin:miter;stroke-width:0.5;"/>
   </g>
   <g id="patch_7">
    <path clip-path="url(#pc2cfa2e297)" d="M 145.409436 58.151584 
L 161.971992 58.151584 
L 161.971992 70.29638 
L 145.409436 70.29638 
z
" style="fill:#d9e6f5;stroke:#444443;stroke-linejoin:miter;stroke-width:0.5;"/>
   </g>
   <g id="patch_8">
    <path clip-path="url(#pc2cfa2e297)" d="M 145.409436 71.51086 
L 158.682709 71.51086 
L 158.682709 83.655656 
L 145.409436 83.655656 
z
" style="fill:#d9e6f5;stroke:#444443;stroke-linejoin:miter;stroke-width:0.5;"/>
   </g>
   <g id="patch_9">
    <path clip-path="url(#pc2cfa2e297)" d="M 145.409436 84.870136 
L 155.866627 84.870136 
L 155.866627 97.014932 
L 145.409436 97.014932 
z
" style="fill:#d9e6f5;stroke:#444443;stroke-linejoin:miter;stroke-width:0.5;"/>
   </g>
   <g id="patch_10">
    <path clip-path="url(#pc2cfa2e297)" d="M 145.409436 98.229412 
L 155.232442 98.229412 
L 155.232442 110.374208 
L 145.409436 110.374208 
z
" style="fill:#d9e6f5;stroke:#444443;stroke-linejoin:miter;stroke-width:0.5;"/>
   </g>
   <g id="patch_11">
    <path clip-path="url(#pc2cfa2e297)" d="M 145.409436 111.588688 
L 151.21191 111.588688 
L 151.21191 123.733484 
L 145.409436 123.733484 
z
" style="fill:#d9e6f5;stroke:#444443;stroke-linejoin:miter;stroke-width:0.5;"/>
   </g>
   <g id="patch_12">
    <path clip-path="url(#pc2cfa2e297)" d="M 145.409436 124.947964 
L 151.001316 124.947964 
L 151.001316 137.09276 
L 145.409436 137.09276 
z
" style="fill:#d9e6f5;stroke:#444443;stroke-linejoin:miter;stroke-width:0.5;"/>
   </g>
   <g id="patch_13">
    <path clip-path="url(#pc2cfa2e297)" d="M 145.409436 138.30724 
L 150.455987 138.30724 
L 150.455987 150.452036 
L 145.409436 150.452036 
z
" style="fill:#d9e6f5;stroke:#444443;stroke-linejoin:miter;stroke-width:0.5;"/>
   </g>
   <g id="patch_14">
    <path clip-path="url(#pc2cfa2e297)" d="M 145.409436 151.666516 
L 150.382022 151.666516 
L 150.382022 163.811312 
L 145.409436 163.811312 
z
" style="fill:#d9e6f5;stroke:#444443;stroke-linejoin:miter;stroke-width:0.5;"/>
   </g>
   <g id="patch_15">
    <path clip-path="url(#pc2cfa2e297)" d="M 145.409436 165.025792 
L 149.38656 165.025792 
L 149.38656 177.170588 
L 145.409436 177.170588 
z
" style="fill:#d9e6f5;stroke:#444443;stroke-linejoin:miter;stroke-width:0.5;"/>
   </g>
   <g id="patch_16">
    <path clip-path="url(#pc2cfa2e297)" d="M 145.409436 178.385068 
L 148.687552 178.385068 
L 148.687552 190.529864 
L 145.409436 190.529864 
z
" style="fill:#d9e6f5;stroke:#444443;stroke-linejoin:miter;stroke-width:0.5;"/>
   </g>
   <g id="patch_17">
    <path clip-path="url(#pc2cfa2e297)" d="M 145.409436 191.744344 
L 147.83721 191.744344 
L 147.83721 203.88914 
L 145.409436 203.88914 
z
" style="fill:#d9e6f5;stroke:#444443;stroke-linejoin:miter;stroke-width:0.5;"/>
   </g>
   <g id="patch_18">
    <path clip-path="url(#pc2cfa2e297)" d="M 145.409436 205.10362 
L 147.646929 205.10362 
L 147.646929 217.248416 
L 145.409436 217.248416 
z
" style="fill:#d9e6f5;stroke:#444443;stroke-linejoin:miter;stroke-width:0.5;"/>
   </g>
   <g id="patch_19">
    <path clip-path="url(#pc2cfa2e297)" d="M 145.409436 218.462896 
L 147.603795 218.462896 
L 147.603795 230.607692 
L 145.409436 230.607692 
z
" style="fill:#d9e6f5;stroke:#444443;stroke-linejoin:miter;stroke-width:0.5;"/>
   </g>
   <g id="patch_20">
    <path clip-path="url(#pc2cfa2e297)" d="M 145.409436 231.822172 
L 147.460964 231.822172 
L 147.460964 243.966968 
L 145.409436 243.966968 
z
" style="fill:#d9e6f5;stroke:#444443;stroke-linejoin:miter;stroke-width:0.5;"/>
   </g>
   <g id="patch_21">
    <path clip-path="url(#pc2cfa2e297)" d="M 145.409436 245.181448 
L 147.058973 245.181448 
L 147.058973 257.326244 
L 145.409436 257.326244 
z
" style="fill:#d9e6f5;stroke:#444443;stroke-linejoin:miter;stroke-width:0.5;"/>
   </g>
   <g id="patch_22">
    <path clip-path="url(#pc2cfa2e297)" d="M 145.409436 258.540724 
L 147.016333 258.540724 
L 147.016333 270.68552 
L 145.409436 270.68552 
z
" style="fill:#d9e6f5;stroke:#444443;stroke-linejoin:miter;stroke-width:0.5;"/>
   </g>
   <g id="matplotlib.axis_1">
    <g id="xtick_1">
     <g id="line2d_1">
      <defs>
       <path d="M 0 0 
L 0 3.5 
" id="m9b01c9197d" style="stroke:#000000;stroke-width:0.8;"/>
      </defs>
      <g>
       <use style="stroke:#000000;stroke-width:0.8;" x="145.409436" xlink:href="#m9b01c9197d" y="271.9"/>
      </g>
     </g>
     <g id="text_1">
      <!-- 0.00 -->
      <defs>
       <path d="M 31.78125 66.40625 
Q 24.171875 66.40625 20.328125 58.90625 
Q 16.5 51.421875 16.5 36.375 
Q 16.5 21.390625 20.328125 13.890625 
Q 24.171875 6.390625 31.78125 6.390625 
Q 39.453125 6.390625 43.28125 13.890625 
Q 47.125 21.390625 47.125 36.375 
Q 47.125 51.421875 43.28125 58.90625 
Q 39.453125 66.40625 31.78125 66.40625 
z
M 31.78125 74.21875 
Q 44.046875 74.21875 50.515625 64.515625 
Q 56.984375 54.828125 56.984375 36.375 
Q 56.984375 17.96875 50.515625 8.265625 
Q 44.046875 -1.421875 31.78125 -1.421875 
Q 19.53125 -1.421875 13.0625 8.265625 
Q 6.59375 17.96875 6.59375 36.375 
Q 6.59375 54.828125 13.0625 64.515625 
Q 19.53125 74.21875 31.78125 74.21875 
z
" id="DejaVuSans-48"/>
       <path d="M 10.6875 12.40625 
L 21 12.40625 
L 21 0 
L 10.6875 0 
z
" id="DejaVuSans-46"/>
      </defs>
      <g style="fill:#444443;" transform="translate(134.276623 286.498437)scale(0.1 -0.1)">
       <use xlink:href="#DejaVuSans-48"/>
       <use x="63.623047" xlink:href="#DejaVuSans-46"/>
       <use x="95.410156" xlink:href="#DejaVuSans-48"/>
       <use x="159.033203" xlink:href="#DejaVuSans-48"/>
      </g>
     </g>
    </g>
    <g id="xtick_2">
     <g id="line2d_2">
      <g>
       <use style="stroke:#000000;stroke-width:0.8;" x="246.791875" xlink:href="#m9b01c9197d" y="271.9"/>
      </g>
     </g>
     <g id="text_2">
      <!-- 0.60 -->
      <defs>
       <path d="M 33.015625 40.375 
Q 26.375 40.375 22.484375 35.828125 
Q 18.609375 31.296875 18.609375 23.390625 
Q 18.609375 15.53125 22.484375 10.953125 
Q 26.375 6.390625 33.015625 6.390625 
Q 39.65625 6.390625 43.53125 10.953125 
Q 47.40625 15.53125 47.40625 23.390625 
Q 47.40625 31.296875 43.53125 35.828125 
Q 39.65625 40.375 33.015625 40.375 
z
M 52.59375 71.296875 
L 52.59375 62.3125 
Q 48.875 64.0625 45.09375 64.984375 
Q 41.3125 65.921875 37.59375 65.921875 
Q 27.828125 65.921875 22.671875 59.328125 
Q 17.53125 52.734375 16.796875 39.40625 
Q 19.671875 43.65625 24.015625 45.921875 
Q 28.375 48.1875 33.59375 48.1875 
Q 44.578125 48.1875 50.953125 41.515625 
Q 57.328125 34.859375 57.328125 23.390625 
Q 57.328125 12.15625 50.6875 5.359375 
Q 44.046875 -1.421875 33.015625 -1.421875 
Q 20.359375 -1.421875 13.671875 8.265625 
Q 6.984375 17.96875 6.984375 36.375 
Q 6.984375 53.65625 15.1875 63.9375 
Q 23.390625 74.21875 37.203125 74.21875 
Q 40.921875 74.21875 44.703125 73.484375 
Q 48.484375 72.75 52.59375 71.296875 
z
" id="DejaVuSans-54"/>
      </defs>
      <g style="fill:#444443;" transform="translate(235.659063 286.498437)scale(0.1 -0.1)">
       <use xlink:href="#DejaVuSans-48"/>
       <use x="63.623047" xlink:href="#DejaVuSans-46"/>
       <use x="95.410156" xlink:href="#DejaVuSans-54"/>
       <use x="159.033203" xlink:href="#DejaVuSans-48"/>
      </g>
     </g>
    </g>
   </g>
   <g id="matplotlib.axis_2">
    <g id="ytick_1">
     <g id="line2d_3">
      <defs>
       <path d="M 0 0 
L -3.5 0 
" id="m24dabf21ae" style="stroke:#000000;stroke-width:0.8;"/>
      </defs>
      <g>
       <use style="stroke:#000000;stroke-width:0.8;" x="145.071875" xlink:href="#m24dabf21ae" y="10.786878"/>
      </g>
     </g>
     <g id="text_3">
      <!-- ProductSize -->
      <defs>
       <path d="M 19.671875 64.796875 
L 19.671875 37.40625 
L 32.078125 37.40625 
Q 38.96875 37.40625 42.71875 40.96875 
Q 46.484375 44.53125 46.484375 51.125 
Q 46.484375 57.671875 42.71875 61.234375 
Q 38.96875 64.796875 32.078125 64.796875 
z
M 9.8125 72.90625 
L 32.078125 72.90625 
Q 44.34375 72.90625 50.609375 67.359375 
Q 56.890625 61.8125 56.890625 51.125 
Q 56.890625 40.328125 50.609375 34.8125 
Q 44.34375 29.296875 32.078125 29.296875 
L 19.671875 29.296875 
L 19.671875 0 
L 9.8125 0 
z
" id="DejaVuSans-80"/>
       <path d="M 41.109375 46.296875 
Q 39.59375 47.171875 37.8125 47.578125 
Q 36.03125 48 33.890625 48 
Q 26.265625 48 22.1875 43.046875 
Q 18.109375 38.09375 18.109375 28.8125 
L 18.109375 0 
L 9.078125 0 
L 9.078125 54.6875 
L 18.109375 54.6875 
L 18.109375 46.1875 
Q 20.953125 51.171875 25.484375 53.578125 
Q 30.03125 56 36.53125 56 
Q 37.453125 56 38.578125 55.875 
Q 39.703125 55.765625 41.0625 55.515625 
z
" id="DejaVuSans-114"/>
       <path d="M 30.609375 48.390625 
Q 23.390625 48.390625 19.1875 42.75 
Q 14.984375 37.109375 14.984375 27.296875 
Q 14.984375 17.484375 19.15625 11.84375 
Q 23.34375 6.203125 30.609375 6.203125 
Q 37.796875 6.203125 41.984375 11.859375 
Q 46.1875 17.53125 46.1875 27.296875 
Q 46.1875 37.015625 41.984375 42.703125 
Q 37.796875 48.390625 30.609375 48.390625 
z
M 30.609375 56 
Q 42.328125 56 49.015625 48.375 
Q 55.71875 40.765625 55.71875 27.296875 
Q 55.71875 13.875 49.015625 6.21875 
Q 42.328125 -1.421875 30.609375 -1.421875 
Q 18.84375 -1.421875 12.171875 6.21875 
Q 5.515625 13.875 5.515625 27.296875 
Q 5.515625 40.765625 12.171875 48.375 
Q 18.84375 56 30.609375 56 
z
" id="DejaVuSans-111"/>
       <path d="M 45.40625 46.390625 
L 45.40625 75.984375 
L 54.390625 75.984375 
L 54.390625 0 
L 45.40625 0 
L 45.40625 8.203125 
Q 42.578125 3.328125 38.25 0.953125 
Q 33.9375 -1.421875 27.875 -1.421875 
Q 17.96875 -1.421875 11.734375 6.484375 
Q 5.515625 14.40625 5.515625 27.296875 
Q 5.515625 40.1875 11.734375 48.09375 
Q 17.96875 56 27.875 56 
Q 33.9375 56 38.25 53.625 
Q 42.578125 51.265625 45.40625 46.390625 
z
M 14.796875 27.296875 
Q 14.796875 17.390625 18.875 11.75 
Q 22.953125 6.109375 30.078125 6.109375 
Q 37.203125 6.109375 41.296875 11.75 
Q 45.40625 17.390625 45.40625 27.296875 
Q 45.40625 37.203125 41.296875 42.84375 
Q 37.203125 48.484375 30.078125 48.484375 
Q 22.953125 48.484375 18.875 42.84375 
Q 14.796875 37.203125 14.796875 27.296875 
z
" id="DejaVuSans-100"/>
       <path d="M 8.5 21.578125 
L 8.5 54.6875 
L 17.484375 54.6875 
L 17.484375 21.921875 
Q 17.484375 14.15625 20.5 10.265625 
Q 23.53125 6.390625 29.59375 6.390625 
Q 36.859375 6.390625 41.078125 11.03125 
Q 45.3125 15.671875 45.3125 23.6875 
L 45.3125 54.6875 
L 54.296875 54.6875 
L 54.296875 0 
L 45.3125 0 
L 45.3125 8.40625 
Q 42.046875 3.421875 37.71875 1 
Q 33.40625 -1.421875 27.6875 -1.421875 
Q 18.265625 -1.421875 13.375 4.4375 
Q 8.5 10.296875 8.5 21.578125 
z
M 31.109375 56 
z
" id="DejaVuSans-117"/>
       <path d="M 48.78125 52.59375 
L 48.78125 44.1875 
Q 44.96875 46.296875 41.140625 47.34375 
Q 37.3125 48.390625 33.40625 48.390625 
Q 24.65625 48.390625 19.8125 42.84375 
Q 14.984375 37.3125 14.984375 27.296875 
Q 14.984375 17.28125 19.8125 11.734375 
Q 24.65625 6.203125 33.40625 6.203125 
Q 37.3125 6.203125 41.140625 7.25 
Q 44.96875 8.296875 48.78125 10.40625 
L 48.78125 2.09375 
Q 45.015625 0.34375 40.984375 -0.53125 
Q 36.96875 -1.421875 32.421875 -1.421875 
Q 20.0625 -1.421875 12.78125 6.34375 
Q 5.515625 14.109375 5.515625 27.296875 
Q 5.515625 40.671875 12.859375 48.328125 
Q 20.21875 56 33.015625 56 
Q 37.15625 56 41.109375 55.140625 
Q 45.0625 54.296875 48.78125 52.59375 
z
" id="DejaVuSans-99"/>
       <path d="M 18.3125 70.21875 
L 18.3125 54.6875 
L 36.8125 54.6875 
L 36.8125 47.703125 
L 18.3125 47.703125 
L 18.3125 18.015625 
Q 18.3125 11.328125 20.140625 9.421875 
Q 21.96875 7.515625 27.59375 7.515625 
L 36.8125 7.515625 
L 36.8125 0 
L 27.59375 0 
Q 17.1875 0 13.234375 3.875 
Q 9.28125 7.765625 9.28125 18.015625 
L 9.28125 47.703125 
L 2.6875 47.703125 
L 2.6875 54.6875 
L 9.28125 54.6875 
L 9.28125 70.21875 
z
" id="DejaVuSans-116"/>
       <path d="M 53.515625 70.515625 
L 53.515625 60.890625 
Q 47.90625 63.578125 42.921875 64.890625 
Q 37.9375 66.21875 33.296875 66.21875 
Q 25.25 66.21875 20.875 63.09375 
Q 16.5 59.96875 16.5 54.203125 
Q 16.5 49.359375 19.40625 46.890625 
Q 22.3125 44.4375 30.421875 42.921875 
L 36.375 41.703125 
Q 47.40625 39.59375 52.65625 34.296875 
Q 57.90625 29 57.90625 20.125 
Q 57.90625 9.515625 50.796875 4.046875 
Q 43.703125 -1.421875 29.984375 -1.421875 
Q 24.8125 -1.421875 18.96875 -0.25 
Q 13.140625 0.921875 6.890625 3.21875 
L 6.890625 13.375 
Q 12.890625 10.015625 18.65625 8.296875 
Q 24.421875 6.59375 29.984375 6.59375 
Q 38.421875 6.59375 43.015625 9.90625 
Q 47.609375 13.234375 47.609375 19.390625 
Q 47.609375 24.75 44.3125 27.78125 
Q 41.015625 30.8125 33.5 32.328125 
L 27.484375 33.5 
Q 16.453125 35.6875 11.515625 40.375 
Q 6.59375 45.0625 6.59375 53.421875 
Q 6.59375 63.09375 13.40625 68.65625 
Q 20.21875 74.21875 32.171875 74.21875 
Q 37.3125 74.21875 42.625 73.28125 
Q 47.953125 72.359375 53.515625 70.515625 
z
" id="DejaVuSans-83"/>
       <path d="M 9.421875 54.6875 
L 18.40625 54.6875 
L 18.40625 0 
L 9.421875 0 
z
M 9.421875 75.984375 
L 18.40625 75.984375 
L 18.40625 64.59375 
L 9.421875 64.59375 
z
" id="DejaVuSans-105"/>
       <path d="M 5.515625 54.6875 
L 48.1875 54.6875 
L 48.1875 46.484375 
L 14.40625 7.171875 
L 48.1875 7.171875 
L 48.1875 0 
L 4.296875 0 
L 4.296875 8.203125 
L 38.09375 47.515625 
L 5.515625 47.515625 
z
" id="DejaVuSans-122"/>
       <path d="M 56.203125 29.59375 
L 56.203125 25.203125 
L 14.890625 25.203125 
Q 15.484375 15.921875 20.484375 11.0625 
Q 25.484375 6.203125 34.421875 6.203125 
Q 39.59375 6.203125 44.453125 7.46875 
Q 49.3125 8.734375 54.109375 11.28125 
L 54.109375 2.78125 
Q 49.265625 0.734375 44.1875 -0.34375 
Q 39.109375 -1.421875 33.890625 -1.421875 
Q 20.796875 -1.421875 13.15625 6.1875 
Q 5.515625 13.8125 5.515625 26.8125 
Q 5.515625 40.234375 12.765625 48.109375 
Q 20.015625 56 32.328125 56 
Q 43.359375 56 49.78125 48.890625 
Q 56.203125 41.796875 56.203125 29.59375 
z
M 47.21875 32.234375 
Q 47.125 39.59375 43.09375 43.984375 
Q 39.0625 48.390625 32.421875 48.390625 
Q 24.90625 48.390625 20.390625 44.140625 
Q 15.875 39.890625 15.1875 32.171875 
z
" id="DejaVuSans-101"/>
      </defs>
      <g style="fill:#444443;" transform="translate(79.184375 14.586097)scale(0.1 -0.1)">
       <use xlink:href="#DejaVuSans-80"/>
       <use x="60.287109" xlink:href="#DejaVuSans-114"/>
       <use x="101.369141" xlink:href="#DejaVuSans-111"/>
       <use x="162.550781" xlink:href="#DejaVuSans-100"/>
       <use x="226.027344" xlink:href="#DejaVuSans-117"/>
       <use x="289.40625" xlink:href="#DejaVuSans-99"/>
       <use x="344.386719" xlink:href="#DejaVuSans-116"/>
       <use x="383.595703" xlink:href="#DejaVuSans-83"/>
       <use x="447.072266" xlink:href="#DejaVuSans-105"/>
       <use x="474.855469" xlink:href="#DejaVuSans-122"/>
       <use x="527.345703" xlink:href="#DejaVuSans-101"/>
      </g>
     </g>
    </g>
    <g id="ytick_2">
     <g id="line2d_4">
      <g>
       <use style="stroke:#000000;stroke-width:0.8;" x="145.071875" xlink:href="#m24dabf21ae" y="24.146154"/>
      </g>
     </g>
     <g id="text_4">
      <!-- YearMade -->
      <defs>
       <path d="M -0.203125 72.90625 
L 10.40625 72.90625 
L 30.609375 42.921875 
L 50.6875 72.90625 
L 61.28125 72.90625 
L 35.5 34.71875 
L 35.5 0 
L 25.59375 0 
L 25.59375 34.71875 
z
" id="DejaVuSans-89"/>
       <path d="M 34.28125 27.484375 
Q 23.390625 27.484375 19.1875 25 
Q 14.984375 22.515625 14.984375 16.5 
Q 14.984375 11.71875 18.140625 8.90625 
Q 21.296875 6.109375 26.703125 6.109375 
Q 34.1875 6.109375 38.703125 11.40625 
Q 43.21875 16.703125 43.21875 25.484375 
L 43.21875 27.484375 
z
M 52.203125 31.203125 
L 52.203125 0 
L 43.21875 0 
L 43.21875 8.296875 
Q 40.140625 3.328125 35.546875 0.953125 
Q 30.953125 -1.421875 24.3125 -1.421875 
Q 15.921875 -1.421875 10.953125 3.296875 
Q 6 8.015625 6 15.921875 
Q 6 25.140625 12.171875 29.828125 
Q 18.359375 34.515625 30.609375 34.515625 
L 43.21875 34.515625 
L 43.21875 35.40625 
Q 43.21875 41.609375 39.140625 45 
Q 35.0625 48.390625 27.6875 48.390625 
Q 23 48.390625 18.546875 47.265625 
Q 14.109375 46.140625 10.015625 43.890625 
L 10.015625 52.203125 
Q 14.9375 54.109375 19.578125 55.046875 
Q 24.21875 56 28.609375 56 
Q 40.484375 56 46.34375 49.84375 
Q 52.203125 43.703125 52.203125 31.203125 
z
" id="DejaVuSans-97"/>
       <path d="M 9.8125 72.90625 
L 24.515625 72.90625 
L 43.109375 23.296875 
L 61.8125 72.90625 
L 76.515625 72.90625 
L 76.515625 0 
L 66.890625 0 
L 66.890625 64.015625 
L 48.09375 14.015625 
L 38.1875 14.015625 
L 19.390625 64.015625 
L 19.390625 0 
L 9.8125 0 
z
" id="DejaVuSans-77"/>
      </defs>
      <g style="fill:#444443;" transform="translate(88.334375 27.945373)scale(0.1 -0.1)">
       <use xlink:href="#DejaVuSans-89"/>
       <use x="60.880859" xlink:href="#DejaVuSans-101"/>
       <use x="122.404297" xlink:href="#DejaVuSans-97"/>
       <use x="183.683594" xlink:href="#DejaVuSans-114"/>
       <use x="224.796875" xlink:href="#DejaVuSans-77"/>
       <use x="311.076172" xlink:href="#DejaVuSans-97"/>
       <use x="372.355469" xlink:href="#DejaVuSans-100"/>
       <use x="435.832031" xlink:href="#DejaVuSans-101"/>
      </g>
     </g>
    </g>
    <g id="ytick_3">
     <g id="line2d_5">
      <g>
       <use style="stroke:#000000;stroke-width:0.8;" x="145.071875" xlink:href="#m24dabf21ae" y="37.50543"/>
      </g>
     </g>
     <g id="text_5">
      <!-- fiSecondaryDesc -->
      <defs>
       <path d="M 37.109375 75.984375 
L 37.109375 68.5 
L 28.515625 68.5 
Q 23.6875 68.5 21.796875 66.546875 
Q 19.921875 64.59375 19.921875 59.515625 
L 19.921875 54.6875 
L 34.71875 54.6875 
L 34.71875 47.703125 
L 19.921875 47.703125 
L 19.921875 0 
L 10.890625 0 
L 10.890625 47.703125 
L 2.296875 47.703125 
L 2.296875 54.6875 
L 10.890625 54.6875 
L 10.890625 58.5 
Q 10.890625 67.625 15.140625 71.796875 
Q 19.390625 75.984375 28.609375 75.984375 
z
" id="DejaVuSans-102"/>
       <path d="M 54.890625 33.015625 
L 54.890625 0 
L 45.90625 0 
L 45.90625 32.71875 
Q 45.90625 40.484375 42.875 44.328125 
Q 39.84375 48.1875 33.796875 48.1875 
Q 26.515625 48.1875 22.3125 43.546875 
Q 18.109375 38.921875 18.109375 30.90625 
L 18.109375 0 
L 9.078125 0 
L 9.078125 54.6875 
L 18.109375 54.6875 
L 18.109375 46.1875 
Q 21.34375 51.125 25.703125 53.5625 
Q 30.078125 56 35.796875 56 
Q 45.21875 56 50.046875 50.171875 
Q 54.890625 44.34375 54.890625 33.015625 
z
" id="DejaVuSans-110"/>
       <path d="M 32.171875 -5.078125 
Q 28.375 -14.84375 24.75 -17.8125 
Q 21.140625 -20.796875 15.09375 -20.796875 
L 7.90625 -20.796875 
L 7.90625 -13.28125 
L 13.1875 -13.28125 
Q 16.890625 -13.28125 18.9375 -11.515625 
Q 21 -9.765625 23.484375 -3.21875 
L 25.09375 0.875 
L 2.984375 54.6875 
L 12.5 54.6875 
L 29.59375 11.921875 
L 46.6875 54.6875 
L 56.203125 54.6875 
z
" id="DejaVuSans-121"/>
       <path d="M 19.671875 64.796875 
L 19.671875 8.109375 
L 31.59375 8.109375 
Q 46.6875 8.109375 53.6875 14.9375 
Q 60.6875 21.78125 60.6875 36.53125 
Q 60.6875 51.171875 53.6875 57.984375 
Q 46.6875 64.796875 31.59375 64.796875 
z
M 9.8125 72.90625 
L 30.078125 72.90625 
Q 51.265625 72.90625 61.171875 64.09375 
Q 71.09375 55.28125 71.09375 36.53125 
Q 71.09375 17.671875 61.125 8.828125 
Q 51.171875 0 30.078125 0 
L 9.8125 0 
z
" id="DejaVuSans-68"/>
       <path d="M 44.28125 53.078125 
L 44.28125 44.578125 
Q 40.484375 46.53125 36.375 47.5 
Q 32.28125 48.484375 27.875 48.484375 
Q 21.1875 48.484375 17.84375 46.4375 
Q 14.5 44.390625 14.5 40.28125 
Q 14.5 37.15625 16.890625 35.375 
Q 19.28125 33.59375 26.515625 31.984375 
L 29.59375 31.296875 
Q 39.15625 29.25 43.1875 25.515625 
Q 47.21875 21.78125 47.21875 15.09375 
Q 47.21875 7.46875 41.1875 3.015625 
Q 35.15625 -1.421875 24.609375 -1.421875 
Q 20.21875 -1.421875 15.453125 -0.5625 
Q 10.6875 0.296875 5.421875 2 
L 5.421875 11.28125 
Q 10.40625 8.6875 15.234375 7.390625 
Q 20.0625 6.109375 24.8125 6.109375 
Q 31.15625 6.109375 34.5625 8.28125 
Q 37.984375 10.453125 37.984375 14.40625 
Q 37.984375 18.0625 35.515625 20.015625 
Q 33.0625 21.96875 24.703125 23.78125 
L 21.578125 24.515625 
Q 13.234375 26.265625 9.515625 29.90625 
Q 5.8125 33.546875 5.8125 39.890625 
Q 5.8125 47.609375 11.28125 51.796875 
Q 16.75 56 26.8125 56 
Q 31.78125 56 36.171875 55.265625 
Q 40.578125 54.546875 44.28125 53.078125 
z
" id="DejaVuSans-115"/>
      </defs>
      <g style="fill:#444443;" transform="translate(54.25 41.304649)scale(0.1 -0.1)">
       <use xlink:href="#DejaVuSans-102"/>
       <use x="35.205078" xlink:href="#DejaVuSans-105"/>
       <use x="62.988281" xlink:href="#DejaVuSans-83"/>
       <use x="126.464844" xlink:href="#DejaVuSans-101"/>
       <use x="187.988281" xlink:href="#DejaVuSans-99"/>
       <use x="242.96875" xlink:href="#DejaVuSans-111"/>
       <use x="304.150391" xlink:href="#DejaVuSans-110"/>
       <use x="367.529297" xlink:href="#DejaVuSans-100"/>
       <use x="431.005859" xlink:href="#DejaVuSans-97"/>
       <use x="492.285156" xlink:href="#DejaVuSans-114"/>
       <use x="533.398438" xlink:href="#DejaVuSans-121"/>
       <use x="592.578125" xlink:href="#DejaVuSans-68"/>
       <use x="669.580078" xlink:href="#DejaVuSans-101"/>
       <use x="731.103516" xlink:href="#DejaVuSans-115"/>
       <use x="783.203125" xlink:href="#DejaVuSans-99"/>
      </g>
     </g>
    </g>
    <g id="ytick_4">
     <g id="line2d_6">
      <g>
       <use style="stroke:#000000;stroke-width:0.8;" x="145.071875" xlink:href="#m24dabf21ae" y="50.864706"/>
      </g>
     </g>
     <g id="text_6">
      <!-- fiProductClassDesc -->
      <defs>
       <path d="M 64.40625 67.28125 
L 64.40625 56.890625 
Q 59.421875 61.53125 53.78125 63.8125 
Q 48.140625 66.109375 41.796875 66.109375 
Q 29.296875 66.109375 22.65625 58.46875 
Q 16.015625 50.828125 16.015625 36.375 
Q 16.015625 21.96875 22.65625 14.328125 
Q 29.296875 6.6875 41.796875 6.6875 
Q 48.140625 6.6875 53.78125 8.984375 
Q 59.421875 11.28125 64.40625 15.921875 
L 64.40625 5.609375 
Q 59.234375 2.09375 53.4375 0.328125 
Q 47.65625 -1.421875 41.21875 -1.421875 
Q 24.65625 -1.421875 15.125 8.703125 
Q 5.609375 18.84375 5.609375 36.375 
Q 5.609375 53.953125 15.125 64.078125 
Q 24.65625 74.21875 41.21875 74.21875 
Q 47.75 74.21875 53.53125 72.484375 
Q 59.328125 70.75 64.40625 67.28125 
z
" id="DejaVuSans-67"/>
       <path d="M 9.421875 75.984375 
L 18.40625 75.984375 
L 18.40625 0 
L 9.421875 0 
z
" id="DejaVuSans-108"/>
      </defs>
      <g style="fill:#444443;" transform="translate(42.545312 54.663925)scale(0.1 -0.1)">
       <use xlink:href="#DejaVuSans-102"/>
       <use x="35.205078" xlink:href="#DejaVuSans-105"/>
       <use x="62.988281" xlink:href="#DejaVuSans-80"/>
       <use x="123.275391" xlink:href="#DejaVuSans-114"/>
       <use x="164.357422" xlink:href="#DejaVuSans-111"/>
       <use x="225.539062" xlink:href="#DejaVuSans-100"/>
       <use x="289.015625" xlink:href="#DejaVuSans-117"/>
       <use x="352.394531" xlink:href="#DejaVuSans-99"/>
       <use x="407.375" xlink:href="#DejaVuSans-116"/>
       <use x="446.583984" xlink:href="#DejaVuSans-67"/>
       <use x="516.408203" xlink:href="#DejaVuSans-108"/>
       <use x="544.191406" xlink:href="#DejaVuSans-97"/>
       <use x="605.470703" xlink:href="#DejaVuSans-115"/>
       <use x="657.570312" xlink:href="#DejaVuSans-115"/>
       <use x="709.669922" xlink:href="#DejaVuSans-68"/>
       <use x="786.671875" xlink:href="#DejaVuSans-101"/>
       <use x="848.195312" xlink:href="#DejaVuSans-115"/>
       <use x="900.294922" xlink:href="#DejaVuSans-99"/>
      </g>
     </g>
    </g>
    <g id="ytick_5">
     <g id="line2d_7">
      <g>
       <use style="stroke:#000000;stroke-width:0.8;" x="145.071875" xlink:href="#m24dabf21ae" y="64.223982"/>
      </g>
     </g>
     <g id="text_7">
      <!-- Enclosure_EROPS AC -->
      <defs>
       <path d="M 9.8125 72.90625 
L 55.90625 72.90625 
L 55.90625 64.59375 
L 19.671875 64.59375 
L 19.671875 43.015625 
L 54.390625 43.015625 
L 54.390625 34.71875 
L 19.671875 34.71875 
L 19.671875 8.296875 
L 56.78125 8.296875 
L 56.78125 0 
L 9.8125 0 
z
" id="DejaVuSans-69"/>
       <path d="M 50.984375 -16.609375 
L 50.984375 -23.578125 
L -0.984375 -23.578125 
L -0.984375 -16.609375 
z
" id="DejaVuSans-95"/>
       <path d="M 44.390625 34.1875 
Q 47.5625 33.109375 50.5625 29.59375 
Q 53.5625 26.078125 56.59375 19.921875 
L 66.609375 0 
L 56 0 
L 46.6875 18.703125 
Q 43.0625 26.03125 39.671875 28.421875 
Q 36.28125 30.8125 30.421875 30.8125 
L 19.671875 30.8125 
L 19.671875 0 
L 9.8125 0 
L 9.8125 72.90625 
L 32.078125 72.90625 
Q 44.578125 72.90625 50.734375 67.671875 
Q 56.890625 62.453125 56.890625 51.90625 
Q 56.890625 45.015625 53.6875 40.46875 
Q 50.484375 35.9375 44.390625 34.1875 
z
M 19.671875 64.796875 
L 19.671875 38.921875 
L 32.078125 38.921875 
Q 39.203125 38.921875 42.84375 42.21875 
Q 46.484375 45.515625 46.484375 51.90625 
Q 46.484375 58.296875 42.84375 61.546875 
Q 39.203125 64.796875 32.078125 64.796875 
z
" id="DejaVuSans-82"/>
       <path d="M 39.40625 66.21875 
Q 28.65625 66.21875 22.328125 58.203125 
Q 16.015625 50.203125 16.015625 36.375 
Q 16.015625 22.609375 22.328125 14.59375 
Q 28.65625 6.59375 39.40625 6.59375 
Q 50.140625 6.59375 56.421875 14.59375 
Q 62.703125 22.609375 62.703125 36.375 
Q 62.703125 50.203125 56.421875 58.203125 
Q 50.140625 66.21875 39.40625 66.21875 
z
M 39.40625 74.21875 
Q 54.734375 74.21875 63.90625 63.9375 
Q 73.09375 53.65625 73.09375 36.375 
Q 73.09375 19.140625 63.90625 8.859375 
Q 54.734375 -1.421875 39.40625 -1.421875 
Q 24.03125 -1.421875 14.8125 8.828125 
Q 5.609375 19.09375 5.609375 36.375 
Q 5.609375 53.65625 14.8125 63.9375 
Q 24.03125 74.21875 39.40625 74.21875 
z
" id="DejaVuSans-79"/>
       <path id="DejaVuSans-32"/>
       <path d="M 34.1875 63.1875 
L 20.796875 26.90625 
L 47.609375 26.90625 
z
M 28.609375 72.90625 
L 39.796875 72.90625 
L 67.578125 0 
L 57.328125 0 
L 50.6875 18.703125 
L 17.828125 18.703125 
L 11.1875 0 
L 0.78125 0 
z
" id="DejaVuSans-65"/>
      </defs>
      <g style="fill:#444443;" transform="translate(33.695312 68.023201)scale(0.1 -0.1)">
       <use xlink:href="#DejaVuSans-69"/>
       <use x="63.183594" xlink:href="#DejaVuSans-110"/>
       <use x="126.5625" xlink:href="#DejaVuSans-99"/>
       <use x="181.542969" xlink:href="#DejaVuSans-108"/>
       <use x="209.326172" xlink:href="#DejaVuSans-111"/>
       <use x="270.507812" xlink:href="#DejaVuSans-115"/>
       <use x="322.607422" xlink:href="#DejaVuSans-117"/>
       <use x="385.986328" xlink:href="#DejaVuSans-114"/>
       <use x="427.068359" xlink:href="#DejaVuSans-101"/>
       <use x="488.591797" xlink:href="#DejaVuSans-95"/>
       <use x="538.591797" xlink:href="#DejaVuSans-69"/>
       <use x="601.775391" xlink:href="#DejaVuSans-82"/>
       <use x="671.257812" xlink:href="#DejaVuSans-79"/>
       <use x="749.96875" xlink:href="#DejaVuSans-80"/>
       <use x="810.271484" xlink:href="#DejaVuSans-83"/>
       <use x="873.748047" xlink:href="#DejaVuSans-32"/>
       <use x="905.535156" xlink:href="#DejaVuSans-65"/>
       <use x="973.927734" xlink:href="#DejaVuSans-67"/>
      </g>
     </g>
    </g>
    <g id="ytick_6">
     <g id="line2d_8">
      <g>
       <use style="stroke:#000000;stroke-width:0.8;" x="145.071875" xlink:href="#m24dabf21ae" y="77.583258"/>
      </g>
     </g>
     <g id="text_8">
      <!-- fiModelDesc -->
      <g style="fill:#444443;" transform="translate(77.185937 81.382477)scale(0.1 -0.1)">
       <use xlink:href="#DejaVuSans-102"/>
       <use x="35.205078" xlink:href="#DejaVuSans-105"/>
       <use x="62.988281" xlink:href="#DejaVuSans-77"/>
       <use x="149.267578" xlink:href="#DejaVuSans-111"/>
       <use x="210.449219" xlink:href="#DejaVuSans-100"/>
       <use x="273.925781" xlink:href="#DejaVuSans-101"/>
       <use x="335.449219" xlink:href="#DejaVuSans-108"/>
       <use x="363.232422" xlink:href="#DejaVuSans-68"/>
       <use x="440.234375" xlink:href="#DejaVuSans-101"/>
       <use x="501.757812" xlink:href="#DejaVuSans-115"/>
       <use x="553.857422" xlink:href="#DejaVuSans-99"/>
      </g>
     </g>
    </g>
    <g id="ytick_7">
     <g id="line2d_9">
      <g>
       <use style="stroke:#000000;stroke-width:0.8;" x="145.071875" xlink:href="#m24dabf21ae" y="90.942534"/>
      </g>
     </g>
     <g id="text_9">
      <!-- ModelID -->
      <defs>
       <path d="M 9.8125 72.90625 
L 19.671875 72.90625 
L 19.671875 0 
L 9.8125 0 
z
" id="DejaVuSans-73"/>
      </defs>
      <g style="fill:#444443;" transform="translate(97.395313 94.741753)scale(0.1 -0.1)">
       <use xlink:href="#DejaVuSans-77"/>
       <use x="86.279297" xlink:href="#DejaVuSans-111"/>
       <use x="147.460938" xlink:href="#DejaVuSans-100"/>
       <use x="210.9375" xlink:href="#DejaVuSans-101"/>
       <use x="272.460938" xlink:href="#DejaVuSans-108"/>
       <use x="300.244141" xlink:href="#DejaVuSans-73"/>
       <use x="329.736328" xlink:href="#DejaVuSans-68"/>
      </g>
     </g>
    </g>
    <g id="ytick_8">
     <g id="line2d_10">
      <g>
       <use style="stroke:#000000;stroke-width:0.8;" x="145.071875" xlink:href="#m24dabf21ae" y="104.30181"/>
      </g>
     </g>
     <g id="text_10">
      <!-- Engine_Horsepower -->
      <defs>
       <path d="M 45.40625 27.984375 
Q 45.40625 37.75 41.375 43.109375 
Q 37.359375 48.484375 30.078125 48.484375 
Q 22.859375 48.484375 18.828125 43.109375 
Q 14.796875 37.75 14.796875 27.984375 
Q 14.796875 18.265625 18.828125 12.890625 
Q 22.859375 7.515625 30.078125 7.515625 
Q 37.359375 7.515625 41.375 12.890625 
Q 45.40625 18.265625 45.40625 27.984375 
z
M 54.390625 6.78125 
Q 54.390625 -7.171875 48.1875 -13.984375 
Q 42 -20.796875 29.203125 -20.796875 
Q 24.46875 -20.796875 20.265625 -20.09375 
Q 16.0625 -19.390625 12.109375 -17.921875 
L 12.109375 -9.1875 
Q 16.0625 -11.328125 19.921875 -12.34375 
Q 23.78125 -13.375 27.78125 -13.375 
Q 36.625 -13.375 41.015625 -8.765625 
Q 45.40625 -4.15625 45.40625 5.171875 
L 45.40625 9.625 
Q 42.625 4.78125 38.28125 2.390625 
Q 33.9375 0 27.875 0 
Q 17.828125 0 11.671875 7.65625 
Q 5.515625 15.328125 5.515625 27.984375 
Q 5.515625 40.671875 11.671875 48.328125 
Q 17.828125 56 27.875 56 
Q 33.9375 56 38.28125 53.609375 
Q 42.625 51.21875 45.40625 46.390625 
L 45.40625 54.6875 
L 54.390625 54.6875 
z
" id="DejaVuSans-103"/>
       <path d="M 9.8125 72.90625 
L 19.671875 72.90625 
L 19.671875 43.015625 
L 55.515625 43.015625 
L 55.515625 72.90625 
L 65.375 72.90625 
L 65.375 0 
L 55.515625 0 
L 55.515625 34.71875 
L 19.671875 34.71875 
L 19.671875 0 
L 9.8125 0 
z
" id="DejaVuSans-72"/>
       <path d="M 18.109375 8.203125 
L 18.109375 -20.796875 
L 9.078125 -20.796875 
L 9.078125 54.6875 
L 18.109375 54.6875 
L 18.109375 46.390625 
Q 20.953125 51.265625 25.265625 53.625 
Q 29.59375 56 35.59375 56 
Q 45.5625 56 51.78125 48.09375 
Q 58.015625 40.1875 58.015625 27.296875 
Q 58.015625 14.40625 51.78125 6.484375 
Q 45.5625 -1.421875 35.59375 -1.421875 
Q 29.59375 -1.421875 25.265625 0.953125 
Q 20.953125 3.328125 18.109375 8.203125 
z
M 48.6875 27.296875 
Q 48.6875 37.203125 44.609375 42.84375 
Q 40.53125 48.484375 33.40625 48.484375 
Q 26.265625 48.484375 22.1875 42.84375 
Q 18.109375 37.203125 18.109375 27.296875 
Q 18.109375 17.390625 22.1875 11.75 
Q 26.265625 6.109375 33.40625 6.109375 
Q 40.53125 6.109375 44.609375 11.75 
Q 48.6875 17.390625 48.6875 27.296875 
z
" id="DejaVuSans-112"/>
       <path d="M 4.203125 54.6875 
L 13.1875 54.6875 
L 24.421875 12.015625 
L 35.59375 54.6875 
L 46.1875 54.6875 
L 57.421875 12.015625 
L 68.609375 54.6875 
L 77.59375 54.6875 
L 63.28125 0 
L 52.6875 0 
L 40.921875 44.828125 
L 29.109375 0 
L 18.5 0 
z
" id="DejaVuSans-119"/>
      </defs>
      <g style="fill:#444443;" transform="translate(38.776562 108.101029)scale(0.1 -0.1)">
       <use xlink:href="#DejaVuSans-69"/>
       <use x="63.183594" xlink:href="#DejaVuSans-110"/>
       <use x="126.5625" xlink:href="#DejaVuSans-103"/>
       <use x="190.039062" xlink:href="#DejaVuSans-105"/>
       <use x="217.822266" xlink:href="#DejaVuSans-110"/>
       <use x="281.201172" xlink:href="#DejaVuSans-101"/>
       <use x="342.724609" xlink:href="#DejaVuSans-95"/>
       <use x="392.724609" xlink:href="#DejaVuSans-72"/>
       <use x="467.919922" xlink:href="#DejaVuSans-111"/>
       <use x="529.101562" xlink:href="#DejaVuSans-114"/>
       <use x="570.214844" xlink:href="#DejaVuSans-115"/>
       <use x="622.314453" xlink:href="#DejaVuSans-101"/>
       <use x="683.837891" xlink:href="#DejaVuSans-112"/>
       <use x="747.314453" xlink:href="#DejaVuSans-111"/>
       <use x="808.496094" xlink:href="#DejaVuSans-119"/>
       <use x="890.283203" xlink:href="#DejaVuSans-101"/>
       <use x="951.806641" xlink:href="#DejaVuSans-114"/>
      </g>
     </g>
    </g>
    <g id="ytick_9">
     <g id="line2d_11">
      <g>
       <use style="stroke:#000000;stroke-width:0.8;" x="145.071875" xlink:href="#m24dabf21ae" y="117.661086"/>
      </g>
     </g>
     <g id="text_11">
      <!-- Hydraulics_Flow_Standard -->
      <defs>
       <path d="M 9.8125 72.90625 
L 51.703125 72.90625 
L 51.703125 64.59375 
L 19.671875 64.59375 
L 19.671875 43.109375 
L 48.578125 43.109375 
L 48.578125 34.8125 
L 19.671875 34.8125 
L 19.671875 0 
L 9.8125 0 
z
" id="DejaVuSans-70"/>
      </defs>
      <g style="fill:#444443;" transform="translate(6.948438 121.460305)scale(0.1 -0.1)">
       <use xlink:href="#DejaVuSans-72"/>
       <use x="75.195312" xlink:href="#DejaVuSans-121"/>
       <use x="134.375" xlink:href="#DejaVuSans-100"/>
       <use x="197.851562" xlink:href="#DejaVuSans-114"/>
       <use x="238.964844" xlink:href="#DejaVuSans-97"/>
       <use x="300.244141" xlink:href="#DejaVuSans-117"/>
       <use x="363.623047" xlink:href="#DejaVuSans-108"/>
       <use x="391.40625" xlink:href="#DejaVuSans-105"/>
       <use x="419.189453" xlink:href="#DejaVuSans-99"/>
       <use x="474.169922" xlink:href="#DejaVuSans-115"/>
       <use x="526.269531" xlink:href="#DejaVuSans-95"/>
       <use x="576.269531" xlink:href="#DejaVuSans-70"/>
       <use x="633.789062" xlink:href="#DejaVuSans-108"/>
       <use x="661.572266" xlink:href="#DejaVuSans-111"/>
       <use x="722.753906" xlink:href="#DejaVuSans-119"/>
       <use x="804.541016" xlink:href="#DejaVuSans-95"/>
       <use x="854.541016" xlink:href="#DejaVuSans-83"/>
       <use x="918.017578" xlink:href="#DejaVuSans-116"/>
       <use x="957.226562" xlink:href="#DejaVuSans-97"/>
       <use x="1018.505859" xlink:href="#DejaVuSans-110"/>
       <use x="1081.884766" xlink:href="#DejaVuSans-100"/>
       <use x="1145.361328" xlink:href="#DejaVuSans-97"/>
       <use x="1206.640625" xlink:href="#DejaVuSans-114"/>
       <use x="1247.738281" xlink:href="#DejaVuSans-100"/>
      </g>
     </g>
    </g>
    <g id="ytick_10">
     <g id="line2d_12">
      <g>
       <use style="stroke:#000000;stroke-width:0.8;" x="145.071875" xlink:href="#m24dabf21ae" y="131.020362"/>
      </g>
     </g>
     <g id="text_12">
      <!-- saledate -->
      <g style="fill:#444443;" transform="translate(95.253125 134.819581)scale(0.1 -0.1)">
       <use xlink:href="#DejaVuSans-115"/>
       <use x="52.099609" xlink:href="#DejaVuSans-97"/>
       <use x="113.378906" xlink:href="#DejaVuSans-108"/>
       <use x="141.162109" xlink:href="#DejaVuSans-101"/>
       <use x="202.685547" xlink:href="#DejaVuSans-100"/>
       <use x="266.162109" xlink:href="#DejaVuSans-97"/>
       <use x="327.441406" xlink:href="#DejaVuSans-116"/>
       <use x="366.650391" xlink:href="#DejaVuSans-101"/>
      </g>
     </g>
    </g>
    <g id="ytick_11">
     <g id="line2d_13">
      <g>
       <use style="stroke:#000000;stroke-width:0.8;" x="145.071875" xlink:href="#m24dabf21ae" y="144.379638"/>
      </g>
     </g>
     <g id="text_13">
      <!-- fiBaseModel -->
      <defs>
       <path d="M 19.671875 34.8125 
L 19.671875 8.109375 
L 35.5 8.109375 
Q 43.453125 8.109375 47.28125 11.40625 
Q 51.125 14.703125 51.125 21.484375 
Q 51.125 28.328125 47.28125 31.5625 
Q 43.453125 34.8125 35.5 34.8125 
z
M 19.671875 64.796875 
L 19.671875 42.828125 
L 34.28125 42.828125 
Q 41.5 42.828125 45.03125 45.53125 
Q 48.578125 48.25 48.578125 53.8125 
Q 48.578125 59.328125 45.03125 62.0625 
Q 41.5 64.796875 34.28125 64.796875 
z
M 9.8125 72.90625 
L 35.015625 72.90625 
Q 46.296875 72.90625 52.390625 68.21875 
Q 58.5 63.53125 58.5 54.890625 
Q 58.5 48.1875 55.375 44.234375 
Q 52.25 40.28125 46.1875 39.3125 
Q 53.46875 37.75 57.5 32.78125 
Q 61.53125 27.828125 61.53125 20.40625 
Q 61.53125 10.640625 54.890625 5.3125 
Q 48.25 0 35.984375 0 
L 9.8125 0 
z
" id="DejaVuSans-66"/>
      </defs>
      <g style="fill:#444443;" transform="translate(77.395313 148.178857)scale(0.1 -0.1)">
       <use xlink:href="#DejaVuSans-102"/>
       <use x="35.205078" xlink:href="#DejaVuSans-105"/>
       <use x="62.988281" xlink:href="#DejaVuSans-66"/>
       <use x="131.591797" xlink:href="#DejaVuSans-97"/>
       <use x="192.871094" xlink:href="#DejaVuSans-115"/>
       <use x="244.970703" xlink:href="#DejaVuSans-101"/>
       <use x="306.494141" xlink:href="#DejaVuSans-77"/>
       <use x="392.773438" xlink:href="#DejaVuSans-111"/>
       <use x="453.955078" xlink:href="#DejaVuSans-100"/>
       <use x="517.431641" xlink:href="#DejaVuSans-101"/>
       <use x="578.955078" xlink:href="#DejaVuSans-108"/>
      </g>
     </g>
    </g>
    <g id="ytick_12">
     <g id="line2d_14">
      <g>
       <use style="stroke:#000000;stroke-width:0.8;" x="145.071875" xlink:href="#m24dabf21ae" y="157.738914"/>
      </g>
     </g>
     <g id="text_14">
      <!-- YearMade_na -->
      <g style="fill:#444443;" transform="translate(70.86875 161.538133)scale(0.1 -0.1)">
       <use xlink:href="#DejaVuSans-89"/>
       <use x="60.880859" xlink:href="#DejaVuSans-101"/>
       <use x="122.404297" xlink:href="#DejaVuSans-97"/>
       <use x="183.683594" xlink:href="#DejaVuSans-114"/>
       <use x="224.796875" xlink:href="#DejaVuSans-77"/>
       <use x="311.076172" xlink:href="#DejaVuSans-97"/>
       <use x="372.355469" xlink:href="#DejaVuSans-100"/>
       <use x="435.832031" xlink:href="#DejaVuSans-101"/>
       <use x="497.355469" xlink:href="#DejaVuSans-95"/>
       <use x="547.355469" xlink:href="#DejaVuSans-110"/>
       <use x="610.734375" xlink:href="#DejaVuSans-97"/>
      </g>
     </g>
    </g>
    <g id="ytick_13">
     <g id="line2d_15">
      <g>
       <use style="stroke:#000000;stroke-width:0.8;" x="145.071875" xlink:href="#m24dabf21ae" y="171.09819"/>
      </g>
     </g>
     <g id="text_15">
      <!-- fiModelSeries -->
      <g style="fill:#444443;" transform="translate(70.99375 174.897409)scale(0.1 -0.1)">
       <use xlink:href="#DejaVuSans-102"/>
       <use x="35.205078" xlink:href="#DejaVuSans-105"/>
       <use x="62.988281" xlink:href="#DejaVuSans-77"/>
       <use x="149.267578" xlink:href="#DejaVuSans-111"/>
       <use x="210.449219" xlink:href="#DejaVuSans-100"/>
       <use x="273.925781" xlink:href="#DejaVuSans-101"/>
       <use x="335.449219" xlink:href="#DejaVuSans-108"/>
       <use x="363.232422" xlink:href="#DejaVuSans-83"/>
       <use x="426.708984" xlink:href="#DejaVuSans-101"/>
       <use x="488.232422" xlink:href="#DejaVuSans-114"/>
       <use x="529.345703" xlink:href="#DejaVuSans-105"/>
       <use x="557.128906" xlink:href="#DejaVuSans-101"/>
       <use x="618.652344" xlink:href="#DejaVuSans-115"/>
      </g>
     </g>
    </g>
    <g id="ytick_14">
     <g id="line2d_16">
      <g>
       <use style="stroke:#000000;stroke-width:0.8;" x="145.071875" xlink:href="#m24dabf21ae" y="184.457466"/>
      </g>
     </g>
     <g id="text_16">
      <!-- saledayofyear -->
      <g style="fill:#444443;" transform="translate(67.459375 188.256685)scale(0.1 -0.1)">
       <use xlink:href="#DejaVuSans-115"/>
       <use x="52.099609" xlink:href="#DejaVuSans-97"/>
       <use x="113.378906" xlink:href="#DejaVuSans-108"/>
       <use x="141.162109" xlink:href="#DejaVuSans-101"/>
       <use x="202.685547" xlink:href="#DejaVuSans-100"/>
       <use x="266.162109" xlink:href="#DejaVuSans-97"/>
       <use x="327.441406" xlink:href="#DejaVuSans-121"/>
       <use x="386.621094" xlink:href="#DejaVuSans-111"/>
       <use x="447.802734" xlink:href="#DejaVuSans-102"/>
       <use x="482.992188" xlink:href="#DejaVuSans-121"/>
       <use x="542.171875" xlink:href="#DejaVuSans-101"/>
       <use x="603.695312" xlink:href="#DejaVuSans-97"/>
       <use x="664.974609" xlink:href="#DejaVuSans-114"/>
      </g>
     </g>
    </g>
    <g id="ytick_15">
     <g id="line2d_17">
      <g>
       <use style="stroke:#000000;stroke-width:0.8;" x="145.071875" xlink:href="#m24dabf21ae" y="197.816742"/>
      </g>
     </g>
     <g id="text_17">
      <!-- Ripper -->
      <g style="fill:#444443;" transform="translate(105.384375 201.615961)scale(0.1 -0.1)">
       <use xlink:href="#DejaVuSans-82"/>
       <use x="69.482422" xlink:href="#DejaVuSans-105"/>
       <use x="97.265625" xlink:href="#DejaVuSans-112"/>
       <use x="160.742188" xlink:href="#DejaVuSans-112"/>
       <use x="224.21875" xlink:href="#DejaVuSans-101"/>
       <use x="285.742188" xlink:href="#DejaVuSans-114"/>
      </g>
     </g>
    </g>
    <g id="ytick_16">
     <g id="line2d_18">
      <g>
       <use style="stroke:#000000;stroke-width:0.8;" x="145.071875" xlink:href="#m24dabf21ae" y="211.176018"/>
      </g>
     </g>
     <g id="text_18">
      <!-- Transmission -->
      <defs>
       <path d="M -0.296875 72.90625 
L 61.375 72.90625 
L 61.375 64.59375 
L 35.5 64.59375 
L 35.5 0 
L 25.59375 0 
L 25.59375 64.59375 
L -0.296875 64.59375 
z
" id="DejaVuSans-84"/>
       <path d="M 52 44.1875 
Q 55.375 50.25 60.0625 53.125 
Q 64.75 56 71.09375 56 
Q 79.640625 56 84.28125 50.015625 
Q 88.921875 44.046875 88.921875 33.015625 
L 88.921875 0 
L 79.890625 0 
L 79.890625 32.71875 
Q 79.890625 40.578125 77.09375 44.375 
Q 74.3125 48.1875 68.609375 48.1875 
Q 61.625 48.1875 57.5625 43.546875 
Q 53.515625 38.921875 53.515625 30.90625 
L 53.515625 0 
L 44.484375 0 
L 44.484375 32.71875 
Q 44.484375 40.625 41.703125 44.40625 
Q 38.921875 48.1875 33.109375 48.1875 
Q 26.21875 48.1875 22.15625 43.53125 
Q 18.109375 38.875 18.109375 30.90625 
L 18.109375 0 
L 9.078125 0 
L 9.078125 54.6875 
L 18.109375 54.6875 
L 18.109375 46.1875 
Q 21.1875 51.21875 25.484375 53.609375 
Q 29.78125 56 35.6875 56 
Q 41.65625 56 45.828125 52.96875 
Q 50 49.953125 52 44.1875 
z
" id="DejaVuSans-109"/>
      </defs>
      <g style="fill:#444443;" transform="translate(72.028125 214.975237)scale(0.1 -0.1)">
       <use xlink:href="#DejaVuSans-84"/>
       <use x="60.865234" xlink:href="#DejaVuSans-114"/>
       <use x="101.978516" xlink:href="#DejaVuSans-97"/>
       <use x="163.257812" xlink:href="#DejaVuSans-110"/>
       <use x="226.636719" xlink:href="#DejaVuSans-115"/>
       <use x="278.736328" xlink:href="#DejaVuSans-109"/>
       <use x="376.148438" xlink:href="#DejaVuSans-105"/>
       <use x="403.931641" xlink:href="#DejaVuSans-115"/>
       <use x="456.03125" xlink:href="#DejaVuSans-115"/>
       <use x="508.130859" xlink:href="#DejaVuSans-105"/>
       <use x="535.914062" xlink:href="#DejaVuSans-111"/>
       <use x="597.095703" xlink:href="#DejaVuSans-110"/>
      </g>
     </g>
    </g>
    <g id="ytick_17">
     <g id="line2d_19">
      <g>
       <use style="stroke:#000000;stroke-width:0.8;" x="145.071875" xlink:href="#m24dabf21ae" y="224.535294"/>
      </g>
     </g>
     <g id="text_19">
      <!-- MachineHoursCurrentMeter -->
      <defs>
       <path d="M 54.890625 33.015625 
L 54.890625 0 
L 45.90625 0 
L 45.90625 32.71875 
Q 45.90625 40.484375 42.875 44.328125 
Q 39.84375 48.1875 33.796875 48.1875 
Q 26.515625 48.1875 22.3125 43.546875 
Q 18.109375 38.921875 18.109375 30.90625 
L 18.109375 0 
L 9.078125 0 
L 9.078125 75.984375 
L 18.109375 75.984375 
L 18.109375 46.1875 
Q 21.34375 51.125 25.703125 53.5625 
Q 30.078125 56 35.796875 56 
Q 45.21875 56 50.046875 50.171875 
Q 54.890625 44.34375 54.890625 33.015625 
z
" id="DejaVuSans-104"/>
      </defs>
      <g style="fill:#444443;" transform="translate(0 228.334513)scale(0.1 -0.1)">
       <use xlink:href="#DejaVuSans-77"/>
       <use x="86.279297" xlink:href="#DejaVuSans-97"/>
       <use x="147.558594" xlink:href="#DejaVuSans-99"/>
       <use x="202.539062" xlink:href="#DejaVuSans-104"/>
       <use x="265.917969" xlink:href="#DejaVuSans-105"/>
       <use x="293.701172" xlink:href="#DejaVuSans-110"/>
       <use x="357.080078" xlink:href="#DejaVuSans-101"/>
       <use x="418.603516" xlink:href="#DejaVuSans-72"/>
       <use x="493.798828" xlink:href="#DejaVuSans-111"/>
       <use x="554.980469" xlink:href="#DejaVuSans-117"/>
       <use x="618.359375" xlink:href="#DejaVuSans-114"/>
       <use x="659.472656" xlink:href="#DejaVuSans-115"/>
       <use x="711.572266" xlink:href="#DejaVuSans-67"/>
       <use x="781.396484" xlink:href="#DejaVuSans-117"/>
       <use x="844.775391" xlink:href="#DejaVuSans-114"/>
       <use x="885.873047" xlink:href="#DejaVuSans-114"/>
       <use x="926.955078" xlink:href="#DejaVuSans-101"/>
       <use x="988.478516" xlink:href="#DejaVuSans-110"/>
       <use x="1051.857422" xlink:href="#DejaVuSans-116"/>
       <use x="1091.066406" xlink:href="#DejaVuSans-77"/>
       <use x="1177.345703" xlink:href="#DejaVuSans-101"/>
       <use x="1238.869141" xlink:href="#DejaVuSans-116"/>
       <use x="1278.078125" xlink:href="#DejaVuSans-101"/>
       <use x="1339.601562" xlink:href="#DejaVuSans-114"/>
      </g>
     </g>
    </g>
    <g id="ytick_18">
     <g id="line2d_20">
      <g>
       <use style="stroke:#000000;stroke-width:0.8;" x="145.071875" xlink:href="#m24dabf21ae" y="237.89457"/>
      </g>
     </g>
     <g id="text_20">
      <!-- fiModelDescriptor -->
      <g style="fill:#444443;" transform="translate(49.798438 241.693789)scale(0.1 -0.1)">
       <use xlink:href="#DejaVuSans-102"/>
       <use x="35.205078" xlink:href="#DejaVuSans-105"/>
       <use x="62.988281" xlink:href="#DejaVuSans-77"/>
       <use x="149.267578" xlink:href="#DejaVuSans-111"/>
       <use x="210.449219" xlink:href="#DejaVuSans-100"/>
       <use x="273.925781" xlink:href="#DejaVuSans-101"/>
       <use x="335.449219" xlink:href="#DejaVuSans-108"/>
       <use x="363.232422" xlink:href="#DejaVuSans-68"/>
       <use x="440.234375" xlink:href="#DejaVuSans-101"/>
       <use x="501.757812" xlink:href="#DejaVuSans-115"/>
       <use x="553.857422" xlink:href="#DejaVuSans-99"/>
       <use x="608.837891" xlink:href="#DejaVuSans-114"/>
       <use x="649.951172" xlink:href="#DejaVuSans-105"/>
       <use x="677.734375" xlink:href="#DejaVuSans-112"/>
       <use x="741.210938" xlink:href="#DejaVuSans-116"/>
       <use x="780.419922" xlink:href="#DejaVuSans-111"/>
       <use x="841.601562" xlink:href="#DejaVuSans-114"/>
      </g>
     </g>
    </g>
    <g id="ytick_19">
     <g id="line2d_21">
      <g>
       <use style="stroke:#000000;stroke-width:0.8;" x="145.071875" xlink:href="#m24dabf21ae" y="251.253846"/>
      </g>
     </g>
     <g id="text_21">
      <!-- saleday -->
      <g style="fill:#444443;" transform="translate(99.407813 255.053065)scale(0.1 -0.1)">
       <use xlink:href="#DejaVuSans-115"/>
       <use x="52.099609" xlink:href="#DejaVuSans-97"/>
       <use x="113.378906" xlink:href="#DejaVuSans-108"/>
       <use x="141.162109" xlink:href="#DejaVuSans-101"/>
       <use x="202.685547" xlink:href="#DejaVuSans-100"/>
       <use x="266.162109" xlink:href="#DejaVuSans-97"/>
       <use x="327.441406" xlink:href="#DejaVuSans-121"/>
      </g>
     </g>
    </g>
    <g id="ytick_20">
     <g id="line2d_22">
      <g>
       <use style="stroke:#000000;stroke-width:0.8;" x="145.071875" xlink:href="#m24dabf21ae" y="264.613122"/>
      </g>
     </g>
     <g id="text_22">
      <!-- ProductGroupDesc -->
      <defs>
       <path d="M 59.515625 10.40625 
L 59.515625 29.984375 
L 43.40625 29.984375 
L 43.40625 38.09375 
L 69.28125 38.09375 
L 69.28125 6.78125 
Q 63.578125 2.734375 56.6875 0.65625 
Q 49.8125 -1.421875 42 -1.421875 
Q 24.90625 -1.421875 15.25 8.5625 
Q 5.609375 18.5625 5.609375 36.375 
Q 5.609375 54.25 15.25 64.234375 
Q 24.90625 74.21875 42 74.21875 
Q 49.125 74.21875 55.546875 72.453125 
Q 61.96875 70.703125 67.390625 67.28125 
L 67.390625 56.78125 
Q 61.921875 61.421875 55.765625 63.765625 
Q 49.609375 66.109375 42.828125 66.109375 
Q 29.4375 66.109375 22.71875 58.640625 
Q 16.015625 51.171875 16.015625 36.375 
Q 16.015625 21.625 22.71875 14.15625 
Q 29.4375 6.6875 42.828125 6.6875 
Q 48.046875 6.6875 52.140625 7.59375 
Q 56.25 8.5 59.515625 10.40625 
z
" id="DejaVuSans-71"/>
      </defs>
      <g style="fill:#444443;" transform="translate(44.490625 268.412341)scale(0.1 -0.1)">
       <use xlink:href="#DejaVuSans-80"/>
       <use x="60.287109" xlink:href="#DejaVuSans-114"/>
       <use x="101.369141" xlink:href="#DejaVuSans-111"/>
       <use x="162.550781" xlink:href="#DejaVuSans-100"/>
       <use x="226.027344" xlink:href="#DejaVuSans-117"/>
       <use x="289.40625" xlink:href="#DejaVuSans-99"/>
       <use x="344.386719" xlink:href="#DejaVuSans-116"/>
       <use x="383.595703" xlink:href="#DejaVuSans-71"/>
       <use x="461.085938" xlink:href="#DejaVuSans-114"/>
       <use x="502.167969" xlink:href="#DejaVuSans-111"/>
       <use x="563.349609" xlink:href="#DejaVuSans-117"/>
       <use x="626.728516" xlink:href="#DejaVuSans-112"/>
       <use x="690.205078" xlink:href="#DejaVuSans-68"/>
       <use x="767.207031" xlink:href="#DejaVuSans-101"/>
       <use x="828.730469" xlink:href="#DejaVuSans-115"/>
       <use x="880.830078" xlink:href="#DejaVuSans-99"/>
      </g>
     </g>
    </g>
   </g>
   <g id="patch_23">
    <path d="M 145.071875 271.9 
L 145.071875 3.5 
" style="fill:none;stroke:#000000;stroke-linecap:square;stroke-linejoin:miter;stroke-width:0.3;"/>
   </g>
   <g id="patch_24">
    <path d="M 246.791875 271.9 
L 246.791875 3.5 
" style="fill:none;stroke:#000000;stroke-linecap:square;stroke-linejoin:miter;stroke-width:0.3;"/>
   </g>
   <g id="patch_25">
    <path d="M 145.071875 271.9 
L 246.791875 271.9 
" style="fill:none;stroke:#000000;stroke-linecap:square;stroke-linejoin:miter;stroke-width:0.3;"/>
   </g>
   <g id="patch_26">
    <path d="M 145.071875 3.5 
L 246.791875 3.5 
" style="fill:none;stroke:#000000;stroke-linecap:square;stroke-linejoin:miter;stroke-width:0.3;"/>
   </g>
  </g>
 </g>
 <defs>
  <clipPath id="pc2cfa2e297">
   <rect height="268.4" width="101.72" x="145.071875" y="3.5"/>
  </clipPath>
 </defs>
</svg>
