<?xml version="1.0" encoding="utf-8" standalone="no"?>
<!DOCTYPE svg PUBLIC "-//W3C//DTD SVG 1.1//EN"
  "http://www.w3.org/Graphics/SVG/1.1/DTD/svg11.dtd">
<!-- Created with matplotlib (https://matplotlib.org/) -->
<svg height="207.91875pt" version="1.1" viewBox="0 0 295.525281 207.91875" width="295.525281pt" xmlns="http://www.w3.org/2000/svg" xmlns:xlink="http://www.w3.org/1999/xlink">
 <defs>
  <style type="text/css">
*{stroke-linecap:butt;stroke-linejoin:round;}
  </style>
 </defs>
 <g id="figure_1">
  <g id="patch_1">
   <path d="M 0 207.91875 
L 295.525281 207.91875 
L 295.525281 -0 
L 0 -0 
z
" style="fill:#ffffff;"/>
  </g>
  <g id="axes_1">
   <g id="patch_2">
    <path d="M 60.179375 169.82 
L 283.379375 169.82 
L 283.379375 3.5 
L 60.179375 3.5 
z
" style="fill:#ffffff;"/>
   </g>
   <g id="patch_3">
    <path clip-path="url(#pe30ae85ddf)" d="M 70.32483 169.82 
L 74.383011 169.82 
L 74.383011 167.98154 
L 70.32483 167.98154 
z
" style="fill:#4575b4;"/>
   </g>
   <g id="patch_4">
    <path clip-path="url(#pe30ae85ddf)" d="M 74.383011 169.82 
L 78.441193 169.82 
L 78.441193 161.881198 
L 74.383011 161.881198 
z
" style="fill:#4575b4;"/>
   </g>
   <g id="patch_5">
    <path clip-path="url(#pe30ae85ddf)" d="M 78.441193 169.82 
L 82.499375 169.82 
L 82.499375 143.20412 
L 78.441193 143.20412 
z
" style="fill:#4575b4;"/>
   </g>
   <g id="patch_6">
    <path clip-path="url(#pe30ae85ddf)" d="M 82.499375 169.82 
L 86.557557 169.82 
L 86.557557 131.671965 
L 82.499375 131.671965 
z
" style="fill:#4575b4;"/>
   </g>
   <g id="patch_7">
    <path clip-path="url(#pe30ae85ddf)" d="M 86.557557 169.82 
L 90.615739 169.82 
L 90.615739 80.278665 
L 86.557557 80.278665 
z
" style="fill:#4575b4;"/>
   </g>
   <g id="patch_8">
    <path clip-path="url(#pe30ae85ddf)" d="M 90.615739 169.82 
L 94.67392 169.82 
L 94.67392 66.11417 
L 90.615739 66.11417 
z
" style="fill:#4575b4;"/>
   </g>
   <g id="patch_9">
    <path clip-path="url(#pe30ae85ddf)" d="M 94.67392 169.82 
L 98.732102 169.82 
L 98.732102 85.501562 
L 94.67392 85.501562 
z
" style="fill:#4575b4;"/>
   </g>
   <g id="patch_10">
    <path clip-path="url(#pe30ae85ddf)" d="M 98.732102 169.82 
L 102.790284 169.82 
L 102.790284 31.308789 
L 98.732102 31.308789 
z
" style="fill:#4575b4;"/>
   </g>
   <g id="patch_11">
    <path clip-path="url(#pe30ae85ddf)" d="M 102.790284 169.82 
L 106.848466 169.82 
L 106.848466 18.063524 
L 102.790284 18.063524 
z
" style="fill:#4575b4;"/>
   </g>
   <g id="patch_12">
    <path clip-path="url(#pe30ae85ddf)" d="M 106.848466 169.82 
L 110.906648 169.82 
L 110.906648 11.42 
L 106.848466 11.42 
z
" style="fill:#4575b4;"/>
   </g>
   <g id="patch_13">
    <path clip-path="url(#pe30ae85ddf)" d="M 110.906648 169.82 
L 114.96483 169.82 
L 114.96483 40.501087 
L 110.906648 40.501087 
z
" style="fill:#4575b4;"/>
   </g>
   <g id="patch_14">
    <path clip-path="url(#pe30ae85ddf)" d="M 114.96483 169.82 
L 119.023011 169.82 
L 119.023011 58.885682 
L 114.96483 58.885682 
z
" style="fill:#4575b4;"/>
   </g>
   <g id="patch_15">
    <path clip-path="url(#pe30ae85ddf)" d="M 119.023011 169.82 
L 123.081193 169.82 
L 123.081193 33.69043 
L 119.023011 33.69043 
z
" style="fill:#4575b4;"/>
   </g>
   <g id="patch_16">
    <path clip-path="url(#pe30ae85ddf)" d="M 123.081193 169.82 
L 127.139375 169.82 
L 127.139375 47.980274 
L 123.081193 47.980274 
z
" style="fill:#4575b4;"/>
   </g>
   <g id="patch_17">
    <path clip-path="url(#pe30ae85ddf)" d="M 127.139375 169.82 
L 131.197557 169.82 
L 131.197557 72.674128 
L 127.139375 72.674128 
z
" style="fill:#4575b4;"/>
   </g>
   <g id="patch_18">
    <path clip-path="url(#pe30ae85ddf)" d="M 131.197557 169.82 
L 135.255739 169.82 
L 135.255739 102.590878 
L 131.197557 102.590878 
z
" style="fill:#4575b4;"/>
   </g>
   <g id="patch_19">
    <path clip-path="url(#pe30ae85ddf)" d="M 135.255739 169.82 
L 139.31392 169.82 
L 139.31392 98.66326 
L 135.255739 98.66326 
z
" style="fill:#4575b4;"/>
   </g>
   <g id="patch_20">
    <path clip-path="url(#pe30ae85ddf)" d="M 139.31392 169.82 
L 143.372102 169.82 
L 143.372102 119.847328 
L 139.31392 119.847328 
z
" style="fill:#4575b4;"/>
   </g>
   <g id="patch_21">
    <path clip-path="url(#pe30ae85ddf)" d="M 143.372102 169.82 
L 147.430284 169.82 
L 147.430284 130.794519 
L 143.372102 130.794519 
z
" style="fill:#4575b4;"/>
   </g>
   <g id="patch_22">
    <path clip-path="url(#pe30ae85ddf)" d="M 147.430284 169.82 
L 151.488466 169.82 
L 151.488466 114.582648 
L 147.430284 114.582648 
z
" style="fill:#4575b4;"/>
   </g>
   <g id="patch_23">
    <path clip-path="url(#pe30ae85ddf)" d="M 151.488466 169.82 
L 155.546648 169.82 
L 155.546648 143.162337 
L 151.488466 143.162337 
z
" style="fill:#4575b4;"/>
   </g>
   <g id="patch_24">
    <path clip-path="url(#pe30ae85ddf)" d="M 155.546648 169.82 
L 159.60483 169.82 
L 159.60483 134.596787 
L 155.546648 134.596787 
z
" style="fill:#4575b4;"/>
   </g>
   <g id="patch_25">
    <path clip-path="url(#pe30ae85ddf)" d="M 159.60483 169.82 
L 163.663011 169.82 
L 163.663011 128.078613 
L 159.60483 128.078613 
z
" style="fill:#4575b4;"/>
   </g>
   <g id="patch_26">
    <path clip-path="url(#pe30ae85ddf)" d="M 163.663011 169.82 
L 167.721193 169.82 
L 167.721193 145.711111 
L 163.663011 145.711111 
z
" style="fill:#4575b4;"/>
   </g>
   <g id="patch_27">
    <path clip-path="url(#pe30ae85ddf)" d="M 167.721193 169.82 
L 171.779375 169.82 
L 171.779375 136.059198 
L 167.721193 136.059198 
z
" style="fill:#4575b4;"/>
   </g>
   <g id="patch_28">
    <path clip-path="url(#pe30ae85ddf)" d="M 171.779375 169.82 
L 175.837557 169.82 
L 175.837557 155.947987 
L 171.779375 155.947987 
z
" style="fill:#4575b4;"/>
   </g>
   <g id="patch_29">
    <path clip-path="url(#pe30ae85ddf)" d="M 175.837557 169.82 
L 179.895739 169.82 
L 179.895739 151.184706 
L 175.837557 151.184706 
z
" style="fill:#4575b4;"/>
   </g>
   <g id="patch_30">
    <path clip-path="url(#pe30ae85ddf)" d="M 179.895739 169.82 
L 183.95392 169.82 
L 183.95392 139.694334 
L 179.895739 139.694334 
z
" style="fill:#4575b4;"/>
   </g>
   <g id="patch_31">
    <path clip-path="url(#pe30ae85ddf)" d="M 183.95392 169.82 
L 188.012102 169.82 
L 188.012102 156.867217 
L 183.95392 156.867217 
z
" style="fill:#4575b4;"/>
   </g>
   <g id="patch_32">
    <path clip-path="url(#pe30ae85ddf)" d="M 188.012102 169.82 
L 192.070284 169.82 
L 192.070284 155.697288 
L 188.012102 155.697288 
z
" style="fill:#4575b4;"/>
   </g>
   <g id="patch_33">
    <path clip-path="url(#pe30ae85ddf)" d="M 192.070284 169.82 
L 196.128466 169.82 
L 196.128466 155.404806 
L 192.070284 155.404806 
z
" style="fill:#4575b4;"/>
   </g>
   <g id="patch_34">
    <path clip-path="url(#pe30ae85ddf)" d="M 196.128466 169.82 
L 200.186648 169.82 
L 200.186648 162.96756 
L 196.128466 162.96756 
z
" style="fill:#4575b4;"/>
   </g>
   <g id="patch_35">
    <path clip-path="url(#pe30ae85ddf)" d="M 200.186648 169.82 
L 204.24483 169.82 
L 204.24483 163.218259 
L 200.186648 163.218259 
z
" style="fill:#4575b4;"/>
   </g>
   <g id="patch_36">
    <path clip-path="url(#pe30ae85ddf)" d="M 204.24483 169.82 
L 208.303011 169.82 
L 208.303011 159.207075 
L 204.24483 159.207075 
z
" style="fill:#4575b4;"/>
   </g>
   <g id="patch_37">
    <path clip-path="url(#pe30ae85ddf)" d="M 208.303011 169.82 
L 212.361193 169.82 
L 212.361193 163.343609 
L 208.303011 163.343609 
z
" style="fill:#4575b4;"/>
   </g>
   <g id="patch_38">
    <path clip-path="url(#pe30ae85ddf)" d="M 212.361193 169.82 
L 216.419375 169.82 
L 216.419375 166.351997 
L 212.361193 166.351997 
z
" style="fill:#4575b4;"/>
   </g>
   <g id="patch_39">
    <path clip-path="url(#pe30ae85ddf)" d="M 216.419375 169.82 
L 220.477557 169.82 
L 220.477557 163.928573 
L 216.419375 163.928573 
z
" style="fill:#4575b4;"/>
   </g>
   <g id="patch_40">
    <path clip-path="url(#pe30ae85ddf)" d="M 220.477557 169.82 
L 224.535739 169.82 
L 224.535739 166.560913 
L 220.477557 166.560913 
z
" style="fill:#4575b4;"/>
   </g>
   <g id="patch_41">
    <path clip-path="url(#pe30ae85ddf)" d="M 224.535739 169.82 
L 228.59392 169.82 
L 228.59392 159.66669 
L 224.535739 159.66669 
z
" style="fill:#4575b4;"/>
   </g>
   <g id="patch_42">
    <path clip-path="url(#pe30ae85ddf)" d="M 228.59392 169.82 
L 232.652102 169.82 
L 232.652102 167.939757 
L 228.59392 167.939757 
z
" style="fill:#4575b4;"/>
   </g>
   <g id="patch_43">
    <path clip-path="url(#pe30ae85ddf)" d="M 232.652102 169.82 
L 236.710284 169.82 
L 236.710284 168.10689 
L 232.652102 168.10689 
z
" style="fill:#4575b4;"/>
   </g>
   <g id="patch_44">
    <path clip-path="url(#pe30ae85ddf)" d="M 236.710284 169.82 
L 240.768466 169.82 
L 240.768466 166.059515 
L 236.710284 166.059515 
z
" style="fill:#4575b4;"/>
   </g>
   <g id="patch_45">
    <path clip-path="url(#pe30ae85ddf)" d="M 240.768466 169.82 
L 244.826648 169.82 
L 244.826648 169.109686 
L 240.768466 169.109686 
z
" style="fill:#4575b4;"/>
   </g>
   <g id="patch_46">
    <path clip-path="url(#pe30ae85ddf)" d="M 244.826648 169.82 
L 248.88483 169.82 
L 248.88483 167.605492 
L 244.826648 167.605492 
z
" style="fill:#4575b4;"/>
   </g>
   <g id="patch_47">
    <path clip-path="url(#pe30ae85ddf)" d="M 248.88483 169.82 
L 252.943011 169.82 
L 252.943011 165.47455 
L 248.88483 165.47455 
z
" style="fill:#4575b4;"/>
   </g>
   <g id="patch_48">
    <path clip-path="url(#pe30ae85ddf)" d="M 252.943011 169.82 
L 257.001193 169.82 
L 257.001193 168.942553 
L 252.943011 168.942553 
z
" style="fill:#4575b4;"/>
   </g>
   <g id="patch_49">
    <path clip-path="url(#pe30ae85ddf)" d="M 257.001193 169.82 
L 261.059375 169.82 
L 261.059375 169.109686 
L 257.001193 169.109686 
z
" style="fill:#4575b4;"/>
   </g>
   <g id="patch_50">
    <path clip-path="url(#pe30ae85ddf)" d="M 261.059375 169.82 
L 265.117557 169.82 
L 265.117557 167.229443 
L 261.059375 167.229443 
z
" style="fill:#4575b4;"/>
   </g>
   <g id="patch_51">
    <path clip-path="url(#pe30ae85ddf)" d="M 265.117557 169.82 
L 269.175739 169.82 
L 269.175739 169.235036 
L 265.117557 169.235036 
z
" style="fill:#4575b4;"/>
   </g>
   <g id="patch_52">
    <path clip-path="url(#pe30ae85ddf)" d="M 269.175739 169.82 
L 273.23392 169.82 
L 273.23392 168.775421 
L 269.175739 168.775421 
z
" style="fill:#4575b4;"/>
   </g>
   <g id="matplotlib.axis_1">
    <g id="xtick_1">
     <g id="line2d_1">
      <defs>
       <path d="M 0 0 
L 0 3.5 
" id="mc96b10151c" style="stroke:#000000;stroke-width:0.8;"/>
      </defs>
      <g>
       <use style="stroke:#000000;stroke-width:0.8;" x="92.370335" xlink:href="#mc96b10151c" y="169.82"/>
      </g>
     </g>
     <g id="text_1">
      <!-- 2000 -->
      <defs>
       <path d="M 19.1875 8.296875 
L 53.609375 8.296875 
L 53.609375 0 
L 7.328125 0 
L 7.328125 8.296875 
Q 12.9375 14.109375 22.625 23.890625 
Q 32.328125 33.6875 34.8125 36.53125 
Q 39.546875 41.84375 41.421875 45.53125 
Q 43.3125 49.21875 43.3125 52.78125 
Q 43.3125 58.59375 39.234375 62.25 
Q 35.15625 65.921875 28.609375 65.921875 
Q 23.96875 65.921875 18.8125 64.3125 
Q 13.671875 62.703125 7.8125 59.421875 
L 7.8125 69.390625 
Q 13.765625 71.78125 18.9375 73 
Q 24.125 74.21875 28.421875 74.21875 
Q 39.75 74.21875 46.484375 68.546875 
Q 53.21875 62.890625 53.21875 53.421875 
Q 53.21875 48.921875 51.53125 44.890625 
Q 49.859375 40.875 45.40625 35.40625 
Q 44.1875 33.984375 37.640625 27.21875 
Q 31.109375 20.453125 19.1875 8.296875 
z
" id="DejaVuSans-50"/>
       <path d="M 31.78125 66.40625 
Q 24.171875 66.40625 20.328125 58.90625 
Q 16.5 51.421875 16.5 36.375 
Q 16.5 21.390625 20.328125 13.890625 
Q 24.171875 6.390625 31.78125 6.390625 
Q 39.453125 6.390625 43.28125 13.890625 
Q 47.125 21.390625 47.125 36.375 
Q 47.125 51.421875 43.28125 58.90625 
Q 39.453125 66.40625 31.78125 66.40625 
z
M 31.78125 74.21875 
Q 44.046875 74.21875 50.515625 64.515625 
Q 56.984375 54.828125 56.984375 36.375 
Q 56.984375 17.96875 50.515625 8.265625 
Q 44.046875 -1.421875 31.78125 -1.421875 
Q 19.53125 -1.421875 13.0625 8.265625 
Q 6.59375 17.96875 6.59375 36.375 
Q 6.59375 54.828125 13.0625 64.515625 
Q 19.53125 74.21875 31.78125 74.21875 
z
" id="DejaVuSans-48"/>
      </defs>
      <g transform="translate(74.555335 187.457813)scale(0.14 -0.14)">
       <use xlink:href="#DejaVuSans-50"/>
       <use x="63.623047" xlink:href="#DejaVuSans-48"/>
       <use x="127.246094" xlink:href="#DejaVuSans-48"/>
       <use x="190.869141" xlink:href="#DejaVuSans-48"/>
      </g>
     </g>
    </g>
    <g id="xtick_2">
     <g id="line2d_2">
      <g>
       <use style="stroke:#000000;stroke-width:0.8;" x="137.591884" xlink:href="#mc96b10151c" y="169.82"/>
      </g>
     </g>
     <g id="text_2">
      <!-- 4000 -->
      <defs>
       <path d="M 37.796875 64.3125 
L 12.890625 25.390625 
L 37.796875 25.390625 
z
M 35.203125 72.90625 
L 47.609375 72.90625 
L 47.609375 25.390625 
L 58.015625 25.390625 
L 58.015625 17.1875 
L 47.609375 17.1875 
L 47.609375 0 
L 37.796875 0 
L 37.796875 17.1875 
L 4.890625 17.1875 
L 4.890625 26.703125 
z
" id="DejaVuSans-52"/>
      </defs>
      <g transform="translate(119.776884 187.457813)scale(0.14 -0.14)">
       <use xlink:href="#DejaVuSans-52"/>
       <use x="63.623047" xlink:href="#DejaVuSans-48"/>
       <use x="127.246094" xlink:href="#DejaVuSans-48"/>
       <use x="190.869141" xlink:href="#DejaVuSans-48"/>
      </g>
     </g>
    </g>
    <g id="xtick_3">
     <g id="line2d_3">
      <g>
       <use style="stroke:#000000;stroke-width:0.8;" x="182.813433" xlink:href="#mc96b10151c" y="169.82"/>
      </g>
     </g>
     <g id="text_3">
      <!-- 6000 -->
      <defs>
       <path d="M 33.015625 40.375 
Q 26.375 40.375 22.484375 35.828125 
Q 18.609375 31.296875 18.609375 23.390625 
Q 18.609375 15.53125 22.484375 10.953125 
Q 26.375 6.390625 33.015625 6.390625 
Q 39.65625 6.390625 43.53125 10.953125 
Q 47.40625 15.53125 47.40625 23.390625 
Q 47.40625 31.296875 43.53125 35.828125 
Q 39.65625 40.375 33.015625 40.375 
z
M 52.59375 71.296875 
L 52.59375 62.3125 
Q 48.875 64.0625 45.09375 64.984375 
Q 41.3125 65.921875 37.59375 65.921875 
Q 27.828125 65.921875 22.671875 59.328125 
Q 17.53125 52.734375 16.796875 39.40625 
Q 19.671875 43.65625 24.015625 45.921875 
Q 28.375 48.1875 33.59375 48.1875 
Q 44.578125 48.1875 50.953125 41.515625 
Q 57.328125 34.859375 57.328125 23.390625 
Q 57.328125 12.15625 50.6875 5.359375 
Q 44.046875 -1.421875 33.015625 -1.421875 
Q 20.359375 -1.421875 13.671875 8.265625 
Q 6.984375 17.96875 6.984375 36.375 
Q 6.984375 53.65625 15.1875 63.9375 
Q 23.390625 74.21875 37.203125 74.21875 
Q 40.921875 74.21875 44.703125 73.484375 
Q 48.484375 72.75 52.59375 71.296875 
z
" id="DejaVuSans-54"/>
      </defs>
      <g transform="translate(164.998433 187.457813)scale(0.14 -0.14)">
       <use xlink:href="#DejaVuSans-54"/>
       <use x="63.623047" xlink:href="#DejaVuSans-48"/>
       <use x="127.246094" xlink:href="#DejaVuSans-48"/>
       <use x="190.869141" xlink:href="#DejaVuSans-48"/>
      </g>
     </g>
    </g>
    <g id="xtick_4">
     <g id="line2d_4">
      <g>
       <use style="stroke:#000000;stroke-width:0.8;" x="228.034982" xlink:href="#mc96b10151c" y="169.82"/>
      </g>
     </g>
     <g id="text_4">
      <!-- 8000 -->
      <defs>
       <path d="M 31.78125 34.625 
Q 24.75 34.625 20.71875 30.859375 
Q 16.703125 27.09375 16.703125 20.515625 
Q 16.703125 13.921875 20.71875 10.15625 
Q 24.75 6.390625 31.78125 6.390625 
Q 38.8125 6.390625 42.859375 10.171875 
Q 46.921875 13.96875 46.921875 20.515625 
Q 46.921875 27.09375 42.890625 30.859375 
Q 38.875 34.625 31.78125 34.625 
z
M 21.921875 38.8125 
Q 15.578125 40.375 12.03125 44.71875 
Q 8.5 49.078125 8.5 55.328125 
Q 8.5 64.0625 14.71875 69.140625 
Q 20.953125 74.21875 31.78125 74.21875 
Q 42.671875 74.21875 48.875 69.140625 
Q 55.078125 64.0625 55.078125 55.328125 
Q 55.078125 49.078125 51.53125 44.71875 
Q 48 40.375 41.703125 38.8125 
Q 48.828125 37.15625 52.796875 32.3125 
Q 56.78125 27.484375 56.78125 20.515625 
Q 56.78125 9.90625 50.3125 4.234375 
Q 43.84375 -1.421875 31.78125 -1.421875 
Q 19.734375 -1.421875 13.25 4.234375 
Q 6.78125 9.90625 6.78125 20.515625 
Q 6.78125 27.484375 10.78125 32.3125 
Q 14.796875 37.15625 21.921875 38.8125 
z
M 18.3125 54.390625 
Q 18.3125 48.734375 21.84375 45.5625 
Q 25.390625 42.390625 31.78125 42.390625 
Q 38.140625 42.390625 41.71875 45.5625 
Q 45.3125 48.734375 45.3125 54.390625 
Q 45.3125 60.0625 41.71875 63.234375 
Q 38.140625 66.40625 31.78125 66.40625 
Q 25.390625 66.40625 21.84375 63.234375 
Q 18.3125 60.0625 18.3125 54.390625 
z
" id="DejaVuSans-56"/>
      </defs>
      <g transform="translate(210.219982 187.457813)scale(0.14 -0.14)">
       <use xlink:href="#DejaVuSans-56"/>
       <use x="63.623047" xlink:href="#DejaVuSans-48"/>
       <use x="127.246094" xlink:href="#DejaVuSans-48"/>
       <use x="190.869141" xlink:href="#DejaVuSans-48"/>
      </g>
     </g>
    </g>
    <g id="xtick_5">
     <g id="line2d_5">
      <g>
       <use style="stroke:#000000;stroke-width:0.8;" x="273.256531" xlink:href="#mc96b10151c" y="169.82"/>
      </g>
     </g>
     <g id="text_5">
      <!-- 10000 -->
      <defs>
       <path d="M 12.40625 8.296875 
L 28.515625 8.296875 
L 28.515625 63.921875 
L 10.984375 60.40625 
L 10.984375 69.390625 
L 28.421875 72.90625 
L 38.28125 72.90625 
L 38.28125 8.296875 
L 54.390625 8.296875 
L 54.390625 0 
L 12.40625 0 
z
" id="DejaVuSans-49"/>
      </defs>
      <g transform="translate(250.987781 187.457813)scale(0.14 -0.14)">
       <use xlink:href="#DejaVuSans-49"/>
       <use x="63.623047" xlink:href="#DejaVuSans-48"/>
       <use x="127.246094" xlink:href="#DejaVuSans-48"/>
       <use x="190.869141" xlink:href="#DejaVuSans-48"/>
       <use x="254.492188" xlink:href="#DejaVuSans-48"/>
      </g>
     </g>
    </g>
    <g id="text_6">
     <!-- Price -->
     <defs>
      <path d="M 19.671875 64.796875 
L 19.671875 37.40625 
L 32.078125 37.40625 
Q 38.96875 37.40625 42.71875 40.96875 
Q 46.484375 44.53125 46.484375 51.125 
Q 46.484375 57.671875 42.71875 61.234375 
Q 38.96875 64.796875 32.078125 64.796875 
z
M 9.8125 72.90625 
L 32.078125 72.90625 
Q 44.34375 72.90625 50.609375 67.359375 
Q 56.890625 61.8125 56.890625 51.125 
Q 56.890625 40.328125 50.609375 34.8125 
Q 44.34375 29.296875 32.078125 29.296875 
L 19.671875 29.296875 
L 19.671875 0 
L 9.8125 0 
z
" id="DejaVuSans-80"/>
      <path d="M 41.109375 46.296875 
Q 39.59375 47.171875 37.8125 47.578125 
Q 36.03125 48 33.890625 48 
Q 26.265625 48 22.1875 43.046875 
Q 18.109375 38.09375 18.109375 28.8125 
L 18.109375 0 
L 9.078125 0 
L 9.078125 54.6875 
L 18.109375 54.6875 
L 18.109375 46.1875 
Q 20.953125 51.171875 25.484375 53.578125 
Q 30.03125 56 36.53125 56 
Q 37.453125 56 38.578125 55.875 
Q 39.703125 55.765625 41.0625 55.515625 
z
" id="DejaVuSans-114"/>
      <path d="M 9.421875 54.6875 
L 18.40625 54.6875 
L 18.40625 0 
L 9.421875 0 
z
M 9.421875 75.984375 
L 18.40625 75.984375 
L 18.40625 64.59375 
L 9.421875 64.59375 
z
" id="DejaVuSans-105"/>
      <path d="M 48.78125 52.59375 
L 48.78125 44.1875 
Q 44.96875 46.296875 41.140625 47.34375 
Q 37.3125 48.390625 33.40625 48.390625 
Q 24.65625 48.390625 19.8125 42.84375 
Q 14.984375 37.3125 14.984375 27.296875 
Q 14.984375 17.28125 19.8125 11.734375 
Q 24.65625 6.203125 33.40625 6.203125 
Q 37.3125 6.203125 41.140625 7.25 
Q 44.96875 8.296875 48.78125 10.40625 
L 48.78125 2.09375 
Q 45.015625 0.34375 40.984375 -0.53125 
Q 36.96875 -1.421875 32.421875 -1.421875 
Q 20.0625 -1.421875 12.78125 6.34375 
Q 5.515625 14.109375 5.515625 27.296875 
Q 5.515625 40.671875 12.859375 48.328125 
Q 20.21875 56 33.015625 56 
Q 37.15625 56 41.109375 55.140625 
Q 45.0625 54.296875 48.78125 52.59375 
z
" id="DejaVuSans-99"/>
      <path d="M 56.203125 29.59375 
L 56.203125 25.203125 
L 14.890625 25.203125 
Q 15.484375 15.921875 20.484375 11.0625 
Q 25.484375 6.203125 34.421875 6.203125 
Q 39.59375 6.203125 44.453125 7.46875 
Q 49.3125 8.734375 54.109375 11.28125 
L 54.109375 2.78125 
Q 49.265625 0.734375 44.1875 -0.34375 
Q 39.109375 -1.421875 33.890625 -1.421875 
Q 20.796875 -1.421875 13.15625 6.1875 
Q 5.515625 13.8125 5.515625 26.8125 
Q 5.515625 40.234375 12.765625 48.109375 
Q 20.015625 56 32.328125 56 
Q 43.359375 56 49.78125 48.890625 
Q 56.203125 41.796875 56.203125 29.59375 
z
M 47.21875 32.234375 
Q 47.125 39.59375 43.09375 43.984375 
Q 39.0625 48.390625 32.421875 48.390625 
Q 24.90625 48.390625 20.390625 44.140625 
Q 15.875 39.890625 15.1875 32.171875 
z
" id="DejaVuSans-101"/>
     </defs>
     <g transform="translate(154.58125 205.007188)scale(0.14 -0.14)">
      <use xlink:href="#DejaVuSans-80"/>
      <use x="60.287109" xlink:href="#DejaVuSans-114"/>
      <use x="101.400391" xlink:href="#DejaVuSans-105"/>
      <use x="129.183594" xlink:href="#DejaVuSans-99"/>
      <use x="184.164062" xlink:href="#DejaVuSans-101"/>
     </g>
    </g>
   </g>
   <g id="matplotlib.axis_2">
    <g id="ytick_1">
     <g id="line2d_6">
      <defs>
       <path d="M 0 0 
L -3.5 0 
" id="m5a0c66aa1e" style="stroke:#000000;stroke-width:0.8;"/>
      </defs>
      <g>
       <use style="stroke:#000000;stroke-width:0.8;" x="60.179375" xlink:href="#m5a0c66aa1e" y="169.82"/>
      </g>
     </g>
     <g id="text_7">
      <!-- 0 -->
      <g transform="translate(44.271875 175.138906)scale(0.14 -0.14)">
       <use xlink:href="#DejaVuSans-48"/>
      </g>
     </g>
    </g>
    <g id="ytick_2">
     <g id="line2d_7">
      <g>
       <use style="stroke:#000000;stroke-width:0.8;" x="60.179375" xlink:href="#m5a0c66aa1e" y="128.036829"/>
      </g>
     </g>
     <g id="text_8">
      <!-- 1000 -->
      <g transform="translate(17.549375 133.355736)scale(0.14 -0.14)">
       <use xlink:href="#DejaVuSans-49"/>
       <use x="63.623047" xlink:href="#DejaVuSans-48"/>
       <use x="127.246094" xlink:href="#DejaVuSans-48"/>
       <use x="190.869141" xlink:href="#DejaVuSans-48"/>
      </g>
     </g>
    </g>
    <g id="ytick_3">
     <g id="line2d_8">
      <g>
       <use style="stroke:#000000;stroke-width:0.8;" x="60.179375" xlink:href="#m5a0c66aa1e" y="86.253659"/>
      </g>
     </g>
     <g id="text_9">
      <!-- 2000 -->
      <g transform="translate(17.549375 91.572565)scale(0.14 -0.14)">
       <use xlink:href="#DejaVuSans-50"/>
       <use x="63.623047" xlink:href="#DejaVuSans-48"/>
       <use x="127.246094" xlink:href="#DejaVuSans-48"/>
       <use x="190.869141" xlink:href="#DejaVuSans-48"/>
      </g>
     </g>
    </g>
    <g id="ytick_4">
     <g id="line2d_9">
      <g>
       <use style="stroke:#000000;stroke-width:0.8;" x="60.179375" xlink:href="#m5a0c66aa1e" y="44.470488"/>
      </g>
     </g>
     <g id="text_10">
      <!-- 3000 -->
      <defs>
       <path d="M 40.578125 39.3125 
Q 47.65625 37.796875 51.625 33 
Q 55.609375 28.21875 55.609375 21.1875 
Q 55.609375 10.40625 48.1875 4.484375 
Q 40.765625 -1.421875 27.09375 -1.421875 
Q 22.515625 -1.421875 17.65625 -0.515625 
Q 12.796875 0.390625 7.625 2.203125 
L 7.625 11.71875 
Q 11.71875 9.328125 16.59375 8.109375 
Q 21.484375 6.890625 26.8125 6.890625 
Q 36.078125 6.890625 40.9375 10.546875 
Q 45.796875 14.203125 45.796875 21.1875 
Q 45.796875 27.640625 41.28125 31.265625 
Q 36.765625 34.90625 28.71875 34.90625 
L 20.21875 34.90625 
L 20.21875 43.015625 
L 29.109375 43.015625 
Q 36.375 43.015625 40.234375 45.921875 
Q 44.09375 48.828125 44.09375 54.296875 
Q 44.09375 59.90625 40.109375 62.90625 
Q 36.140625 65.921875 28.71875 65.921875 
Q 24.65625 65.921875 20.015625 65.03125 
Q 15.375 64.15625 9.8125 62.3125 
L 9.8125 71.09375 
Q 15.4375 72.65625 20.34375 73.4375 
Q 25.25 74.21875 29.59375 74.21875 
Q 40.828125 74.21875 47.359375 69.109375 
Q 53.90625 64.015625 53.90625 55.328125 
Q 53.90625 49.265625 50.4375 45.09375 
Q 46.96875 40.921875 40.578125 39.3125 
z
" id="DejaVuSans-51"/>
      </defs>
      <g transform="translate(17.549375 49.789394)scale(0.14 -0.14)">
       <use xlink:href="#DejaVuSans-51"/>
       <use x="63.623047" xlink:href="#DejaVuSans-48"/>
       <use x="127.246094" xlink:href="#DejaVuSans-48"/>
       <use x="190.869141" xlink:href="#DejaVuSans-48"/>
      </g>
     </g>
    </g>
    <g id="text_11">
     <!-- Count of apts -->
     <defs>
      <path d="M 64.40625 67.28125 
L 64.40625 56.890625 
Q 59.421875 61.53125 53.78125 63.8125 
Q 48.140625 66.109375 41.796875 66.109375 
Q 29.296875 66.109375 22.65625 58.46875 
Q 16.015625 50.828125 16.015625 36.375 
Q 16.015625 21.96875 22.65625 14.328125 
Q 29.296875 6.6875 41.796875 6.6875 
Q 48.140625 6.6875 53.78125 8.984375 
Q 59.421875 11.28125 64.40625 15.921875 
L 64.40625 5.609375 
Q 59.234375 2.09375 53.4375 0.328125 
Q 47.65625 -1.421875 41.21875 -1.421875 
Q 24.65625 -1.421875 15.125 8.703125 
Q 5.609375 18.84375 5.609375 36.375 
Q 5.609375 53.953125 15.125 64.078125 
Q 24.65625 74.21875 41.21875 74.21875 
Q 47.75 74.21875 53.53125 72.484375 
Q 59.328125 70.75 64.40625 67.28125 
z
" id="DejaVuSans-67"/>
      <path d="M 30.609375 48.390625 
Q 23.390625 48.390625 19.1875 42.75 
Q 14.984375 37.109375 14.984375 27.296875 
Q 14.984375 17.484375 19.15625 11.84375 
Q 23.34375 6.203125 30.609375 6.203125 
Q 37.796875 6.203125 41.984375 11.859375 
Q 46.1875 17.53125 46.1875 27.296875 
Q 46.1875 37.015625 41.984375 42.703125 
Q 37.796875 48.390625 30.609375 48.390625 
z
M 30.609375 56 
Q 42.328125 56 49.015625 48.375 
Q 55.71875 40.765625 55.71875 27.296875 
Q 55.71875 13.875 49.015625 6.21875 
Q 42.328125 -1.421875 30.609375 -1.421875 
Q 18.84375 -1.421875 12.171875 6.21875 
Q 5.515625 13.875 5.515625 27.296875 
Q 5.515625 40.765625 12.171875 48.375 
Q 18.84375 56 30.609375 56 
z
" id="DejaVuSans-111"/>
      <path d="M 8.5 21.578125 
L 8.5 54.6875 
L 17.484375 54.6875 
L 17.484375 21.921875 
Q 17.484375 14.15625 20.5 10.265625 
Q 23.53125 6.390625 29.59375 6.390625 
Q 36.859375 6.390625 41.078125 11.03125 
Q 45.3125 15.671875 45.3125 23.6875 
L 45.3125 54.6875 
L 54.296875 54.6875 
L 54.296875 0 
L 45.3125 0 
L 45.3125 8.40625 
Q 42.046875 3.421875 37.71875 1 
Q 33.40625 -1.421875 27.6875 -1.421875 
Q 18.265625 -1.421875 13.375 4.4375 
Q 8.5 10.296875 8.5 21.578125 
z
M 31.109375 56 
z
" id="DejaVuSans-117"/>
      <path d="M 54.890625 33.015625 
L 54.890625 0 
L 45.90625 0 
L 45.90625 32.71875 
Q 45.90625 40.484375 42.875 44.328125 
Q 39.84375 48.1875 33.796875 48.1875 
Q 26.515625 48.1875 22.3125 43.546875 
Q 18.109375 38.921875 18.109375 30.90625 
L 18.109375 0 
L 9.078125 0 
L 9.078125 54.6875 
L 18.109375 54.6875 
L 18.109375 46.1875 
Q 21.34375 51.125 25.703125 53.5625 
Q 30.078125 56 35.796875 56 
Q 45.21875 56 50.046875 50.171875 
Q 54.890625 44.34375 54.890625 33.015625 
z
" id="DejaVuSans-110"/>
      <path d="M 18.3125 70.21875 
L 18.3125 54.6875 
L 36.8125 54.6875 
L 36.8125 47.703125 
L 18.3125 47.703125 
L 18.3125 18.015625 
Q 18.3125 11.328125 20.140625 9.421875 
Q 21.96875 7.515625 27.59375 7.515625 
L 36.8125 7.515625 
L 36.8125 0 
L 27.59375 0 
Q 17.1875 0 13.234375 3.875 
Q 9.28125 7.765625 9.28125 18.015625 
L 9.28125 47.703125 
L 2.6875 47.703125 
L 2.6875 54.6875 
L 9.28125 54.6875 
L 9.28125 70.21875 
z
" id="DejaVuSans-116"/>
      <path id="DejaVuSans-32"/>
      <path d="M 37.109375 75.984375 
L 37.109375 68.5 
L 28.515625 68.5 
Q 23.6875 68.5 21.796875 66.546875 
Q 19.921875 64.59375 19.921875 59.515625 
L 19.921875 54.6875 
L 34.71875 54.6875 
L 34.71875 47.703125 
L 19.921875 47.703125 
L 19.921875 0 
L 10.890625 0 
L 10.890625 47.703125 
L 2.296875 47.703125 
L 2.296875 54.6875 
L 10.890625 54.6875 
L 10.890625 58.5 
Q 10.890625 67.625 15.140625 71.796875 
Q 19.390625 75.984375 28.609375 75.984375 
z
" id="DejaVuSans-102"/>
      <path d="M 34.28125 27.484375 
Q 23.390625 27.484375 19.1875 25 
Q 14.984375 22.515625 14.984375 16.5 
Q 14.984375 11.71875 18.140625 8.90625 
Q 21.296875 6.109375 26.703125 6.109375 
Q 34.1875 6.109375 38.703125 11.40625 
Q 43.21875 16.703125 43.21875 25.484375 
L 43.21875 27.484375 
z
M 52.203125 31.203125 
L 52.203125 0 
L 43.21875 0 
L 43.21875 8.296875 
Q 40.140625 3.328125 35.546875 0.953125 
Q 30.953125 -1.421875 24.3125 -1.421875 
Q 15.921875 -1.421875 10.953125 3.296875 
Q 6 8.015625 6 15.921875 
Q 6 25.140625 12.171875 29.828125 
Q 18.359375 34.515625 30.609375 34.515625 
L 43.21875 34.515625 
L 43.21875 35.40625 
Q 43.21875 41.609375 39.140625 45 
Q 35.0625 48.390625 27.6875 48.390625 
Q 23 48.390625 18.546875 47.265625 
Q 14.109375 46.140625 10.015625 43.890625 
L 10.015625 52.203125 
Q 14.9375 54.109375 19.578125 55.046875 
Q 24.21875 56 28.609375 56 
Q 40.484375 56 46.34375 49.84375 
Q 52.203125 43.703125 52.203125 31.203125 
z
" id="DejaVuSans-97"/>
      <path d="M 18.109375 8.203125 
L 18.109375 -20.796875 
L 9.078125 -20.796875 
L 9.078125 54.6875 
L 18.109375 54.6875 
L 18.109375 46.390625 
Q 20.953125 51.265625 25.265625 53.625 
Q 29.59375 56 35.59375 56 
Q 45.5625 56 51.78125 48.09375 
Q 58.015625 40.1875 58.015625 27.296875 
Q 58.015625 14.40625 51.78125 6.484375 
Q 45.5625 -1.421875 35.59375 -1.421875 
Q 29.59375 -1.421875 25.265625 0.953125 
Q 20.953125 3.328125 18.109375 8.203125 
z
M 48.6875 27.296875 
Q 48.6875 37.203125 44.609375 42.84375 
Q 40.53125 48.484375 33.40625 48.484375 
Q 26.265625 48.484375 22.1875 42.84375 
Q 18.109375 37.203125 18.109375 27.296875 
Q 18.109375 17.390625 22.1875 11.75 
Q 26.265625 6.109375 33.40625 6.109375 
Q 40.53125 6.109375 44.609375 11.75 
Q 48.6875 17.390625 48.6875 27.296875 
z
" id="DejaVuSans-112"/>
      <path d="M 44.28125 53.078125 
L 44.28125 44.578125 
Q 40.484375 46.53125 36.375 47.5 
Q 32.28125 48.484375 27.875 48.484375 
Q 21.1875 48.484375 17.84375 46.4375 
Q 14.5 44.390625 14.5 40.28125 
Q 14.5 37.15625 16.890625 35.375 
Q 19.28125 33.59375 26.515625 31.984375 
L 29.59375 31.296875 
Q 39.15625 29.25 43.1875 25.515625 
Q 47.21875 21.78125 47.21875 15.09375 
Q 47.21875 7.46875 41.1875 3.015625 
Q 35.15625 -1.421875 24.609375 -1.421875 
Q 20.21875 -1.421875 15.453125 -0.5625 
Q 10.6875 0.296875 5.421875 2 
L 5.421875 11.28125 
Q 10.40625 8.6875 15.234375 7.390625 
Q 20.0625 6.109375 24.8125 6.109375 
Q 31.15625 6.109375 34.5625 8.28125 
Q 37.984375 10.453125 37.984375 14.40625 
Q 37.984375 18.0625 35.515625 20.015625 
Q 33.0625 21.96875 24.703125 23.78125 
L 21.578125 24.515625 
Q 13.234375 26.265625 9.515625 29.90625 
Q 5.8125 33.546875 5.8125 39.890625 
Q 5.8125 47.609375 11.28125 51.796875 
Q 16.75 56 26.8125 56 
Q 31.78125 56 36.171875 55.265625 
Q 40.578125 54.546875 44.28125 53.078125 
z
" id="DejaVuSans-115"/>
     </defs>
     <g transform="translate(10.637813 133.768906)rotate(-90)scale(0.14 -0.14)">
      <use xlink:href="#DejaVuSans-67"/>
      <use x="69.824219" xlink:href="#DejaVuSans-111"/>
      <use x="131.005859" xlink:href="#DejaVuSans-117"/>
      <use x="194.384766" xlink:href="#DejaVuSans-110"/>
      <use x="257.763672" xlink:href="#DejaVuSans-116"/>
      <use x="296.972656" xlink:href="#DejaVuSans-32"/>
      <use x="328.759766" xlink:href="#DejaVuSans-111"/>
      <use x="389.941406" xlink:href="#DejaVuSans-102"/>
      <use x="425.146484" xlink:href="#DejaVuSans-32"/>
      <use x="456.933594" xlink:href="#DejaVuSans-97"/>
      <use x="518.212891" xlink:href="#DejaVuSans-112"/>
      <use x="581.689453" xlink:href="#DejaVuSans-116"/>
      <use x="620.898438" xlink:href="#DejaVuSans-115"/>
     </g>
    </g>
   </g>
   <g id="patch_53">
    <path d="M 60.179375 169.82 
L 60.179375 3.5 
" style="fill:none;stroke:#000000;stroke-linecap:square;stroke-linejoin:miter;stroke-width:0.8;"/>
   </g>
   <g id="patch_54">
    <path d="M 283.379375 169.82 
L 283.379375 3.5 
" style="fill:none;stroke:#000000;stroke-linecap:square;stroke-linejoin:miter;stroke-width:0.8;"/>
   </g>
   <g id="patch_55">
    <path d="M 60.179375 169.82 
L 283.379375 169.82 
" style="fill:none;stroke:#000000;stroke-linecap:square;stroke-linejoin:miter;stroke-width:0.8;"/>
   </g>
   <g id="patch_56">
    <path d="M 60.179375 3.5 
L 283.379375 3.5 
" style="fill:none;stroke:#000000;stroke-linecap:square;stroke-linejoin:miter;stroke-width:0.8;"/>
   </g>
  </g>
 </g>
 <defs>
  <clipPath id="pe30ae85ddf">
   <rect height="166.32" width="223.2" x="60.179375" y="3.5"/>
  </clipPath>
 </defs>
</svg>
