<?xml version="1.0" encoding="utf-8" standalone="no"?>
<!DOCTYPE svg PUBLIC "-//W3C//DTD SVG 1.1//EN"
  "http://www.w3.org/Graphics/SVG/1.1/DTD/svg11.dtd">
<!-- Created with matplotlib (https://matplotlib.org/) -->
<svg height="121.647656pt" version="1.1" viewBox="0 0 403.366489 121.647656" width="403.366489pt" xmlns="http://www.w3.org/2000/svg" xmlns:xlink="http://www.w3.org/1999/xlink">
 <defs>
  <style type="text/css">
*{stroke-linecap:butt;stroke-linejoin:round;}
  </style>
 </defs>
 <g id="figure_1">
  <g id="patch_1">
   <path d="M -0 121.647656 
L 403.366489 121.647656 
L 403.366489 0 
L -0 0 
z
" style="fill:#ffffff;"/>
  </g>
  <g id="axes_1">
   <g id="patch_2">
    <path d="M 60.179375 83.548906 
L 184.615344 83.548906 
L 184.615344 10.668906 
L 60.179375 10.668906 
z
" style="fill:#ffffff;"/>
   </g>
   <g id="matplotlib.axis_1">
    <g id="xtick_1">
     <g id="line2d_1">
      <defs>
       <path d="M 0 0 
L 0 3.5 
" id="ma51626e2a8" style="stroke:#000000;stroke-width:0.8;"/>
      </defs>
      <g>
       <use style="stroke:#000000;stroke-width:0.8;" x="65.835555" xlink:href="#ma51626e2a8" y="83.548906"/>
      </g>
     </g>
     <g id="text_1">
      <!-- 0 -->
      <defs>
       <path d="M 31.78125 66.40625 
Q 24.171875 66.40625 20.328125 58.90625 
Q 16.5 51.421875 16.5 36.375 
Q 16.5 21.390625 20.328125 13.890625 
Q 24.171875 6.390625 31.78125 6.390625 
Q 39.453125 6.390625 43.28125 13.890625 
Q 47.125 21.390625 47.125 36.375 
Q 47.125 51.421875 43.28125 58.90625 
Q 39.453125 66.40625 31.78125 66.40625 
z
M 31.78125 74.21875 
Q 44.046875 74.21875 50.515625 64.515625 
Q 56.984375 54.828125 56.984375 36.375 
Q 56.984375 17.96875 50.515625 8.265625 
Q 44.046875 -1.421875 31.78125 -1.421875 
Q 19.53125 -1.421875 13.0625 8.265625 
Q 6.59375 17.96875 6.59375 36.375 
Q 6.59375 54.828125 13.0625 64.515625 
Q 19.53125 74.21875 31.78125 74.21875 
z
" id="DejaVuSans-48"/>
      </defs>
      <g transform="translate(61.381805 101.186719)scale(0.14 -0.14)">
       <use xlink:href="#DejaVuSans-48"/>
      </g>
     </g>
    </g>
    <g id="xtick_2">
     <g id="line2d_2">
      <g>
       <use style="stroke:#000000;stroke-width:0.8;" x="136.537811" xlink:href="#ma51626e2a8" y="83.548906"/>
      </g>
     </g>
     <g id="text_2">
      <!-- 5 -->
      <defs>
       <path d="M 10.796875 72.90625 
L 49.515625 72.90625 
L 49.515625 64.59375 
L 19.828125 64.59375 
L 19.828125 46.734375 
Q 21.96875 47.46875 24.109375 47.828125 
Q 26.265625 48.1875 28.421875 48.1875 
Q 40.625 48.1875 47.75 41.5 
Q 54.890625 34.8125 54.890625 23.390625 
Q 54.890625 11.625 47.5625 5.09375 
Q 40.234375 -1.421875 26.90625 -1.421875 
Q 22.3125 -1.421875 17.546875 -0.640625 
Q 12.796875 0.140625 7.71875 1.703125 
L 7.71875 11.625 
Q 12.109375 9.234375 16.796875 8.0625 
Q 21.484375 6.890625 26.703125 6.890625 
Q 35.15625 6.890625 40.078125 11.328125 
Q 45.015625 15.765625 45.015625 23.390625 
Q 45.015625 31 40.078125 35.4375 
Q 35.15625 39.890625 26.703125 39.890625 
Q 22.75 39.890625 18.8125 39.015625 
Q 14.890625 38.140625 10.796875 36.28125 
z
" id="DejaVuSans-53"/>
      </defs>
      <g transform="translate(132.084061 101.186719)scale(0.14 -0.14)">
       <use xlink:href="#DejaVuSans-53"/>
      </g>
     </g>
    </g>
    <g id="text_3">
     <!-- Bedrooms -->
     <defs>
      <path d="M 19.671875 34.8125 
L 19.671875 8.109375 
L 35.5 8.109375 
Q 43.453125 8.109375 47.28125 11.40625 
Q 51.125 14.703125 51.125 21.484375 
Q 51.125 28.328125 47.28125 31.5625 
Q 43.453125 34.8125 35.5 34.8125 
z
M 19.671875 64.796875 
L 19.671875 42.828125 
L 34.28125 42.828125 
Q 41.5 42.828125 45.03125 45.53125 
Q 48.578125 48.25 48.578125 53.8125 
Q 48.578125 59.328125 45.03125 62.0625 
Q 41.5 64.796875 34.28125 64.796875 
z
M 9.8125 72.90625 
L 35.015625 72.90625 
Q 46.296875 72.90625 52.390625 68.21875 
Q 58.5 63.53125 58.5 54.890625 
Q 58.5 48.1875 55.375 44.234375 
Q 52.25 40.28125 46.1875 39.3125 
Q 53.46875 37.75 57.5 32.78125 
Q 61.53125 27.828125 61.53125 20.40625 
Q 61.53125 10.640625 54.890625 5.3125 
Q 48.25 0 35.984375 0 
L 9.8125 0 
z
" id="DejaVuSans-66"/>
      <path d="M 56.203125 29.59375 
L 56.203125 25.203125 
L 14.890625 25.203125 
Q 15.484375 15.921875 20.484375 11.0625 
Q 25.484375 6.203125 34.421875 6.203125 
Q 39.59375 6.203125 44.453125 7.46875 
Q 49.3125 8.734375 54.109375 11.28125 
L 54.109375 2.78125 
Q 49.265625 0.734375 44.1875 -0.34375 
Q 39.109375 -1.421875 33.890625 -1.421875 
Q 20.796875 -1.421875 13.15625 6.1875 
Q 5.515625 13.8125 5.515625 26.8125 
Q 5.515625 40.234375 12.765625 48.109375 
Q 20.015625 56 32.328125 56 
Q 43.359375 56 49.78125 48.890625 
Q 56.203125 41.796875 56.203125 29.59375 
z
M 47.21875 32.234375 
Q 47.125 39.59375 43.09375 43.984375 
Q 39.0625 48.390625 32.421875 48.390625 
Q 24.90625 48.390625 20.390625 44.140625 
Q 15.875 39.890625 15.1875 32.171875 
z
" id="DejaVuSans-101"/>
      <path d="M 45.40625 46.390625 
L 45.40625 75.984375 
L 54.390625 75.984375 
L 54.390625 0 
L 45.40625 0 
L 45.40625 8.203125 
Q 42.578125 3.328125 38.25 0.953125 
Q 33.9375 -1.421875 27.875 -1.421875 
Q 17.96875 -1.421875 11.734375 6.484375 
Q 5.515625 14.40625 5.515625 27.296875 
Q 5.515625 40.1875 11.734375 48.09375 
Q 17.96875 56 27.875 56 
Q 33.9375 56 38.25 53.625 
Q 42.578125 51.265625 45.40625 46.390625 
z
M 14.796875 27.296875 
Q 14.796875 17.390625 18.875 11.75 
Q 22.953125 6.109375 30.078125 6.109375 
Q 37.203125 6.109375 41.296875 11.75 
Q 45.40625 17.390625 45.40625 27.296875 
Q 45.40625 37.203125 41.296875 42.84375 
Q 37.203125 48.484375 30.078125 48.484375 
Q 22.953125 48.484375 18.875 42.84375 
Q 14.796875 37.203125 14.796875 27.296875 
z
" id="DejaVuSans-100"/>
      <path d="M 41.109375 46.296875 
Q 39.59375 47.171875 37.8125 47.578125 
Q 36.03125 48 33.890625 48 
Q 26.265625 48 22.1875 43.046875 
Q 18.109375 38.09375 18.109375 28.8125 
L 18.109375 0 
L 9.078125 0 
L 9.078125 54.6875 
L 18.109375 54.6875 
L 18.109375 46.1875 
Q 20.953125 51.171875 25.484375 53.578125 
Q 30.03125 56 36.53125 56 
Q 37.453125 56 38.578125 55.875 
Q 39.703125 55.765625 41.0625 55.515625 
z
" id="DejaVuSans-114"/>
      <path d="M 30.609375 48.390625 
Q 23.390625 48.390625 19.1875 42.75 
Q 14.984375 37.109375 14.984375 27.296875 
Q 14.984375 17.484375 19.15625 11.84375 
Q 23.34375 6.203125 30.609375 6.203125 
Q 37.796875 6.203125 41.984375 11.859375 
Q 46.1875 17.53125 46.1875 27.296875 
Q 46.1875 37.015625 41.984375 42.703125 
Q 37.796875 48.390625 30.609375 48.390625 
z
M 30.609375 56 
Q 42.328125 56 49.015625 48.375 
Q 55.71875 40.765625 55.71875 27.296875 
Q 55.71875 13.875 49.015625 6.21875 
Q 42.328125 -1.421875 30.609375 -1.421875 
Q 18.84375 -1.421875 12.171875 6.21875 
Q 5.515625 13.875 5.515625 27.296875 
Q 5.515625 40.765625 12.171875 48.375 
Q 18.84375 56 30.609375 56 
z
" id="DejaVuSans-111"/>
      <path d="M 52 44.1875 
Q 55.375 50.25 60.0625 53.125 
Q 64.75 56 71.09375 56 
Q 79.640625 56 84.28125 50.015625 
Q 88.921875 44.046875 88.921875 33.015625 
L 88.921875 0 
L 79.890625 0 
L 79.890625 32.71875 
Q 79.890625 40.578125 77.09375 44.375 
Q 74.3125 48.1875 68.609375 48.1875 
Q 61.625 48.1875 57.5625 43.546875 
Q 53.515625 38.921875 53.515625 30.90625 
L 53.515625 0 
L 44.484375 0 
L 44.484375 32.71875 
Q 44.484375 40.625 41.703125 44.40625 
Q 38.921875 48.1875 33.109375 48.1875 
Q 26.21875 48.1875 22.15625 43.53125 
Q 18.109375 38.875 18.109375 30.90625 
L 18.109375 0 
L 9.078125 0 
L 9.078125 54.6875 
L 18.109375 54.6875 
L 18.109375 46.1875 
Q 21.1875 51.21875 25.484375 53.609375 
Q 29.78125 56 35.6875 56 
Q 41.65625 56 45.828125 52.96875 
Q 50 49.953125 52 44.1875 
z
" id="DejaVuSans-109"/>
      <path d="M 44.28125 53.078125 
L 44.28125 44.578125 
Q 40.484375 46.53125 36.375 47.5 
Q 32.28125 48.484375 27.875 48.484375 
Q 21.1875 48.484375 17.84375 46.4375 
Q 14.5 44.390625 14.5 40.28125 
Q 14.5 37.15625 16.890625 35.375 
Q 19.28125 33.59375 26.515625 31.984375 
L 29.59375 31.296875 
Q 39.15625 29.25 43.1875 25.515625 
Q 47.21875 21.78125 47.21875 15.09375 
Q 47.21875 7.46875 41.1875 3.015625 
Q 35.15625 -1.421875 24.609375 -1.421875 
Q 20.21875 -1.421875 15.453125 -0.5625 
Q 10.6875 0.296875 5.421875 2 
L 5.421875 11.28125 
Q 10.40625 8.6875 15.234375 7.390625 
Q 20.0625 6.109375 24.8125 6.109375 
Q 31.15625 6.109375 34.5625 8.28125 
Q 37.984375 10.453125 37.984375 14.40625 
Q 37.984375 18.0625 35.515625 20.015625 
Q 33.0625 21.96875 24.703125 23.78125 
L 21.578125 24.515625 
Q 13.234375 26.265625 9.515625 29.90625 
Q 5.8125 33.546875 5.8125 39.890625 
Q 5.8125 47.609375 11.28125 51.796875 
Q 16.75 56 26.8125 56 
Q 31.78125 56 36.171875 55.265625 
Q 40.578125 54.546875 44.28125 53.078125 
z
" id="DejaVuSans-115"/>
     </defs>
     <g transform="translate(86.936891 118.736094)scale(0.14 -0.14)">
      <use xlink:href="#DejaVuSans-66"/>
      <use x="68.603516" xlink:href="#DejaVuSans-101"/>
      <use x="130.126953" xlink:href="#DejaVuSans-100"/>
      <use x="193.603516" xlink:href="#DejaVuSans-114"/>
      <use x="234.685547" xlink:href="#DejaVuSans-111"/>
      <use x="295.867188" xlink:href="#DejaVuSans-111"/>
      <use x="357.048828" xlink:href="#DejaVuSans-109"/>
      <use x="454.460938" xlink:href="#DejaVuSans-115"/>
     </g>
    </g>
   </g>
   <g id="matplotlib.axis_2">
    <g id="ytick_1">
     <g id="line2d_3">
      <defs>
       <path d="M 0 0 
L -3.5 0 
" id="m6fe55c9565" style="stroke:#000000;stroke-width:0.8;"/>
      </defs>
      <g>
       <use style="stroke:#000000;stroke-width:0.8;" x="60.179375" xlink:href="#m6fe55c9565" y="79.773377"/>
      </g>
     </g>
     <g id="text_4">
      <!-- 2500 -->
      <defs>
       <path d="M 19.1875 8.296875 
L 53.609375 8.296875 
L 53.609375 0 
L 7.328125 0 
L 7.328125 8.296875 
Q 12.9375 14.109375 22.625 23.890625 
Q 32.328125 33.6875 34.8125 36.53125 
Q 39.546875 41.84375 41.421875 45.53125 
Q 43.3125 49.21875 43.3125 52.78125 
Q 43.3125 58.59375 39.234375 62.25 
Q 35.15625 65.921875 28.609375 65.921875 
Q 23.96875 65.921875 18.8125 64.3125 
Q 13.671875 62.703125 7.8125 59.421875 
L 7.8125 69.390625 
Q 13.765625 71.78125 18.9375 73 
Q 24.125 74.21875 28.421875 74.21875 
Q 39.75 74.21875 46.484375 68.546875 
Q 53.21875 62.890625 53.21875 53.421875 
Q 53.21875 48.921875 51.53125 44.890625 
Q 49.859375 40.875 45.40625 35.40625 
Q 44.1875 33.984375 37.640625 27.21875 
Q 31.109375 20.453125 19.1875 8.296875 
z
" id="DejaVuSans-50"/>
      </defs>
      <g transform="translate(17.549375 85.092283)scale(0.14 -0.14)">
       <use xlink:href="#DejaVuSans-50"/>
       <use x="63.623047" xlink:href="#DejaVuSans-53"/>
       <use x="127.246094" xlink:href="#DejaVuSans-48"/>
       <use x="190.869141" xlink:href="#DejaVuSans-48"/>
      </g>
     </g>
    </g>
    <g id="ytick_2">
     <g id="line2d_4">
      <g>
       <use style="stroke:#000000;stroke-width:0.8;" x="60.179375" xlink:href="#m6fe55c9565" y="51.155828"/>
      </g>
     </g>
     <g id="text_5">
      <!-- 5000 -->
      <g transform="translate(17.549375 56.474735)scale(0.14 -0.14)">
       <use xlink:href="#DejaVuSans-53"/>
       <use x="63.623047" xlink:href="#DejaVuSans-48"/>
       <use x="127.246094" xlink:href="#DejaVuSans-48"/>
       <use x="190.869141" xlink:href="#DejaVuSans-48"/>
      </g>
     </g>
    </g>
    <g id="ytick_3">
     <g id="line2d_5">
      <g>
       <use style="stroke:#000000;stroke-width:0.8;" x="60.179375" xlink:href="#m6fe55c9565" y="22.53828"/>
      </g>
     </g>
     <g id="text_6">
      <!-- 7500 -->
      <defs>
       <path d="M 8.203125 72.90625 
L 55.078125 72.90625 
L 55.078125 68.703125 
L 28.609375 0 
L 18.3125 0 
L 43.21875 64.59375 
L 8.203125 64.59375 
z
" id="DejaVuSans-55"/>
      </defs>
      <g transform="translate(17.549375 27.857187)scale(0.14 -0.14)">
       <use xlink:href="#DejaVuSans-55"/>
       <use x="63.623047" xlink:href="#DejaVuSans-53"/>
       <use x="127.246094" xlink:href="#DejaVuSans-48"/>
       <use x="190.869141" xlink:href="#DejaVuSans-48"/>
      </g>
     </g>
    </g>
    <g id="text_7">
     <!-- Price -->
     <defs>
      <path d="M 19.671875 64.796875 
L 19.671875 37.40625 
L 32.078125 37.40625 
Q 38.96875 37.40625 42.71875 40.96875 
Q 46.484375 44.53125 46.484375 51.125 
Q 46.484375 57.671875 42.71875 61.234375 
Q 38.96875 64.796875 32.078125 64.796875 
z
M 9.8125 72.90625 
L 32.078125 72.90625 
Q 44.34375 72.90625 50.609375 67.359375 
Q 56.890625 61.8125 56.890625 51.125 
Q 56.890625 40.328125 50.609375 34.8125 
Q 44.34375 29.296875 32.078125 29.296875 
L 19.671875 29.296875 
L 19.671875 0 
L 9.8125 0 
z
" id="DejaVuSans-80"/>
      <path d="M 9.421875 54.6875 
L 18.40625 54.6875 
L 18.40625 0 
L 9.421875 0 
z
M 9.421875 75.984375 
L 18.40625 75.984375 
L 18.40625 64.59375 
L 9.421875 64.59375 
z
" id="DejaVuSans-105"/>
      <path d="M 48.78125 52.59375 
L 48.78125 44.1875 
Q 44.96875 46.296875 41.140625 47.34375 
Q 37.3125 48.390625 33.40625 48.390625 
Q 24.65625 48.390625 19.8125 42.84375 
Q 14.984375 37.3125 14.984375 27.296875 
Q 14.984375 17.28125 19.8125 11.734375 
Q 24.65625 6.203125 33.40625 6.203125 
Q 37.3125 6.203125 41.140625 7.25 
Q 44.96875 8.296875 48.78125 10.40625 
L 48.78125 2.09375 
Q 45.015625 0.34375 40.984375 -0.53125 
Q 36.96875 -1.421875 32.421875 -1.421875 
Q 20.0625 -1.421875 12.78125 6.34375 
Q 5.515625 14.109375 5.515625 27.296875 
Q 5.515625 40.671875 12.859375 48.328125 
Q 20.21875 56 33.015625 56 
Q 37.15625 56 41.109375 55.140625 
Q 45.0625 54.296875 48.78125 52.59375 
z
" id="DejaVuSans-99"/>
     </defs>
     <g transform="translate(10.637813 64.307031)rotate(-90)scale(0.14 -0.14)">
      <use xlink:href="#DejaVuSans-80"/>
      <use x="60.287109" xlink:href="#DejaVuSans-114"/>
      <use x="101.400391" xlink:href="#DejaVuSans-105"/>
      <use x="129.183594" xlink:href="#DejaVuSans-99"/>
      <use x="184.164062" xlink:href="#DejaVuSans-101"/>
     </g>
    </g>
   </g>
   <g id="line2d_6">
    <path clip-path="url(#pdcdb2439ad)" d="M 65.835555 80.236179 
L 79.976007 73.479976 
L 94.116458 65.947235 
L 108.256909 57.063681 
L 122.39736 44.990645 
L 136.537811 28.773926 
L 150.678262 17.576634 
L 164.818713 29.14321 
L 178.959164 13.981634 
" style="fill:none;stroke:#4575b4;stroke-linecap:square;stroke-width:1.5;"/>
   </g>
   <g id="patch_3">
    <path d="M 60.179375 83.548906 
L 60.179375 10.668906 
" style="fill:none;stroke:#000000;stroke-linecap:square;stroke-linejoin:miter;stroke-width:0.8;"/>
   </g>
   <g id="patch_4">
    <path d="M 184.615344 83.548906 
L 184.615344 10.668906 
" style="fill:none;stroke:#000000;stroke-linecap:square;stroke-linejoin:miter;stroke-width:0.8;"/>
   </g>
   <g id="patch_5">
    <path d="M 60.179375 83.548906 
L 184.615344 83.548906 
" style="fill:none;stroke:#000000;stroke-linecap:square;stroke-linejoin:miter;stroke-width:0.8;"/>
   </g>
   <g id="patch_6">
    <path d="M 60.179375 10.668906 
L 184.615344 10.668906 
" style="fill:none;stroke:#000000;stroke-linecap:square;stroke-linejoin:miter;stroke-width:0.8;"/>
   </g>
  </g>
  <g id="axes_2">
   <g id="patch_7">
    <path d="M 262.305344 83.548906 
L 386.741314 83.548906 
L 386.741314 10.668906 
L 262.305344 10.668906 
z
" style="fill:#ffffff;"/>
   </g>
   <g id="patch_8">
    <path clip-path="url(#p8cefdd5868)" d="M 267.961525 83.548906 
L 270.223997 83.548906 
L 270.223997 82.743309 
L 267.961525 82.743309 
z
" style="fill:#4575b4;"/>
   </g>
   <g id="patch_9">
    <path clip-path="url(#p8cefdd5868)" d="M 270.223997 83.548906 
L 272.486469 83.548906 
L 272.486469 80.070191 
L 270.223997 80.070191 
z
" style="fill:#4575b4;"/>
   </g>
   <g id="patch_10">
    <path clip-path="url(#p8cefdd5868)" d="M 272.486469 83.548906 
L 274.748941 83.548906 
L 274.748941 71.886056 
L 272.486469 71.886056 
z
" style="fill:#4575b4;"/>
   </g>
   <g id="patch_11">
    <path clip-path="url(#p8cefdd5868)" d="M 274.748941 83.548906 
L 277.011414 83.548906 
L 277.011414 66.832764 
L 274.748941 66.832764 
z
" style="fill:#4575b4;"/>
   </g>
   <g id="patch_12">
    <path clip-path="url(#p8cefdd5868)" d="M 277.011414 83.548906 
L 279.273886 83.548906 
L 279.273886 44.31266 
L 277.011414 44.31266 
z
" style="fill:#4575b4;"/>
   </g>
   <g id="patch_13">
    <path clip-path="url(#p8cefdd5868)" d="M 279.273886 83.548906 
L 281.536358 83.548906 
L 281.536358 38.1059 
L 279.273886 38.1059 
z
" style="fill:#4575b4;"/>
   </g>
   <g id="patch_14">
    <path clip-path="url(#p8cefdd5868)" d="M 281.536358 83.548906 
L 283.79883 83.548906 
L 283.79883 46.601288 
L 281.536358 46.601288 
z
" style="fill:#4575b4;"/>
   </g>
   <g id="patch_15">
    <path clip-path="url(#p8cefdd5868)" d="M 283.79883 83.548906 
L 286.061302 83.548906 
L 286.061302 22.85448 
L 283.79883 22.85448 
z
" style="fill:#4575b4;"/>
   </g>
   <g id="patch_16">
    <path clip-path="url(#p8cefdd5868)" d="M 286.061302 83.548906 
L 288.323774 83.548906 
L 288.323774 17.050518 
L 286.061302 17.050518 
z
" style="fill:#4575b4;"/>
   </g>
   <g id="patch_17">
    <path clip-path="url(#p8cefdd5868)" d="M 288.323774 83.548906 
L 290.586247 83.548906 
L 290.586247 14.139382 
L 288.323774 14.139382 
z
" style="fill:#4575b4;"/>
   </g>
   <g id="patch_18">
    <path clip-path="url(#p8cefdd5868)" d="M 290.586247 83.548906 
L 292.848719 83.548906 
L 292.848719 26.882466 
L 290.586247 26.882466 
z
" style="fill:#4575b4;"/>
   </g>
   <g id="patch_19">
    <path clip-path="url(#p8cefdd5868)" d="M 292.848719 83.548906 
L 295.111191 83.548906 
L 295.111191 34.938438 
L 292.848719 34.938438 
z
" style="fill:#4575b4;"/>
   </g>
   <g id="patch_20">
    <path clip-path="url(#p8cefdd5868)" d="M 295.111191 83.548906 
L 297.373663 83.548906 
L 297.373663 23.898094 
L 295.111191 23.898094 
z
" style="fill:#4575b4;"/>
   </g>
   <g id="patch_21">
    <path clip-path="url(#p8cefdd5868)" d="M 297.373663 83.548906 
L 299.636135 83.548906 
L 299.636135 30.159782 
L 297.373663 30.159782 
z
" style="fill:#4575b4;"/>
   </g>
   <g id="patch_22">
    <path clip-path="url(#p8cefdd5868)" d="M 299.636135 83.548906 
L 301.898607 83.548906 
L 301.898607 40.980417 
L 299.636135 40.980417 
z
" style="fill:#4575b4;"/>
   </g>
   <g id="patch_23">
    <path clip-path="url(#p8cefdd5868)" d="M 301.898607 83.548906 
L 304.16108 83.548906 
L 304.16108 54.089681 
L 301.898607 54.089681 
z
" style="fill:#4575b4;"/>
   </g>
   <g id="patch_24">
    <path clip-path="url(#p8cefdd5868)" d="M 304.16108 83.548906 
L 306.423552 83.548906 
L 306.423552 52.368632 
L 304.16108 52.368632 
z
" style="fill:#4575b4;"/>
   </g>
   <g id="patch_25">
    <path clip-path="url(#p8cefdd5868)" d="M 306.423552 83.548906 
L 308.686024 83.548906 
L 308.686024 61.651309 
L 306.423552 61.651309 
z
" style="fill:#4575b4;"/>
   </g>
   <g id="patch_26">
    <path clip-path="url(#p8cefdd5868)" d="M 308.686024 83.548906 
L 310.948496 83.548906 
L 310.948496 66.448274 
L 308.686024 66.448274 
z
" style="fill:#4575b4;"/>
   </g>
   <g id="patch_27">
    <path clip-path="url(#p8cefdd5868)" d="M 310.948496 83.548906 
L 313.210968 83.548906 
L 313.210968 59.344372 
L 310.948496 59.344372 
z
" style="fill:#4575b4;"/>
   </g>
   <g id="patch_28">
    <path clip-path="url(#p8cefdd5868)" d="M 313.210968 83.548906 
L 315.473441 83.548906 
L 315.473441 71.867747 
L 313.210968 71.867747 
z
" style="fill:#4575b4;"/>
   </g>
   <g id="patch_29">
    <path clip-path="url(#p8cefdd5868)" d="M 315.473441 83.548906 
L 317.735913 83.548906 
L 317.735913 68.114396 
L 315.473441 68.114396 
z
" style="fill:#4575b4;"/>
   </g>
   <g id="patch_30">
    <path clip-path="url(#p8cefdd5868)" d="M 317.735913 83.548906 
L 319.998385 83.548906 
L 319.998385 65.258188 
L 317.735913 65.258188 
z
" style="fill:#4575b4;"/>
   </g>
   <g id="patch_31">
    <path clip-path="url(#p8cefdd5868)" d="M 319.998385 83.548906 
L 322.260857 83.548906 
L 322.260857 72.984597 
L 319.998385 72.984597 
z
" style="fill:#4575b4;"/>
   </g>
   <g id="patch_32">
    <path clip-path="url(#p8cefdd5868)" d="M 322.260857 83.548906 
L 324.523329 83.548906 
L 324.523329 68.755212 
L 322.260857 68.755212 
z
" style="fill:#4575b4;"/>
   </g>
   <g id="patch_33">
    <path clip-path="url(#p8cefdd5868)" d="M 324.523329 83.548906 
L 326.785801 83.548906 
L 326.785801 77.470309 
L 324.523329 77.470309 
z
" style="fill:#4575b4;"/>
   </g>
   <g id="patch_34">
    <path clip-path="url(#p8cefdd5868)" d="M 326.785801 83.548906 
L 329.048274 83.548906 
L 329.048274 75.38308 
L 326.785801 75.38308 
z
" style="fill:#4575b4;"/>
   </g>
   <g id="patch_35">
    <path clip-path="url(#p8cefdd5868)" d="M 329.048274 83.548906 
L 331.310746 83.548906 
L 331.310746 70.348097 
L 329.048274 70.348097 
z
" style="fill:#4575b4;"/>
   </g>
   <g id="patch_36">
    <path clip-path="url(#p8cefdd5868)" d="M 331.310746 83.548906 
L 333.573218 83.548906 
L 333.573218 77.873108 
L 331.310746 77.873108 
z
" style="fill:#4575b4;"/>
   </g>
   <g id="patch_37">
    <path clip-path="url(#p8cefdd5868)" d="M 333.573218 83.548906 
L 335.83569 83.548906 
L 335.83569 77.360455 
L 333.573218 77.360455 
z
" style="fill:#4575b4;"/>
   </g>
   <g id="patch_38">
    <path clip-path="url(#p8cefdd5868)" d="M 335.83569 83.548906 
L 338.098162 83.548906 
L 338.098162 77.232292 
L 335.83569 77.232292 
z
" style="fill:#4575b4;"/>
   </g>
   <g id="patch_39">
    <path clip-path="url(#p8cefdd5868)" d="M 338.098162 83.548906 
L 340.360634 83.548906 
L 340.360634 80.546226 
L 338.098162 80.546226 
z
" style="fill:#4575b4;"/>
   </g>
   <g id="patch_40">
    <path clip-path="url(#p8cefdd5868)" d="M 340.360634 83.548906 
L 342.623107 83.548906 
L 342.623107 80.65608 
L 340.360634 80.65608 
z
" style="fill:#4575b4;"/>
   </g>
   <g id="patch_41">
    <path clip-path="url(#p8cefdd5868)" d="M 342.623107 83.548906 
L 344.885579 83.548906 
L 344.885579 78.898413 
L 342.623107 78.898413 
z
" style="fill:#4575b4;"/>
   </g>
   <g id="patch_42">
    <path clip-path="url(#p8cefdd5868)" d="M 344.885579 83.548906 
L 347.148051 83.548906 
L 347.148051 80.711007 
L 344.885579 80.711007 
z
" style="fill:#4575b4;"/>
   </g>
   <g id="patch_43">
    <path clip-path="url(#p8cefdd5868)" d="M 347.148051 83.548906 
L 349.410523 83.548906 
L 349.410523 82.029257 
L 347.148051 82.029257 
z
" style="fill:#4575b4;"/>
   </g>
   <g id="patch_44">
    <path clip-path="url(#p8cefdd5868)" d="M 349.410523 83.548906 
L 351.672995 83.548906 
L 351.672995 80.967333 
L 349.410523 80.967333 
z
" style="fill:#4575b4;"/>
   </g>
   <g id="patch_45">
    <path clip-path="url(#p8cefdd5868)" d="M 351.672995 83.548906 
L 353.935467 83.548906 
L 353.935467 82.120802 
L 351.672995 82.120802 
z
" style="fill:#4575b4;"/>
   </g>
   <g id="patch_46">
    <path clip-path="url(#p8cefdd5868)" d="M 353.935467 83.548906 
L 356.19794 83.548906 
L 356.19794 79.099813 
L 353.935467 79.099813 
z
" style="fill:#4575b4;"/>
   </g>
   <g id="patch_47">
    <path clip-path="url(#p8cefdd5868)" d="M 356.19794 83.548906 
L 358.460412 83.548906 
L 358.460412 82.725 
L 356.19794 82.725 
z
" style="fill:#4575b4;"/>
   </g>
   <g id="patch_48">
    <path clip-path="url(#p8cefdd5868)" d="M 358.460412 83.548906 
L 360.722884 83.548906 
L 360.722884 82.798236 
L 358.460412 82.798236 
z
" style="fill:#4575b4;"/>
   </g>
   <g id="patch_49">
    <path clip-path="url(#p8cefdd5868)" d="M 360.722884 83.548906 
L 362.985356 83.548906 
L 362.985356 81.901094 
L 360.722884 81.901094 
z
" style="fill:#4575b4;"/>
   </g>
   <g id="patch_50">
    <path clip-path="url(#p8cefdd5868)" d="M 362.985356 83.548906 
L 365.247828 83.548906 
L 365.247828 83.237653 
L 362.985356 83.237653 
z
" style="fill:#4575b4;"/>
   </g>
   <g id="patch_51">
    <path clip-path="url(#p8cefdd5868)" d="M 365.247828 83.548906 
L 367.5103 83.548906 
L 367.5103 82.578528 
L 365.247828 82.578528 
z
" style="fill:#4575b4;"/>
   </g>
   <g id="patch_52">
    <path clip-path="url(#p8cefdd5868)" d="M 367.5103 83.548906 
L 369.772773 83.548906 
L 369.772773 81.644767 
L 367.5103 81.644767 
z
" style="fill:#4575b4;"/>
   </g>
   <g id="patch_53">
    <path clip-path="url(#p8cefdd5868)" d="M 369.772773 83.548906 
L 372.035245 83.548906 
L 372.035245 83.164417 
L 369.772773 83.164417 
z
" style="fill:#4575b4;"/>
   </g>
   <g id="patch_54">
    <path clip-path="url(#p8cefdd5868)" d="M 372.035245 83.548906 
L 374.297717 83.548906 
L 374.297717 83.237653 
L 372.035245 83.237653 
z
" style="fill:#4575b4;"/>
   </g>
   <g id="patch_55">
    <path clip-path="url(#p8cefdd5868)" d="M 374.297717 83.548906 
L 376.560189 83.548906 
L 376.560189 82.413747 
L 374.297717 82.413747 
z
" style="fill:#4575b4;"/>
   </g>
   <g id="patch_56">
    <path clip-path="url(#p8cefdd5868)" d="M 376.560189 83.548906 
L 378.822661 83.548906 
L 378.822661 83.29258 
L 376.560189 83.29258 
z
" style="fill:#4575b4;"/>
   </g>
   <g id="patch_57">
    <path clip-path="url(#p8cefdd5868)" d="M 378.822661 83.548906 
L 381.085134 83.548906 
L 381.085134 83.091181 
L 378.822661 83.091181 
z
" style="fill:#4575b4;"/>
   </g>
   <g id="matplotlib.axis_3">
    <g id="xtick_3">
     <g id="line2d_7">
      <g>
       <use style="stroke:#000000;stroke-width:0.8;" x="318.069208" xlink:href="#ma51626e2a8" y="83.548906"/>
      </g>
     </g>
     <g id="text_8">
      <!-- 5000 -->
      <g transform="translate(300.254208 101.186719)scale(0.14 -0.14)">
       <use xlink:href="#DejaVuSans-53"/>
       <use x="63.623047" xlink:href="#DejaVuSans-48"/>
       <use x="127.246094" xlink:href="#DejaVuSans-48"/>
       <use x="190.869141" xlink:href="#DejaVuSans-48"/>
      </g>
     </g>
    </g>
    <g id="xtick_4">
     <g id="line2d_8">
      <g>
       <use style="stroke:#000000;stroke-width:0.8;" x="381.097739" xlink:href="#ma51626e2a8" y="83.548906"/>
      </g>
     </g>
     <g id="text_9">
      <!-- 10000 -->
      <defs>
       <path d="M 12.40625 8.296875 
L 28.515625 8.296875 
L 28.515625 63.921875 
L 10.984375 60.40625 
L 10.984375 69.390625 
L 28.421875 72.90625 
L 38.28125 72.90625 
L 38.28125 8.296875 
L 54.390625 8.296875 
L 54.390625 0 
L 12.40625 0 
z
" id="DejaVuSans-49"/>
      </defs>
      <g transform="translate(358.828989 101.186719)scale(0.14 -0.14)">
       <use xlink:href="#DejaVuSans-49"/>
       <use x="63.623047" xlink:href="#DejaVuSans-48"/>
       <use x="127.246094" xlink:href="#DejaVuSans-48"/>
       <use x="190.869141" xlink:href="#DejaVuSans-48"/>
       <use x="254.492188" xlink:href="#DejaVuSans-48"/>
      </g>
     </g>
    </g>
    <g id="text_10">
     <!-- Price -->
     <g transform="translate(307.325204 118.736094)scale(0.14 -0.14)">
      <use xlink:href="#DejaVuSans-80"/>
      <use x="60.287109" xlink:href="#DejaVuSans-114"/>
      <use x="101.400391" xlink:href="#DejaVuSans-105"/>
      <use x="129.183594" xlink:href="#DejaVuSans-99"/>
      <use x="184.164062" xlink:href="#DejaVuSans-101"/>
     </g>
    </g>
   </g>
   <g id="matplotlib.axis_4">
    <g id="ytick_4">
     <g id="line2d_9">
      <g>
       <use style="stroke:#000000;stroke-width:0.8;" x="262.305344" xlink:href="#m6fe55c9565" y="83.548906"/>
      </g>
     </g>
     <g id="text_11">
      <!-- 0 -->
      <g transform="translate(246.397844 88.867813)scale(0.14 -0.14)">
       <use xlink:href="#DejaVuSans-48"/>
      </g>
     </g>
    </g>
    <g id="ytick_5">
     <g id="line2d_10">
      <g>
       <use style="stroke:#000000;stroke-width:0.8;" x="262.305344" xlink:href="#m6fe55c9565" y="46.930851"/>
      </g>
     </g>
     <g id="text_12">
      <!-- 2000 -->
      <g transform="translate(219.675344 52.249757)scale(0.14 -0.14)">
       <use xlink:href="#DejaVuSans-50"/>
       <use x="63.623047" xlink:href="#DejaVuSans-48"/>
       <use x="127.246094" xlink:href="#DejaVuSans-48"/>
       <use x="190.869141" xlink:href="#DejaVuSans-48"/>
      </g>
     </g>
    </g>
    <g id="ytick_6">
     <g id="line2d_11">
      <g>
       <use style="stroke:#000000;stroke-width:0.8;" x="262.305344" xlink:href="#m6fe55c9565" y="10.312796"/>
      </g>
     </g>
     <g id="text_13">
      <!-- 4000 -->
      <defs>
       <path d="M 37.796875 64.3125 
L 12.890625 25.390625 
L 37.796875 25.390625 
z
M 35.203125 72.90625 
L 47.609375 72.90625 
L 47.609375 25.390625 
L 58.015625 25.390625 
L 58.015625 17.1875 
L 47.609375 17.1875 
L 47.609375 0 
L 37.796875 0 
L 37.796875 17.1875 
L 4.890625 17.1875 
L 4.890625 26.703125 
z
" id="DejaVuSans-52"/>
      </defs>
      <g transform="translate(219.675344 15.631702)scale(0.14 -0.14)">
       <use xlink:href="#DejaVuSans-52"/>
       <use x="63.623047" xlink:href="#DejaVuSans-48"/>
       <use x="127.246094" xlink:href="#DejaVuSans-48"/>
       <use x="190.869141" xlink:href="#DejaVuSans-48"/>
      </g>
     </g>
    </g>
    <g id="text_14">
     <!-- Count of apts -->
     <defs>
      <path d="M 64.40625 67.28125 
L 64.40625 56.890625 
Q 59.421875 61.53125 53.78125 63.8125 
Q 48.140625 66.109375 41.796875 66.109375 
Q 29.296875 66.109375 22.65625 58.46875 
Q 16.015625 50.828125 16.015625 36.375 
Q 16.015625 21.96875 22.65625 14.328125 
Q 29.296875 6.6875 41.796875 6.6875 
Q 48.140625 6.6875 53.78125 8.984375 
Q 59.421875 11.28125 64.40625 15.921875 
L 64.40625 5.609375 
Q 59.234375 2.09375 53.4375 0.328125 
Q 47.65625 -1.421875 41.21875 -1.421875 
Q 24.65625 -1.421875 15.125 8.703125 
Q 5.609375 18.84375 5.609375 36.375 
Q 5.609375 53.953125 15.125 64.078125 
Q 24.65625 74.21875 41.21875 74.21875 
Q 47.75 74.21875 53.53125 72.484375 
Q 59.328125 70.75 64.40625 67.28125 
z
" id="DejaVuSans-67"/>
      <path d="M 8.5 21.578125 
L 8.5 54.6875 
L 17.484375 54.6875 
L 17.484375 21.921875 
Q 17.484375 14.15625 20.5 10.265625 
Q 23.53125 6.390625 29.59375 6.390625 
Q 36.859375 6.390625 41.078125 11.03125 
Q 45.3125 15.671875 45.3125 23.6875 
L 45.3125 54.6875 
L 54.296875 54.6875 
L 54.296875 0 
L 45.3125 0 
L 45.3125 8.40625 
Q 42.046875 3.421875 37.71875 1 
Q 33.40625 -1.421875 27.6875 -1.421875 
Q 18.265625 -1.421875 13.375 4.4375 
Q 8.5 10.296875 8.5 21.578125 
z
M 31.109375 56 
z
" id="DejaVuSans-117"/>
      <path d="M 54.890625 33.015625 
L 54.890625 0 
L 45.90625 0 
L 45.90625 32.71875 
Q 45.90625 40.484375 42.875 44.328125 
Q 39.84375 48.1875 33.796875 48.1875 
Q 26.515625 48.1875 22.3125 43.546875 
Q 18.109375 38.921875 18.109375 30.90625 
L 18.109375 0 
L 9.078125 0 
L 9.078125 54.6875 
L 18.109375 54.6875 
L 18.109375 46.1875 
Q 21.34375 51.125 25.703125 53.5625 
Q 30.078125 56 35.796875 56 
Q 45.21875 56 50.046875 50.171875 
Q 54.890625 44.34375 54.890625 33.015625 
z
" id="DejaVuSans-110"/>
      <path d="M 18.3125 70.21875 
L 18.3125 54.6875 
L 36.8125 54.6875 
L 36.8125 47.703125 
L 18.3125 47.703125 
L 18.3125 18.015625 
Q 18.3125 11.328125 20.140625 9.421875 
Q 21.96875 7.515625 27.59375 7.515625 
L 36.8125 7.515625 
L 36.8125 0 
L 27.59375 0 
Q 17.1875 0 13.234375 3.875 
Q 9.28125 7.765625 9.28125 18.015625 
L 9.28125 47.703125 
L 2.6875 47.703125 
L 2.6875 54.6875 
L 9.28125 54.6875 
L 9.28125 70.21875 
z
" id="DejaVuSans-116"/>
      <path id="DejaVuSans-32"/>
      <path d="M 37.109375 75.984375 
L 37.109375 68.5 
L 28.515625 68.5 
Q 23.6875 68.5 21.796875 66.546875 
Q 19.921875 64.59375 19.921875 59.515625 
L 19.921875 54.6875 
L 34.71875 54.6875 
L 34.71875 47.703125 
L 19.921875 47.703125 
L 19.921875 0 
L 10.890625 0 
L 10.890625 47.703125 
L 2.296875 47.703125 
L 2.296875 54.6875 
L 10.890625 54.6875 
L 10.890625 58.5 
Q 10.890625 67.625 15.140625 71.796875 
Q 19.390625 75.984375 28.609375 75.984375 
z
" id="DejaVuSans-102"/>
      <path d="M 34.28125 27.484375 
Q 23.390625 27.484375 19.1875 25 
Q 14.984375 22.515625 14.984375 16.5 
Q 14.984375 11.71875 18.140625 8.90625 
Q 21.296875 6.109375 26.703125 6.109375 
Q 34.1875 6.109375 38.703125 11.40625 
Q 43.21875 16.703125 43.21875 25.484375 
L 43.21875 27.484375 
z
M 52.203125 31.203125 
L 52.203125 0 
L 43.21875 0 
L 43.21875 8.296875 
Q 40.140625 3.328125 35.546875 0.953125 
Q 30.953125 -1.421875 24.3125 -1.421875 
Q 15.921875 -1.421875 10.953125 3.296875 
Q 6 8.015625 6 15.921875 
Q 6 25.140625 12.171875 29.828125 
Q 18.359375 34.515625 30.609375 34.515625 
L 43.21875 34.515625 
L 43.21875 35.40625 
Q 43.21875 41.609375 39.140625 45 
Q 35.0625 48.390625 27.6875 48.390625 
Q 23 48.390625 18.546875 47.265625 
Q 14.109375 46.140625 10.015625 43.890625 
L 10.015625 52.203125 
Q 14.9375 54.109375 19.578125 55.046875 
Q 24.21875 56 28.609375 56 
Q 40.484375 56 46.34375 49.84375 
Q 52.203125 43.703125 52.203125 31.203125 
z
" id="DejaVuSans-97"/>
      <path d="M 18.109375 8.203125 
L 18.109375 -20.796875 
L 9.078125 -20.796875 
L 9.078125 54.6875 
L 18.109375 54.6875 
L 18.109375 46.390625 
Q 20.953125 51.265625 25.265625 53.625 
Q 29.59375 56 35.59375 56 
Q 45.5625 56 51.78125 48.09375 
Q 58.015625 40.1875 58.015625 27.296875 
Q 58.015625 14.40625 51.78125 6.484375 
Q 45.5625 -1.421875 35.59375 -1.421875 
Q 29.59375 -1.421875 25.265625 0.953125 
Q 20.953125 3.328125 18.109375 8.203125 
z
M 48.6875 27.296875 
Q 48.6875 37.203125 44.609375 42.84375 
Q 40.53125 48.484375 33.40625 48.484375 
Q 26.265625 48.484375 22.1875 42.84375 
Q 18.109375 37.203125 18.109375 27.296875 
Q 18.109375 17.390625 22.1875 11.75 
Q 26.265625 6.109375 33.40625 6.109375 
Q 40.53125 6.109375 44.609375 11.75 
Q 48.6875 17.390625 48.6875 27.296875 
z
" id="DejaVuSans-112"/>
     </defs>
     <g transform="translate(212.763782 94.217813)rotate(-90)scale(0.14 -0.14)">
      <use xlink:href="#DejaVuSans-67"/>
      <use x="69.824219" xlink:href="#DejaVuSans-111"/>
      <use x="131.005859" xlink:href="#DejaVuSans-117"/>
      <use x="194.384766" xlink:href="#DejaVuSans-110"/>
      <use x="257.763672" xlink:href="#DejaVuSans-116"/>
      <use x="296.972656" xlink:href="#DejaVuSans-32"/>
      <use x="328.759766" xlink:href="#DejaVuSans-111"/>
      <use x="389.941406" xlink:href="#DejaVuSans-102"/>
      <use x="425.146484" xlink:href="#DejaVuSans-32"/>
      <use x="456.933594" xlink:href="#DejaVuSans-97"/>
      <use x="518.212891" xlink:href="#DejaVuSans-112"/>
      <use x="581.689453" xlink:href="#DejaVuSans-116"/>
      <use x="620.898438" xlink:href="#DejaVuSans-115"/>
     </g>
    </g>
   </g>
   <g id="patch_58">
    <path d="M 262.305344 83.548906 
L 262.305344 10.668906 
" style="fill:none;stroke:#000000;stroke-linecap:square;stroke-linejoin:miter;stroke-width:0.8;"/>
   </g>
   <g id="patch_59">
    <path d="M 386.741314 83.548906 
L 386.741314 10.668906 
" style="fill:none;stroke:#000000;stroke-linecap:square;stroke-linejoin:miter;stroke-width:0.8;"/>
   </g>
   <g id="patch_60">
    <path d="M 262.305344 83.548906 
L 386.741314 83.548906 
" style="fill:none;stroke:#000000;stroke-linecap:square;stroke-linejoin:miter;stroke-width:0.8;"/>
   </g>
   <g id="patch_61">
    <path d="M 262.305344 10.668906 
L 386.741314 10.668906 
" style="fill:none;stroke:#000000;stroke-linecap:square;stroke-linejoin:miter;stroke-width:0.8;"/>
   </g>
  </g>
 </g>
 <defs>
  <clipPath id="pdcdb2439ad">
   <rect height="72.88" width="124.435969" x="60.179375" y="10.668906"/>
  </clipPath>
  <clipPath id="p8cefdd5868">
   <rect height="72.88" width="124.435969" x="262.305344" y="10.668906"/>
  </clipPath>
 </defs>
</svg>
